<?xml version="1.0" encoding="UTF-8" standalone="no"?><svg xmlns="http://www.w3.org/2000/svg" xmlns:xlink="http://www.w3.org/1999/xlink" contentScriptType="application/ecmascript" contentStyleType="text/css" height="1025px" preserveAspectRatio="none" style="width:503px;height:1025px;" version="1.1" viewBox="0 0 503 1025" width="503px" zoomAndPan="magnify"><defs><filter height="300%" id="f1cw6dhqihxshr" width="300%" x="-1" y="-1"><feGaussianBlur result="blurOut" stdDeviation="2.0"/><feColorMatrix in="blurOut" result="blurOut2" type="matrix" values="0 0 0 0 0 0 0 0 0 0 0 0 0 0 0 0 0 0 .4 0"/><feOffset dx="4.0" dy="4.0" in="blurOut2" result="blurOut3"/><feBlend in="SourceGraphic" in2="blurOut3" mode="normal"/></filter></defs><g><!--MD5=[121a8bf1197281ab89ed693fab589f94]
cluster Domain--><polygon fill="#DDDDDD" filter="url(#f1cw6dhqihxshr)" points="161,277,219,277,226,299.7999,335,299.7999,335,761.5,161,761.5,161,277" style="stroke:#000000;stroke-width:1.5;"/><line style="stroke:#000000;stroke-width:1.5;" x1="161" x2="226" y1="299.7999" y2="299.7999"/><text fill="#000000" font-family="sans-serif" font-size="14" font-weight="bold" lengthAdjust="spacing" textLength="52" x="165" y="292.0059">Domain</text><!--MD5=[8806974d57b2c4788e3e5f4a15d5fc7d]
cluster BarcodeAPI--><polygon fill="#DDDDDD" filter="url(#f1cw6dhqihxshr)" points="16,794.5,102,794.5,109,817.2999,330,817.2999,330,1018.5,16,1018.5,16,794.5" style="stroke:#000000;stroke-width:1.5;"/><line style="stroke:#000000;stroke-width:1.5;" x1="16" x2="109" y1="817.2999" y2="817.2999"/><text fill="#000000" font-family="sans-serif" font-size="14" font-weight="bold" lengthAdjust="spacing" textLength="80" x="20" y="809.5059">BarcodeAPI</text><!--MD5=[02e4b9b7573f1156f41e60aa5b4e25a4]
class Company--><rect codeLine="14" fill="#FEFECE" filter="url(#f1cw6dhqihxshr)" height="61.1999" id="Company" style="stroke:#A80036;stroke-width:1.5;" width="131" x="183.5" y="312"/><ellipse cx="219.2" cy="328" fill="#ADD1B2" rx="11" ry="11" style="stroke:#A80036;stroke-width:1.0;"/><path d="M214.2,329.1563 C214.2,331.6563 216.3406,333.4688 219.2625,333.4688 C220.4969,333.4688 221.6688,333.1719 222.4188,332.6563 C223.0281,332.2344 223.3563,331.8125 223.3563,331.4063 C223.3563,330.9375 222.9344,330.5313 222.4344,330.5313 C222.2,330.5313 221.9813,330.6094 221.7781,330.8125 C221.3406,331.25 221.3406,331.25 221.1688,331.3438 C220.7156,331.5781 220.075,331.7188 219.3094,331.7188 C217.3094,331.7188 216.0281,330.7031 216.0281,329.125 L216.0281,328.0781 C216.0281,326.375 217.2469,325.1719 218.95,325.1719 C219.5281,325.1719 220.1063,325.3125 220.575,325.5625 C221.0438,325.8281 221.2156,326.0156 221.2781,326.375 C221.4031,327.0469 221.6531,327.2969 222.1844,327.2969 C222.4656,327.2969 222.7469,327.1563 222.9344,326.9375 C223.0594,326.7656 223.1063,326.5938 223.1063,326.1563 L223.1063,324.7969 C223.1063,324.375 223.0906,324.2344 222.9656,324.0625 C222.7938,323.8125 222.5125,323.6563 222.1844,323.6563 C221.8719,323.6563 221.6688,323.7656 221.45,324.0313 C220.2781,323.5313 219.8406,323.4219 218.8875,323.4219 C216.2156,323.4219 214.2,325.4375 214.2,328.0625 L214.2,329.1563 Z " fill="#000000"/><text fill="#000000" font-family="sans-serif" font-size="12" lengthAdjust="spacing" textLength="53" x="237.8" y="331.948">Company</text><line style="stroke:#A80036;stroke-width:1.5;" x1="184.5" x2="313.5" y1="344" y2="344"/><line style="stroke:#A80036;stroke-width:1.5;" x1="184.5" x2="313.5" y1="352" y2="352"/><ellipse cx="194.5" cy="363" fill="#84BE84" rx="3" ry="3" style="stroke:#038048;stroke-width:1.0;"/><text fill="#000000" font-family="sans-serif" font-size="11" lengthAdjust="spacing" textLength="105" x="203.5" y="366.2189">List&lt;Test&gt; getTests()</text><!--MD5=[df38be88ccee13e832d6fafd6288a4ca]
class Test--><rect codeLine="17" fill="#FEFECE" filter="url(#f1cw6dhqihxshr)" height="74.3998" id="Test" style="stroke:#A80036;stroke-width:1.5;" width="138" x="180" y="440.5"/><ellipse cx="233.25" cy="456.5" fill="#ADD1B2" rx="11" ry="11" style="stroke:#A80036;stroke-width:1.0;"/><path d="M228.25,457.6563 C228.25,460.1563 230.3906,461.9688 233.3125,461.9688 C234.5469,461.9688 235.7188,461.6719 236.4688,461.1563 C237.0781,460.7344 237.4063,460.3125 237.4063,459.9063 C237.4063,459.4375 236.9844,459.0313 236.4844,459.0313 C236.25,459.0313 236.0313,459.1094 235.8281,459.3125 C235.3906,459.75 235.3906,459.75 235.2188,459.8438 C234.7656,460.0781 234.125,460.2188 233.3594,460.2188 C231.3594,460.2188 230.0781,459.2031 230.0781,457.625 L230.0781,456.5781 C230.0781,454.875 231.2969,453.6719 233,453.6719 C233.5781,453.6719 234.1563,453.8125 234.625,454.0625 C235.0938,454.3281 235.2656,454.5156 235.3281,454.875 C235.4531,455.5469 235.7031,455.7969 236.2344,455.7969 C236.5156,455.7969 236.7969,455.6563 236.9844,455.4375 C237.1094,455.2656 237.1563,455.0938 237.1563,454.6563 L237.1563,453.2969 C237.1563,452.875 237.1406,452.7344 237.0156,452.5625 C236.8438,452.3125 236.5625,452.1563 236.2344,452.1563 C235.9219,452.1563 235.7188,452.2656 235.5,452.5313 C234.3281,452.0313 233.8906,451.9219 232.9375,451.9219 C230.2656,451.9219 228.25,453.9375 228.25,456.5625 L228.25,457.6563 Z " fill="#000000"/><text fill="#000000" font-family="sans-serif" font-size="12" lengthAdjust="spacing" textLength="23" x="253.75" y="460.448">Test</text><line style="stroke:#A80036;stroke-width:1.5;" x1="181" x2="317" y1="472.5" y2="472.5"/><rect fill="none" height="6" style="stroke:#C82930;stroke-width:1.0;" width="6" x="188" y="480.5"/><text fill="#000000" font-family="sans-serif" font-size="11" lengthAdjust="spacing" textLength="110" x="200" y="486.7189">LocalDate sampleDate</text><rect fill="none" height="6" style="stroke:#C82930;stroke-width:1.0;" width="6" x="188" y="493.6999"/><text fill="#000000" font-family="sans-serif" font-size="11" lengthAdjust="spacing" textLength="112" x="200" y="499.9188">LocalTime sampleTime</text><line style="stroke:#A80036;stroke-width:1.5;" x1="181" x2="317" y1="506.8998" y2="506.8998"/><!--MD5=[9681492165142af2a4a3a169d90ee8d4]
class Sample--><rect codeLine="21" fill="#FEFECE" filter="url(#f1cw6dhqihxshr)" height="48" id="Sample" style="stroke:#A80036;stroke-width:1.5;" width="74" x="211" y="575.5"/><ellipse cx="226" cy="591.5" fill="#ADD1B2" rx="11" ry="11" style="stroke:#A80036;stroke-width:1.0;"/><path d="M221,592.6563 C221,595.1563 223.1406,596.9688 226.0625,596.9688 C227.2969,596.9688 228.4688,596.6719 229.2188,596.1563 C229.8281,595.7344 230.1563,595.3125 230.1563,594.9063 C230.1563,594.4375 229.7344,594.0313 229.2344,594.0313 C229,594.0313 228.7813,594.1094 228.5781,594.3125 C228.1406,594.75 228.1406,594.75 227.9688,594.8438 C227.5156,595.0781 226.875,595.2188 226.1094,595.2188 C224.1094,595.2188 222.8281,594.2031 222.8281,592.625 L222.8281,591.5781 C222.8281,589.875 224.0469,588.6719 225.75,588.6719 C226.3281,588.6719 226.9063,588.8125 227.375,589.0625 C227.8438,589.3281 228.0156,589.5156 228.0781,589.875 C228.2031,590.5469 228.4531,590.7969 228.9844,590.7969 C229.2656,590.7969 229.5469,590.6563 229.7344,590.4375 C229.8594,590.2656 229.9063,590.0938 229.9063,589.6563 L229.9063,588.2969 C229.9063,587.875 229.8906,587.7344 229.7656,587.5625 C229.5938,587.3125 229.3125,587.1563 228.9844,587.1563 C228.6719,587.1563 228.4688,587.2656 228.25,587.5313 C227.0781,587.0313 226.6406,586.9219 225.6875,586.9219 C223.0156,586.9219 221,588.9375 221,591.5625 L221,592.6563 Z " fill="#000000"/><text fill="#000000" font-family="sans-serif" font-size="12" lengthAdjust="spacing" textLength="42" x="240" y="595.448">Sample</text><line style="stroke:#A80036;stroke-width:1.5;" x1="212" x2="284" y1="607.5" y2="607.5"/><line style="stroke:#A80036;stroke-width:1.5;" x1="212" x2="284" y1="615.5" y2="615.5"/><!--MD5=[e59bda2572a266093cda22ac34510ea0]
class Barcode--><rect codeLine="24" fill="#FEFECE" filter="url(#f1cw6dhqihxshr)" height="61.1999" id="Barcode" style="stroke:#A80036;stroke-width:1.5;" width="142" x="177" y="684.5"/><ellipse cx="220.8" cy="700.5" fill="#ADD1B2" rx="11" ry="11" style="stroke:#A80036;stroke-width:1.0;"/><path d="M215.8,701.6563 C215.8,704.1563 217.9406,705.9688 220.8625,705.9688 C222.0969,705.9688 223.2688,705.6719 224.0188,705.1563 C224.6281,704.7344 224.9563,704.3125 224.9563,703.9063 C224.9563,703.4375 224.5344,703.0313 224.0344,703.0313 C223.8,703.0313 223.5813,703.1094 223.3781,703.3125 C222.9406,703.75 222.9406,703.75 222.7688,703.8438 C222.3156,704.0781 221.675,704.2188 220.9094,704.2188 C218.9094,704.2188 217.6281,703.2031 217.6281,701.625 L217.6281,700.5781 C217.6281,698.875 218.8469,697.6719 220.55,697.6719 C221.1281,697.6719 221.7063,697.8125 222.175,698.0625 C222.6438,698.3281 222.8156,698.5156 222.8781,698.875 C223.0031,699.5469 223.2531,699.7969 223.7844,699.7969 C224.0656,699.7969 224.3469,699.6563 224.5344,699.4375 C224.6594,699.2656 224.7063,699.0938 224.7063,698.6563 L224.7063,697.2969 C224.7063,696.875 224.6906,696.7344 224.5656,696.5625 C224.3938,696.3125 224.1125,696.1563 223.7844,696.1563 C223.4719,696.1563 223.2688,696.2656 223.05,696.5313 C221.8781,696.0313 221.4406,695.9219 220.4875,695.9219 C217.8156,695.9219 215.8,697.9375 215.8,700.5625 L215.8,701.6563 Z " fill="#000000"/><text fill="#000000" font-family="sans-serif" font-size="12" lengthAdjust="spacing" textLength="46" x="241.2" y="704.448">Barcode</text><line style="stroke:#A80036;stroke-width:1.5;" x1="178" x2="318" y1="716.5" y2="716.5"/><line style="stroke:#A80036;stroke-width:1.5;" x1="178" x2="318" y1="724.5" y2="724.5"/><rect fill="#F24D5C" height="6" style="stroke:#C82930;stroke-width:1.0;" width="6" x="185" y="732.5"/><text fill="#000000" font-family="sans-serif" font-size="11" lengthAdjust="spacing" textLength="116" x="197" y="738.7189">generateBarcode(code)</text><!--MD5=[aaaa09dcb1c0ec0279a100feab2d8a7a]
class BarcodeInterface--><rect codeLine="54" fill="#FEFECE" filter="url(#f1cw6dhqihxshr)" height="48" id="BarcodeInterface" style="stroke:#A80036;stroke-width:1.5;" width="125" x="188.5" y="954.5"/><ellipse cx="203.5" cy="970.5" fill="#B4A7E5" rx="11" ry="11" style="stroke:#A80036;stroke-width:1.0;"/><path d="M204.5156,967.6563 L206.1719,967.6563 C206.5625,967.6563 206.7656,967.625 206.9219,967.5469 C207.1875,967.375 207.3594,967.0781 207.3594,966.7813 C207.3594,966.5 207.2188,966.25 206.9844,966.0781 C206.7969,965.9531 206.6406,965.9063 206.1719,965.9063 L201.0313,965.9063 C200.5938,965.9063 200.4531,965.9219 200.2813,966.0313 C200.0156,966.2031 199.8438,966.4844 199.8438,966.7813 C199.8438,967.0625 199.9844,967.3438 200.2188,967.5 C200.4063,967.625 200.5938,967.6563 201.0313,967.6563 L202.6875,967.6563 L202.6875,973.75 L201.0313,973.75 C200.5938,973.75 200.4531,973.7656 200.2813,973.875 C200.0156,974.0313 199.8438,974.3281 199.8438,974.6094 C199.8438,975.2188 200.25,975.5 201.0313,975.5 L206.1719,975.5 C206.9531,975.5 207.3594,975.2188 207.3594,974.6094 C207.3594,974.3438 207.2188,974.0938 206.9844,973.9219 C206.7969,973.7813 206.625,973.75 206.1719,973.75 L204.5156,973.75 L204.5156,967.6563 Z " fill="#000000"/><text fill="#000000" font-family="sans-serif" font-size="12" font-style="italic" lengthAdjust="spacing" textLength="93" x="217.5" y="975.6">BarcodeInterface</text><line style="stroke:#A80036;stroke-width:1.5;" x1="189.5" x2="312.5" y1="986.5" y2="986.5"/><line style="stroke:#A80036;stroke-width:1.5;" x1="189.5" x2="312.5" y1="994.5" y2="994.5"/><!--MD5=[78d471d4be937896b47081b0d7aba860]
class ReflectorUtility--><rect codeLine="56" fill="#FEFECE" filter="url(#f1cw6dhqihxshr)" height="48" id="ReflectorUtility" style="stroke:#A80036;stroke-width:1.5;" width="111" x="62.5" y="829.5"/><ellipse cx="77.5" cy="845.5" fill="#ADD1B2" rx="11" ry="11" style="stroke:#A80036;stroke-width:1.0;"/><path d="M72.5,846.6563 C72.5,849.1563 74.6406,850.9688 77.5625,850.9688 C78.7969,850.9688 79.9688,850.6719 80.7188,850.1563 C81.3281,849.7344 81.6563,849.3125 81.6563,848.9063 C81.6563,848.4375 81.2344,848.0313 80.7344,848.0313 C80.5,848.0313 80.2813,848.1094 80.0781,848.3125 C79.6406,848.75 79.6406,848.75 79.4688,848.8438 C79.0156,849.0781 78.375,849.2188 77.6094,849.2188 C75.6094,849.2188 74.3281,848.2031 74.3281,846.625 L74.3281,845.5781 C74.3281,843.875 75.5469,842.6719 77.25,842.6719 C77.8281,842.6719 78.4063,842.8125 78.875,843.0625 C79.3438,843.3281 79.5156,843.5156 79.5781,843.875 C79.7031,844.5469 79.9531,844.7969 80.4844,844.7969 C80.7656,844.7969 81.0469,844.6563 81.2344,844.4375 C81.3594,844.2656 81.4063,844.0938 81.4063,843.6563 L81.4063,842.2969 C81.4063,841.875 81.3906,841.7344 81.2656,841.5625 C81.0938,841.3125 80.8125,841.1563 80.4844,841.1563 C80.1719,841.1563 79.9688,841.2656 79.75,841.5313 C78.5781,841.0313 78.1406,840.9219 77.1875,840.9219 C74.5156,840.9219 72.5,842.9375 72.5,845.5625 L72.5,846.6563 Z " fill="#000000"/><text fill="#000000" font-family="sans-serif" font-size="12" lengthAdjust="spacing" textLength="79" x="91.5" y="849.448">ReflectorUtility</text><line style="stroke:#A80036;stroke-width:1.5;" x1="63.5" x2="172.5" y1="861.5" y2="861.5"/><line style="stroke:#A80036;stroke-width:1.5;" x1="63.5" x2="172.5" y1="869.5" y2="869.5"/><!--MD5=[09699c8b762f7fa74b7dc251f2258f54]
class BarcodeAdapter--><rect codeLine="58" fill="#FEFECE" filter="url(#f1cw6dhqihxshr)" height="48" id="BarcodeAdapter" style="stroke:#A80036;stroke-width:1.5;" width="121" x="32.5" y="954.5"/><ellipse cx="47.5" cy="970.5" fill="#ADD1B2" rx="11" ry="11" style="stroke:#A80036;stroke-width:1.0;"/><path d="M42.5,971.6563 C42.5,974.1563 44.6406,975.9688 47.5625,975.9688 C48.7969,975.9688 49.9688,975.6719 50.7188,975.1563 C51.3281,974.7344 51.6563,974.3125 51.6563,973.9063 C51.6563,973.4375 51.2344,973.0313 50.7344,973.0313 C50.5,973.0313 50.2813,973.1094 50.0781,973.3125 C49.6406,973.75 49.6406,973.75 49.4688,973.8438 C49.0156,974.0781 48.375,974.2188 47.6094,974.2188 C45.6094,974.2188 44.3281,973.2031 44.3281,971.625 L44.3281,970.5781 C44.3281,968.875 45.5469,967.6719 47.25,967.6719 C47.8281,967.6719 48.4063,967.8125 48.875,968.0625 C49.3438,968.3281 49.5156,968.5156 49.5781,968.875 C49.7031,969.5469 49.9531,969.7969 50.4844,969.7969 C50.7656,969.7969 51.0469,969.6563 51.2344,969.4375 C51.3594,969.2656 51.4063,969.0938 51.4063,968.6563 L51.4063,967.2969 C51.4063,966.875 51.3906,966.7344 51.2656,966.5625 C51.0938,966.3125 50.8125,966.1563 50.4844,966.1563 C50.1719,966.1563 49.9688,966.2656 49.75,966.5313 C48.5781,966.0313 48.1406,965.9219 47.1875,965.9219 C44.5156,965.9219 42.5,967.9375 42.5,970.5625 L42.5,971.6563 Z " fill="#000000"/><text fill="#000000" font-family="sans-serif" font-size="12" lengthAdjust="spacing" textLength="89" x="61.5" y="974.448">BarcodeAdapter</text><line style="stroke:#A80036;stroke-width:1.5;" x1="33.5" x2="152.5" y1="986.5" y2="986.5"/><line style="stroke:#A80036;stroke-width:1.5;" x1="33.5" x2="152.5" y1="994.5" y2="994.5"/><!--MD5=[dc548cf8b8a921e529ef6dffc75baca7]
class RecordSamplesUI--><rect codeLine="1" fill="#FEFECE" filter="url(#f1cw6dhqihxshr)" height="74.3998" id="RecordSamplesUI" style="stroke:#A80036;stroke-width:1.5;" width="132" x="275" y="7"/><ellipse cx="290" cy="23" fill="#ADD1B2" rx="11" ry="11" style="stroke:#A80036;stroke-width:1.0;"/><path d="M285,24.1563 C285,26.6563 287.1406,28.4688 290.0625,28.4688 C291.2969,28.4688 292.4688,28.1719 293.2188,27.6563 C293.8281,27.2344 294.1563,26.8125 294.1563,26.4063 C294.1563,25.9375 293.7344,25.5313 293.2344,25.5313 C293,25.5313 292.7813,25.6094 292.5781,25.8125 C292.1406,26.25 292.1406,26.25 291.9688,26.3438 C291.5156,26.5781 290.875,26.7188 290.1094,26.7188 C288.1094,26.7188 286.8281,25.7031 286.8281,24.125 L286.8281,23.0781 C286.8281,21.375 288.0469,20.1719 289.75,20.1719 C290.3281,20.1719 290.9063,20.3125 291.375,20.5625 C291.8438,20.8281 292.0156,21.0156 292.0781,21.375 C292.2031,22.0469 292.4531,22.2969 292.9844,22.2969 C293.2656,22.2969 293.5469,22.1563 293.7344,21.9375 C293.8594,21.7656 293.9063,21.5938 293.9063,21.1563 L293.9063,19.7969 C293.9063,19.375 293.8906,19.2344 293.7656,19.0625 C293.5938,18.8125 293.3125,18.6563 292.9844,18.6563 C292.6719,18.6563 292.4688,18.7656 292.25,19.0313 C291.0781,18.5313 290.6406,18.4219 289.6875,18.4219 C287.0156,18.4219 285,20.4375 285,23.0625 L285,24.1563 Z " fill="#000000"/><text fill="#000000" font-family="sans-serif" font-size="12" lengthAdjust="spacing" textLength="100" x="304" y="26.948">RecordSamplesUI</text><line style="stroke:#A80036;stroke-width:1.5;" x1="276" x2="406" y1="39" y2="39"/><line style="stroke:#A80036;stroke-width:1.5;" x1="276" x2="406" y1="47" y2="47"/><rect fill="#F24D5C" height="6" style="stroke:#C82930;stroke-width:1.0;" width="6" x="283" y="55"/><text fill="#000000" font-family="sans-serif" font-size="11" lengthAdjust="spacing" textLength="105" x="295" y="61.2189">show(freeTestsDTO)</text><rect fill="#F24D5C" height="6" style="stroke:#C82930;stroke-width:1.0;" width="6" x="283" y="68.1999"/><text fill="#000000" font-family="sans-serif" font-size="11" lengthAdjust="spacing" textLength="99" x="295" y="74.4188">show(samplesDTO)</text><!--MD5=[a1e7b5096c55c847fdbd76277a7fd41a]
class RecordSamplesController--><rect codeLine="6" fill="#FEFECE" filter="url(#f1cw6dhqihxshr)" height="87.5997" id="RecordSamplesController" style="stroke:#A80036;stroke-width:1.5;" width="261" x="118.5" y="142"/><ellipse cx="173.75" cy="158" fill="#ADD1B2" rx="11" ry="11" style="stroke:#A80036;stroke-width:1.0;"/><path d="M168.75,159.1563 C168.75,161.6563 170.8906,163.4688 173.8125,163.4688 C175.0469,163.4688 176.2188,163.1719 176.9688,162.6563 C177.5781,162.2344 177.9063,161.8125 177.9063,161.4063 C177.9063,160.9375 177.4844,160.5313 176.9844,160.5313 C176.75,160.5313 176.5313,160.6094 176.3281,160.8125 C175.8906,161.25 175.8906,161.25 175.7188,161.3438 C175.2656,161.5781 174.625,161.7188 173.8594,161.7188 C171.8594,161.7188 170.5781,160.7031 170.5781,159.125 L170.5781,158.0781 C170.5781,156.375 171.7969,155.1719 173.5,155.1719 C174.0781,155.1719 174.6563,155.3125 175.125,155.5625 C175.5938,155.8281 175.7656,156.0156 175.8281,156.375 C175.9531,157.0469 176.2031,157.2969 176.7344,157.2969 C177.0156,157.2969 177.2969,157.1563 177.4844,156.9375 C177.6094,156.7656 177.6563,156.5938 177.6563,156.1563 L177.6563,154.7969 C177.6563,154.375 177.6406,154.2344 177.5156,154.0625 C177.3438,153.8125 177.0625,153.6563 176.7344,153.6563 C176.4219,153.6563 176.2188,153.7656 176,154.0313 C174.8281,153.5313 174.3906,153.4219 173.4375,153.4219 C170.7656,153.4219 168.75,155.4375 168.75,158.0625 L168.75,159.1563 Z " fill="#000000"/><text fill="#000000" font-family="sans-serif" font-size="12" lengthAdjust="spacing" textLength="142" x="194.25" y="161.948">RecordSamplesController</text><line style="stroke:#A80036;stroke-width:1.5;" x1="119.5" x2="378.5" y1="174" y2="174"/><ellipse cx="129.5" cy="185" rx="3" ry="3" style="stroke:#038048;stroke-width:1.0;fill:none;"/><text fill="#000000" font-family="sans-serif" font-size="11" lengthAdjust="spacing" textLength="101" x="138.5" y="188.2189">List&lt;Test&gt; freeTests</text><ellipse cx="129.5" cy="198.1999" rx="3" ry="3" style="stroke:#038048;stroke-width:1.0;fill:none;"/><text fill="#000000" font-family="sans-serif" font-size="11" lengthAdjust="spacing" textLength="149" x="138.5" y="201.4188">List&lt;TestDTO&gt; freeTestsDTO</text><line style="stroke:#A80036;stroke-width:1.5;" x1="119.5" x2="378.5" y1="208.3998" y2="208.3998"/><ellipse cx="129.5" cy="219.3998" fill="#84BE84" rx="3" ry="3" style="stroke:#038048;stroke-width:1.0;"/><text fill="#000000" font-family="sans-serif" font-size="11" lengthAdjust="spacing" textLength="235" x="138.5" y="222.6187">generateSamples(int testIndex, int numSamples)</text><!--MD5=[9fb704ffefcaf68bf1a361787afa998b]
class TestDTO--><rect codeLine="34" fill="#FEFECE" filter="url(#f1cw6dhqihxshr)" height="74.3998" id="TestDTO" style="stroke:#A80036;stroke-width:1.5;" width="138" x="351" y="305.5"/><ellipse cx="392.1" cy="321.5" fill="#ADD1B2" rx="11" ry="11" style="stroke:#A80036;stroke-width:1.0;"/><path d="M387.1,322.6563 C387.1,325.1563 389.2406,326.9688 392.1625,326.9688 C393.3969,326.9688 394.5688,326.6719 395.3188,326.1563 C395.9281,325.7344 396.2563,325.3125 396.2563,324.9063 C396.2563,324.4375 395.8344,324.0313 395.3344,324.0313 C395.1,324.0313 394.8813,324.1094 394.6781,324.3125 C394.2406,324.75 394.2406,324.75 394.0688,324.8438 C393.6156,325.0781 392.975,325.2188 392.2094,325.2188 C390.2094,325.2188 388.9281,324.2031 388.9281,322.625 L388.9281,321.5781 C388.9281,319.875 390.1469,318.6719 391.85,318.6719 C392.4281,318.6719 393.0063,318.8125 393.475,319.0625 C393.9438,319.3281 394.1156,319.5156 394.1781,319.875 C394.3031,320.5469 394.5531,320.7969 395.0844,320.7969 C395.3656,320.7969 395.6469,320.6563 395.8344,320.4375 C395.9594,320.2656 396.0063,320.0938 396.0063,319.6563 L396.0063,318.2969 C396.0063,317.875 395.9906,317.7344 395.8656,317.5625 C395.6938,317.3125 395.4125,317.1563 395.0844,317.1563 C394.7719,317.1563 394.5688,317.2656 394.35,317.5313 C393.1781,317.0313 392.7406,316.9219 391.7875,316.9219 C389.1156,316.9219 387.1,318.9375 387.1,321.5625 L387.1,322.6563 Z " fill="#000000"/><text fill="#000000" font-family="sans-serif" font-size="12" lengthAdjust="spacing" textLength="48" x="411.9" y="325.448">TestDTO</text><line style="stroke:#A80036;stroke-width:1.5;" x1="352" x2="488" y1="337.5" y2="337.5"/><rect fill="none" height="6" style="stroke:#C82930;stroke-width:1.0;" width="6" x="359" y="345.5"/><text fill="#000000" font-family="sans-serif" font-size="11" lengthAdjust="spacing" textLength="110" x="371" y="351.7189">LocalDate sampleDate</text><rect fill="none" height="6" style="stroke:#C82930;stroke-width:1.0;" width="6" x="359" y="358.6999"/><text fill="#000000" font-family="sans-serif" font-size="11" lengthAdjust="spacing" textLength="112" x="371" y="364.9188">LocalTime sampleTime</text><line style="stroke:#A80036;stroke-width:1.5;" x1="352" x2="488" y1="371.8998" y2="371.8998"/><!--MD5=[cb39fcb634a9bd76468eff3a82f2ba7e]
link RecordSamplesController to Company--><path codeLine="29" d="M249,230.04 C249,254.28 249,284.15 249,306.86 " fill="none" id="RecordSamplesController-to-Company" style="stroke:#A80036;stroke-width:1.0;stroke-dasharray:7.0,7.0;"/><polygon fill="#A80036" points="249,311.89,253,302.89,249,306.89,245,302.89,249,311.89" style="stroke:#A80036;stroke-width:1.0;"/><!--MD5=[f5d49bc286cb050af674ca41a5ab89fd]
link RecordSamplesController to TestDTO--><path codeLine="40" d="M296.63,230.04 C321.59,252.58 351.93,280 376.28,302 " fill="none" id="RecordSamplesController-to-TestDTO" style="stroke:#A80036;stroke-width:1.0;stroke-dasharray:7.0,7.0;"/><polygon fill="#A80036" points="380.13,305.48,376.1353,296.4776,376.4206,302.1273,370.771,302.4126,380.13,305.48" style="stroke:#A80036;stroke-width:1.0;"/><!--MD5=[a9565a26be75bb91c3dca69884270139]
link RecordSamplesUI to TestDTO--><path codeLine="41" d="M366.58,81.08 C377.76,98.66 389.92,120.58 397,142 C414.42,194.7 419.07,259 420.09,300.1 " fill="none" id="RecordSamplesUI-to-TestDTO" style="stroke:#A80036;stroke-width:1.0;stroke-dasharray:7.0,7.0;"/><polygon fill="#A80036" points="420.2,305.24,423.9927,296.1507,420.0854,300.2413,415.9948,296.334,420.2,305.24" style="stroke:#A80036;stroke-width:1.0;"/><!--MD5=[be3b39c7463182027323f9c0e531e936]
link TestDTO to Test--><path codeLine="42" d="M373.27,379.84 C350.37,397.66 322.76,419.13 299.39,437.31 " fill="none" id="TestDTO-to-Test" style="stroke:#A80036;stroke-width:1.0;stroke-dasharray:7.0,7.0;"/><polygon fill="#A80036" points="295.37,440.43,304.9335,438.0764,299.3214,437.3662,300.0315,431.7541,295.37,440.43" style="stroke:#A80036;stroke-width:1.0;"/><!--MD5=[7e4bc624457760b649895ff2ead938fa]
link Company to Test--><path codeLine="44" d="M249,373.02 C249,391.36 249,415.21 249,435.39 " fill="none" id="Company-to-Test" style="stroke:#A80036;stroke-width:1.0;"/><polygon fill="#A80036" points="249,440.43,253,431.43,249,435.43,245,431.43,249,440.43" style="stroke:#A80036;stroke-width:1.0;"/><text fill="#000000" font-family="sans-serif" font-size="13" lengthAdjust="spacing" textLength="7" x="241.2344" y="393.4576">1</text><text fill="#000000" font-family="sans-serif" font-size="13" lengthAdjust="spacing" textLength="5" x="243.5234" y="429.0299">*</text><!--MD5=[b72ac8ab7fb5921fceb5036a3902baea]
link Test to Sample--><path codeLine="48" d="M248.7,514.5 C248.55,532.4 248.37,553.7 248.23,570.37 " fill="none" id="Test-to-Sample" style="stroke:#A80036;stroke-width:1.0;"/><polygon fill="#A80036" points="248.19,575.39,252.267,566.4246,248.2329,570.3902,244.2673,566.356,248.19,575.39" style="stroke:#A80036;stroke-width:1.0;"/><text fill="#000000" font-family="sans-serif" font-size="13" lengthAdjust="spacing" textLength="7" x="240.9756" y="535.0789">1</text><text fill="#000000" font-family="sans-serif" font-size="13" lengthAdjust="spacing" textLength="5" x="242.5692" y="564.0524">*</text><!--MD5=[327391d6abe62f0446af3ffbf41cf7ec]
link Sample to Barcode--><path codeLine="51" d="M248,623.74 C248,639.61 248,660.93 248,678.86 " fill="none" id="Sample-to-Barcode" style="stroke:#A80036;stroke-width:1.0;"/><polygon fill="#A80036" points="248,684.31,252,675.31,248,679.31,244,675.31,248,684.31" style="stroke:#A80036;stroke-width:1.0;"/><text fill="#000000" font-family="sans-serif" font-size="13" lengthAdjust="spacing" textLength="7" x="240.1469" y="643.6268">1</text><text fill="#000000" font-family="sans-serif" font-size="13" lengthAdjust="spacing" textLength="7" x="240.2344" y="673.0767">1</text><!--MD5=[fcbbdd4b367e471c089a84eb4eb6802f]
link BarcodeAdapter to BarcodeInterface--><path codeLine="61" d="M153.79,978.5 C158.56,978.5 163.33,978.5 168.1,978.5 " fill="none" id="BarcodeAdapter-to-BarcodeInterface" style="stroke:#A80036;stroke-width:1.0;"/><polygon fill="none" points="168.35,971.5,188.35,978.5,168.35,985.5,168.35,971.5" style="stroke:#A80036;stroke-width:1.0;"/><!--MD5=[973bc8e57364514e102f8ec314de6c00]
link ReflectorUtility to BarcodeAdapter--><path codeLine="63" d="M102.02,877.71 C96.79,886.62 91.65,897.13 89,907.5 C85.54,921.03 85.99,936.5 87.53,949.45 " fill="none" id="ReflectorUtility-to-BarcodeAdapter" style="stroke:#A80036;stroke-width:1.0;stroke-dasharray:7.0,7.0;"/><polygon fill="#A80036" points="88.2,954.46,90.9558,945.0046,87.5289,949.5052,83.0282,946.0783,88.2,954.46" style="stroke:#A80036;stroke-width:1.0;"/><text fill="#000000" font-family="sans-serif" font-size="13" lengthAdjust="spacing" textLength="135" x="90" y="920.577">creates using reflection</text><!--MD5=[2b8f4f220c107d5b0c7e594325c75009]
link RecordSamplesUI to RecordSamplesController--><path codeLine="65" d="M317.31,81.05 C306.07,98.16 292.48,118.83 280.4,137.22 " fill="none" id="RecordSamplesUI-to-RecordSamplesController" style="stroke:#A80036;stroke-width:1.0;stroke-dasharray:7.0,7.0;"/><polygon fill="#A80036" points="277.36,141.84,285.6469,136.5176,280.107,137.6622,278.9624,132.1224,277.36,141.84" style="stroke:#A80036;stroke-width:1.0;"/><!--MD5=[9abb9859b6999436f11a52c62fd996bc]
link Barcode to BarcodeInterface--><path codeLine="67" d="M248.34,745.74 C248.92,796.5 250.1,899.19 250.67,949.05 " fill="none" id="Barcode-to-BarcodeInterface" style="stroke:#A80036;stroke-width:1.0;"/><polygon fill="#A80036" points="250.73,954.29,254.6269,945.2449,250.6729,949.2903,246.6274,945.3363,250.73,954.29" style="stroke:#A80036;stroke-width:1.0;"/><!--MD5=[7e3a6b87e3be8f0acda0121d5f10c9b0]
link Barcode to ReflectorUtility--><path codeLine="69" d="M219.79,745.62 C197.2,769.34 165.77,802.34 143.83,825.37 " fill="none" id="Barcode-to-ReflectorUtility" style="stroke:#A80036;stroke-width:1.0;stroke-dasharray:7.0,7.0;"/><polygon fill="#A80036" points="140.13,829.27,149.2338,825.5123,143.5786,825.6497,143.4413,819.9945,140.13,829.27" style="stroke:#A80036;stroke-width:1.0;"/><!--MD5=[a749402d5541eec5d562be08447897b5]
@startuml
class RecordSamplesUI {
 -show(freeTestsDTO)
 -show(samplesDTO)
}

class RecordSamplesController {
  +List<Test> freeTests
  +List<TestDTO> freeTestsDTO
  +generateSamples(int testIndex, int numSamples)
}


package "Domain" #DDDDDD {
class Company {
  +List<Test> getTests()
}
class Test {
-LocalDate sampleDate
-LocalTime sampleTime
}
class Sample {

}
class Barcode {
 -generateBarcode(code)
}

}
RecordSamplesController ..> Company




class TestDTO {
-LocalDate sampleDate
-LocalTime sampleTime

}

RecordSamplesController ..> TestDTO
RecordSamplesUI ..> TestDTO
TestDTO ..> Test

Company "1" - -> "*" Test



Test "1" - -> "*" Sample


Sample "1" - -> "1" Barcode

package "BarcodeAPI" #DDDDDD {
interface BarcodeInterface

class ReflectorUtility

class BarcodeAdapter
}

BarcodeAdapter -|> BarcodeInterface

ReflectorUtility ..> BarcodeAdapter : creates using reflection

RecordSamplesUI ..> RecordSamplesController

Barcode - -> BarcodeInterface

Barcode ..> ReflectorUtility

@enduml

PlantUML version 1.2021.5(Sun Apr 25 12:20:28 WEST 2021)
(GPL source distribution)
Java Runtime: OpenJDK Runtime Environment
JVM: OpenJDK 64-Bit Server VM
Default Encoding: ANSI_X3.4-1968
Language: en
Country: US
--></g></svg>