<?xml version="1.0" encoding="UTF-8" standalone="no"?><svg xmlns="http://www.w3.org/2000/svg" xmlns:xlink="http://www.w3.org/1999/xlink" contentScriptType="application/ecmascript" contentStyleType="text/css" height="1097px" preserveAspectRatio="none" style="width:2168px;height:1097px;" version="1.1" viewBox="0 0 2168 1097" width="2168px" zoomAndPan="magnify"><defs><filter height="300%" id="f16xqid3nmnpgx" width="300%" x="-1" y="-1"><feGaussianBlur result="blurOut" stdDeviation="2.0"/><feColorMatrix in="blurOut" result="blurOut2" type="matrix" values="0 0 0 0 0 0 0 0 0 0 0 0 0 0 0 0 0 0 .4 0"/><feOffset dx="4.0" dy="4.0" in="blurOut2" result="blurOut3"/><feBlend in="SourceGraphic" in2="blurOut3" mode="normal"/></filter></defs><g><rect fill="#FFFFFF" filter="url(#f16xqid3nmnpgx)" height="904.7997" style="stroke:#A80036;stroke-width:1.0;" width="10" x="74" y="98.7999"/><rect fill="#FFFFFF" filter="url(#f16xqid3nmnpgx)" height="265.5999" style="stroke:#A80036;stroke-width:1.0;" width="10" x="411" y="120.3999"/><rect fill="#FFFFFF" filter="url(#f16xqid3nmnpgx)" height="578.9998" style="stroke:#A80036;stroke-width:1.0;" width="10" x="411" y="415.5999"/><rect fill="#FFFFFF" filter="url(#f16xqid3nmnpgx)" height="843.5997" style="stroke:#A80036;stroke-width:1.0;" width="10" x="746" y="160"/><rect fill="#FFFFFF" filter="url(#f16xqid3nmnpgx)" height="753.9998" style="stroke:#A80036;stroke-width:1.0;" width="10" x="1095" y="249.5998"/><rect fill="#FFFFFF" filter="url(#f16xqid3nmnpgx)" height="904.7997" style="stroke:#A80036;stroke-width:1.0;" width="10" x="1199" y="98.7999"/><rect fill="#FFFFFF" filter="url(#f16xqid3nmnpgx)" height="518.7997" style="stroke:#A80036;stroke-width:1.0;" width="10" x="1286.5" y="484.7999"/><rect fill="#FFFFFF" filter="url(#f16xqid3nmnpgx)" height="448.3998" style="stroke:#A80036;stroke-width:1.0;" width="10" x="1522.5" y="555.1998"/><rect fill="#FFFFFF" filter="url(#f16xqid3nmnpgx)" height="245.6001" style="stroke:#A80036;stroke-width:1.0;" width="10" x="1641" y="757.9996"/><rect fill="#FFFFFF" filter="url(#f16xqid3nmnpgx)" height="356.7999" style="stroke:#A80036;stroke-width:1.0;" width="10" x="1944.5" y="646.7997"/><rect fill="#FFFFFF" filter="url(#f16xqid3nmnpgx)" height="281.4" style="stroke:#A80036;stroke-width:1.0;" width="10" x="2078.5" y="722.1996"/><rect fill="#FFFFFF" filter="url(#f16xqid3nmnpgx)" height="302.5998" style="stroke:#000000;stroke-width:2.0;" width="1014.5" x="1139.5" y="505.9998"/><line style="stroke:#A80036;stroke-width:1.0;stroke-dasharray:5.0,5.0;" x1="79" x2="79" y1="88.7999" y2="1012.5996"/><line style="stroke:#A80036;stroke-width:1.0;stroke-dasharray:5.0,5.0;" x1="415.5" x2="415.5" y1="88.7999" y2="1012.5996"/><line style="stroke:#A80036;stroke-width:1.0;stroke-dasharray:5.0,5.0;" x1="750.5" x2="750.5" y1="161.2999" y2="1012.5996"/><line style="stroke:#A80036;stroke-width:1.0;stroke-dasharray:5.0,5.0;" x1="1099.5" x2="1099.5" y1="207.0998" y2="1012.5996"/><line style="stroke:#A80036;stroke-width:1.0;stroke-dasharray:5.0,5.0;" x1="1203.5" x2="1203.5" y1="88.7999" y2="1012.5996"/><line style="stroke:#A80036;stroke-width:1.0;stroke-dasharray:5.0,5.0;" x1="1291.5" x2="1291.5" y1="486.0999" y2="1012.5996"/><line style="stroke:#A80036;stroke-width:1.0;stroke-dasharray:5.0,5.0;" x1="1527.5" x2="1527.5" y1="556.4998" y2="1012.5996"/><line style="stroke:#A80036;stroke-width:1.0;stroke-dasharray:5.0,5.0;" x1="1645.5" x2="1645.5" y1="602.2997" y2="1012.5996"/><line style="stroke:#A80036;stroke-width:1.0;stroke-dasharray:5.0,5.0;" x1="1949" x2="1949" y1="648.0996" y2="1012.5996"/><line style="stroke:#A80036;stroke-width:1.0;stroke-dasharray:5.0,5.0;" x1="2083" x2="2083" y1="723.4996" y2="1012.5996"/><text fill="#000000" font-family="sans-serif" font-size="14" lengthAdjust="spacing" textLength="142" x="5" y="85.0059">MedicalLabTechnician</text><ellipse cx="79" cy="15" fill="#FEFECE" filter="url(#f16xqid3nmnpgx)" rx="8" ry="8" style="stroke:#A80036;stroke-width:2.0;"/><path d="M79,23 L79,50 M66,31 L92,31 M79,50 L66,65 M79,50 L92,65 " fill="none" filter="url(#f16xqid3nmnpgx)" style="stroke:#A80036;stroke-width:2.0;"/><text fill="#000000" font-family="sans-serif" font-size="14" lengthAdjust="spacing" textLength="142" x="5" y="1024.6056">MedicalLabTechnician</text><ellipse cx="79" cy="1038.3996" fill="#FEFECE" filter="url(#f16xqid3nmnpgx)" rx="8" ry="8" style="stroke:#A80036;stroke-width:2.0;"/><path d="M79,1046.3996 L79,1073.3996 M66,1054.3996 L92,1054.3996 M79,1073.3996 L66,1088.3996 M79,1073.3996 L92,1088.3996 " fill="none" filter="url(#f16xqid3nmnpgx)" style="stroke:#A80036;stroke-width:2.0;"/><rect fill="#FEFECE" filter="url(#f16xqid3nmnpgx)" height="30.7999" style="stroke:#A80036;stroke-width:1.5;" width="129" x="349.5" y="53"/><text fill="#000000" font-family="sans-serif" font-size="14" lengthAdjust="spacing" textLength="115" x="356.5" y="73.0059">RecordSamplesUI</text><rect fill="#FEFECE" filter="url(#f16xqid3nmnpgx)" height="30.7999" style="stroke:#A80036;stroke-width:1.5;" width="129" x="349.5" y="1011.5996"/><text fill="#000000" font-family="sans-serif" font-size="14" lengthAdjust="spacing" textLength="115" x="356.5" y="1031.6056">RecordSamplesUI</text><rect fill="#FEFECE" filter="url(#f16xqid3nmnpgx)" height="30.7999" style="stroke:#A80036;stroke-width:1.5;" width="177" x="660.5" y="1011.5996"/><text fill="#000000" font-family="sans-serif" font-size="14" lengthAdjust="spacing" textLength="163" x="667.5" y="1031.6056">RecordSamplesController</text><rect fill="#FEFECE" filter="url(#f16xqid3nmnpgx)" height="30.7999" style="stroke:#A80036;stroke-width:1.5;" width="75" x="1060.5" y="1011.5996"/><text fill="#000000" font-family="sans-serif" font-size="14" lengthAdjust="spacing" textLength="61" x="1067.5" y="1031.6056">Company</text><rect fill="#FEFECE" filter="url(#f16xqid3nmnpgx)" height="30.7999" style="stroke:#A80036;stroke-width:1.5;" width="105" x="1149.5" y="53"/><text fill="#000000" font-family="sans-serif" font-size="14" lengthAdjust="spacing" textLength="91" x="1156.5" y="73.0059">ReflectorUtility</text><rect fill="#FEFECE" filter="url(#f16xqid3nmnpgx)" height="30.7999" style="stroke:#A80036;stroke-width:1.5;" width="105" x="1149.5" y="1011.5996"/><text fill="#000000" font-family="sans-serif" font-size="14" lengthAdjust="spacing" textLength="91" x="1156.5" y="1031.6056">ReflectorUtility</text><rect fill="#FEFECE" filter="url(#f16xqid3nmnpgx)" height="30.7999" style="stroke:#A80036;stroke-width:1.5;" width="42" x="1268.5" y="1011.5996"/><text fill="#000000" font-family="sans-serif" font-size="14" lengthAdjust="spacing" textLength="28" x="1275.5" y="1031.6056">Test</text><rect fill="#FEFECE" filter="url(#f16xqid3nmnpgx)" height="30.7999" style="stroke:#A80036;stroke-width:1.5;" width="62" x="1494.5" y="1011.5996"/><text fill="#000000" font-family="sans-serif" font-size="14" lengthAdjust="spacing" textLength="48" x="1501.5" y="1031.6056">Sample</text><rect fill="#FEFECE" filter="url(#f16xqid3nmnpgx)" height="30.7999" style="stroke:#A80036;stroke-width:1.5;" width="67" x="1610.5" y="1011.5996"/><text fill="#000000" font-family="sans-serif" font-size="14" lengthAdjust="spacing" textLength="53" x="1617.5" y="1031.6056">Barcode</text><rect fill="#FEFECE" filter="url(#f16xqid3nmnpgx)" height="30.7999" style="stroke:#A80036;stroke-width:1.5;" width="123" x="1886" y="1011.5996"/><text fill="#000000" font-family="sans-serif" font-size="14" lengthAdjust="spacing" textLength="109" x="1893" y="1031.6056">BarcodeInterface</text><rect fill="#FEFECE" filter="url(#f16xqid3nmnpgx)" height="30.7999" style="stroke:#A80036;stroke-width:1.5;" width="117" x="2023" y="1011.5996"/><text fill="#000000" font-family="sans-serif" font-size="14" lengthAdjust="spacing" textLength="103" x="2030" y="1031.6056">BarcodeAdapter</text><rect fill="#FFFFFF" filter="url(#f16xqid3nmnpgx)" height="904.7997" style="stroke:#A80036;stroke-width:1.0;" width="10" x="74" y="98.7999"/><rect fill="#FFFFFF" filter="url(#f16xqid3nmnpgx)" height="265.5999" style="stroke:#A80036;stroke-width:1.0;" width="10" x="411" y="120.3999"/><rect fill="#FFFFFF" filter="url(#f16xqid3nmnpgx)" height="578.9998" style="stroke:#A80036;stroke-width:1.0;" width="10" x="411" y="415.5999"/><rect fill="#FFFFFF" filter="url(#f16xqid3nmnpgx)" height="843.5997" style="stroke:#A80036;stroke-width:1.0;" width="10" x="746" y="160"/><rect fill="#FFFFFF" filter="url(#f16xqid3nmnpgx)" height="753.9998" style="stroke:#A80036;stroke-width:1.0;" width="10" x="1095" y="249.5998"/><rect fill="#FFFFFF" filter="url(#f16xqid3nmnpgx)" height="904.7997" style="stroke:#A80036;stroke-width:1.0;" width="10" x="1199" y="98.7999"/><rect fill="#FFFFFF" filter="url(#f16xqid3nmnpgx)" height="518.7997" style="stroke:#A80036;stroke-width:1.0;" width="10" x="1286.5" y="484.7999"/><rect fill="#FFFFFF" filter="url(#f16xqid3nmnpgx)" height="448.3998" style="stroke:#A80036;stroke-width:1.0;" width="10" x="1522.5" y="555.1998"/><rect fill="#FFFFFF" filter="url(#f16xqid3nmnpgx)" height="245.6001" style="stroke:#A80036;stroke-width:1.0;" width="10" x="1641" y="757.9996"/><rect fill="#FFFFFF" filter="url(#f16xqid3nmnpgx)" height="356.7999" style="stroke:#A80036;stroke-width:1.0;" width="10" x="1944.5" y="646.7997"/><rect fill="#FFFFFF" filter="url(#f16xqid3nmnpgx)" height="281.4" style="stroke:#A80036;stroke-width:1.0;" width="10" x="2078.5" y="722.1996"/><polygon fill="#A80036" points="399,116.3999,409,120.3999,399,124.3999,403,120.3999" style="stroke:#A80036;stroke-width:1.0;"/><line style="stroke:#A80036;stroke-width:1.0;" x1="84" x2="405" y1="120.3999" y2="120.3999"/><text fill="#000000" font-family="sans-serif" font-size="13" font-weight="bold" lengthAdjust="spacing" textLength="7" x="91" y="114.8769">1</text><text fill="#000000" font-family="sans-serif" font-size="13" lengthAdjust="spacing" textLength="179" x="102" y="114.8769">initiates the record of a sample</text><polygon fill="#A80036" points="648.5,146,658.5,150,648.5,154,652.5,150" style="stroke:#A80036;stroke-width:1.0;"/><line style="stroke:#A80036;stroke-width:1.0;" x1="421" x2="654.5" y1="150" y2="150"/><text fill="#000000" font-family="sans-serif" font-size="13" font-weight="bold" lengthAdjust="spacing" textLength="7" x="428" y="144.477">2</text><text fill="#000000" font-family="sans-serif" font-size="13" lengthAdjust="spacing" textLength="36" x="439" y="144.477">create</text><rect fill="#FEFECE" filter="url(#f16xqid3nmnpgx)" height="30.7999" style="stroke:#A80036;stroke-width:1.5;" width="177" x="660.5" y="128.3999"/><text fill="#000000" font-family="sans-serif" font-size="14" lengthAdjust="spacing" textLength="163" x="667.5" y="148.4059">RecordSamplesController</text><polygon fill="#A80036" points="1048.5,191.7999,1058.5,195.7999,1048.5,199.7999,1052.5,195.7999" style="stroke:#A80036;stroke-width:1.0;"/><line style="stroke:#A80036;stroke-width:1.0;" x1="756" x2="1054.5" y1="195.7999" y2="195.7999"/><text fill="#000000" font-family="sans-serif" font-size="13" font-weight="bold" lengthAdjust="spacing" textLength="7" x="763" y="190.2769">3</text><text fill="#000000" font-family="sans-serif" font-size="13" lengthAdjust="spacing" textLength="36" x="774" y="190.2769">create</text><rect fill="#FEFECE" filter="url(#f16xqid3nmnpgx)" height="30.7999" style="stroke:#A80036;stroke-width:1.5;" width="75" x="1060.5" y="174.1999"/><text fill="#000000" font-family="sans-serif" font-size="14" lengthAdjust="spacing" textLength="61" x="1067.5" y="194.2058">Company</text><line style="stroke:#A80036;stroke-width:1.0;" x1="756" x2="803" y1="236.5998" y2="236.5998"/><line style="stroke:#A80036;stroke-width:1.0;" x1="803" x2="803" y1="236.5998" y2="249.5998"/><line style="stroke:#A80036;stroke-width:1.0;" x1="762" x2="803" y1="249.5998" y2="249.5998"/><polygon fill="#A80036" points="772,245.5998,762,249.5998,772,253.5998,768,249.5998" style="stroke:#A80036;stroke-width:1.0;"/><text fill="#000000" font-family="sans-serif" font-size="13" font-weight="bold" lengthAdjust="spacing" textLength="7" x="768" y="231.0768">4</text><text fill="#000000" font-family="sans-serif" font-size="13" lengthAdjust="spacing" textLength="229" x="779" y="231.0768">Company = App.getInstance(Company)</text><polygon fill="#A80036" points="1083,280.1998,1093,284.1998,1083,288.1998,1087,284.1998" style="stroke:#A80036;stroke-width:1.0;"/><line style="stroke:#A80036;stroke-width:1.0;" x1="756" x2="1089" y1="284.1998" y2="284.1998"/><text fill="#000000" font-family="sans-serif" font-size="13" font-weight="bold" lengthAdjust="spacing" textLength="7" x="763" y="278.6768">5</text><text fill="#000000" font-family="sans-serif" font-size="13" lengthAdjust="spacing" textLength="197" x="774" y="278.6768">List&lt;Test&gt; freeTests = getTests()</text><line style="stroke:#A80036;stroke-width:1.0;" x1="756" x2="798" y1="313.7998" y2="313.7998"/><line style="stroke:#A80036;stroke-width:1.0;" x1="798" x2="798" y1="313.7998" y2="326.7998"/><line style="stroke:#A80036;stroke-width:1.0;" x1="757" x2="798" y1="326.7998" y2="326.7998"/><polygon fill="#A80036" points="767,322.7998,757,326.7998,767,330.7998,763,326.7998" style="stroke:#A80036;stroke-width:1.0;"/><text fill="#000000" font-family="sans-serif" font-size="13" font-weight="bold" lengthAdjust="spacing" textLength="7" x="763" y="308.2768">6</text><text fill="#000000" font-family="sans-serif" font-size="13" lengthAdjust="spacing" textLength="297" x="774" y="308.2768">List&lt;TestDTO&gt; freeTestsDTO = freeTests.toDTO()</text><polygon fill="#A80036" points="432,352.3998,422,356.3998,432,360.3998,428,356.3998" style="stroke:#A80036;stroke-width:1.0;"/><line style="stroke:#A80036;stroke-width:1.0;" x1="426" x2="745" y1="356.3998" y2="356.3998"/><text fill="#000000" font-family="sans-serif" font-size="13" font-weight="bold" lengthAdjust="spacing" textLength="7" x="438" y="350.8768">7</text><text fill="#000000" font-family="sans-serif" font-size="13" lengthAdjust="spacing" textLength="120" x="449" y="350.8768">show(freeTestsDTO)</text><polygon fill="#A80036" points="95,381.9999,85,385.9999,95,389.9999,91,385.9999" style="stroke:#A80036;stroke-width:1.0;"/><line style="stroke:#A80036;stroke-width:1.0;" x1="89" x2="415" y1="385.9999" y2="385.9999"/><text fill="#000000" font-family="sans-serif" font-size="13" font-weight="bold" lengthAdjust="spacing" textLength="7" x="101" y="380.4769">8</text><text fill="#000000" font-family="sans-serif" font-size="13" lengthAdjust="spacing" textLength="172" x="112" y="380.4769">shows a list of available tests</text><polygon fill="#A80036" points="399,411.5999,409,415.5999,399,419.5999,403,415.5999" style="stroke:#A80036;stroke-width:1.0;"/><line style="stroke:#A80036;stroke-width:1.0;" x1="84" x2="405" y1="415.5999" y2="415.5999"/><text fill="#000000" font-family="sans-serif" font-size="13" font-weight="bold" lengthAdjust="spacing" textLength="7" x="91" y="410.0769">9</text><text fill="#000000" font-family="sans-serif" font-size="13" lengthAdjust="spacing" textLength="297" x="102" y="410.0769">selects a test and specifies the number of samples</text><polygon fill="#A80036" points="734,441.1999,744,445.1999,734,449.1999,738,445.1999" style="stroke:#A80036;stroke-width:1.0;"/><line style="stroke:#A80036;stroke-width:1.0;" x1="421" x2="740" y1="445.1999" y2="445.1999"/><text fill="#000000" font-family="sans-serif" font-size="13" font-weight="bold" lengthAdjust="spacing" textLength="14" x="428" y="439.6769">10</text><text fill="#000000" font-family="sans-serif" font-size="13" lengthAdjust="spacing" textLength="283" x="446" y="439.6769">generateSamples(int testIndex, int numSamples)</text><polygon fill="#A80036" points="1256.5,470.7999,1266.5,474.7999,1256.5,478.7999,1260.5,474.7999" style="stroke:#A80036;stroke-width:1.0;"/><line style="stroke:#A80036;stroke-width:1.0;" x1="756" x2="1262.5" y1="474.7999" y2="474.7999"/><text fill="#000000" font-family="sans-serif" font-size="13" font-weight="bold" lengthAdjust="spacing" textLength="14" x="763" y="469.2769">11</text><text fill="#000000" font-family="sans-serif" font-size="13" lengthAdjust="spacing" textLength="139" x="781" y="469.2769">freeTests.get(testIndex)</text><rect fill="#FEFECE" filter="url(#f16xqid3nmnpgx)" height="30.7999" style="stroke:#A80036;stroke-width:1.5;" width="42" x="1268.5" y="453.1999"/><text fill="#000000" font-family="sans-serif" font-size="14" lengthAdjust="spacing" textLength="28" x="1275.5" y="473.2058">Test</text><path d="M1139.5,505.9998 L1212.5,505.9998 L1212.5,512.9998 L1202.5,522.9998 L1139.5,522.9998 L1139.5,505.9998 " fill="#EEEEEE" style="stroke:#000000;stroke-width:1.0;"/><rect fill="none" height="302.5998" style="stroke:#000000;stroke-width:2.0;" width="1014.5" x="1139.5" y="505.9998"/><text fill="#000000" font-family="sans-serif" font-size="13" font-weight="bold" lengthAdjust="spacing" textLength="28" x="1154.5" y="519.0768">loop</text><text fill="#000000" font-family="sans-serif" font-size="11" font-weight="bold" lengthAdjust="spacing" textLength="77" x="1227.5" y="518.2187">[numSamples]</text><polygon fill="#A80036" points="1482.5,541.1998,1492.5,545.1998,1482.5,549.1998,1486.5,545.1998" style="stroke:#A80036;stroke-width:1.0;"/><line style="stroke:#A80036;stroke-width:1.0;" x1="1296.5" x2="1488.5" y1="545.1998" y2="545.1998"/><text fill="#000000" font-family="sans-serif" font-size="13" font-weight="bold" lengthAdjust="spacing" textLength="14" x="1303.5" y="539.6768">12</text><text fill="#000000" font-family="sans-serif" font-size="13" lengthAdjust="spacing" textLength="36" x="1321.5" y="539.6768">create</text><rect fill="#FEFECE" filter="url(#f16xqid3nmnpgx)" height="30.7999" style="stroke:#A80036;stroke-width:1.5;" width="62" x="1494.5" y="523.5998"/><text fill="#000000" font-family="sans-serif" font-size="14" lengthAdjust="spacing" textLength="48" x="1501.5" y="543.6058">Sample</text><polygon fill="#A80036" points="1598.5,586.9998,1608.5,590.9998,1598.5,594.9998,1602.5,590.9998" style="stroke:#A80036;stroke-width:1.0;"/><line style="stroke:#A80036;stroke-width:1.0;" x1="1532.5" x2="1604.5" y1="590.9998" y2="590.9998"/><text fill="#000000" font-family="sans-serif" font-size="13" font-weight="bold" lengthAdjust="spacing" textLength="14" x="1539.5" y="585.4768">13</text><text fill="#000000" font-family="sans-serif" font-size="13" lengthAdjust="spacing" textLength="36" x="1557.5" y="585.4768">create</text><rect fill="#FEFECE" filter="url(#f16xqid3nmnpgx)" height="30.7999" style="stroke:#A80036;stroke-width:1.5;" width="67" x="1610.5" y="569.3998"/><text fill="#000000" font-family="sans-serif" font-size="14" lengthAdjust="spacing" textLength="53" x="1617.5" y="589.4057">Barcode</text><polygon fill="#A80036" points="1874,632.7997,1884,636.7997,1874,640.7997,1878,636.7997" style="stroke:#A80036;stroke-width:1.0;"/><line style="stroke:#A80036;stroke-width:1.0;" x1="1646" x2="1880" y1="636.7997" y2="636.7997"/><text fill="#000000" font-family="sans-serif" font-size="13" font-weight="bold" lengthAdjust="spacing" textLength="14" x="1653" y="631.2767">14</text><text fill="#000000" font-family="sans-serif" font-size="13" lengthAdjust="spacing" textLength="198" x="1671" y="631.2767">Barcode = generateBarcode(code)</text><rect fill="#FEFECE" filter="url(#f16xqid3nmnpgx)" height="30.7999" style="stroke:#A80036;stroke-width:1.5;" width="123" x="1886" y="615.1997"/><text fill="#000000" font-family="sans-serif" font-size="14" lengthAdjust="spacing" textLength="109" x="1893" y="635.2056">BarcodeInterface</text><polygon fill="#A80036" points="1220,678.5996,1210,682.5996,1220,686.5996,1216,682.5996" style="stroke:#A80036;stroke-width:1.0;"/><line style="stroke:#A80036;stroke-width:1.0;" x1="1214" x2="1943.5" y1="682.5996" y2="682.5996"/><text fill="#000000" font-family="sans-serif" font-size="13" font-weight="bold" lengthAdjust="spacing" textLength="14" x="1226" y="677.0766">15</text><text fill="#000000" font-family="sans-serif" font-size="13" lengthAdjust="spacing" textLength="335" x="1244" y="677.0766">adapterReflection(App.getInstance().getBarcodeAdapter())</text><polygon fill="#A80036" points="2011,708.1996,2021,712.1996,2011,716.1996,2015,712.1996" style="stroke:#A80036;stroke-width:1.0;"/><line style="stroke:#A80036;stroke-width:1.0;" x1="1209" x2="2017" y1="712.1996" y2="712.1996"/><text fill="#000000" font-family="sans-serif" font-size="13" font-weight="bold" lengthAdjust="spacing" textLength="14" x="1216" y="706.6766">16</text><text fill="#000000" font-family="sans-serif" font-size="13" lengthAdjust="spacing" textLength="36" x="1234" y="706.6766">create</text><rect fill="#FEFECE" filter="url(#f16xqid3nmnpgx)" height="30.7999" style="stroke:#A80036;stroke-width:1.5;" width="117" x="2023" y="690.5996"/><text fill="#000000" font-family="sans-serif" font-size="14" lengthAdjust="spacing" textLength="103" x="2030" y="710.6056">BarcodeAdapter</text><polygon fill="#A80036" points="1662,753.9996,1652,757.9996,1662,761.9996,1658,757.9996" style="stroke:#A80036;stroke-width:1.0;"/><line style="stroke:#A80036;stroke-width:1.0;" x1="1656" x2="2077.5" y1="757.9996" y2="757.9996"/><text fill="#000000" font-family="sans-serif" font-size="13" font-weight="bold" lengthAdjust="spacing" textLength="14" x="1668" y="752.4766">17</text><text fill="#000000" font-family="sans-serif" font-size="13" lengthAdjust="spacing" textLength="134" x="1686" y="752.4766">generateBarcode(code)</text><line style="stroke:#A80036;stroke-width:1.0;" x1="1296.5" x2="1338.5" y1="787.5996" y2="787.5996"/><line style="stroke:#A80036;stroke-width:1.0;" x1="1338.5" x2="1338.5" y1="787.5996" y2="800.5996"/><line style="stroke:#A80036;stroke-width:1.0;" x1="1297.5" x2="1338.5" y1="800.5996" y2="800.5996"/><polygon fill="#A80036" points="1307.5,796.5996,1297.5,800.5996,1307.5,804.5996,1303.5,800.5996" style="stroke:#A80036;stroke-width:1.0;"/><text fill="#000000" font-family="sans-serif" font-size="13" font-weight="bold" lengthAdjust="spacing" textLength="14" x="1303.5" y="782.0766">18</text><text fill="#000000" font-family="sans-serif" font-size="13" lengthAdjust="spacing" textLength="126" x="1321.5" y="782.0766">samples.add(Sample)</text><line style="stroke:#A80036;stroke-width:1.0;" x1="1296.5" x2="1338.5" y1="837.1996" y2="837.1996"/><line style="stroke:#A80036;stroke-width:1.0;" x1="1338.5" x2="1338.5" y1="837.1996" y2="850.1996"/><line style="stroke:#A80036;stroke-width:1.0;" x1="1297.5" x2="1338.5" y1="850.1996" y2="850.1996"/><polygon fill="#A80036" points="1307.5,846.1996,1297.5,850.1996,1307.5,854.1996,1303.5,850.1996" style="stroke:#A80036;stroke-width:1.0;"/><text fill="#000000" font-family="sans-serif" font-size="13" font-weight="bold" lengthAdjust="spacing" textLength="14" x="1303.5" y="831.6766">19</text><text fill="#000000" font-family="sans-serif" font-size="13" lengthAdjust="spacing" textLength="190" x="1321.5" y="831.6766">setSampleDate(LocalDate.now())</text><line style="stroke:#A80036;stroke-width:1.0;" x1="1296.5" x2="1338.5" y1="879.7996" y2="879.7996"/><line style="stroke:#A80036;stroke-width:1.0;" x1="1338.5" x2="1338.5" y1="879.7996" y2="892.7996"/><line style="stroke:#A80036;stroke-width:1.0;" x1="1297.5" x2="1338.5" y1="892.7996" y2="892.7996"/><polygon fill="#A80036" points="1307.5,888.7996,1297.5,892.7996,1307.5,896.7996,1303.5,892.7996" style="stroke:#A80036;stroke-width:1.0;"/><text fill="#000000" font-family="sans-serif" font-size="13" font-weight="bold" lengthAdjust="spacing" textLength="14" x="1303.5" y="874.2766">20</text><text fill="#000000" font-family="sans-serif" font-size="13" lengthAdjust="spacing" textLength="194" x="1321.5" y="874.2766">setSampleTime(LocalTime.now())</text><line style="stroke:#A80036;stroke-width:1.0;" x1="756" x2="798" y1="922.3996" y2="922.3996"/><line style="stroke:#A80036;stroke-width:1.0;" x1="798" x2="798" y1="922.3996" y2="935.3996"/><line style="stroke:#A80036;stroke-width:1.0;" x1="757" x2="798" y1="935.3996" y2="935.3996"/><polygon fill="#A80036" points="767,931.3996,757,935.3996,767,939.3996,763,935.3996" style="stroke:#A80036;stroke-width:1.0;"/><text fill="#000000" font-family="sans-serif" font-size="13" font-weight="bold" lengthAdjust="spacing" textLength="14" x="763" y="916.8766">21</text><text fill="#000000" font-family="sans-serif" font-size="13" lengthAdjust="spacing" textLength="307" x="781" y="916.8766">List&lt;SampleDTO&gt; SamplesDTO = Samples.toDTO()</text><polygon fill="#A80036" points="432,960.9996,422,964.9996,432,968.9996,428,964.9996" style="stroke:#A80036;stroke-width:1.0;"/><line style="stroke:#A80036;stroke-width:1.0;" x1="426" x2="745" y1="964.9996" y2="964.9996"/><text fill="#000000" font-family="sans-serif" font-size="13" font-weight="bold" lengthAdjust="spacing" textLength="14" x="438" y="959.4766">22</text><text fill="#000000" font-family="sans-serif" font-size="13" lengthAdjust="spacing" textLength="114" x="456" y="959.4766">show(samplesDTO)</text><polygon fill="#A80036" points="95,990.5996,85,994.5996,95,998.5996,91,994.5996" style="stroke:#A80036;stroke-width:1.0;"/><line style="stroke:#A80036;stroke-width:1.0;" x1="89" x2="415" y1="994.5996" y2="994.5996"/><text fill="#000000" font-family="sans-serif" font-size="13" font-weight="bold" lengthAdjust="spacing" textLength="14" x="101" y="989.0766">23</text><text fill="#000000" font-family="sans-serif" font-size="13" lengthAdjust="spacing" textLength="263" x="119" y="989.0766">shows the generated barcode of each sample</text><!--MD5=[5c5aecbdaa4382ab00809439b2587cf6]
@startuml
autonumber

actor "MedicalLabTechnician" as MLT
participant "RecordSamplesUI" as ui
participant "RecordSamplesController" as controller
participant "Company"
participant "ReflectorUtility"

activate MLT
activate ReflectorUtility

MLT -> ui : initiates the record of a sample
activate ui
ui -> controller ** : create
activate controller

controller -> Company ** : create
controller -> controller : Company = App.getInstance(Company)
activate Company

controller -> Company : List<Test> freeTests = getTests()
controller -> controller : List<TestDTO> freeTestsDTO = freeTests.toDTO()

controller -> ui : show(freeTestsDTO)
ui -> MLT : shows a list of available tests


deactivate ui

MLT ->ui : selects a test and specifies the number of samples
activate ui

ui -> controller : generateSamples(int testIndex, int numSamples)
controller -> Test ** : freeTests.get(testIndex)
activate Test


loop numSamples
Test -> Sample ** : create
activate Sample
Sample -> Barcode ** : create
Barcode -> BarcodeInterface ** : Barcode = generateBarcode(code)
activate BarcodeInterface
BarcodeInterface -> ReflectorUtility : adapterReflection(App.getInstance().getBarcodeAdapter())
ReflectorUtility -> BarcodeAdapter ** : create
activate BarcodeAdapter
BarcodeAdapter -> Barcode : generateBarcode(code)
activate Barcode
Test -> Test : samples.add(Sample)
end
Test -> Test : setSampleDate(LocalDate.now())
Test -> Test : setSampleTime(LocalTime.now())

controller -> controller : List<SampleDTO> SamplesDTO = Samples.toDTO()

controller -> ui : show(samplesDTO)

ui -> MLT : shows the generated barcode of each sample
deactivate ui

@enduml

PlantUML version 1.2021.5(Sun Apr 25 12:20:28 WEST 2021)
(GPL source distribution)
Java Runtime: OpenJDK Runtime Environment
JVM: OpenJDK 64-Bit Server VM
Default Encoding: ANSI_X3.4-1968
Language: en
Country: US
--></g></svg>