<?xml version="1.0" encoding="UTF-8" standalone="no"?><svg xmlns="http://www.w3.org/2000/svg" xmlns:xlink="http://www.w3.org/1999/xlink" contentScriptType="application/ecmascript" contentStyleType="text/css" height="940px" preserveAspectRatio="none" style="width:715px;height:940px;" version="1.1" viewBox="0 0 715 940" width="715px" zoomAndPan="magnify"><defs><filter height="300%" id="f14bfswf8ksmfw" width="300%" x="-1" y="-1"><feGaussianBlur result="blurOut" stdDeviation="2.0"/><feColorMatrix in="blurOut" result="blurOut2" type="matrix" values="0 0 0 0 0 0 0 0 0 0 0 0 0 0 0 0 0 0 .4 0"/><feOffset dx="4.0" dy="4.0" in="blurOut2" result="blurOut3"/><feBlend in="SourceGraphic" in2="blurOut3" mode="normal"/></filter></defs><g><!--MD5=[71152100d89f377ebd8dc97f1c2b0d02]
class RegisterClientUI--><rect codeLine="1" fill="#FEFECE" filter="url(#f14bfswf8ksmfw)" height="74.3998" id="RegisterClientUI" style="stroke:#A80036;stroke-width:1.5;" width="122" x="492.5" y="7"/><ellipse cx="507.5" cy="23" fill="#ADD1B2" rx="11" ry="11" style="stroke:#A80036;stroke-width:1.0;"/><path d="M502.5,24.1563 C502.5,26.6563 504.6406,28.4688 507.5625,28.4688 C508.7969,28.4688 509.9688,28.1719 510.7188,27.6563 C511.3281,27.2344 511.6563,26.8125 511.6563,26.4063 C511.6563,25.9375 511.2344,25.5313 510.7344,25.5313 C510.5,25.5313 510.2813,25.6094 510.0781,25.8125 C509.6406,26.25 509.6406,26.25 509.4688,26.3438 C509.0156,26.5781 508.375,26.7188 507.6094,26.7188 C505.6094,26.7188 504.3281,25.7031 504.3281,24.125 L504.3281,23.0781 C504.3281,21.375 505.5469,20.1719 507.25,20.1719 C507.8281,20.1719 508.4063,20.3125 508.875,20.5625 C509.3438,20.8281 509.5156,21.0156 509.5781,21.375 C509.7031,22.0469 509.9531,22.2969 510.4844,22.2969 C510.7656,22.2969 511.0469,22.1563 511.2344,21.9375 C511.3594,21.7656 511.4063,21.5938 511.4063,21.1563 L511.4063,19.7969 C511.4063,19.375 511.3906,19.2344 511.2656,19.0625 C511.0938,18.8125 510.8125,18.6563 510.4844,18.6563 C510.1719,18.6563 509.9688,18.7656 509.75,19.0313 C508.5781,18.5313 508.1406,18.4219 507.1875,18.4219 C504.5156,18.4219 502.5,20.4375 502.5,23.0625 L502.5,24.1563 Z " fill="#000000"/><text fill="#000000" font-family="sans-serif" font-size="12" lengthAdjust="spacingAndGlyphs" textLength="90" x="521.5" y="26.948">RegisterClientUI</text><line style="stroke:#A80036;stroke-width:1.5;" x1="493.5" x2="613.5" y1="39" y2="39"/><line style="stroke:#A80036;stroke-width:1.5;" x1="493.5" x2="613.5" y1="47" y2="47"/><rect fill="#F24D5C" height="6" style="stroke:#C82930;stroke-width:1.0;" width="6" x="500.5" y="55"/><text fill="#000000" font-family="sans-serif" font-size="11" lengthAdjust="spacingAndGlyphs" textLength="83" x="512.5" y="61.2189">show(clientDTO)</text><rect fill="#F24D5C" height="6" style="stroke:#C82930;stroke-width:1.0;" width="6" x="500.5" y="68.1999"/><text fill="#000000" font-family="sans-serif" font-size="11" lengthAdjust="spacingAndGlyphs" textLength="58" x="512.5" y="74.4188">show(state)</text><!--MD5=[1a7fda4a36185bcd740bdf14b2b3a45e]
class RegisterClientController--><rect codeLine="6" fill="#FEFECE" filter="url(#f14bfswf8ksmfw)" height="153.5992" id="RegisterClientController" style="stroke:#A80036;stroke-width:1.5;" width="513" x="142" y="142"/><ellipse cx="328.25" cy="158" fill="#ADD1B2" rx="11" ry="11" style="stroke:#A80036;stroke-width:1.0;"/><path d="M323.25,159.1563 C323.25,161.6563 325.3906,163.4688 328.3125,163.4688 C329.5469,163.4688 330.7188,163.1719 331.4688,162.6563 C332.0781,162.2344 332.4063,161.8125 332.4063,161.4063 C332.4063,160.9375 331.9844,160.5313 331.4844,160.5313 C331.25,160.5313 331.0313,160.6094 330.8281,160.8125 C330.3906,161.25 330.3906,161.25 330.2188,161.3438 C329.7656,161.5781 329.125,161.7188 328.3594,161.7188 C326.3594,161.7188 325.0781,160.7031 325.0781,159.125 L325.0781,158.0781 C325.0781,156.375 326.2969,155.1719 328,155.1719 C328.5781,155.1719 329.1563,155.3125 329.625,155.5625 C330.0938,155.8281 330.2656,156.0156 330.3281,156.375 C330.4531,157.0469 330.7031,157.2969 331.2344,157.2969 C331.5156,157.2969 331.7969,157.1563 331.9844,156.9375 C332.1094,156.7656 332.1563,156.5938 332.1563,156.1563 L332.1563,154.7969 C332.1563,154.375 332.1406,154.2344 332.0156,154.0625 C331.8438,153.8125 331.5625,153.6563 331.2344,153.6563 C330.9219,153.6563 330.7188,153.7656 330.5,154.0313 C329.3281,153.5313 328.8906,153.4219 327.9375,153.4219 C325.2656,153.4219 323.25,155.4375 323.25,158.0625 L323.25,159.1563 Z " fill="#000000"/><text fill="#000000" font-family="sans-serif" font-size="12" lengthAdjust="spacingAndGlyphs" textLength="132" x="348.75" y="161.948">RegisterClientController</text><line style="stroke:#A80036;stroke-width:1.5;" x1="143" x2="654" y1="174" y2="174"/><ellipse cx="153" cy="185" fill="none" rx="3" ry="3" style="stroke:#038048;stroke-width:1.0;"/><text fill="#000000" font-family="sans-serif" font-size="11" lengthAdjust="spacingAndGlyphs" textLength="65" x="162" y="188.2189">boolean state</text><line style="stroke:#A80036;stroke-width:1.5;" x1="143" x2="654" y1="195.1999" y2="195.1999"/><ellipse cx="153" cy="206.1999" fill="#84BE84" rx="3" ry="3" style="stroke:#038048;stroke-width:1.0;"/><text fill="#000000" font-family="sans-serif" font-size="11" lengthAdjust="spacingAndGlyphs" textLength="121" x="162" y="209.4188">registerClient(clientDTO)</text><ellipse cx="153" cy="219.3998" fill="#84BE84" rx="3" ry="3" style="stroke:#038048;stroke-width:1.0;"/><text fill="#000000" font-family="sans-serif" font-size="11" lengthAdjust="spacingAndGlyphs" textLength="487" x="162" y="222.6187">createClientDTO(name, CCNumber, NHSNumber, birthdate, sex, TINNumber, phoneNumber, email)</text><ellipse cx="153" cy="232.5997" fill="#84BE84" rx="3" ry="3" style="stroke:#038048;stroke-width:1.0;"/><text fill="#000000" font-family="sans-serif" font-size="11" lengthAdjust="spacingAndGlyphs" textLength="117" x="162" y="235.8186">createClient(ClientDTO)</text><ellipse cx="153" cy="245.7996" fill="#84BE84" rx="3" ry="3" style="stroke:#038048;stroke-width:1.0;"/><text fill="#000000" font-family="sans-serif" font-size="11" lengthAdjust="spacingAndGlyphs" textLength="50" x="162" y="249.0185">getClient()</text><ellipse cx="153" cy="258.9995" fill="#84BE84" rx="3" ry="3" style="stroke:#038048;stroke-width:1.0;"/><text fill="#000000" font-family="sans-serif" font-size="11" lengthAdjust="spacingAndGlyphs" textLength="59" x="162" y="262.2184">save(Client)</text><ellipse cx="153" cy="272.1994" fill="#84BE84" rx="3" ry="3" style="stroke:#038048;stroke-width:1.0;"/><text fill="#000000" font-family="sans-serif" font-size="11" lengthAdjust="spacingAndGlyphs" textLength="120" x="162" y="275.4183">registerUser(ClientDTO)</text><ellipse cx="153" cy="285.3993" fill="#84BE84" rx="3" ry="3" style="stroke:#038048;stroke-width:1.0;"/><text fill="#000000" font-family="sans-serif" font-size="11" lengthAdjust="spacingAndGlyphs" textLength="138" x="162" y="288.6182">sendCredentials(ClientDTO)</text><!--MD5=[d92da6d3e9b1e9631354e1a6db35e891]
class ClientDTO--><rect codeLine="20" fill="#FEFECE" filter="url(#f14bfswf8ksmfw)" height="166.7991" id="ClientDTO" style="stroke:#A80036;stroke-width:1.5;" width="126" x="402.5" y="760"/><ellipse cx="434.15" cy="776" fill="#ADD1B2" rx="11" ry="11" style="stroke:#A80036;stroke-width:1.0;"/><path d="M429.15,777.1563 C429.15,779.6563 431.2906,781.4688 434.2125,781.4688 C435.4469,781.4688 436.6188,781.1719 437.3688,780.6563 C437.9781,780.2344 438.3063,779.8125 438.3063,779.4063 C438.3063,778.9375 437.8844,778.5313 437.3844,778.5313 C437.15,778.5313 436.9313,778.6094 436.7281,778.8125 C436.2906,779.25 436.2906,779.25 436.1188,779.3438 C435.6656,779.5781 435.025,779.7188 434.2594,779.7188 C432.2594,779.7188 430.9781,778.7031 430.9781,777.125 L430.9781,776.0781 C430.9781,774.375 432.1969,773.1719 433.9,773.1719 C434.4781,773.1719 435.0563,773.3125 435.525,773.5625 C435.9938,773.8281 436.1656,774.0156 436.2281,774.375 C436.3531,775.0469 436.6031,775.2969 437.1344,775.2969 C437.4156,775.2969 437.6969,775.1563 437.8844,774.9375 C438.0094,774.7656 438.0563,774.5938 438.0563,774.1563 L438.0563,772.7969 C438.0563,772.375 438.0406,772.2344 437.9156,772.0625 C437.7438,771.8125 437.4625,771.6563 437.1344,771.6563 C436.8219,771.6563 436.6188,771.7656 436.4,772.0313 C435.2281,771.5313 434.7906,771.4219 433.8375,771.4219 C431.1656,771.4219 429.15,773.4375 429.15,776.0625 L429.15,777.1563 Z " fill="#000000"/><text fill="#000000" font-family="sans-serif" font-size="12" lengthAdjust="spacingAndGlyphs" textLength="57" x="451.85" y="779.948">ClientDTO</text><line style="stroke:#A80036;stroke-width:1.5;" x1="403.5" x2="527.5" y1="792" y2="792"/><ellipse cx="413.5" cy="803" fill="none" rx="3" ry="3" style="stroke:#038048;stroke-width:1.0;"/><text fill="#000000" font-family="sans-serif" font-size="11" lengthAdjust="spacingAndGlyphs" textLength="58" x="422.5" y="806.2189">String name</text><ellipse cx="413.5" cy="816.1999" fill="none" rx="3" ry="3" style="stroke:#038048;stroke-width:1.0;"/><text fill="#000000" font-family="sans-serif" font-size="11" lengthAdjust="spacingAndGlyphs" textLength="86" x="422.5" y="819.4188">String CCNumber</text><ellipse cx="413.5" cy="829.3998" fill="none" rx="3" ry="3" style="stroke:#038048;stroke-width:1.0;"/><text fill="#000000" font-family="sans-serif" font-size="11" lengthAdjust="spacingAndGlyphs" textLength="93" x="422.5" y="832.6187">String NHSNumber</text><ellipse cx="413.5" cy="842.5997" fill="none" rx="3" ry="3" style="stroke:#038048;stroke-width:1.0;"/><text fill="#000000" font-family="sans-serif" font-size="11" lengthAdjust="spacingAndGlyphs" textLength="68" x="422.5" y="845.8186">Date birthdate</text><ellipse cx="413.5" cy="855.7996" fill="none" rx="3" ry="3" style="stroke:#038048;stroke-width:1.0;"/><text fill="#000000" font-family="sans-serif" font-size="11" lengthAdjust="spacingAndGlyphs" textLength="49" x="422.5" y="859.0185">String sex</text><ellipse cx="413.5" cy="868.9995" fill="none" rx="3" ry="3" style="stroke:#038048;stroke-width:1.0;"/><text fill="#000000" font-family="sans-serif" font-size="11" lengthAdjust="spacingAndGlyphs" textLength="88" x="422.5" y="872.2184">String TINNumber</text><ellipse cx="413.5" cy="882.1994" fill="none" rx="3" ry="3" style="stroke:#038048;stroke-width:1.0;"/><text fill="#000000" font-family="sans-serif" font-size="11" lengthAdjust="spacingAndGlyphs" textLength="100" x="422.5" y="885.4183">String phoneNumber</text><ellipse cx="413.5" cy="895.3993" fill="none" rx="3" ry="3" style="stroke:#038048;stroke-width:1.0;"/><text fill="#000000" font-family="sans-serif" font-size="11" lengthAdjust="spacingAndGlyphs" textLength="56" x="422.5" y="898.6182">String email</text><ellipse cx="413.5" cy="908.5992" fill="none" rx="3" ry="3" style="stroke:#038048;stroke-width:1.0;"/><text fill="#000000" font-family="sans-serif" font-size="11" lengthAdjust="spacingAndGlyphs" textLength="79" x="422.5" y="911.8181">String password</text><line style="stroke:#A80036;stroke-width:1.5;" x1="403.5" x2="527.5" y1="918.7991" y2="918.7991"/><!--MD5=[03960189e81aa2c066c762ffabbee709]
class Receptionist--><rect codeLine="36" fill="#FEFECE" filter="url(#f14bfswf8ksmfw)" height="87.5997" id="Receptionist" style="stroke:#A80036;stroke-width:1.5;" width="143" x="195" y="595"/><ellipse cx="229.35" cy="611" fill="#ADD1B2" rx="11" ry="11" style="stroke:#A80036;stroke-width:1.0;"/><path d="M224.35,612.1563 C224.35,614.6563 226.4906,616.4688 229.4125,616.4688 C230.6469,616.4688 231.8188,616.1719 232.5688,615.6563 C233.1781,615.2344 233.5063,614.8125 233.5063,614.4063 C233.5063,613.9375 233.0844,613.5313 232.5844,613.5313 C232.35,613.5313 232.1313,613.6094 231.9281,613.8125 C231.4906,614.25 231.4906,614.25 231.3188,614.3438 C230.8656,614.5781 230.225,614.7188 229.4594,614.7188 C227.4594,614.7188 226.1781,613.7031 226.1781,612.125 L226.1781,611.0781 C226.1781,609.375 227.3969,608.1719 229.1,608.1719 C229.6781,608.1719 230.2563,608.3125 230.725,608.5625 C231.1938,608.8281 231.3656,609.0156 231.4281,609.375 C231.5531,610.0469 231.8031,610.2969 232.3344,610.2969 C232.6156,610.2969 232.8969,610.1563 233.0844,609.9375 C233.2094,609.7656 233.2563,609.5938 233.2563,609.1563 L233.2563,607.7969 C233.2563,607.375 233.2406,607.2344 233.1156,607.0625 C232.9438,606.8125 232.6625,606.6563 232.3344,606.6563 C232.0219,606.6563 231.8188,606.7656 231.6,607.0313 C230.4281,606.5313 229.9906,606.4219 229.0375,606.4219 C226.3656,606.4219 224.35,608.4375 224.35,611.0625 L224.35,612.1563 Z " fill="#000000"/><text fill="#000000" font-family="sans-serif" font-size="12" lengthAdjust="spacingAndGlyphs" textLength="68" x="247.65" y="614.948">Receptionist</text><line style="stroke:#A80036;stroke-width:1.5;" x1="196" x2="337" y1="627" y2="627"/><line style="stroke:#A80036;stroke-width:1.5;" x1="196" x2="337" y1="635" y2="635"/><ellipse cx="206" cy="646" fill="#84BE84" rx="3" ry="3" style="stroke:#038048;stroke-width:1.0;"/><text fill="#000000" font-family="sans-serif" font-size="11" lengthAdjust="spacingAndGlyphs" textLength="50" x="215" y="649.2189">getUser();</text><ellipse cx="206" cy="659.1999" fill="#84BE84" rx="3" ry="3" style="stroke:#038048;stroke-width:1.0;"/><text fill="#000000" font-family="sans-serif" font-size="11" lengthAdjust="spacingAndGlyphs" textLength="53" x="215" y="662.4188">getClient();</text><ellipse cx="206" cy="672.3998" fill="#84BE84" rx="3" ry="3" style="stroke:#038048;stroke-width:1.0;"/><text fill="#000000" font-family="sans-serif" font-size="11" lengthAdjust="spacingAndGlyphs" textLength="117" x="215" y="675.6187">createClient(ClientDTO)</text><!--MD5=[ed6624c6556d5e7b1bd23032162d20b7]
class Client--><rect codeLine="44" fill="#FEFECE" filter="url(#f14bfswf8ksmfw)" height="166.7991" id="Client" style="stroke:#A80036;stroke-width:1.5;" width="126" x="116.5" y="760"/><ellipse cx="159.4" cy="776" fill="#ADD1B2" rx="11" ry="11" style="stroke:#A80036;stroke-width:1.0;"/><path d="M154.4,777.1563 C154.4,779.6563 156.5406,781.4688 159.4625,781.4688 C160.6969,781.4688 161.8688,781.1719 162.6188,780.6563 C163.2281,780.2344 163.5563,779.8125 163.5563,779.4063 C163.5563,778.9375 163.1344,778.5313 162.6344,778.5313 C162.4,778.5313 162.1813,778.6094 161.9781,778.8125 C161.5406,779.25 161.5406,779.25 161.3688,779.3438 C160.9156,779.5781 160.275,779.7188 159.5094,779.7188 C157.5094,779.7188 156.2281,778.7031 156.2281,777.125 L156.2281,776.0781 C156.2281,774.375 157.4469,773.1719 159.15,773.1719 C159.7281,773.1719 160.3063,773.3125 160.775,773.5625 C161.2438,773.8281 161.4156,774.0156 161.4781,774.375 C161.6031,775.0469 161.8531,775.2969 162.3844,775.2969 C162.6656,775.2969 162.9469,775.1563 163.1344,774.9375 C163.2594,774.7656 163.3063,774.5938 163.3063,774.1563 L163.3063,772.7969 C163.3063,772.375 163.2906,772.2344 163.1656,772.0625 C162.9938,771.8125 162.7125,771.6563 162.3844,771.6563 C162.0719,771.6563 161.8688,771.7656 161.65,772.0313 C160.4781,771.5313 160.0406,771.4219 159.0875,771.4219 C156.4156,771.4219 154.4,773.4375 154.4,776.0625 L154.4,777.1563 Z " fill="#000000"/><text fill="#000000" font-family="sans-serif" font-size="12" lengthAdjust="spacingAndGlyphs" textLength="32" x="179.6" y="779.948">Client</text><line style="stroke:#A80036;stroke-width:1.5;" x1="117.5" x2="241.5" y1="792" y2="792"/><rect fill="none" height="6" style="stroke:#C82930;stroke-width:1.0;" width="6" x="124.5" y="800"/><text fill="#000000" font-family="sans-serif" font-size="11" lengthAdjust="spacingAndGlyphs" textLength="58" x="136.5" y="806.2189">String name</text><rect fill="none" height="6" style="stroke:#C82930;stroke-width:1.0;" width="6" x="124.5" y="813.1999"/><text fill="#000000" font-family="sans-serif" font-size="11" lengthAdjust="spacingAndGlyphs" textLength="86" x="136.5" y="819.4188">String CCNumber</text><rect fill="none" height="6" style="stroke:#C82930;stroke-width:1.0;" width="6" x="124.5" y="826.3998"/><text fill="#000000" font-family="sans-serif" font-size="11" lengthAdjust="spacingAndGlyphs" textLength="93" x="136.5" y="832.6187">String NHSNumber</text><rect fill="none" height="6" style="stroke:#C82930;stroke-width:1.0;" width="6" x="124.5" y="839.5997"/><text fill="#000000" font-family="sans-serif" font-size="11" lengthAdjust="spacingAndGlyphs" textLength="73" x="136.5" y="845.8186">String birthdate</text><rect fill="none" height="6" style="stroke:#C82930;stroke-width:1.0;" width="6" x="124.5" y="852.7996"/><text fill="#000000" font-family="sans-serif" font-size="11" lengthAdjust="spacingAndGlyphs" textLength="49" x="136.5" y="859.0185">String sex</text><rect fill="none" height="6" style="stroke:#C82930;stroke-width:1.0;" width="6" x="124.5" y="865.9995"/><text fill="#000000" font-family="sans-serif" font-size="11" lengthAdjust="spacingAndGlyphs" textLength="88" x="136.5" y="872.2184">String TINNumber</text><rect fill="none" height="6" style="stroke:#C82930;stroke-width:1.0;" width="6" x="124.5" y="879.1994"/><text fill="#000000" font-family="sans-serif" font-size="11" lengthAdjust="spacingAndGlyphs" textLength="100" x="136.5" y="885.4183">String phoneNumber</text><rect fill="none" height="6" style="stroke:#C82930;stroke-width:1.0;" width="6" x="124.5" y="892.3993"/><text fill="#000000" font-family="sans-serif" font-size="11" lengthAdjust="spacingAndGlyphs" textLength="56" x="136.5" y="898.6182">String email</text><rect fill="none" height="6" style="stroke:#C82930;stroke-width:1.0;" width="6" x="124.5" y="905.5992"/><text fill="#000000" font-family="sans-serif" font-size="11" lengthAdjust="spacingAndGlyphs" textLength="79" x="136.5" y="911.8181">String password</text><line style="stroke:#A80036;stroke-width:1.5;" x1="117.5" x2="241.5" y1="918.7991" y2="918.7991"/><!--MD5=[02e4b9b7573f1156f41e60aa5b4e25a4]
class Company--><rect codeLine="57" fill="#FEFECE" filter="url(#f14bfswf8ksmfw)" height="100.7996" id="Company" style="stroke:#A80036;stroke-width:1.5;" width="179" x="7" y="373"/><ellipse cx="65.75" cy="389" fill="#ADD1B2" rx="11" ry="11" style="stroke:#A80036;stroke-width:1.0;"/><path d="M60.75,390.1563 C60.75,392.6563 62.8906,394.4688 65.8125,394.4688 C67.0469,394.4688 68.2188,394.1719 68.9688,393.6563 C69.5781,393.2344 69.9063,392.8125 69.9063,392.4063 C69.9063,391.9375 69.4844,391.5313 68.9844,391.5313 C68.75,391.5313 68.5313,391.6094 68.3281,391.8125 C67.8906,392.25 67.8906,392.25 67.7188,392.3438 C67.2656,392.5781 66.625,392.7188 65.8594,392.7188 C63.8594,392.7188 62.5781,391.7031 62.5781,390.125 L62.5781,389.0781 C62.5781,387.375 63.7969,386.1719 65.5,386.1719 C66.0781,386.1719 66.6563,386.3125 67.125,386.5625 C67.5938,386.8281 67.7656,387.0156 67.8281,387.375 C67.9531,388.0469 68.2031,388.2969 68.7344,388.2969 C69.0156,388.2969 69.2969,388.1563 69.4844,387.9375 C69.6094,387.7656 69.6563,387.5938 69.6563,387.1563 L69.6563,385.7969 C69.6563,385.375 69.6406,385.2344 69.5156,385.0625 C69.3438,384.8125 69.0625,384.6563 68.7344,384.6563 C68.4219,384.6563 68.2188,384.7656 68,385.0313 C66.8281,384.5313 66.3906,384.4219 65.4375,384.4219 C62.7656,384.4219 60.75,386.4375 60.75,389.0625 L60.75,390.1563 Z " fill="#000000"/><text fill="#000000" font-family="sans-serif" font-size="12" lengthAdjust="spacingAndGlyphs" textLength="53" x="86.25" y="392.948">Company</text><line style="stroke:#A80036;stroke-width:1.5;" x1="8" x2="185" y1="405" y2="405"/><rect fill="none" height="6" style="stroke:#C82930;stroke-width:1.0;" width="6" x="15" y="413"/><text fill="#000000" font-family="sans-serif" font-size="11" lengthAdjust="spacingAndGlyphs" textLength="89" x="27" y="419.2189">Set&lt;Client&gt; clients</text><rect fill="none" height="6" style="stroke:#C82930;stroke-width:1.0;" width="6" x="15" y="426.1999"/><text fill="#000000" font-family="sans-serif" font-size="11" lengthAdjust="spacingAndGlyphs" textLength="153" x="27" y="432.4188">Set&lt;Receptionist&gt; receptionists</text><line style="stroke:#A80036;stroke-width:1.5;" x1="8" x2="185" y1="439.3998" y2="439.3998"/><ellipse cx="18" cy="450.3998" fill="#84BE84" rx="3" ry="3" style="stroke:#038048;stroke-width:1.0;"/><text fill="#000000" font-family="sans-serif" font-size="11" lengthAdjust="spacingAndGlyphs" textLength="59" x="27" y="453.6187">save(Client)</text><ellipse cx="18" cy="463.5997" fill="#84BE84" rx="3" ry="3" style="stroke:#038048;stroke-width:1.0;"/><text fill="#000000" font-family="sans-serif" font-size="11" lengthAdjust="spacingAndGlyphs" textLength="122" x="27" y="466.8186">getReceptionist(String id)</text><!--MD5=[8ae808d068a8995f06b9b3ec51357f0b]
class AuthFacade--><rect codeLine="75" fill="#FEFECE" filter="url(#f14bfswf8ksmfw)" height="61.1999" id="AuthFacade" style="stroke:#A80036;stroke-width:1.5;" width="119" x="516" y="504"/><ellipse cx="540.45" cy="520" fill="#ADD1B2" rx="11" ry="11" style="stroke:#A80036;stroke-width:1.0;"/><path d="M535.45,521.1563 C535.45,523.6563 537.5906,525.4688 540.5125,525.4688 C541.7469,525.4688 542.9188,525.1719 543.6688,524.6563 C544.2781,524.2344 544.6063,523.8125 544.6063,523.4063 C544.6063,522.9375 544.1844,522.5313 543.6844,522.5313 C543.45,522.5313 543.2313,522.6094 543.0281,522.8125 C542.5906,523.25 542.5906,523.25 542.4188,523.3438 C541.9656,523.5781 541.325,523.7188 540.5594,523.7188 C538.5594,523.7188 537.2781,522.7031 537.2781,521.125 L537.2781,520.0781 C537.2781,518.375 538.4969,517.1719 540.2,517.1719 C540.7781,517.1719 541.3563,517.3125 541.825,517.5625 C542.2938,517.8281 542.4656,518.0156 542.5281,518.375 C542.6531,519.0469 542.9031,519.2969 543.4344,519.2969 C543.7156,519.2969 543.9969,519.1563 544.1844,518.9375 C544.3094,518.7656 544.3563,518.5938 544.3563,518.1563 L544.3563,516.7969 C544.3563,516.375 544.3406,516.2344 544.2156,516.0625 C544.0438,515.8125 543.7625,515.6563 543.4344,515.6563 C543.1219,515.6563 542.9188,515.7656 542.7,516.0313 C541.5281,515.5313 541.0906,515.4219 540.1375,515.4219 C537.4656,515.4219 535.45,517.4375 535.45,520.0625 L535.45,521.1563 Z " fill="#000000"/><text fill="#000000" font-family="sans-serif" font-size="12" lengthAdjust="spacingAndGlyphs" textLength="66" x="556.55" y="523.948">AuthFacade</text><line style="stroke:#A80036;stroke-width:1.5;" x1="517" x2="634" y1="536" y2="536"/><line style="stroke:#A80036;stroke-width:1.5;" x1="517" x2="634" y1="544" y2="544"/><ellipse cx="527" cy="555" fill="#84BE84" rx="3" ry="3" style="stroke:#038048;stroke-width:1.0;"/><text fill="#000000" font-family="sans-serif" font-size="11" lengthAdjust="spacingAndGlyphs" textLength="93" x="536" y="558.2189">addUserWithRole()</text><!--MD5=[05d7d738780764cce96acbbef0300d74]
class MailAdapter--><rect codeLine="79" fill="#FEFECE" filter="url(#f14bfswf8ksmfw)" height="61.1999" id="MailAdapter" style="stroke:#A80036;stroke-width:1.5;" width="128" x="297.5" y="504"/><ellipse cx="326" cy="520" fill="#ADD1B2" rx="11" ry="11" style="stroke:#A80036;stroke-width:1.0;"/><path d="M321,521.1563 C321,523.6563 323.1406,525.4688 326.0625,525.4688 C327.2969,525.4688 328.4688,525.1719 329.2188,524.6563 C329.8281,524.2344 330.1563,523.8125 330.1563,523.4063 C330.1563,522.9375 329.7344,522.5313 329.2344,522.5313 C329,522.5313 328.7813,522.6094 328.5781,522.8125 C328.1406,523.25 328.1406,523.25 327.9688,523.3438 C327.5156,523.5781 326.875,523.7188 326.1094,523.7188 C324.1094,523.7188 322.8281,522.7031 322.8281,521.125 L322.8281,520.0781 C322.8281,518.375 324.0469,517.1719 325.75,517.1719 C326.3281,517.1719 326.9063,517.3125 327.375,517.5625 C327.8438,517.8281 328.0156,518.0156 328.0781,518.375 C328.2031,519.0469 328.4531,519.2969 328.9844,519.2969 C329.2656,519.2969 329.5469,519.1563 329.7344,518.9375 C329.8594,518.7656 329.9063,518.5938 329.9063,518.1563 L329.9063,516.7969 C329.9063,516.375 329.8906,516.2344 329.7656,516.0625 C329.5938,515.8125 329.3125,515.6563 328.9844,515.6563 C328.6719,515.6563 328.4688,515.7656 328.25,516.0313 C327.0781,515.5313 326.6406,515.4219 325.6875,515.4219 C323.0156,515.4219 321,517.4375 321,520.0625 L321,521.1563 Z " fill="#000000"/><text fill="#000000" font-family="sans-serif" font-size="12" lengthAdjust="spacingAndGlyphs" textLength="66" x="343" y="523.948">MailAdapter</text><line style="stroke:#A80036;stroke-width:1.5;" x1="298.5" x2="424.5" y1="536" y2="536"/><line style="stroke:#A80036;stroke-width:1.5;" x1="298.5" x2="424.5" y1="544" y2="544"/><ellipse cx="308.5" cy="555" fill="#84BE84" rx="3" ry="3" style="stroke:#038048;stroke-width:1.0;"/><text fill="#000000" font-family="sans-serif" font-size="11" lengthAdjust="spacingAndGlyphs" textLength="102" x="317.5" y="558.2189">sendmsg(email, text)</text><!--MD5=[98d2d934d445daef8d5bcbeea20c1f70]
link RegisterClientUI to RegisterClientController--><path codeLine="17" d="M521.01,81.27 C506.19,97.8 488.02,118.08 470.26,137.91 " fill="none" id="RegisterClientUI-to-RegisterClientController" style="stroke:#A80036;stroke-width:1.0;stroke-dasharray:7.0,7.0;"/><polygon fill="#A80036" points="466.71,141.87,475.6876,137.8199,470.0398,138.1401,469.7197,132.4923,466.71,141.87" style="stroke:#A80036;stroke-width:1.0;"/><!--MD5=[401103b44f5971919e28af6a6eb0cda9]
link RegisterClientController to ClientDTO--><path codeLine="18" d="M411.28,296.06 C412.8,306.11 414.25,316.29 415.5,326 C434.77,476.04 450.28,651.47 458.66,754.42 " fill="none" id="RegisterClientController-to-ClientDTO" style="stroke:#A80036;stroke-width:1.0;stroke-dasharray:7.0,7.0;"/><polygon fill="#A80036" points="459.08,759.58,462.3474,750.2889,458.6801,754.596,454.3731,750.9287,459.08,759.58" style="stroke:#A80036;stroke-width:1.0;"/><text fill="#000000" font-family="sans-serif" font-size="13" lengthAdjust="spacingAndGlyphs" textLength="43" x="441.5" y="539.077">creates</text><!--MD5=[bdc3035898bd7d7abd5a65788303ba4d]
link RegisterClientController to Receptionist--><path codeLine="33" d="M396.77,296.12 C395.01,311.86 392.12,328.16 387.5,343 C363.07,421.48 326.02,427.29 296.5,504 C285.9,531.53 278.54,563.76 273.76,589.71 " fill="none" id="RegisterClientController-to-Receptionist" style="stroke:#A80036;stroke-width:1.0;stroke-dasharray:7.0,7.0;"/><polygon fill="#A80036" points="272.84,594.81,278.3729,586.6622,273.7269,589.8893,270.4998,585.2432,272.84,594.81" style="stroke:#A80036;stroke-width:1.0;"/><!--MD5=[6a35157f4c730bda767e7c9f1b8b7f73]
link Receptionist to Client--><path codeLine="42" d="M247.84,683.44 C238.81,704.45 227.64,730.44 216.97,755.29 " fill="none" id="Receptionist-to-Client" style="stroke:#A80036;stroke-width:1.0;stroke-dasharray:7.0,7.0;"/><polygon fill="#A80036" points="214.98,759.92,222.2094,753.2315,216.9548,755.3265,214.8598,750.0719,214.98,759.92" style="stroke:#A80036;stroke-width:1.0;"/><text fill="#000000" font-family="sans-serif" font-size="13" lengthAdjust="spacingAndGlyphs" textLength="43" x="234.5" y="726.077">creates</text><!--MD5=[643792627e1c1924fc8ffc1a39f5e611]
link RegisterClientUI to ClientDTO--><path codeLine="64" d="M614.76,80.76 C658.09,111.13 708.5,159.12 708.5,218 C708.5,218 708.5,218 708.5,640 C708.5,731.62 605.29,789.83 533.4,819.26 " fill="none" id="RegisterClientUI-to-ClientDTO" style="stroke:#A80036;stroke-width:1.0;stroke-dasharray:7.0,7.0;"/><polygon fill="#A80036" points="528.71,821.16,538.5532,821.4948,533.3454,819.2858,535.5544,814.0781,528.71,821.16" style="stroke:#A80036;stroke-width:1.0;"/><!--MD5=[6eee883fdf517d3604e8bd0f2058e9aa]
link Company to Client--><path codeLine="65" d="M99.22,474.08 C102.8,526.49 110.61,611.32 126.5,683 C131.75,706.67 139.17,731.78 146.81,754.9 " fill="none" id="Company-to-Client" style="stroke:#A80036;stroke-width:1.0;"/><polygon fill="#A80036" points="148.44,759.8,149.3798,749.9961,146.8546,755.058,141.7926,752.5328,148.44,759.8" style="stroke:#A80036;stroke-width:1.0;"/><text fill="#000000" font-family="sans-serif" font-size="13" lengthAdjust="spacingAndGlyphs" textLength="49" x="127.5" y="643.577">contains</text><text fill="#000000" font-family="sans-serif" font-size="13" lengthAdjust="spacingAndGlyphs" textLength="7" x="92.1152" y="494.0153">1</text><text fill="#000000" font-family="sans-serif" font-size="13" lengthAdjust="spacingAndGlyphs" textLength="5" x="140.3462" y="748.5064">*</text><!--MD5=[5448e79142bdfcbfebd9929e0faf45a6]
link Company to Receptionist--><path codeLine="66" d="M129.76,474.14 C148.75,501.6 173.49,535.93 197.5,565 C204.56,573.55 212.37,582.36 220.13,590.77 " fill="none" id="Company-to-Receptionist" style="stroke:#A80036;stroke-width:1.0;"/><polygon fill="#A80036" points="223.92,594.86,220.7215,585.545,220.5156,591.1981,214.8624,590.9921,223.92,594.86" style="stroke:#A80036;stroke-width:1.0;"/><text fill="#000000" font-family="sans-serif" font-size="13" lengthAdjust="spacingAndGlyphs" textLength="49" x="198.5" y="539.077">contains</text><text fill="#000000" font-family="sans-serif" font-size="13" lengthAdjust="spacingAndGlyphs" textLength="7" x="126.573" y="493.7175">1</text><text fill="#000000" font-family="sans-serif" font-size="13" lengthAdjust="spacingAndGlyphs" textLength="5" x="211.4536" y="583.467">*</text><!--MD5=[a9f3adf95abaa71f246e1e58b82ba5c3]
link Receptionist to ClientDTO--><path codeLine="68" d="M309.19,683.44 C335.31,710.02 369.28,744.59 398.88,774.71 " fill="none" id="Receptionist-to-ClientDTO" style="stroke:#A80036;stroke-width:1.0;stroke-dasharray:7.0,7.0;"/><polygon fill="#A80036" points="402.47,778.36,399.009,769.1393,398.9632,774.796,393.3065,774.7502,402.47,778.36" style="stroke:#A80036;stroke-width:1.0;"/><!--MD5=[198be3749d42ca56b2a20022cdc44bdd]
link RegisterClientController to Company--><path codeLine="69" d="M240.27,296.12 C224.4,305.54 208.87,315.56 194.5,326 C177.23,338.55 160.06,354.11 145.04,369.04 " fill="none" id="RegisterClientController-to-Company" style="stroke:#A80036;stroke-width:1.0;stroke-dasharray:7.0,7.0;"/><polygon fill="#A80036" points="141.27,372.82,150.4552,369.2659,144.7984,369.2773,144.787,363.6205,141.27,372.82" style="stroke:#A80036;stroke-width:1.0;"/><!--MD5=[4541fad9fcee56e892a45f6a0a15ecd9]
link AuthFacade to ClientDTO--><path codeLine="70" d="M564.85,565.22 C549.3,608.63 519.73,691.15 496.88,754.92 " fill="none" id="AuthFacade-to-ClientDTO" style="stroke:#A80036;stroke-width:1.0;stroke-dasharray:7.0,7.0;"/><polygon fill="#A80036" points="495.11,759.87,501.9136,752.7488,496.798,755.1636,494.3833,750.048,495.11,759.87" style="stroke:#A80036;stroke-width:1.0;"/><!--MD5=[a49b25ece252c9a4c43cc0b77f7dd5ff]
link MailAdapter to ClientDTO--><path codeLine="71" d="M371.57,565.22 C386.27,608.63 414.23,691.15 435.83,754.92 " fill="none" id="MailAdapter-to-ClientDTO" style="stroke:#A80036;stroke-width:1.0;stroke-dasharray:7.0,7.0;"/><polygon fill="#A80036" points="437.51,759.87,438.3878,750.0603,435.8946,755.1381,430.8168,752.645,437.51,759.87" style="stroke:#A80036;stroke-width:1.0;"/><!--MD5=[af0588ff0c0c96cebac3a21f165c2344]
link RegisterClientController to AuthFacade--><path codeLine="73" d="M470.47,296.11 C478.06,305.81 485.27,315.89 491.5,326 C526.45,382.7 552.26,456.49 565.49,499.07 " fill="none" id="RegisterClientController-to-AuthFacade" style="stroke:#A80036;stroke-width:1.0;stroke-dasharray:7.0,7.0;"/><polygon fill="#A80036" points="566.97,503.85,568.1484,494.0719,565.5006,499.0708,560.5017,496.423,566.97,503.85" style="stroke:#A80036;stroke-width:1.0;"/><text fill="#000000" font-family="sans-serif" font-size="13" lengthAdjust="spacingAndGlyphs" textLength="117" x="500.5" y="339.077">registers a new user</text><!--MD5=[673d7533a7055ec3307266c5a7b0c222]
link RegisterClientController to MailAdapter--><path codeLine="83" d="M307.94,296.08 C300.96,305.44 294.92,315.46 290.5,326 C265.36,385.91 305.28,458.14 334.7,499.66 " fill="none" id="RegisterClientController-to-MailAdapter" style="stroke:#A80036;stroke-width:1.0;stroke-dasharray:7.0,7.0;"/><polygon fill="#A80036" points="337.69,503.82,335.6881,494.1767,334.773,499.7591,329.1907,498.8439,337.69,503.82" style="stroke:#A80036;stroke-width:1.0;"/><text fill="#000000" font-family="sans-serif" font-size="13" lengthAdjust="spacingAndGlyphs" textLength="147" x="291.5" y="339.077">sends credential to Client</text><!--MD5=[6e6b8e7206a942fd88600bf2e0d22684]
@startuml
class RegisterClientUI {
 -show(clientDTO)
 -show(state)
}

class RegisterClientController {
  +boolean state
  +registerClient(clientDTO)
  +createClientDTO(name, CCNumber, NHSNumber, birthdate, sex, TINNumber, phoneNumber, email)
  +createClient(ClientDTO)
  +getClient()
  +save(Client)
  +registerUser(ClientDTO)
  +sendCredentials(ClientDTO)
}

RegisterClientUI ..> RegisterClientController
RegisterClientController ..> ClientDTO : creates

class ClientDTO{
+String name
+String CCNumber
+String NHSNumber
+Date birthdate
+String sex
+String TINNumber
+String phoneNumber
+String email
+String password
}


RegisterClientController ..> Receptionist


class Receptionist{
+getUser();
+getClient();
+createClient(ClientDTO)
}

Receptionist ..> Client : creates

class Client{
-String name
-String CCNumber
-String NHSNumber
-String birthdate
-String sex
-String TINNumber
-String phoneNumber
-String email
-String password

}

class Company{
+save(Client)
+getReceptionist(String id)
-Set<Client> clients
-Set<Receptionist> receptionists
}

RegisterClientUI ..> ClientDTO
Company "1" - -> "*" Client : contains
Company "1" - -> "*" Receptionist : contains

Receptionist ..> ClientDTO
RegisterClientController ..> Company
AuthFacade ..> ClientDTO
MailAdapter ..> ClientDTO

RegisterClientController ..> AuthFacade : registers a new user

class AuthFacade{
+addUserWithRole()
}

class MailAdapter{
+sendmsg(email, text)
}

RegisterClientController ..> MailAdapter : sends credential to Client

@enduml

PlantUML version 1.2020.23(Sun Dec 13 19:14:58 WET 2020)
(GPL source distribution)
Java Runtime: OpenJDK Runtime Environment
JVM: OpenJDK 64-Bit Server VM
Default Encoding: ANSI_X3.4-1968
Language: en
Country: US
--></g></svg>