<?xml version="1.0" encoding="UTF-8" standalone="no"?><svg xmlns="http://www.w3.org/2000/svg" xmlns:xlink="http://www.w3.org/1999/xlink" contentScriptType="application/ecmascript" contentStyleType="text/css" height="831px" preserveAspectRatio="none" style="width:1145px;height:831px;" version="1.1" viewBox="0 0 1145 831" width="1145px" zoomAndPan="magnify"><defs><filter height="300%" id="f1f1wa2o04nw46" width="300%" x="-1" y="-1"><feGaussianBlur result="blurOut" stdDeviation="2.0"/><feColorMatrix in="blurOut" result="blurOut2" type="matrix" values="0 0 0 0 0 0 0 0 0 0 0 0 0 0 0 0 0 0 .4 0"/><feOffset dx="4.0" dy="4.0" in="blurOut2" result="blurOut3"/><feBlend in="SourceGraphic" in2="blurOut3" mode="normal"/></filter></defs><g><!--MD5=[9681dc6e01e10c6b4fe06895ae94f592]
cluster UI--><polygon fill="#DDDDDD" filter="url(#f1f1wa2o04nw46)" points="990,6.294,1010,6.294,1017,29.0939,1128,29.0939,1128,131.294,990,131.294,990,6.294" style="stroke:#000000;stroke-width:1.5;"/><line style="stroke:#000000;stroke-width:1.5;" x1="990" x2="1017" y1="29.0939" y2="29.0939"/><text fill="#000000" font-family="sans-serif" font-size="14" font-weight="bold" lengthAdjust="spacing" textLength="14" x="994" y="21.2999">UI</text><!--MD5=[1f2cfc53d9d308f53762fd0fcbaa4873]
cluster Controller--><polygon fill="#DDDDDD" filter="url(#f1f1wa2o04nw46)" points="546,164.294,620,164.294,627,187.0939,726,187.0939,726,276.294,546,276.294,546,164.294" style="stroke:#000000;stroke-width:1.5;"/><line style="stroke:#000000;stroke-width:1.5;" x1="546" x2="627" y1="187.0939" y2="187.0939"/><text fill="#000000" font-family="sans-serif" font-size="14" font-weight="bold" lengthAdjust="spacing" textLength="68" x="550" y="179.2999">Controller</text><!--MD5=[7b8bc9ee8bb84b99fb3a3f9477c19238]
cluster DTO--><polygon fill="#DDDDDD" filter="url(#f1f1wa2o04nw46)" points="890,309.294,926,309.294,933,332.0939,1126,332.0939,1126,580.294,890,580.294,890,309.294" style="stroke:#000000;stroke-width:1.5;"/><line style="stroke:#000000;stroke-width:1.5;" x1="890" x2="933" y1="332.0939" y2="332.0939"/><text fill="#000000" font-family="sans-serif" font-size="14" font-weight="bold" lengthAdjust="spacing" textLength="30" x="894" y="324.2999">DTO</text><!--MD5=[121a8bf1197281ab89ed693fab589f94]
cluster Domain--><polygon fill="#DDDDDD" filter="url(#f1f1wa2o04nw46)" points="425,309.294,483,309.294,490,332.0939,815,332.0939,815,824.294,425,824.294,425,309.294" style="stroke:#000000;stroke-width:1.5;"/><line style="stroke:#000000;stroke-width:1.5;" x1="425" x2="490" y1="332.0939" y2="332.0939"/><text fill="#000000" font-family="sans-serif" font-size="14" font-weight="bold" lengthAdjust="spacing" textLength="52" x="429" y="324.2999">Domain</text><!--MD5=[ea5b5017dbea0b34f2db993a45ed3d27]
cluster Adapter--><polygon fill="#DDDDDD" filter="url(#f1f1wa2o04nw46)" points="16,315.794,76,315.794,83,338.5939,401,338.5939,401,604.294,16,604.294,16,315.794" style="stroke:#000000;stroke-width:1.5;"/><line style="stroke:#000000;stroke-width:1.5;" x1="16" x2="83" y1="338.5939" y2="338.5939"/><text fill="#000000" font-family="sans-serif" font-size="14" font-weight="bold" lengthAdjust="spacing" textLength="54" x="20" y="330.7999">Adapter</text><!--MD5=[591617cd6772405733c7816f2b60b7da]
cluster Importer--><polygon fill="#DDDDDD" filter="url(#f1f1wa2o04nw46)" points="40,481.294,103,481.294,110,504.0939,377,504.0939,377,580.294,40,580.294,40,481.294" style="stroke:#000000;stroke-width:1.5;"/><line style="stroke:#000000;stroke-width:1.5;" x1="40" x2="110" y1="504.0939" y2="504.0939"/><text fill="#000000" font-family="sans-serif" font-size="14" font-weight="bold" lengthAdjust="spacing" textLength="57" x="44" y="496.2999">Importer</text><!--MD5=[7ed141c03e0152edde835bfe9581b283]
class ImportTestsUI--><rect codeLine="2" fill="#FEFECE" filter="url(#f1f1wa2o04nw46)" height="74.3998" id="ImportTestsUI" style="stroke:#A80036;stroke-width:1.5;" width="107" x="1005.5" y="41.294"/><ellipse cx="1020.5" cy="57.294" fill="#ADD1B2" rx="11" ry="11" style="stroke:#A80036;stroke-width:1.0;"/><path d="M1015.5,58.4502 C1015.5,60.9502 1017.6406,62.7627 1020.5625,62.7627 C1021.7969,62.7627 1022.9688,62.4659 1023.7188,61.9502 C1024.3281,61.5284 1024.6563,61.1065 1024.6563,60.7002 C1024.6563,60.2315 1024.2344,59.8252 1023.7344,59.8252 C1023.5,59.8252 1023.2813,59.9034 1023.0781,60.1065 C1022.6406,60.544 1022.6406,60.544 1022.4688,60.6377 C1022.0156,60.8721 1021.375,61.0127 1020.6094,61.0127 C1018.6094,61.0127 1017.3281,59.9971 1017.3281,58.419 L1017.3281,57.3721 C1017.3281,55.669 1018.5469,54.4659 1020.25,54.4659 C1020.8281,54.4659 1021.4063,54.6065 1021.875,54.8565 C1022.3438,55.1221 1022.5156,55.3096 1022.5781,55.669 C1022.7031,56.3409 1022.9531,56.5909 1023.4844,56.5909 C1023.7656,56.5909 1024.0469,56.4502 1024.2344,56.2315 C1024.3594,56.0596 1024.4063,55.8877 1024.4063,55.4502 L1024.4063,54.0909 C1024.4063,53.669 1024.3906,53.5284 1024.2656,53.3565 C1024.0938,53.1065 1023.8125,52.9502 1023.4844,52.9502 C1023.1719,52.9502 1022.9688,53.0596 1022.75,53.3252 C1021.5781,52.8252 1021.1406,52.7159 1020.1875,52.7159 C1017.5156,52.7159 1015.5,54.7315 1015.5,57.3565 L1015.5,58.4502 Z " fill="#000000"/><text fill="#000000" font-family="sans-serif" font-size="12" lengthAdjust="spacing" textLength="75" x="1034.5" y="61.242">ImportTestsUI</text><line style="stroke:#A80036;stroke-width:1.5;" x1="1006.5" x2="1111.5" y1="73.294" y2="73.294"/><line style="stroke:#A80036;stroke-width:1.5;" x1="1006.5" x2="1111.5" y1="81.294" y2="81.294"/><text fill="#000000" font-family="sans-serif" font-size="11" lengthAdjust="spacing" textLength="85" x="1011.5" y="95.5129">show(ClientDTO)</text><text fill="#000000" font-family="sans-serif" font-size="11" lengthAdjust="spacing" textLength="80" x="1011.5" y="108.7128">show(TestDTO)</text><!--MD5=[4925cdaea387b73ba3fc6d6eaf70d1b9]
class ImportTestsController--><rect codeLine="10" fill="#FEFECE" filter="url(#f1f1wa2o04nw46)" height="61.1999" id="ImportTestsController" style="stroke:#A80036;stroke-width:1.5;" width="149" x="561.5" y="199.294"/><ellipse cx="576.5" cy="215.294" fill="#ADD1B2" rx="11" ry="11" style="stroke:#A80036;stroke-width:1.0;"/><path d="M571.5,216.4502 C571.5,218.9502 573.6406,220.7627 576.5625,220.7627 C577.7969,220.7627 578.9688,220.4659 579.7188,219.9502 C580.3281,219.5284 580.6563,219.1065 580.6563,218.7002 C580.6563,218.2315 580.2344,217.8252 579.7344,217.8252 C579.5,217.8252 579.2813,217.9034 579.0781,218.1065 C578.6406,218.544 578.6406,218.544 578.4688,218.6377 C578.0156,218.8721 577.375,219.0127 576.6094,219.0127 C574.6094,219.0127 573.3281,217.9971 573.3281,216.419 L573.3281,215.3721 C573.3281,213.669 574.5469,212.4659 576.25,212.4659 C576.8281,212.4659 577.4063,212.6065 577.875,212.8565 C578.3438,213.1221 578.5156,213.3096 578.5781,213.669 C578.7031,214.3409 578.9531,214.5909 579.4844,214.5909 C579.7656,214.5909 580.0469,214.4502 580.2344,214.2315 C580.3594,214.0596 580.4063,213.8877 580.4063,213.4502 L580.4063,212.0909 C580.4063,211.669 580.3906,211.5284 580.2656,211.3565 C580.0938,211.1065 579.8125,210.9502 579.4844,210.9502 C579.1719,210.9502 578.9688,211.0596 578.75,211.3252 C577.5781,210.8252 577.1406,210.7159 576.1875,210.7159 C573.5156,210.7159 571.5,212.7315 571.5,215.3565 L571.5,216.4502 Z " fill="#000000"/><text fill="#000000" font-family="sans-serif" font-size="12" lengthAdjust="spacing" textLength="117" x="590.5" y="219.242">ImportTestsController</text><line style="stroke:#A80036;stroke-width:1.5;" x1="562.5" x2="709.5" y1="231.294" y2="231.294"/><line style="stroke:#A80036;stroke-width:1.5;" x1="562.5" x2="709.5" y1="239.294" y2="239.294"/><ellipse cx="572.5" cy="250.294" fill="#84BE84" rx="3" ry="3" style="stroke:#038048;stroke-width:1.0;"/><text fill="#000000" font-family="sans-serif" font-size="11" lengthAdjust="spacing" textLength="88" x="581.5" y="253.5129">import(pathName)</text><!--MD5=[d92da6d3e9b1e9631354e1a6db35e891]
class ClientDTO--><rect codeLine="16" fill="#FEFECE" filter="url(#f1f1wa2o04nw46)" height="48" id="ClientDTO" style="stroke:#A80036;stroke-width:1.5;" width="89" x="905.5" y="516.294"/><ellipse cx="920.5" cy="532.294" fill="#ADD1B2" rx="11" ry="11" style="stroke:#A80036;stroke-width:1.0;"/><path d="M915.5,533.4502 C915.5,535.9502 917.6406,537.7627 920.5625,537.7627 C921.7969,537.7627 922.9688,537.4659 923.7188,536.9502 C924.3281,536.5284 924.6563,536.1065 924.6563,535.7002 C924.6563,535.2315 924.2344,534.8252 923.7344,534.8252 C923.5,534.8252 923.2813,534.9034 923.0781,535.1065 C922.6406,535.544 922.6406,535.544 922.4688,535.6377 C922.0156,535.8721 921.375,536.0127 920.6094,536.0127 C918.6094,536.0127 917.3281,534.9971 917.3281,533.419 L917.3281,532.3721 C917.3281,530.669 918.5469,529.4659 920.25,529.4659 C920.8281,529.4659 921.4063,529.6065 921.875,529.8565 C922.3438,530.1221 922.5156,530.3096 922.5781,530.669 C922.7031,531.3409 922.9531,531.5909 923.4844,531.5909 C923.7656,531.5909 924.0469,531.4502 924.2344,531.2315 C924.3594,531.0596 924.4063,530.8877 924.4063,530.4502 L924.4063,529.0909 C924.4063,528.669 924.3906,528.5284 924.2656,528.3565 C924.0938,528.1065 923.8125,527.9502 923.4844,527.9502 C923.1719,527.9502 922.9688,528.0596 922.75,528.3252 C921.5781,527.8252 921.1406,527.7159 920.1875,527.7159 C917.5156,527.7159 915.5,529.7315 915.5,532.3565 L915.5,533.4502 Z " fill="#000000"/><text fill="#000000" font-family="sans-serif" font-size="12" lengthAdjust="spacing" textLength="57" x="934.5" y="536.242">ClientDTO</text><line style="stroke:#A80036;stroke-width:1.5;" x1="906.5" x2="993.5" y1="548.294" y2="548.294"/><line style="stroke:#A80036;stroke-width:1.5;" x1="906.5" x2="993.5" y1="556.294" y2="556.294"/><!--MD5=[9fb704ffefcaf68bf1a361787afa998b]
class TestDTO--><rect codeLine="19" fill="#FEFECE" filter="url(#f1f1wa2o04nw46)" height="48" id="TestDTO" style="stroke:#A80036;stroke-width:1.5;" width="80" x="1030" y="516.294"/><ellipse cx="1045" cy="532.294" fill="#ADD1B2" rx="11" ry="11" style="stroke:#A80036;stroke-width:1.0;"/><path d="M1040,533.4502 C1040,535.9502 1042.1406,537.7627 1045.0625,537.7627 C1046.2969,537.7627 1047.4688,537.4659 1048.2188,536.9502 C1048.8281,536.5284 1049.1563,536.1065 1049.1563,535.7002 C1049.1563,535.2315 1048.7344,534.8252 1048.2344,534.8252 C1048,534.8252 1047.7813,534.9034 1047.5781,535.1065 C1047.1406,535.544 1047.1406,535.544 1046.9688,535.6377 C1046.5156,535.8721 1045.875,536.0127 1045.1094,536.0127 C1043.1094,536.0127 1041.8281,534.9971 1041.8281,533.419 L1041.8281,532.3721 C1041.8281,530.669 1043.0469,529.4659 1044.75,529.4659 C1045.3281,529.4659 1045.9063,529.6065 1046.375,529.8565 C1046.8438,530.1221 1047.0156,530.3096 1047.0781,530.669 C1047.2031,531.3409 1047.4531,531.5909 1047.9844,531.5909 C1048.2656,531.5909 1048.5469,531.4502 1048.7344,531.2315 C1048.8594,531.0596 1048.9063,530.8877 1048.9063,530.4502 L1048.9063,529.0909 C1048.9063,528.669 1048.8906,528.5284 1048.7656,528.3565 C1048.5938,528.1065 1048.3125,527.9502 1047.9844,527.9502 C1047.6719,527.9502 1047.4688,528.0596 1047.25,528.3252 C1046.0781,527.8252 1045.6406,527.7159 1044.6875,527.7159 C1042.0156,527.7159 1040,529.7315 1040,532.3565 L1040,533.4502 Z " fill="#000000"/><text fill="#000000" font-family="sans-serif" font-size="12" lengthAdjust="spacing" textLength="48" x="1059" y="536.242">TestDTO</text><line style="stroke:#A80036;stroke-width:1.5;" x1="1031" x2="1109" y1="548.294" y2="548.294"/><line style="stroke:#A80036;stroke-width:1.5;" x1="1031" x2="1109" y1="556.294" y2="556.294"/><!--MD5=[085457430d2356209d15d1291460c965]
class Mapper--><rect codeLine="23" fill="#FEFECE" filter="url(#f1f1wa2o04nw46)" height="74.3998" id="Mapper" style="stroke:#A80036;stroke-width:1.5;" width="100" x="906" y="344.294"/><ellipse cx="932.7" cy="360.294" fill="#ADD1B2" rx="11" ry="11" style="stroke:#A80036;stroke-width:1.0;"/><path d="M927.7,361.4502 C927.7,363.9502 929.8406,365.7627 932.7625,365.7627 C933.9969,365.7627 935.1688,365.4659 935.9188,364.9502 C936.5281,364.5284 936.8563,364.1065 936.8563,363.7002 C936.8563,363.2315 936.4344,362.8252 935.9344,362.8252 C935.7,362.8252 935.4813,362.9034 935.2781,363.1065 C934.8406,363.544 934.8406,363.544 934.6688,363.6377 C934.2156,363.8721 933.575,364.0127 932.8094,364.0127 C930.8094,364.0127 929.5281,362.9971 929.5281,361.419 L929.5281,360.3721 C929.5281,358.669 930.7469,357.4659 932.45,357.4659 C933.0281,357.4659 933.6063,357.6065 934.075,357.8565 C934.5438,358.1221 934.7156,358.3096 934.7781,358.669 C934.9031,359.3409 935.1531,359.5909 935.6844,359.5909 C935.9656,359.5909 936.2469,359.4502 936.4344,359.2315 C936.5594,359.0596 936.6063,358.8877 936.6063,358.4502 L936.6063,357.0909 C936.6063,356.669 936.5906,356.5284 936.4656,356.3565 C936.2938,356.1065 936.0125,355.9502 935.6844,355.9502 C935.3719,355.9502 935.1688,356.0596 934.95,356.3252 C933.7781,355.8252 933.3406,355.7159 932.3875,355.7159 C929.7156,355.7159 927.7,357.7315 927.7,360.3565 L927.7,361.4502 Z " fill="#000000"/><text fill="#000000" font-family="sans-serif" font-size="12" lengthAdjust="spacing" textLength="42" x="949.3" y="364.242">Mapper</text><line style="stroke:#A80036;stroke-width:1.5;" x1="907" x2="1005" y1="376.294" y2="376.294"/><line style="stroke:#A80036;stroke-width:1.5;" x1="907" x2="1005" y1="384.294" y2="384.294"/><text fill="#000000" font-family="sans-serif" font-size="11" lengthAdjust="spacing" textLength="37" x="912" y="398.5129">toDTO(</text><text fill="#000000" font-family="sans-serif" font-size="11" lengthAdjust="spacing" text-decoration="line-through" textLength="4" x="949" y="398.5129">)</text><text fill="#000000" font-family="sans-serif" font-size="11" lengthAdjust="spacing" textLength="88" x="912" y="411.7128">toNormal(&lt;DTO&gt;)</text><!--MD5=[ed6624c6556d5e7b1bd23032162d20b7]
class Client--><rect codeLine="59" fill="#FEFECE" filter="url(#f1f1wa2o04nw46)" height="48" id="Client" style="stroke:#A80036;stroke-width:1.5;" width="64" x="735" y="516.294"/><ellipse cx="750" cy="532.294" fill="#ADD1B2" rx="11" ry="11" style="stroke:#A80036;stroke-width:1.0;"/><path d="M745,533.4502 C745,535.9502 747.1406,537.7627 750.0625,537.7627 C751.2969,537.7627 752.4688,537.4659 753.2188,536.9502 C753.8281,536.5284 754.1563,536.1065 754.1563,535.7002 C754.1563,535.2315 753.7344,534.8252 753.2344,534.8252 C753,534.8252 752.7813,534.9034 752.5781,535.1065 C752.1406,535.544 752.1406,535.544 751.9688,535.6377 C751.5156,535.8721 750.875,536.0127 750.1094,536.0127 C748.1094,536.0127 746.8281,534.9971 746.8281,533.419 L746.8281,532.3721 C746.8281,530.669 748.0469,529.4659 749.75,529.4659 C750.3281,529.4659 750.9063,529.6065 751.375,529.8565 C751.8438,530.1221 752.0156,530.3096 752.0781,530.669 C752.2031,531.3409 752.4531,531.5909 752.9844,531.5909 C753.2656,531.5909 753.5469,531.4502 753.7344,531.2315 C753.8594,531.0596 753.9063,530.8877 753.9063,530.4502 L753.9063,529.0909 C753.9063,528.669 753.8906,528.5284 753.7656,528.3565 C753.5938,528.1065 753.3125,527.9502 752.9844,527.9502 C752.6719,527.9502 752.4688,528.0596 752.25,528.3252 C751.0781,527.8252 750.6406,527.7159 749.6875,527.7159 C747.0156,527.7159 745,529.7315 745,532.3565 L745,533.4502 Z " fill="#000000"/><text fill="#000000" font-family="sans-serif" font-size="12" lengthAdjust="spacing" textLength="32" x="764" y="536.242">Client</text><line style="stroke:#A80036;stroke-width:1.5;" x1="736" x2="798" y1="548.294" y2="548.294"/><line style="stroke:#A80036;stroke-width:1.5;" x1="736" x2="798" y1="556.294" y2="556.294"/><!--MD5=[df38be88ccee13e832d6fafd6288a4ca]
class Test--><rect codeLine="62" fill="#FEFECE" filter="url(#f1f1wa2o04nw46)" height="48" id="Test" style="stroke:#A80036;stroke-width:1.5;" width="55" x="672.5" y="651.294"/><ellipse cx="687.5" cy="667.294" fill="#ADD1B2" rx="11" ry="11" style="stroke:#A80036;stroke-width:1.0;"/><path d="M682.5,668.4502 C682.5,670.9502 684.6406,672.7627 687.5625,672.7627 C688.7969,672.7627 689.9688,672.4659 690.7188,671.9502 C691.3281,671.5284 691.6563,671.1065 691.6563,670.7002 C691.6563,670.2315 691.2344,669.8252 690.7344,669.8252 C690.5,669.8252 690.2813,669.9034 690.0781,670.1065 C689.6406,670.544 689.6406,670.544 689.4688,670.6377 C689.0156,670.8721 688.375,671.0127 687.6094,671.0127 C685.6094,671.0127 684.3281,669.9971 684.3281,668.419 L684.3281,667.3721 C684.3281,665.669 685.5469,664.4659 687.25,664.4659 C687.8281,664.4659 688.4063,664.6065 688.875,664.8565 C689.3438,665.1221 689.5156,665.3096 689.5781,665.669 C689.7031,666.3409 689.9531,666.5909 690.4844,666.5909 C690.7656,666.5909 691.0469,666.4502 691.2344,666.2315 C691.3594,666.0596 691.4063,665.8877 691.4063,665.4502 L691.4063,664.0909 C691.4063,663.669 691.3906,663.5284 691.2656,663.3565 C691.0938,663.1065 690.8125,662.9502 690.4844,662.9502 C690.1719,662.9502 689.9688,663.0596 689.75,663.3252 C688.5781,662.8252 688.1406,662.7159 687.1875,662.7159 C684.5156,662.7159 682.5,664.7315 682.5,667.3565 L682.5,668.4502 Z " fill="#000000"/><text fill="#000000" font-family="sans-serif" font-size="12" lengthAdjust="spacing" textLength="23" x="701.5" y="671.242">Test</text><line style="stroke:#A80036;stroke-width:1.5;" x1="673.5" x2="726.5" y1="683.294" y2="683.294"/><line style="stroke:#A80036;stroke-width:1.5;" x1="673.5" x2="726.5" y1="691.294" y2="691.294"/><!--MD5=[02e4b9b7573f1156f41e60aa5b4e25a4]
class Company--><rect codeLine="54" fill="#FEFECE" filter="url(#f1f1wa2o04nw46)" height="74.3998" id="Company" style="stroke:#A80036;stroke-width:1.5;" width="186" x="543" y="344.294"/><ellipse cx="605.25" cy="360.294" fill="#ADD1B2" rx="11" ry="11" style="stroke:#A80036;stroke-width:1.0;"/><path d="M600.25,361.4502 C600.25,363.9502 602.3906,365.7627 605.3125,365.7627 C606.5469,365.7627 607.7188,365.4659 608.4688,364.9502 C609.0781,364.5284 609.4063,364.1065 609.4063,363.7002 C609.4063,363.2315 608.9844,362.8252 608.4844,362.8252 C608.25,362.8252 608.0313,362.9034 607.8281,363.1065 C607.3906,363.544 607.3906,363.544 607.2188,363.6377 C606.7656,363.8721 606.125,364.0127 605.3594,364.0127 C603.3594,364.0127 602.0781,362.9971 602.0781,361.419 L602.0781,360.3721 C602.0781,358.669 603.2969,357.4659 605,357.4659 C605.5781,357.4659 606.1563,357.6065 606.625,357.8565 C607.0938,358.1221 607.2656,358.3096 607.3281,358.669 C607.4531,359.3409 607.7031,359.5909 608.2344,359.5909 C608.5156,359.5909 608.7969,359.4502 608.9844,359.2315 C609.1094,359.0596 609.1563,358.8877 609.1563,358.4502 L609.1563,357.0909 C609.1563,356.669 609.1406,356.5284 609.0156,356.3565 C608.8438,356.1065 608.5625,355.9502 608.2344,355.9502 C607.9219,355.9502 607.7188,356.0596 607.5,356.3252 C606.3281,355.8252 605.8906,355.7159 604.9375,355.7159 C602.2656,355.7159 600.25,357.7315 600.25,360.3565 L600.25,361.4502 Z " fill="#000000"/><text fill="#000000" font-family="sans-serif" font-size="12" lengthAdjust="spacing" textLength="53" x="625.75" y="364.242">Company</text><line style="stroke:#A80036;stroke-width:1.5;" x1="544" x2="728" y1="376.294" y2="376.294"/><line style="stroke:#A80036;stroke-width:1.5;" x1="544" x2="728" y1="384.294" y2="384.294"/><ellipse cx="554" cy="395.294" fill="#84BE84" rx="3" ry="3" style="stroke:#038048;stroke-width:1.0;"/><text fill="#000000" font-family="sans-serif" font-size="11" lengthAdjust="spacing" textLength="160" x="563" y="398.5129">App.getInstance().getCompany()</text><ellipse cx="554" cy="408.4939" fill="#84BE84" rx="3" ry="3" style="stroke:#038048;stroke-width:1.0;"/><text fill="#000000" font-family="sans-serif" font-size="11" lengthAdjust="spacing" textLength="54" x="563" y="411.7128">save(args)</text><!--MD5=[9875324ed41dbe6ee066a7b765f13c4a]
class Lab--><rect codeLine="65" fill="#FEFECE" filter="url(#f1f1wa2o04nw46)" height="48" id="Lab" style="stroke:#A80036;stroke-width:1.5;" width="53" x="609.5" y="516.294"/><ellipse cx="624.5" cy="532.294" fill="#ADD1B2" rx="11" ry="11" style="stroke:#A80036;stroke-width:1.0;"/><path d="M619.5,533.4502 C619.5,535.9502 621.6406,537.7627 624.5625,537.7627 C625.7969,537.7627 626.9688,537.4659 627.7188,536.9502 C628.3281,536.5284 628.6563,536.1065 628.6563,535.7002 C628.6563,535.2315 628.2344,534.8252 627.7344,534.8252 C627.5,534.8252 627.2813,534.9034 627.0781,535.1065 C626.6406,535.544 626.6406,535.544 626.4688,535.6377 C626.0156,535.8721 625.375,536.0127 624.6094,536.0127 C622.6094,536.0127 621.3281,534.9971 621.3281,533.419 L621.3281,532.3721 C621.3281,530.669 622.5469,529.4659 624.25,529.4659 C624.8281,529.4659 625.4063,529.6065 625.875,529.8565 C626.3438,530.1221 626.5156,530.3096 626.5781,530.669 C626.7031,531.3409 626.9531,531.5909 627.4844,531.5909 C627.7656,531.5909 628.0469,531.4502 628.2344,531.2315 C628.3594,531.0596 628.4063,530.8877 628.4063,530.4502 L628.4063,529.0909 C628.4063,528.669 628.3906,528.5284 628.2656,528.3565 C628.0938,528.1065 627.8125,527.9502 627.4844,527.9502 C627.1719,527.9502 626.9688,528.0596 626.75,528.3252 C625.5781,527.8252 625.1406,527.7159 624.1875,527.7159 C621.5156,527.7159 619.5,529.7315 619.5,532.3565 L619.5,533.4502 Z " fill="#000000"/><text fill="#000000" font-family="sans-serif" font-size="12" lengthAdjust="spacing" textLength="21" x="638.5" y="536.242">Lab</text><line style="stroke:#A80036;stroke-width:1.5;" x1="610.5" x2="661.5" y1="548.294" y2="548.294"/><line style="stroke:#A80036;stroke-width:1.5;" x1="610.5" x2="661.5" y1="556.294" y2="556.294"/><!--MD5=[56f671791a7bc69038cb91d87520b796]
class Parameters--><rect codeLine="68" fill="#FEFECE" filter="url(#f1f1wa2o04nw46)" height="48" id="Parameters" style="stroke:#A80036;stroke-width:1.5;" width="95" x="441.5" y="516.294"/><ellipse cx="456.5" cy="532.294" fill="#ADD1B2" rx="11" ry="11" style="stroke:#A80036;stroke-width:1.0;"/><path d="M451.5,533.4502 C451.5,535.9502 453.6406,537.7627 456.5625,537.7627 C457.7969,537.7627 458.9688,537.4659 459.7188,536.9502 C460.3281,536.5284 460.6563,536.1065 460.6563,535.7002 C460.6563,535.2315 460.2344,534.8252 459.7344,534.8252 C459.5,534.8252 459.2813,534.9034 459.0781,535.1065 C458.6406,535.544 458.6406,535.544 458.4688,535.6377 C458.0156,535.8721 457.375,536.0127 456.6094,536.0127 C454.6094,536.0127 453.3281,534.9971 453.3281,533.419 L453.3281,532.3721 C453.3281,530.669 454.5469,529.4659 456.25,529.4659 C456.8281,529.4659 457.4063,529.6065 457.875,529.8565 C458.3438,530.1221 458.5156,530.3096 458.5781,530.669 C458.7031,531.3409 458.9531,531.5909 459.4844,531.5909 C459.7656,531.5909 460.0469,531.4502 460.2344,531.2315 C460.3594,531.0596 460.4063,530.8877 460.4063,530.4502 L460.4063,529.0909 C460.4063,528.669 460.3906,528.5284 460.2656,528.3565 C460.0938,528.1065 459.8125,527.9502 459.4844,527.9502 C459.1719,527.9502 458.9688,528.0596 458.75,528.3252 C457.5781,527.8252 457.1406,527.7159 456.1875,527.7159 C453.5156,527.7159 451.5,529.7315 451.5,532.3565 L451.5,533.4502 Z " fill="#000000"/><text fill="#000000" font-family="sans-serif" font-size="12" lengthAdjust="spacing" textLength="63" x="470.5" y="536.242">Parameters</text><line style="stroke:#A80036;stroke-width:1.5;" x1="442.5" x2="535.5" y1="548.294" y2="548.294"/><line style="stroke:#A80036;stroke-width:1.5;" x1="442.5" x2="535.5" y1="556.294" y2="556.294"/><!--MD5=[648785404bbc3a913a9ebfcf6242839b]
class ValueRecords--><rect codeLine="50" fill="#FEFECE" filter="url(#f1f1wa2o04nw46)" height="48" id="ValueRecords" style="stroke:#A80036;stroke-width:1.5;" width="110" x="518" y="760.294"/><ellipse cx="533" cy="776.294" fill="#ADD1B2" rx="11" ry="11" style="stroke:#A80036;stroke-width:1.0;"/><path d="M528,777.4502 C528,779.9502 530.1406,781.7627 533.0625,781.7627 C534.2969,781.7627 535.4688,781.4659 536.2188,780.9502 C536.8281,780.5284 537.1563,780.1065 537.1563,779.7002 C537.1563,779.2315 536.7344,778.8252 536.2344,778.8252 C536,778.8252 535.7813,778.9034 535.5781,779.1065 C535.1406,779.544 535.1406,779.544 534.9688,779.6377 C534.5156,779.8721 533.875,780.0127 533.1094,780.0127 C531.1094,780.0127 529.8281,778.9971 529.8281,777.419 L529.8281,776.3721 C529.8281,774.669 531.0469,773.4659 532.75,773.4659 C533.3281,773.4659 533.9063,773.6065 534.375,773.8565 C534.8438,774.1221 535.0156,774.3096 535.0781,774.669 C535.2031,775.3409 535.4531,775.5909 535.9844,775.5909 C536.2656,775.5909 536.5469,775.4502 536.7344,775.2315 C536.8594,775.0596 536.9063,774.8877 536.9063,774.4502 L536.9063,773.0909 C536.9063,772.669 536.8906,772.5284 536.7656,772.3565 C536.5938,772.1065 536.3125,771.9502 535.9844,771.9502 C535.6719,771.9502 535.4688,772.0596 535.25,772.3252 C534.0781,771.8252 533.6406,771.7159 532.6875,771.7159 C530.0156,771.7159 528,773.7315 528,776.3565 L528,777.4502 Z " fill="#000000"/><text fill="#000000" font-family="sans-serif" font-size="12" lengthAdjust="spacing" textLength="78" x="547" y="780.242">ValueRecords</text><line style="stroke:#A80036;stroke-width:1.5;" x1="519" x2="627" y1="792.294" y2="792.294"/><line style="stroke:#A80036;stroke-width:1.5;" x1="519" x2="627" y1="800.294" y2="800.294"/><!--MD5=[aeb3272166074d8737a70b61b1e71682]
class TestType--><rect codeLine="71" fill="#FEFECE" filter="url(#f1f1wa2o04nw46)" height="48" id="TestType" style="stroke:#A80036;stroke-width:1.5;" width="82" x="663" y="760.294"/><ellipse cx="678" cy="776.294" fill="#ADD1B2" rx="11" ry="11" style="stroke:#A80036;stroke-width:1.0;"/><path d="M673,777.4502 C673,779.9502 675.1406,781.7627 678.0625,781.7627 C679.2969,781.7627 680.4688,781.4659 681.2188,780.9502 C681.8281,780.5284 682.1563,780.1065 682.1563,779.7002 C682.1563,779.2315 681.7344,778.8252 681.2344,778.8252 C681,778.8252 680.7813,778.9034 680.5781,779.1065 C680.1406,779.544 680.1406,779.544 679.9688,779.6377 C679.5156,779.8721 678.875,780.0127 678.1094,780.0127 C676.1094,780.0127 674.8281,778.9971 674.8281,777.419 L674.8281,776.3721 C674.8281,774.669 676.0469,773.4659 677.75,773.4659 C678.3281,773.4659 678.9063,773.6065 679.375,773.8565 C679.8438,774.1221 680.0156,774.3096 680.0781,774.669 C680.2031,775.3409 680.4531,775.5909 680.9844,775.5909 C681.2656,775.5909 681.5469,775.4502 681.7344,775.2315 C681.8594,775.0596 681.9063,774.8877 681.9063,774.4502 L681.9063,773.0909 C681.9063,772.669 681.8906,772.5284 681.7656,772.3565 C681.5938,772.1065 681.3125,771.9502 680.9844,771.9502 C680.6719,771.9502 680.4688,772.0596 680.25,772.3252 C679.0781,771.8252 678.6406,771.7159 677.6875,771.7159 C675.0156,771.7159 673,773.7315 673,776.3565 L673,777.4502 Z " fill="#000000"/><text fill="#000000" font-family="sans-serif" font-size="12" lengthAdjust="spacing" textLength="50" x="692" y="780.242">TestType</text><line style="stroke:#A80036;stroke-width:1.5;" x1="664" x2="744" y1="792.294" y2="792.294"/><line style="stroke:#A80036;stroke-width:1.5;" x1="664" x2="744" y1="800.294" y2="800.294"/><!--MD5=[78d471d4be937896b47081b0d7aba860]
class ReflectorUtility--><rect codeLine="82" fill="#FEFECE" filter="url(#f1f1wa2o04nw46)" height="61.1999" id="ReflectorUtility" style="stroke:#A80036;stroke-width:1.5;" width="275" x="47.5" y="350.794"/><ellipse cx="141.25" cy="366.794" fill="#ADD1B2" rx="11" ry="11" style="stroke:#A80036;stroke-width:1.0;"/><path d="M136.25,367.9502 C136.25,370.4502 138.3906,372.2627 141.3125,372.2627 C142.5469,372.2627 143.7188,371.9659 144.4688,371.4502 C145.0781,371.0284 145.4063,370.6065 145.4063,370.2002 C145.4063,369.7315 144.9844,369.3252 144.4844,369.3252 C144.25,369.3252 144.0313,369.4034 143.8281,369.6065 C143.3906,370.044 143.3906,370.044 143.2188,370.1377 C142.7656,370.3721 142.125,370.5127 141.3594,370.5127 C139.3594,370.5127 138.0781,369.4971 138.0781,367.919 L138.0781,366.8721 C138.0781,365.169 139.2969,363.9659 141,363.9659 C141.5781,363.9659 142.1563,364.1065 142.625,364.3565 C143.0938,364.6221 143.2656,364.8096 143.3281,365.169 C143.4531,365.8409 143.7031,366.0909 144.2344,366.0909 C144.5156,366.0909 144.7969,365.9502 144.9844,365.7315 C145.1094,365.5596 145.1563,365.3877 145.1563,364.9502 L145.1563,363.5909 C145.1563,363.169 145.1406,363.0284 145.0156,362.8565 C144.8438,362.6065 144.5625,362.4502 144.2344,362.4502 C143.9219,362.4502 143.7188,362.5596 143.5,362.8252 C142.3281,362.3252 141.8906,362.2159 140.9375,362.2159 C138.2656,362.2159 136.25,364.2315 136.25,366.8565 L136.25,367.9502 Z " fill="#000000"/><text fill="#000000" font-family="sans-serif" font-size="12" lengthAdjust="spacing" textLength="79" x="161.75" y="370.742">ReflectorUtility</text><line style="stroke:#A80036;stroke-width:1.5;" x1="48.5" x2="321.5" y1="382.794" y2="382.794"/><line style="stroke:#A80036;stroke-width:1.5;" x1="48.5" x2="321.5" y1="390.794" y2="390.794"/><ellipse cx="58.5" cy="401.794" fill="#84BE84" rx="3" ry="3" style="stroke:#038048;stroke-width:1.0;"/><text fill="#000000" font-family="sans-serif" font-size="11" lengthAdjust="spacing" textLength="249" x="67.5" y="405.0129">ImporterInterface ImporterReflection(adapterClass)</text><!--MD5=[3c8a018f7acf93918055e7022db08736]
class ImporterInterface--><rect codeLine="86" fill="#FEFECE" filter="url(#f1f1wa2o04nw46)" height="48" id="ImporterInterface" style="stroke:#A80036;stroke-width:1.5;" width="124" x="237" y="516.294"/><ellipse cx="252" cy="532.294" fill="#B4A7E5" rx="11" ry="11" style="stroke:#A80036;stroke-width:1.0;"/><path d="M253.0156,529.4502 L254.6719,529.4502 C255.0625,529.4502 255.2656,529.419 255.4219,529.3409 C255.6875,529.169 255.8594,528.8721 255.8594,528.5752 C255.8594,528.294 255.7188,528.044 255.4844,527.8721 C255.2969,527.7471 255.1406,527.7002 254.6719,527.7002 L249.5313,527.7002 C249.0938,527.7002 248.9531,527.7159 248.7813,527.8252 C248.5156,527.9971 248.3438,528.2784 248.3438,528.5752 C248.3438,528.8565 248.4844,529.1377 248.7188,529.294 C248.9063,529.419 249.0938,529.4502 249.5313,529.4502 L251.1875,529.4502 L251.1875,535.544 L249.5313,535.544 C249.0938,535.544 248.9531,535.5596 248.7813,535.669 C248.5156,535.8252 248.3438,536.1221 248.3438,536.4034 C248.3438,537.0127 248.75,537.294 249.5313,537.294 L254.6719,537.294 C255.4531,537.294 255.8594,537.0127 255.8594,536.4034 C255.8594,536.1377 255.7188,535.8877 255.4844,535.7159 C255.2969,535.5752 255.125,535.544 254.6719,535.544 L253.0156,535.544 L253.0156,529.4502 Z " fill="#000000"/><text fill="#000000" font-family="sans-serif" font-size="12" font-style="italic" lengthAdjust="spacing" textLength="92" x="266" y="537.394">ImporterInterface</text><line style="stroke:#A80036;stroke-width:1.5;" x1="238" x2="360" y1="548.294" y2="548.294"/><line style="stroke:#A80036;stroke-width:1.5;" x1="238" x2="360" y1="556.294" y2="556.294"/><!--MD5=[ae28ae853429a036a0133137b23c1b33]
class CSVImporterAdapter--><rect fill="#FEFECE" filter="url(#f1f1wa2o04nw46)" height="48" id="CSVImporterAdapter" style="stroke:#A80036;stroke-width:1.5;" width="145" x="56.5" y="516.294"/><ellipse cx="71.5" cy="532.294" fill="#ADD1B2" rx="11" ry="11" style="stroke:#A80036;stroke-width:1.0;"/><path d="M66.5,533.4502 C66.5,535.9502 68.6406,537.7627 71.5625,537.7627 C72.7969,537.7627 73.9688,537.4659 74.7188,536.9502 C75.3281,536.5284 75.6563,536.1065 75.6563,535.7002 C75.6563,535.2315 75.2344,534.8252 74.7344,534.8252 C74.5,534.8252 74.2813,534.9034 74.0781,535.1065 C73.6406,535.544 73.6406,535.544 73.4688,535.6377 C73.0156,535.8721 72.375,536.0127 71.6094,536.0127 C69.6094,536.0127 68.3281,534.9971 68.3281,533.419 L68.3281,532.3721 C68.3281,530.669 69.5469,529.4659 71.25,529.4659 C71.8281,529.4659 72.4063,529.6065 72.875,529.8565 C73.3438,530.1221 73.5156,530.3096 73.5781,530.669 C73.7031,531.3409 73.9531,531.5909 74.4844,531.5909 C74.7656,531.5909 75.0469,531.4502 75.2344,531.2315 C75.3594,531.0596 75.4063,530.8877 75.4063,530.4502 L75.4063,529.0909 C75.4063,528.669 75.3906,528.5284 75.2656,528.3565 C75.0938,528.1065 74.8125,527.9502 74.4844,527.9502 C74.1719,527.9502 73.9688,528.0596 73.75,528.3252 C72.5781,527.8252 72.1406,527.7159 71.1875,527.7159 C68.5156,527.7159 66.5,529.7315 66.5,532.3565 L66.5,533.4502 Z " fill="#000000"/><text fill="#000000" font-family="sans-serif" font-size="12" lengthAdjust="spacing" textLength="113" x="85.5" y="536.242">CSVImporterAdapter</text><line style="stroke:#A80036;stroke-width:1.5;" x1="57.5" x2="200.5" y1="548.294" y2="548.294"/><line style="stroke:#A80036;stroke-width:1.5;" x1="57.5" x2="200.5" y1="556.294" y2="556.294"/><!--MD5=[78d1986284999bf92795c0f379d2b0b1]
link Mapper to TestDTO--><path codeLine="28" d="M982.15,418.314 C1002.87,446.844 1031.36,486.084 1050.21,512.044 " fill="none" id="Mapper-to-TestDTO" style="stroke:#A80036;stroke-width:1.0;stroke-dasharray:7.0,7.0;"/><polygon fill="#A80036" points="1053.15,516.094,1051.1096,506.4588,1050.2168,512.0447,1044.6309,511.1519,1053.15,516.094" style="stroke:#A80036;stroke-width:1.0;"/><!--MD5=[6470a8b01ca98ff315e1d7144250295a]
link Mapper to ClientDTO--><path codeLine="29" d="M954.62,418.314 C953.55,446.494 952.07,485.114 951.08,511.074 " fill="none" id="Mapper-to-ClientDTO" style="stroke:#A80036;stroke-width:1.0;stroke-dasharray:7.0,7.0;"/><polygon fill="#A80036" points="950.89,516.094,955.2213,507.2487,951.0756,511.0974,947.2268,506.9517,950.89,516.094" style="stroke:#A80036;stroke-width:1.0;"/><!--MD5=[c52dc7e3c6ae74c522b736b73d30c447]
link ImportTestsUI to TestDTO--><path codeLine="30" d="M1075.69,115.644 C1079.53,125.684 1083.05,136.734 1085,147.294 C1110.66,286.274 1099.11,324.664 1085,465.294 C1083.46,480.624 1080.17,497.484 1077.07,511.234 " fill="none" id="ImportTestsUI-to-TestDTO" style="stroke:#A80036;stroke-width:1.0;stroke-dasharray:7.0,7.0;"/><polygon fill="#A80036" points="1075.93,516.144,1081.8361,508.2625,1077.0449,511.2699,1074.0375,506.4787,1075.93,516.144" style="stroke:#A80036;stroke-width:1.0;"/><!--MD5=[8103f7c1220e1dda657317f7ddf569f8]
link ImportTestsUI to ClientDTO--><path codeLine="31" d="M1060.43,115.534 C1061.81,178.774 1059.71,312.634 1024,418.294 C1012.27,452.994 989.19,488.214 971.91,511.644 " fill="none" id="ImportTestsUI-to-ClientDTO" style="stroke:#A80036;stroke-width:1.0;stroke-dasharray:7.0,7.0;"/><polygon fill="#A80036" points="968.75,515.874,977.3307,511.0396,971.734,511.862,970.9116,506.2653,968.75,515.874" style="stroke:#A80036;stroke-width:1.0;"/><!--MD5=[d530d00d3802063c9217064c4d3a4d89]
link ImportTestsController to Mapper--><path codeLine="32" d="M710.55,257.564 C743.06,269.904 781.35,285.334 815,301.294 C844.24,315.164 875.75,332.574 901.55,347.514 " fill="none" id="ImportTestsController-to-Mapper" style="stroke:#A80036;stroke-width:1.0;stroke-dasharray:7.0,7.0;"/><polygon fill="#A80036" points="905.97,350.074,900.177,342.109,901.6403,347.5733,896.1759,349.0366,905.97,350.074" style="stroke:#A80036;stroke-width:1.0;"/><!--MD5=[bdbc2e4a4df1996e28c5d432aca3825c]
link Mapper to Client--><path codeLine="37" d="M905.93,400.364 C880.06,411.424 849.14,427.474 826,448.294 C806.39,465.944 790.57,491.534 780.27,511.084 " fill="none" id="Mapper-to-Client" style="stroke:#A80036;stroke-width:1.0;stroke-dasharray:7.0,7.0;"/><polygon fill="#A80036" points="777.77,515.914,785.4598,509.7604,780.0687,511.4737,778.3554,506.0825,777.77,515.914" style="stroke:#A80036;stroke-width:1.0;"/><!--MD5=[ca5a305aadfb4164734f12b41f17a11c]
link Mapper to Test--><path codeLine="38" d="M926.74,418.484 C914.15,434.784 899.68,454.544 888,473.294 C851.33,532.174 865.68,562.874 817,612.294 C793.26,636.394 758.14,653.284 732.57,663.274 " fill="none" id="Mapper-to-Test" style="stroke:#A80036;stroke-width:1.0;stroke-dasharray:7.0,7.0;"/><polygon fill="#A80036" points="727.6,665.184,737.435,665.7067,732.2704,663.3987,734.5785,658.2341,727.6,665.184" style="stroke:#A80036;stroke-width:1.0;"/><!--MD5=[6eee883fdf517d3604e8bd0f2058e9aa]
link Company to Client--><path codeLine="40" d="M678.88,418.304 C688.92,427.604 699.24,437.934 708,448.294 C724.7,468.044 740.47,492.794 751.49,511.504 " fill="none" id="Company-to-Client" style="stroke:#A80036;stroke-width:1.0;"/><polygon fill="#A80036" points="754.19,516.114,753.0901,506.3267,751.6618,511.8003,746.1882,510.3719,754.19,516.114" style="stroke:#A80036;stroke-width:1.0;"/><text fill="#000000" font-family="sans-serif" font-size="13" lengthAdjust="spacing" textLength="7" x="679.3868" y="438.8848">1</text><text fill="#000000" font-family="sans-serif" font-size="13" lengthAdjust="spacing" textLength="5" x="745.0754" y="504.7576">*</text><!--MD5=[7e4bc624457760b649895ff2ead938fa]
link Company to Test--><path codeLine="41" d="M657.04,418.324 C665.58,434.594 674.67,454.374 680,473.294 C696.89,533.214 699.97,606.694 700.28,646.104 " fill="none" id="Company-to-Test" style="stroke:#A80036;stroke-width:1.0;"/><polygon fill="#A80036" points="700.3,651.204,704.2485,642.1813,700.2714,646.2041,696.2486,642.227,700.3,651.204" style="stroke:#A80036;stroke-width:1.0;"/><text fill="#000000" font-family="sans-serif" font-size="13" lengthAdjust="spacing" textLength="7" x="653.3836" y="438.9086">1</text><text fill="#000000" font-family="sans-serif" font-size="13" lengthAdjust="spacing" textLength="5" x="694.7087" y="639.8718">*</text><!--MD5=[502b51bc079239060389dab43b7d3470]
link Client to Test--><path codeLine="42" d="M755.33,564.464 C743.87,587.204 726.38,621.934 714.14,646.234 " fill="none" id="Client-to-Test" style="stroke:#A80036;stroke-width:1.0;"/><polygon fill="#A80036" points="711.76,650.944,719.3786,644.7025,714.0075,646.4776,712.2324,641.1065,711.76,650.944" style="stroke:#A80036;stroke-width:1.0;"/><text fill="#000000" font-family="sans-serif" font-size="13" lengthAdjust="spacing" textLength="7" x="744.6323" y="584.3337">1</text><text fill="#000000" font-family="sans-serif" font-size="13" lengthAdjust="spacing" textLength="5" x="709.1329" y="639.9363">*</text><!--MD5=[4e5dc85c4d7610b6ba58daabd375adb6]
link Company to Lab--><path codeLine="43" d="M636,418.314 C636,446.494 636,485.114 636,511.074 " fill="none" id="Company-to-Lab" style="stroke:#A80036;stroke-width:1.0;"/><polygon fill="#A80036" points="636,516.094,640,507.094,636,511.094,632,507.094,636,516.094" style="stroke:#A80036;stroke-width:1.0;"/><text fill="#000000" font-family="sans-serif" font-size="13" lengthAdjust="spacing" textLength="7" x="628.3328" y="438.8967">1</text><text fill="#000000" font-family="sans-serif" font-size="13" lengthAdjust="spacing" textLength="5" x="630.3281" y="504.7322">*</text><!--MD5=[fd0b5c4d6eff0c05836486ec9938dd38]
link Lab to Test--><path codeLine="44" d="M647.15,564.464 C658.09,587.204 674.8,621.934 686.5,646.234 " fill="none" id="Lab-to-Test" style="stroke:#A80036;stroke-width:1.0;"/><polygon fill="#A80036" points="688.77,650.944,688.4612,641.1,686.5971,646.4408,681.2562,644.5767,688.77,650.944" style="stroke:#A80036;stroke-width:1.0;"/><text fill="#000000" font-family="sans-serif" font-size="13" lengthAdjust="spacing" textLength="7" x="642.0147" y="584.3337">1</text><text fill="#000000" font-family="sans-serif" font-size="13" lengthAdjust="spacing" textLength="5" x="680.2517" y="639.9363">*</text><!--MD5=[408f21072244534f6222cb9359762d50]
link Company to Parameters--><path codeLine="45" d="M594.69,418.334 C584.4,427.814 573.57,438.204 564,448.294 C544.61,468.734 524.4,493.484 509.85,512.014 " fill="none" id="Company-to-Parameters" style="stroke:#A80036;stroke-width:1.0;"/><polygon fill="#A80036" points="506.65,516.104,515.3364,511.4621,509.7227,512.1595,509.0252,506.5458,506.65,516.104" style="stroke:#A80036;stroke-width:1.0;"/><text fill="#000000" font-family="sans-serif" font-size="13" lengthAdjust="spacing" textLength="7" x="579.4282" y="438.6415">1</text><text fill="#000000" font-family="sans-serif" font-size="13" lengthAdjust="spacing" textLength="5" x="505.7216" y="504.7449">*</text><!--MD5=[b24bc9993ada27c4b0e419cb729f38d0]
link Company to ValueRecords--><path codeLine="46" d="M614.39,418.664 C605.86,434.834 596.93,454.444 592,473.294 C565.57,574.364 568.26,700.014 571.14,755.144 " fill="none" id="Company-to-ValueRecords" style="stroke:#A80036;stroke-width:1.0;"/><polygon fill="#A80036" points="571.41,760.264,574.9163,751.0604,571.139,755.2713,566.928,751.494,571.41,760.264" style="stroke:#A80036;stroke-width:1.0;"/><text fill="#000000" font-family="sans-serif" font-size="13" lengthAdjust="spacing" textLength="7" x="602.9173" y="438.7513">1</text><text fill="#000000" font-family="sans-serif" font-size="13" lengthAdjust="spacing" textLength="5" x="565.3108" y="748.9479">*</text><!--MD5=[ffc07eaf308822fd1cdfc6ebad6c614e]
link Test to ValueRecords--><path codeLine="47" d="M672.44,699.514 C652.47,716.334 625.43,739.124 604.59,756.684 " fill="none" id="Test-to-ValueRecords" style="stroke:#A80036;stroke-width:1.0;"/><polygon fill="#A80036" points="600.5,760.124,609.9598,757.3831,604.3234,756.902,604.8046,751.2656,600.5,760.124" style="stroke:#A80036;stroke-width:1.0;"/><text fill="#000000" font-family="sans-serif" font-size="13" lengthAdjust="spacing" textLength="7" x="657.4809" y="700.9524">1</text><text fill="#000000" font-family="sans-serif" font-size="13" lengthAdjust="spacing" textLength="5" x="602.2188" y="748.7703">*</text><!--MD5=[e981d4f96c4342412d1e68160b30cf70]
link Test to TestType--><path codeLine="48" d="M700.87,699.514 C701.48,715.774 702.29,737.614 702.94,754.914 " fill="none" id="Test-to-TestType" style="stroke:#A80036;stroke-width:1.0;"/><polygon fill="#A80036" points="703.13,760.124,706.7932,750.9817,702.9444,755.1274,698.7987,751.2787,703.13,760.124" style="stroke:#A80036;stroke-width:1.0;"/><text fill="#000000" font-family="sans-serif" font-size="13" lengthAdjust="spacing" textLength="7" x="693.2289" y="719.3959">1</text><text fill="#000000" font-family="sans-serif" font-size="13" lengthAdjust="spacing" textLength="5" x="697.2243" y="748.7703">*</text><!--MD5=[fffaa22717ec57a552410f34a3de72ba]
link ImportTestsController to Company--><path codeLine="78" d="M636,260.334 C636,282.814 636,314.034 636,338.994 " fill="none" id="ImportTestsController-to-Company" style="stroke:#A80036;stroke-width:1.0;"/><polygon fill="#A80036" points="636,344.214,640,335.214,636,339.214,632,335.214,636,344.214" style="stroke:#A80036;stroke-width:1.0;"/><!--MD5=[f74a4aad18872a16f686487f909fac54]
link CSVImporterAdapter to ImporterInterface--><path codeLine="88" d="M201.71,540.294 C206.63,540.294 211.55,540.294 216.46,540.294 " fill="none" id="CSVImporterAdapter-to-ImporterInterface" style="stroke:#A80036;stroke-width:1.0;"/><polygon fill="none" points="216.68,533.294,236.68,540.294,216.68,547.294,216.68,533.294" style="stroke:#A80036;stroke-width:1.0;"/><!--MD5=[dd3e11866d90ae3895eef267f90d4b6e]
link ReflectorUtility to CSVImporterAdapter--><path codeLine="91" d="M174.47,411.824 C164.33,440.254 149.09,482.954 139.1,510.974 " fill="none" id="ReflectorUtility-to-CSVImporterAdapter" style="stroke:#A80036;stroke-width:1.0;stroke-dasharray:7.0,7.0;"/><polygon fill="#A80036" points="137.3,516.024,144.0775,508.878,138.9708,511.3114,136.5374,506.2047,137.3,516.024" style="stroke:#A80036;stroke-width:1.0;"/><text fill="#000000" font-family="sans-serif" font-size="13" lengthAdjust="spacing" textLength="135" x="161" y="461.371">creates using reflection</text><!--MD5=[a48943de09860bde9d3d50d306aabad7]
link ImportTestsUI to ImportTestsController--><path codeLine="93" d="M1005.43,98.224 C932.23,124.104 800.38,170.694 715.6,200.664 " fill="none" id="ImportTestsUI-to-ImportTestsController" style="stroke:#A80036;stroke-width:1.0;stroke-dasharray:7.0,7.0;"/><polygon fill="#A80036" points="710.85,202.344,720.6672,203.133,715.5671,200.6859,718.0142,195.5857,710.85,202.344" style="stroke:#A80036;stroke-width:1.0;"/><!--MD5=[3f186bc1711989e8f3bbe26f93f92408]
link ImportTestsController to ImporterInterface--><path codeLine="94" d="M561.44,239.654 C516.88,248.504 461.93,266.154 425,301.294 C368.32,355.234 400.87,397.974 361,465.294 C351.09,482.024 337.43,498.784 325.46,512.114 " fill="none" id="ImportTestsController-to-ImporterInterface" style="stroke:#A80036;stroke-width:1.0;"/><polygon fill="#A80036" points="321.8,516.134,330.81,512.1565,325.1598,512.4311,324.8853,506.7809,321.8,516.134" style="stroke:#A80036;stroke-width:1.0;"/><!--MD5=[f29e6d7967ebd1d537b3c2d42825fa23]
link ImportTestsController to ReflectorUtility--><path codeLine="96" d="M561.41,241.894 C504.37,251.644 424.33,268.104 357,292.294 C315.76,307.114 271.82,329.724 238.68,348.314 " fill="none" id="ImportTestsController-to-ReflectorUtility" style="stroke:#A80036;stroke-width:1.0;stroke-dasharray:7.0,7.0;"/><polygon fill="#A80036" points="234.28,350.794,244.0865,349.8817,238.6413,348.3488,240.1742,342.9036,234.28,350.794" style="stroke:#A80036;stroke-width:1.0;"/><!--MD5=[978aa5ac2830c8bebbd1fbc0e0a952d2]
@startuml
package "UI" #DDDDDD {
class ImportTestsUI {
show(ClientDTO)
show(TestDTO)
}
}


package "Controller" #DDDDDD {
class ImportTestsController {
    +import(pathName)
}
}

package "DTO" #DDDDDD {
class ClientDTO {
 }

class TestDTO {
 }


 class Mapper {
    toDTO(<S>)
    toNormal(<DTO>)
 }

 Mapper   ..>  TestDTO
 Mapper   ..>  ClientDTO
  ImportTestsUI   ..>  TestDTO
  ImportTestsUI   ..>  ClientDTO
  ImportTestsController  ..> Mapper
}


package "Domain" #DDDDDD {
 Mapper   ..>  Client
 Mapper   ..>  Test

 Company  "1" - -> "*" Client
 Company  "1" - -> "*" Test
  Client  "1" - -> "*" Test
  Company  "1" - -> "*" Lab
  Lab "1" - -> "*" Test
   Company  "1" - -> "*" Parameters
   Company  "1" - -> "*" ValueRecords
   Test  "1" - -> "*" ValueRecords
Test "1" - -> "*" TestType

class ValueRecords{
  }


class Company {
    +App.getInstance().getCompany()
    +save(args)
}

class Client {
 }

class Test {
 }

class Lab {
 }

class Parameters {
 }

class TestType{
  }




}
ImportTestsController - -> Company

package "Adapter" #DDDDDD {

class ReflectorUtility {
    +ImporterInterface ImporterReflection(adapterClass)
}
package "Importer" #DDDDDD {
interface ImporterInterface

CSVImporterAdapter -|> ImporterInterface
}

ReflectorUtility ..> CSVImporterAdapter : creates using reflection
}
ImportTestsUI ..> ImportTestsController
ImportTestsController - -> ImporterInterface

ImportTestsController ..> ReflectorUtility

@enduml

PlantUML version 1.2021.5(Sun Apr 25 12:20:28 WEST 2021)
(GPL source distribution)
Java Runtime: OpenJDK Runtime Environment
JVM: OpenJDK 64-Bit Server VM
Default Encoding: ANSI_X3.4-1968
Language: en
Country: US
--></g></svg>