<?xml version="1.0" encoding="UTF-8" standalone="no"?><svg xmlns="http://www.w3.org/2000/svg" xmlns:xlink="http://www.w3.org/1999/xlink" contentScriptType="application/ecmascript" contentStyleType="text/css" height="322px" preserveAspectRatio="none" style="width:595px;height:322px;" version="1.1" viewBox="0 0 595 322" width="595px" zoomAndPan="magnify"><defs><filter height="300%" id="fzz4qmz7oliik" width="300%" x="-1" y="-1"><feGaussianBlur result="blurOut" stdDeviation="2.0"/><feColorMatrix in="blurOut" result="blurOut2" type="matrix" values="0 0 0 0 0 0 0 0 0 0 0 0 0 0 0 0 0 0 .4 0"/><feOffset dx="4.0" dy="4.0" in="blurOut2" result="blurOut3"/><feBlend in="SourceGraphic" in2="blurOut3" mode="normal"/></filter></defs><g><!--MD5=[fa8a3ae974441d663f93f377aed0cf8f]
class RegisterLaboratoryIU--><rect codeLine="3" fill="#FEFECE" filter="url(#fzz4qmz7oliik)" height="48" id="RegisterLaboratoryIU" style="stroke:#A80036;stroke-width:1.5;" width="163" x="74.5" y="45.5"/><ellipse cx="89.5" cy="61.5" fill="#ADD1B2" rx="11" ry="11" style="stroke:#A80036;stroke-width:1.0;"/><path d="M92.4688,67.1406 Q91.8906,67.4375 91.25,67.5781 Q90.6094,67.7344 89.9063,67.7344 Q87.4063,67.7344 86.0781,66.0938 Q84.7656,64.4375 84.7656,61.3125 Q84.7656,58.1875 86.0781,56.5313 Q87.4063,54.875 89.9063,54.875 Q90.6094,54.875 91.25,55.0313 Q91.9063,55.1875 92.4688,55.4844 L92.4688,58.2031 Q91.8438,57.625 91.25,57.3594 Q90.6563,57.0781 90.0313,57.0781 Q88.6875,57.0781 88,58.1563 Q87.3125,59.2188 87.3125,61.3125 Q87.3125,63.4063 88,64.4844 Q88.6875,65.5469 90.0313,65.5469 Q90.6563,65.5469 91.25,65.2813 Q91.8438,65 92.4688,64.4219 L92.4688,67.1406 Z " fill="#000000"/><text fill="#000000" font-family="sans-serif" font-size="12" lengthAdjust="spacingAndGlyphs" textLength="131" x="103.5" y="65.6543">RegisterLaboratoryIU</text><line style="stroke:#A80036;stroke-width:1.5;" x1="75.5" x2="236.5" y1="77.5" y2="77.5"/><line style="stroke:#A80036;stroke-width:1.5;" x1="75.5" x2="236.5" y1="85.5" y2="85.5"/><!--MD5=[76b3dce3952ff410247bd0024b4c3e8f]
class RegisterLaboratoryController--><rect codeLine="5" fill="#FEFECE" filter="url(#fzz4qmz7oliik)" height="99.2188" id="RegisterLaboratoryController" style="stroke:#A80036;stroke-width:1.5;" width="308" x="7" y="209"/><ellipse cx="66.75" cy="225" fill="#ADD1B2" rx="11" ry="11" style="stroke:#A80036;stroke-width:1.0;"/><path d="M69.7188,230.6406 Q69.1406,230.9375 68.5,231.0781 Q67.8594,231.2344 67.1563,231.2344 Q64.6563,231.2344 63.3281,229.5938 Q62.0156,227.9375 62.0156,224.8125 Q62.0156,221.6875 63.3281,220.0313 Q64.6563,218.375 67.1563,218.375 Q67.8594,218.375 68.5,218.5313 Q69.1563,218.6875 69.7188,218.9844 L69.7188,221.7031 Q69.0938,221.125 68.5,220.8594 Q67.9063,220.5781 67.2813,220.5781 Q65.9375,220.5781 65.25,221.6563 Q64.5625,222.7188 64.5625,224.8125 Q64.5625,226.9063 65.25,227.9844 Q65.9375,229.0469 67.2813,229.0469 Q67.9063,229.0469 68.5,228.7813 Q69.0938,228.5 69.7188,227.9219 L69.7188,230.6406 Z " fill="#000000"/><text fill="#000000" font-family="sans-serif" font-size="12" lengthAdjust="spacingAndGlyphs" textLength="180" x="87.25" y="229.1543">RegisterLaboratoryController</text><line style="stroke:#A80036;stroke-width:1.5;" x1="8" x2="314" y1="241" y2="241"/><line style="stroke:#A80036;stroke-width:1.5;" x1="8" x2="314" y1="249" y2="249"/><ellipse cx="18" cy="260" fill="#84BE84" rx="3" ry="3" style="stroke:#038048;stroke-width:1.0;"/><text fill="#000000" font-family="sans-serif" font-size="11" lengthAdjust="spacingAndGlyphs" textLength="282" x="27" y="263.2104">registerLab(labID, address, phoneNumber, TINnr)</text><ellipse cx="18" cy="272.8047" fill="#84BE84" rx="3" ry="3" style="stroke:#038048;stroke-width:1.0;"/><text fill="#000000" font-family="sans-serif" font-size="11" lengthAdjust="spacingAndGlyphs" textLength="55" x="27" y="276.0151">saveLab()</text><ellipse cx="18" cy="285.6094" fill="#84BE84" rx="3" ry="3" style="stroke:#038048;stroke-width:1.0;"/><text fill="#000000" font-family="sans-serif" font-size="11" lengthAdjust="spacingAndGlyphs" textLength="120" x="27" y="288.8198">registerTest(sample)</text><ellipse cx="18" cy="298.4141" fill="#84BE84" rx="3" ry="3" style="stroke:#038048;stroke-width:1.0;"/><text fill="#000000" font-family="sans-serif" font-size="11" lengthAdjust="spacingAndGlyphs" textLength="60" x="27" y="301.6245">saveTest()</text><!--MD5=[ca9d99efa02e66bc16d27330652d1b85]
class Clinic--><rect codeLine="12" fill="#FEFECE" filter="url(#fzz4qmz7oliik)" height="99.2188" id="Clinic" style="stroke:#A80036;stroke-width:1.5;" width="146" x="354" y="209"/><ellipse cx="406.75" cy="225" fill="#ADD1B2" rx="11" ry="11" style="stroke:#A80036;stroke-width:1.0;"/><path d="M409.7188,230.6406 Q409.1406,230.9375 408.5,231.0781 Q407.8594,231.2344 407.1563,231.2344 Q404.6563,231.2344 403.3281,229.5938 Q402.0156,227.9375 402.0156,224.8125 Q402.0156,221.6875 403.3281,220.0313 Q404.6563,218.375 407.1563,218.375 Q407.8594,218.375 408.5,218.5313 Q409.1563,218.6875 409.7188,218.9844 L409.7188,221.7031 Q409.0938,221.125 408.5,220.8594 Q407.9063,220.5781 407.2813,220.5781 Q405.9375,220.5781 405.25,221.6563 Q404.5625,222.7188 404.5625,224.8125 Q404.5625,226.9063 405.25,227.9844 Q405.9375,229.0469 407.2813,229.0469 Q407.9063,229.0469 408.5,228.7813 Q409.0938,228.5 409.7188,227.9219 L409.7188,230.6406 Z " fill="#000000"/><text fill="#000000" font-family="sans-serif" font-size="12" lengthAdjust="spacingAndGlyphs" textLength="32" x="427.25" y="229.1543">Clinic</text><line style="stroke:#A80036;stroke-width:1.5;" x1="355" x2="499" y1="241" y2="241"/><line style="stroke:#A80036;stroke-width:1.5;" x1="355" x2="499" y1="249" y2="249"/><ellipse cx="365" cy="260" fill="#84BE84" rx="3" ry="3" style="stroke:#038048;stroke-width:1.0;"/><text fill="#000000" font-family="sans-serif" font-size="11" lengthAdjust="spacingAndGlyphs" textLength="120" x="374" y="263.2104">registerTest(sample)</text><ellipse cx="365" cy="272.8047" fill="#84BE84" rx="3" ry="3" style="stroke:#038048;stroke-width:1.0;"/><text fill="#000000" font-family="sans-serif" font-size="11" lengthAdjust="spacingAndGlyphs" textLength="60" x="374" y="276.0151">saveTest()</text><ellipse cx="365" cy="285.6094" fill="#84BE84" rx="3" ry="3" style="stroke:#038048;stroke-width:1.0;"/><text fill="#000000" font-family="sans-serif" font-size="11" lengthAdjust="spacingAndGlyphs" textLength="77" x="374" y="288.8198">validateTest()</text><ellipse cx="365" cy="298.4141" fill="#84BE84" rx="3" ry="3" style="stroke:#038048;stroke-width:1.0;"/><text fill="#000000" font-family="sans-serif" font-size="11" lengthAdjust="spacingAndGlyphs" textLength="54" x="374" y="301.6245">addTest()</text><!--MD5=[02e4b9b7573f1156f41e60aa5b4e25a4]
class Company--><rect codeLine="19" fill="#FEFECE" filter="url(#fzz4qmz7oliik)" height="124.8281" id="Company" style="stroke:#A80036;stroke-width:1.5;" width="308" x="273" y="7"/><ellipse cx="394.25" cy="23" fill="#ADD1B2" rx="11" ry="11" style="stroke:#A80036;stroke-width:1.0;"/><path d="M397.2188,28.6406 Q396.6406,28.9375 396,29.0781 Q395.3594,29.2344 394.6563,29.2344 Q392.1563,29.2344 390.8281,27.5938 Q389.5156,25.9375 389.5156,22.8125 Q389.5156,19.6875 390.8281,18.0313 Q392.1563,16.375 394.6563,16.375 Q395.3594,16.375 396,16.5313 Q396.6563,16.6875 397.2188,16.9844 L397.2188,19.7031 Q396.5938,19.125 396,18.8594 Q395.4063,18.5781 394.7813,18.5781 Q393.4375,18.5781 392.75,19.6563 Q392.0625,20.7188 392.0625,22.8125 Q392.0625,24.9063 392.75,25.9844 Q393.4375,27.0469 394.7813,27.0469 Q395.4063,27.0469 396,26.7813 Q396.5938,26.5 397.2188,25.9219 L397.2188,28.6406 Z " fill="#000000"/><text fill="#000000" font-family="sans-serif" font-size="12" lengthAdjust="spacingAndGlyphs" textLength="57" x="414.75" y="27.1543">Company</text><line style="stroke:#A80036;stroke-width:1.5;" x1="274" x2="580" y1="39" y2="39"/><line style="stroke:#A80036;stroke-width:1.5;" x1="274" x2="580" y1="47" y2="47"/><ellipse cx="284" cy="58" fill="#84BE84" rx="3" ry="3" style="stroke:#038048;stroke-width:1.0;"/><text fill="#000000" font-family="sans-serif" font-size="11" lengthAdjust="spacingAndGlyphs" textLength="282" x="293" y="61.2104">registerLab(labID, address, phoneNumber, TINnr)</text><ellipse cx="284" cy="70.8047" fill="#84BE84" rx="3" ry="3" style="stroke:#038048;stroke-width:1.0;"/><text fill="#000000" font-family="sans-serif" font-size="11" lengthAdjust="spacingAndGlyphs" textLength="183" x="293" y="74.0151">registerTest(testName, sample)</text><ellipse cx="284" cy="83.6094" fill="#84BE84" rx="3" ry="3" style="stroke:#038048;stroke-width:1.0;"/><text fill="#000000" font-family="sans-serif" font-size="11" lengthAdjust="spacingAndGlyphs" textLength="119" x="293" y="86.8198">validateTest(labTest)</text><ellipse cx="284" cy="96.4141" fill="#84BE84" rx="3" ry="3" style="stroke:#038048;stroke-width:1.0;"/><text fill="#000000" font-family="sans-serif" font-size="11" lengthAdjust="spacingAndGlyphs" textLength="89" x="293" y="99.6245">validateLab(lab)</text><ellipse cx="284" cy="109.2188" fill="#84BE84" rx="3" ry="3" style="stroke:#038048;stroke-width:1.0;"/><text fill="#000000" font-family="sans-serif" font-size="11" lengthAdjust="spacingAndGlyphs" textLength="66" x="293" y="112.4292">addLab(lab)</text><ellipse cx="284" cy="122.0234" fill="#84BE84" rx="3" ry="3" style="stroke:#038048;stroke-width:1.0;"/><text fill="#000000" font-family="sans-serif" font-size="11" lengthAdjust="spacingAndGlyphs" textLength="96" x="293" y="125.2339">addTest(labTest)</text><!--MD5=[0c7ed73a1c28cb6254186969be81bc73]
link RegisterLaboratoryIU to RegisterLaboratoryController--><path codeLine="29" d="M156.6434,93.8215 C157.3725,121.379 158.584,167.1769 159.5447,203.4894 " fill="none" id="RegisterLaboratoryIU-to-RegisterLaboratoryController" style="stroke:#A80036;stroke-width:1.0;stroke-dasharray:7.0,7.0;"/><polygon fill="#A80036" points="159.6845,208.7749,163.4447,199.6721,159.5521,203.7767,155.4475,199.884,159.6845,208.7749" style="stroke:#A80036;stroke-width:1.0;"/><!--MD5=[196bcb1a5e107afd614f248cc96d54e7]
link Company to Clinic--><path codeLine="30" d="M427,132.1717 C427,155.3481 427,181.4164 427,203.8271 " fill="none" id="Company-to-Clinic" style="stroke:#A80036;stroke-width:1.0;"/><polygon fill="#A80036" points="427,208.8463,431,199.8463,427,203.8463,423,199.8463,427,208.8463" style="stroke:#A80036;stroke-width:1.0;"/><text fill="#000000" font-family="sans-serif" font-size="13" lengthAdjust="spacingAndGlyphs" textLength="54" x="428" y="175.0669">contains</text><text fill="#000000" font-family="sans-serif" font-size="13" lengthAdjust="spacingAndGlyphs" textLength="8" x="418.5625" y="151.9303">1</text><text fill="#000000" font-family="sans-serif" font-size="13" lengthAdjust="spacingAndGlyphs" textLength="7" x="419.5078" y="197.8699">*</text><!--MD5=[d595274eea6643560c51d1f5216d9e35]
link Company to RegisterLaboratoryController--><path codeLine="31" d="M338.7953,132.1717 C305.2174,156.0298 267.3263,182.9523 235.1775,205.7949 " fill="none" id="Company-to-RegisterLaboratoryController" style="stroke:#A80036;stroke-width:1.0;"/><polygon fill="#A80036" points="230.8829,208.8463,240.5363,206.8939,234.9587,205.9502,235.9025,200.3726,230.8829,208.8463" style="stroke:#A80036;stroke-width:1.0;"/><text fill="#000000" font-family="sans-serif" font-size="13" lengthAdjust="spacingAndGlyphs" textLength="54" x="295" y="175.0669">contains</text><text fill="#000000" font-family="sans-serif" font-size="13" lengthAdjust="spacingAndGlyphs" textLength="8" x="320.7104" y="151.9303">1</text><text fill="#000000" font-family="sans-serif" font-size="13" lengthAdjust="spacingAndGlyphs" textLength="7" x="233.218" y="197.8699">*</text><!--MD5=[06ce303c0d5ca854c659d5ac6228e09f]
@startuml
skinparam classAtributionIconSize 0

class RegisterLaboratoryIU

class RegisterLaboratoryController {
    +registerLab(labID, address, phoneNumber, TINnr)
    +saveLab()
    +registerTest(sample)
    +saveTest()
}

class Clinic {
    +registerTest(sample)
    +saveTest()
    +validateTest()
    +addTest()
  }

class Company {
    +registerLab(labID, address, phoneNumber, TINnr)
    +registerTest(testName, sample)
    +validateTest(labTest)
    +validateLab(lab)
    +addLab(lab)
    +addTest(labTest)

}

RegisterLaboratoryIU ..> RegisterLaboratoryController
Company "1" - -> "*" Clinic : contains
Company "1" - -> "*" RegisterLaboratoryController : contains
@enduml

PlantUML version 1.2020.22(Sun Dec 06 09:36:27 UTC 2020)
(GPL source distribution)
Java Runtime: OpenJDK Runtime Environment
JVM: OpenJDK 64-Bit Server VM
Default Encoding: UTF-8
Language: en
Country: US
--></g></svg>