<?xml version="1.0" encoding="UTF-8" standalone="no"?><svg xmlns="http://www.w3.org/2000/svg" xmlns:xlink="http://www.w3.org/1999/xlink" contentScriptType="application/ecmascript" contentStyleType="text/css" height="1602px" preserveAspectRatio="none" style="width:3780px;height:1602px;" version="1.1" viewBox="0 0 3780 1602" width="3780px" zoomAndPan="magnify"><defs><filter height="300%" id="f15nab4dscjnau" width="300%" x="-1" y="-1"><feGaussianBlur result="blurOut" stdDeviation="4.0"/><feColorMatrix in="blurOut" result="blurOut2" type="matrix" values="0 0 0 0 0 0 0 0 0 0 0 0 0 0 0 0 0 0 .4 0"/><feOffset dx="8.0" dy="8.0" in="blurOut2" result="blurOut3"/><feBlend in="SourceGraphic" in2="blurOut3" mode="normal"/></filter></defs><g><rect fill="#FFFFFF" filter="url(#f15nab4dscjnau)" height="1201.8008" style="stroke:#A80036;stroke-width:2.0;" width="20" x="101" y="196.9766"/><rect fill="#FFFFFF" filter="url(#f15nab4dscjnau)" height="351.7266" style="stroke:#A80036;stroke-width:2.0;" width="20" x="1005" y="356.8398"/><rect fill="#FFFFFF" filter="url(#f15nab4dscjnau)" height="631.5898" style="stroke:#A80036;stroke-width:2.0;" width="20" x="1005" y="767.1875"/><rect fill="#FFFFFF" filter="url(#f15nab4dscjnau)" height="351.7266" style="stroke:#A80036;stroke-width:2.0;" width="20" x="1963" y="356.8398"/><rect fill="#FFFFFF" filter="url(#f15nab4dscjnau)" height="558.9688" style="stroke:#A80036;stroke-width:2.0;" width="20" x="1963" y="767.1875"/><rect fill="#FFFFFF" filter="url(#f15nab4dscjnau)" height="293.1055" style="stroke:#A80036;stroke-width:2.0;" width="20" x="2761" y="415.4609"/><rect fill="#FFFFFF" filter="url(#f15nab4dscjnau)" height="441.7266" style="stroke:#A80036;stroke-width:2.0;" width="20" x="2761" y="884.4297"/><rect fill="#FFFFFF" filter="url(#f15nab4dscjnau)" height="117.2422" style="stroke:#A80036;stroke-width:2.0;" width="20" x="3555" y="532.7031"/><line style="stroke:#A80036;stroke-width:2.0;stroke-dasharray:5.0,5.0;" x1="110" x2="110" y1="176.9766" y2="1434.7773"/><line style="stroke:#A80036;stroke-width:2.0;stroke-dasharray:5.0,5.0;" x1="1015" x2="1015" y1="176.9766" y2="1434.7773"/><line style="stroke:#A80036;stroke-width:2.0;stroke-dasharray:5.0,5.0;" x1="1973" x2="1973" y1="176.9766" y2="1434.7773"/><line style="stroke:#A80036;stroke-width:2.0;stroke-dasharray:5.0,5.0;" x1="2770" x2="2770" y1="176.9766" y2="1434.7773"/><line style="stroke:#A80036;stroke-width:2.0;stroke-dasharray:5.0,5.0;" x1="3564" x2="3564" y1="176.9766" y2="1434.7773"/><line style="stroke:#A80036;stroke-width:2.0;stroke-dasharray:5.0,5.0;" x1="3696" x2="3696" y1="176.9766" y2="1434.7773"/><text fill="#000000" font-family="sans-serif" font-size="28" lengthAdjust="spacing" textLength="190" x="10" y="171.0703">Administrator</text><ellipse cx="111" cy="30" fill="#FEFECE" filter="url(#f15nab4dscjnau)" rx="16" ry="16" style="stroke:#A80036;stroke-width:4.0;"/><path d="M111,46 L111,100 M85,62 L137,62 M111,100 L85,130 M111,100 L137,130 " fill="none" filter="url(#f15nab4dscjnau)" style="stroke:#A80036;stroke-width:4.0;"/><text fill="#000000" font-family="sans-serif" font-size="28" lengthAdjust="spacing" textLength="190" x="10" y="1459.8477">Administrator</text><ellipse cx="111" cy="1485.7539" fill="#FEFECE" filter="url(#f15nab4dscjnau)" rx="16" ry="16" style="stroke:#A80036;stroke-width:4.0;"/><path d="M111,1501.7539 L111,1555.7539 M85,1517.7539 L137,1517.7539 M111,1555.7539 L85,1585.7539 M111,1555.7539 L137,1585.7539 " fill="none" filter="url(#f15nab4dscjnau)" style="stroke:#A80036;stroke-width:4.0;"/><rect fill="#FEFECE" filter="url(#f15nab4dscjnau)" height="60.9766" style="stroke:#A80036;stroke-width:3.0;" width="324" x="849" y="106"/><text fill="#000000" font-family="sans-serif" font-size="28" lengthAdjust="spacing" textLength="296" x="863" y="147.0703">:RegisterLaboratoryIU</text><rect fill="#FEFECE" filter="url(#f15nab4dscjnau)" height="60.9766" style="stroke:#A80036;stroke-width:3.0;" width="324" x="849" y="1432.7773"/><text fill="#000000" font-family="sans-serif" font-size="28" lengthAdjust="spacing" textLength="296" x="863" y="1473.8477">:RegisterLaboratoryIU</text><rect fill="#FEFECE" filter="url(#f15nab4dscjnau)" height="60.9766" style="stroke:#A80036;stroke-width:3.0;" width="436" x="1751" y="106"/><text fill="#000000" font-family="sans-serif" font-size="28" lengthAdjust="spacing" textLength="408" x="1765" y="147.0703">:RegisterLaboratoryController</text><rect fill="#FEFECE" filter="url(#f15nab4dscjnau)" height="60.9766" style="stroke:#A80036;stroke-width:3.0;" width="436" x="1751" y="1432.7773"/><text fill="#000000" font-family="sans-serif" font-size="28" lengthAdjust="spacing" textLength="408" x="1765" y="1473.8477">:RegisterLaboratoryController</text><rect fill="#FEFECE" filter="url(#f15nab4dscjnau)" height="60.9766" style="stroke:#A80036;stroke-width:3.0;" width="166" x="2684" y="106"/><text fill="#000000" font-family="sans-serif" font-size="28" lengthAdjust="spacing" textLength="138" x="2698" y="147.0703">:Company</text><rect fill="#FEFECE" filter="url(#f15nab4dscjnau)" height="60.9766" style="stroke:#A80036;stroke-width:3.0;" width="166" x="2684" y="1432.7773"/><text fill="#000000" font-family="sans-serif" font-size="28" lengthAdjust="spacing" textLength="138" x="2698" y="1473.8477">:Company</text><rect fill="#FEFECE" filter="url(#f15nab4dscjnau)" height="60.9766" style="stroke:#A80036;stroke-width:3.0;" width="86" x="3518" y="106"/><text fill="#000000" font-family="sans-serif" font-size="28" lengthAdjust="spacing" textLength="58" x="3532" y="147.0703">:LAB</text><rect fill="#FEFECE" filter="url(#f15nab4dscjnau)" height="60.9766" style="stroke:#A80036;stroke-width:3.0;" width="86" x="3518" y="1432.7773"/><text fill="#000000" font-family="sans-serif" font-size="28" lengthAdjust="spacing" textLength="58" x="3532" y="1473.8477">:LAB</text><rect fill="#FEFECE" filter="url(#f15nab4dscjnau)" height="60.9766" style="stroke:#A80036;stroke-width:3.0;" width="120" x="3632" y="106"/><text fill="#000000" font-family="sans-serif" font-size="28" lengthAdjust="spacing" textLength="92" x="3646" y="147.0703">ADMIN</text><rect fill="#FEFECE" filter="url(#f15nab4dscjnau)" height="60.9766" style="stroke:#A80036;stroke-width:3.0;" width="120" x="3632" y="1432.7773"/><text fill="#000000" font-family="sans-serif" font-size="28" lengthAdjust="spacing" textLength="92" x="3646" y="1473.8477">ADMIN</text><rect fill="#FFFFFF" filter="url(#f15nab4dscjnau)" height="1201.8008" style="stroke:#A80036;stroke-width:2.0;" width="20" x="101" y="196.9766"/><rect fill="#FFFFFF" filter="url(#f15nab4dscjnau)" height="351.7266" style="stroke:#A80036;stroke-width:2.0;" width="20" x="1005" y="356.8398"/><rect fill="#FFFFFF" filter="url(#f15nab4dscjnau)" height="631.5898" style="stroke:#A80036;stroke-width:2.0;" width="20" x="1005" y="767.1875"/><rect fill="#FFFFFF" filter="url(#f15nab4dscjnau)" height="351.7266" style="stroke:#A80036;stroke-width:2.0;" width="20" x="1963" y="356.8398"/><rect fill="#FFFFFF" filter="url(#f15nab4dscjnau)" height="558.9688" style="stroke:#A80036;stroke-width:2.0;" width="20" x="1963" y="767.1875"/><rect fill="#FFFFFF" filter="url(#f15nab4dscjnau)" height="293.1055" style="stroke:#A80036;stroke-width:2.0;" width="20" x="2761" y="415.4609"/><rect fill="#FFFFFF" filter="url(#f15nab4dscjnau)" height="441.7266" style="stroke:#A80036;stroke-width:2.0;" width="20" x="2761" y="884.4297"/><rect fill="#FFFFFF" filter="url(#f15nab4dscjnau)" height="117.2422" style="stroke:#A80036;stroke-width:2.0;" width="20" x="3555" y="532.7031"/><polygon fill="#A80036" points="991,231.5977,1011,239.5977,991,247.5977,999,239.5977" style="stroke:#A80036;stroke-width:2.0;"/><line style="stroke:#A80036;stroke-width:2.0;" x1="121" x2="1003" y1="239.5977" y2="239.5977"/><text fill="#000000" font-family="sans-serif" font-size="26" font-weight="bold" lengthAdjust="spacing" textLength="18" x="135" y="230.1133">1</text><text fill="#000000" font-family="sans-serif" font-size="26" lengthAdjust="spacing" textLength="820" x="161" y="230.1133">starts the registry of a new Clinical Analysis Laboratory and tests</text><polygon fill="#A80036" points="143,290.2188,123,298.2188,143,306.2188,135,298.2188" style="stroke:#A80036;stroke-width:2.0;"/><line style="stroke:#A80036;stroke-width:2.0;stroke-dasharray:2.0,2.0;" x1="131" x2="1013" y1="298.2188" y2="298.2188"/><text fill="#000000" font-family="sans-serif" font-size="26" font-weight="bold" lengthAdjust="spacing" textLength="18" x="155" y="288.7344">2</text><text fill="#000000" font-family="sans-serif" font-size="26" lengthAdjust="spacing" textLength="654" x="181" y="288.7344">request data (labID, name, address, phoneNr, TINnr)</text><polygon fill="#A80036" points="981,348.8398,1001,356.8398,981,364.8398,989,356.8398" style="stroke:#A80036;stroke-width:2.0;"/><line style="stroke:#A80036;stroke-width:2.0;" x1="121" x2="993" y1="356.8398" y2="356.8398"/><text fill="#000000" font-family="sans-serif" font-size="26" font-weight="bold" lengthAdjust="spacing" textLength="18" x="135" y="347.3555">3</text><text fill="#000000" font-family="sans-serif" font-size="26" lengthAdjust="spacing" textLength="262" x="161" y="347.3555">types requested data</text><polygon fill="#A80036" points="1939,407.4609,1959,415.4609,1939,423.4609,1947,415.4609" style="stroke:#A80036;stroke-width:2.0;"/><line style="stroke:#A80036;stroke-width:2.0;" x1="1025" x2="1951" y1="415.4609" y2="415.4609"/><text fill="#000000" font-family="sans-serif" font-size="26" font-weight="bold" lengthAdjust="spacing" textLength="18" x="1039" y="405.9766">4</text><text fill="#000000" font-family="sans-serif" font-size="26" lengthAdjust="spacing" textLength="864" x="1065" y="405.9766">registerLab(labID,name, address, phoneNr, TINnr, testName, sample)</text><polygon fill="#A80036" points="2737,466.082,2757,474.082,2737,482.082,2745,474.082" style="stroke:#A80036;stroke-width:2.0;"/><line style="stroke:#A80036;stroke-width:2.0;" x1="1983" x2="2749" y1="474.082" y2="474.082"/><text fill="#000000" font-family="sans-serif" font-size="26" font-weight="bold" lengthAdjust="spacing" textLength="18" x="1997" y="464.5977">5</text><text fill="#000000" font-family="sans-serif" font-size="26" lengthAdjust="spacing" textLength="704" x="2023" y="464.5977">lab = registerLab(labID, name, address, phoneNr, TINnr)</text><polygon fill="#A80036" points="2737,524.7031,2757,532.7031,2737,540.7031,2745,532.7031" style="stroke:#A80036;stroke-width:2.0;"/><line style="stroke:#A80036;stroke-width:2.0;" x1="1983" x2="2749" y1="532.7031" y2="532.7031"/><text fill="#000000" font-family="sans-serif" font-size="26" font-weight="bold" lengthAdjust="spacing" textLength="18" x="1997" y="523.2188">6</text><text fill="#000000" font-family="sans-serif" font-size="26" lengthAdjust="spacing" textLength="520" x="2023" y="523.2188">labTest = registerTest(testName, sample)</text><polygon fill="#A80036" points="3531,583.3242,3551,591.3242,3531,599.3242,3539,591.3242" style="stroke:#A80036;stroke-width:2.0;"/><line style="stroke:#A80036;stroke-width:2.0;" x1="2781" x2="3543" y1="591.3242" y2="591.3242"/><text fill="#000000" font-family="sans-serif" font-size="26" font-weight="bold" lengthAdjust="spacing" textLength="18" x="2795" y="581.8398">7</text><text fill="#000000" font-family="sans-serif" font-size="26" lengthAdjust="spacing" textLength="700" x="2821" y="581.8398">registerLab(labID, name, address, phoneNumber, TINnr)</text><polygon fill="#A80036" points="3541,641.9453,3561,649.9453,3541,657.9453,3549,649.9453" style="stroke:#A80036;stroke-width:2.0;"/><line style="stroke:#A80036;stroke-width:2.0;" x1="2781" x2="3553" y1="649.9453" y2="649.9453"/><text fill="#000000" font-family="sans-serif" font-size="26" font-weight="bold" lengthAdjust="spacing" textLength="18" x="2795" y="640.4609">8</text><text fill="#000000" font-family="sans-serif" font-size="26" lengthAdjust="spacing" textLength="392" x="2821" y="640.4609">registerTest(testName, sample)</text><polygon fill="#A80036" points="3672,700.5664,3692,708.5664,3672,716.5664,3680,708.5664" style="stroke:#A80036;stroke-width:2.0;"/><line style="stroke:#A80036;stroke-width:2.0;stroke-dasharray:2.0,2.0;" x1="1015" x2="3684" y1="708.5664" y2="708.5664"/><text fill="#000000" font-family="sans-serif" font-size="26" font-weight="bold" lengthAdjust="spacing" textLength="18" x="1029" y="699.082">9</text><text fill="#000000" font-family="sans-serif" font-size="26" lengthAdjust="spacing" textLength="476" x="1055" y="699.082">shows data and asks for confirmation</text><polygon fill="#A80036" points="981,759.1875,1001,767.1875,981,775.1875,989,767.1875" style="stroke:#A80036;stroke-width:2.0;"/><line style="stroke:#A80036;stroke-width:2.0;" x1="121" x2="993" y1="767.1875" y2="767.1875"/><text fill="#000000" font-family="sans-serif" font-size="26" font-weight="bold" lengthAdjust="spacing" textLength="36" x="135" y="757.7031">10</text><text fill="#000000" font-family="sans-serif" font-size="26" lengthAdjust="spacing" textLength="222" x="179" y="757.7031">confirms the data</text><polygon fill="#A80036" points="1939,817.8086,1959,825.8086,1939,833.8086,1947,825.8086" style="stroke:#A80036;stroke-width:2.0;"/><line style="stroke:#A80036;stroke-width:2.0;" x1="1025" x2="1951" y1="825.8086" y2="825.8086"/><text fill="#000000" font-family="sans-serif" font-size="26" font-weight="bold" lengthAdjust="spacing" textLength="36" x="1039" y="816.3242">11</text><text fill="#000000" font-family="sans-serif" font-size="26" lengthAdjust="spacing" textLength="116" x="1083" y="816.3242">saveLab()</text><polygon fill="#A80036" points="1939,876.4297,1959,884.4297,1939,892.4297,1947,884.4297" style="stroke:#A80036;stroke-width:2.0;"/><line style="stroke:#A80036;stroke-width:2.0;" x1="1025" x2="1951" y1="884.4297" y2="884.4297"/><text fill="#000000" font-family="sans-serif" font-size="26" font-weight="bold" lengthAdjust="spacing" textLength="36" x="1039" y="874.9453">12</text><text fill="#000000" font-family="sans-serif" font-size="26" lengthAdjust="spacing" textLength="126" x="1083" y="874.9453">saveTest()</text><polygon fill="#A80036" points="2737,935.0508,2757,943.0508,2737,951.0508,2745,943.0508" style="stroke:#A80036;stroke-width:2.0;"/><line style="stroke:#A80036;stroke-width:2.0;" x1="1983" x2="2749" y1="943.0508" y2="943.0508"/><text fill="#000000" font-family="sans-serif" font-size="26" font-weight="bold" lengthAdjust="spacing" textLength="36" x="1997" y="933.5664">13</text><text fill="#000000" font-family="sans-serif" font-size="26" lengthAdjust="spacing" textLength="154" x="2041" y="933.5664">saveLab(lab)</text><polygon fill="#A80036" points="2737,993.6719,2757,1001.6719,2737,1009.6719,2745,1001.6719" style="stroke:#A80036;stroke-width:2.0;"/><line style="stroke:#A80036;stroke-width:2.0;" x1="1983" x2="2749" y1="1001.6719" y2="1001.6719"/><text fill="#000000" font-family="sans-serif" font-size="26" font-weight="bold" lengthAdjust="spacing" textLength="36" x="1997" y="992.1875">14</text><text fill="#000000" font-family="sans-serif" font-size="26" lengthAdjust="spacing" textLength="218" x="2041" y="992.1875">saveTest(labTest)</text><line style="stroke:#A80036;stroke-width:2.0;" x1="2781" x2="2865" y1="1060.293" y2="1060.293"/><line style="stroke:#A80036;stroke-width:2.0;" x1="2865" x2="2865" y1="1060.293" y2="1086.293"/><line style="stroke:#A80036;stroke-width:2.0;" x1="2783" x2="2865" y1="1086.293" y2="1086.293"/><polygon fill="#A80036" points="2803,1078.293,2783,1086.293,2803,1094.293,2795,1086.293" style="stroke:#A80036;stroke-width:2.0;"/><text fill="#000000" font-family="sans-serif" font-size="26" font-weight="bold" lengthAdjust="spacing" textLength="36" x="2795" y="1050.8086">15</text><text fill="#000000" font-family="sans-serif" font-size="26" lengthAdjust="spacing" textLength="260" x="2839" y="1050.8086">validateTest(labTest)</text><line style="stroke:#A80036;stroke-width:2.0;" x1="2781" x2="2865" y1="1144.9141" y2="1144.9141"/><line style="stroke:#A80036;stroke-width:2.0;" x1="2865" x2="2865" y1="1144.9141" y2="1170.9141"/><line style="stroke:#A80036;stroke-width:2.0;" x1="2783" x2="2865" y1="1170.9141" y2="1170.9141"/><polygon fill="#A80036" points="2803,1162.9141,2783,1170.9141,2803,1178.9141,2795,1170.9141" style="stroke:#A80036;stroke-width:2.0;"/><text fill="#000000" font-family="sans-serif" font-size="26" font-weight="bold" lengthAdjust="spacing" textLength="36" x="2795" y="1135.4297">16</text><text fill="#000000" font-family="sans-serif" font-size="26" lengthAdjust="spacing" textLength="196" x="2839" y="1135.4297">validateLab(lab)</text><line style="stroke:#A80036;stroke-width:2.0;" x1="2781" x2="2865" y1="1229.5352" y2="1229.5352"/><line style="stroke:#A80036;stroke-width:2.0;" x1="2865" x2="2865" y1="1229.5352" y2="1255.5352"/><line style="stroke:#A80036;stroke-width:2.0;" x1="2783" x2="2865" y1="1255.5352" y2="1255.5352"/><polygon fill="#A80036" points="2803,1247.5352,2783,1255.5352,2803,1263.5352,2795,1255.5352" style="stroke:#A80036;stroke-width:2.0;"/><text fill="#000000" font-family="sans-serif" font-size="26" font-weight="bold" lengthAdjust="spacing" textLength="36" x="2795" y="1220.0508">17</text><text fill="#000000" font-family="sans-serif" font-size="26" lengthAdjust="spacing" textLength="144" x="2839" y="1220.0508">addLab(lab)</text><line style="stroke:#A80036;stroke-width:2.0;" x1="2781" x2="2865" y1="1324.1563" y2="1324.1563"/><line style="stroke:#A80036;stroke-width:2.0;" x1="2865" x2="2865" y1="1324.1563" y2="1350.1563"/><line style="stroke:#A80036;stroke-width:2.0;" x1="2771" x2="2865" y1="1350.1563" y2="1350.1563"/><polygon fill="#A80036" points="2791,1342.1563,2771,1350.1563,2791,1358.1563,2783,1350.1563" style="stroke:#A80036;stroke-width:2.0;"/><text fill="#000000" font-family="sans-serif" font-size="26" font-weight="bold" lengthAdjust="spacing" textLength="36" x="2795" y="1314.6719">18</text><text fill="#000000" font-family="sans-serif" font-size="26" lengthAdjust="spacing" textLength="208" x="2839" y="1314.6719">addTest(labTest)</text><polygon fill="#A80036" points="133,1390.7773,113,1398.7773,133,1406.7773,125,1398.7773" style="stroke:#A80036;stroke-width:2.0;"/><line style="stroke:#A80036;stroke-width:2.0;stroke-dasharray:2.0,2.0;" x1="121" x2="1013" y1="1398.7773" y2="1398.7773"/><text fill="#000000" font-family="sans-serif" font-size="26" font-weight="bold" lengthAdjust="spacing" textLength="36" x="145" y="1389.293">19</text><text fill="#000000" font-family="sans-serif" font-size="26" lengthAdjust="spacing" textLength="320" x="189" y="1389.293">informs operation sucess</text><!--MD5=[252941fadf917fe7a73ef28c0a137230]
@startuml
autonumber

actor "Administrator" as Admin

participant ":RegisterLaboratoryIU" as IU
participant ":RegisterLaboratoryController" as RLC
participant ":Company" as COM
participant ":LAB" as LAB

activate Admin

Admin -> IU : starts the registry of a new Clinical Analysis Laboratory and tests
IU - -> Admin : request data (labID, name, address, phoneNr, TINnr)

Admin -> IU : types requested data

activate IU
activate RLC

IU -> RLC : registerLab(labID,name, address, phoneNr, TINnr, testName, sample)

activate COM

RLC -> COM : lab = registerLab(labID, name, address, phoneNr, TINnr)
RLC -> COM : labTest = registerTest(testName, sample)

activate LAB

COM -> LAB : registerLab(labID, name, address, phoneNumber, TINnr)
COM -> LAB : registerTest(testName, sample)

deactivate LAB

IU - -> ADMIN : shows data and asks for confirmation

deactivate IU
deactivate RLC
deactivate COM

Admin -> IU : confirms the data

activate IU
activate RLC

IU -> RLC : saveLab()
IU -> RLC : saveTest()

activate COM

RLC -> COM : saveLab(lab)
RLC -> COM : saveTest(labTest)

COM -> COM : validateTest(labTest)

COM -> COM : validateLab(lab)

COM -> COM : addLab(lab)

COM -> COM : addTest(labTest)

deactivate COM
deactivate RLC

IU - -> Admin : informs operation sucess

deactivate IU
deactivate Admin

@enduml

PlantUML version 1.2021.5(Sun Apr 25 12:20:28 WEST 2021)
(GPL source distribution)
Java Runtime: OpenJDK Runtime Environment
JVM: OpenJDK 64-Bit Server VM
Default Encoding: UTF-8
Language: en
Country: PT
--></g></svg>