<?xml version="1.0" encoding="UTF-8" standalone="no"?><svg xmlns="http://www.w3.org/2000/svg" xmlns:xlink="http://www.w3.org/1999/xlink" contentScriptType="application/ecmascript" contentStyleType="text/css" height="309px" preserveAspectRatio="none" style="width:751px;height:309px;" version="1.1" viewBox="0 0 751 309" width="751px" zoomAndPan="magnify"><defs><filter height="300%" id="fy1zwq7a6lm8u" width="300%" x="-1" y="-1"><feGaussianBlur result="blurOut" stdDeviation="2.0"/><feColorMatrix in="blurOut" result="blurOut2" type="matrix" values="0 0 0 0 0 0 0 0 0 0 0 0 0 0 0 0 0 0 .4 0"/><feOffset dx="4.0" dy="4.0" in="blurOut2" result="blurOut3"/><feBlend in="SourceGraphic" in2="blurOut3" mode="normal"/></filter></defs><g><!--MD5=[fa8a3ae974441d663f93f377aed0cf8f]
class RegisterLaboratoryIU--><rect codeLine="3" fill="#FEFECE" filter="url(#fy1zwq7a6lm8u)" height="48" id="RegisterLaboratoryIU" style="stroke:#A80036;stroke-width:1.5;" width="163" x="22.5" y="39"/><ellipse cx="37.5" cy="55" fill="#ADD1B2" rx="11" ry="11" style="stroke:#A80036;stroke-width:1.0;"/><path d="M40.4688,60.6406 Q39.8906,60.9375 39.25,61.0781 Q38.6094,61.2344 37.9063,61.2344 Q35.4063,61.2344 34.0781,59.5938 Q32.7656,57.9375 32.7656,54.8125 Q32.7656,51.6875 34.0781,50.0313 Q35.4063,48.375 37.9063,48.375 Q38.6094,48.375 39.25,48.5313 Q39.9063,48.6875 40.4688,48.9844 L40.4688,51.7031 Q39.8438,51.125 39.25,50.8594 Q38.6563,50.5781 38.0313,50.5781 Q36.6875,50.5781 36,51.6563 Q35.3125,52.7188 35.3125,54.8125 Q35.3125,56.9063 36,57.9844 Q36.6875,59.0469 38.0313,59.0469 Q38.6563,59.0469 39.25,58.7813 Q39.8438,58.5 40.4688,57.9219 L40.4688,60.6406 Z " fill="#000000"/><text fill="#000000" font-family="sans-serif" font-size="12" lengthAdjust="spacingAndGlyphs" textLength="131" x="51.5" y="59.1543">RegisterLaboratoryIU</text><line style="stroke:#A80036;stroke-width:1.5;" x1="23.5" x2="184.5" y1="71" y2="71"/><line style="stroke:#A80036;stroke-width:1.5;" x1="23.5" x2="184.5" y1="79" y2="79"/><!--MD5=[76b3dce3952ff410247bd0024b4c3e8f]
class RegisterLaboratoryController--><rect codeLine="5" fill="#FEFECE" filter="url(#fy1zwq7a6lm8u)" height="99.2188" id="RegisterLaboratoryController" style="stroke:#A80036;stroke-width:1.5;" width="308" x="7" y="196"/><ellipse cx="66.75" cy="212" fill="#ADD1B2" rx="11" ry="11" style="stroke:#A80036;stroke-width:1.0;"/><path d="M69.7188,217.6406 Q69.1406,217.9375 68.5,218.0781 Q67.8594,218.2344 67.1563,218.2344 Q64.6563,218.2344 63.3281,216.5938 Q62.0156,214.9375 62.0156,211.8125 Q62.0156,208.6875 63.3281,207.0313 Q64.6563,205.375 67.1563,205.375 Q67.8594,205.375 68.5,205.5313 Q69.1563,205.6875 69.7188,205.9844 L69.7188,208.7031 Q69.0938,208.125 68.5,207.8594 Q67.9063,207.5781 67.2813,207.5781 Q65.9375,207.5781 65.25,208.6563 Q64.5625,209.7188 64.5625,211.8125 Q64.5625,213.9063 65.25,214.9844 Q65.9375,216.0469 67.2813,216.0469 Q67.9063,216.0469 68.5,215.7813 Q69.0938,215.5 69.7188,214.9219 L69.7188,217.6406 Z " fill="#000000"/><text fill="#000000" font-family="sans-serif" font-size="12" lengthAdjust="spacingAndGlyphs" textLength="180" x="87.25" y="216.1543">RegisterLaboratoryController</text><line style="stroke:#A80036;stroke-width:1.5;" x1="8" x2="314" y1="228" y2="228"/><line style="stroke:#A80036;stroke-width:1.5;" x1="8" x2="314" y1="236" y2="236"/><ellipse cx="18" cy="247" fill="#84BE84" rx="3" ry="3" style="stroke:#038048;stroke-width:1.0;"/><text fill="#000000" font-family="sans-serif" font-size="11" lengthAdjust="spacingAndGlyphs" textLength="282" x="27" y="250.2104">registerLab(labID, address, phoneNumber, TINnr)</text><ellipse cx="18" cy="259.8047" fill="#84BE84" rx="3" ry="3" style="stroke:#038048;stroke-width:1.0;"/><text fill="#000000" font-family="sans-serif" font-size="11" lengthAdjust="spacingAndGlyphs" textLength="55" x="27" y="263.0151">saveLab()</text><ellipse cx="18" cy="272.6094" fill="#84BE84" rx="3" ry="3" style="stroke:#038048;stroke-width:1.0;"/><text fill="#000000" font-family="sans-serif" font-size="11" lengthAdjust="spacingAndGlyphs" textLength="120" x="27" y="275.8198">registerTest(sample)</text><ellipse cx="18" cy="285.4141" fill="#84BE84" rx="3" ry="3" style="stroke:#038048;stroke-width:1.0;"/><text fill="#000000" font-family="sans-serif" font-size="11" lengthAdjust="spacingAndGlyphs" textLength="60" x="27" y="288.6245">saveTest()</text><!--MD5=[ca9d99efa02e66bc16d27330652d1b85]
class Clinic--><rect codeLine="12" fill="#FEFECE" filter="url(#fy1zwq7a6lm8u)" height="99.2188" id="Clinic" style="stroke:#A80036;stroke-width:1.5;" width="146" x="406" y="196"/><ellipse cx="458.75" cy="212" fill="#ADD1B2" rx="11" ry="11" style="stroke:#A80036;stroke-width:1.0;"/><path d="M461.7188,217.6406 Q461.1406,217.9375 460.5,218.0781 Q459.8594,218.2344 459.1563,218.2344 Q456.6563,218.2344 455.3281,216.5938 Q454.0156,214.9375 454.0156,211.8125 Q454.0156,208.6875 455.3281,207.0313 Q456.6563,205.375 459.1563,205.375 Q459.8594,205.375 460.5,205.5313 Q461.1563,205.6875 461.7188,205.9844 L461.7188,208.7031 Q461.0938,208.125 460.5,207.8594 Q459.9063,207.5781 459.2813,207.5781 Q457.9375,207.5781 457.25,208.6563 Q456.5625,209.7188 456.5625,211.8125 Q456.5625,213.9063 457.25,214.9844 Q457.9375,216.0469 459.2813,216.0469 Q459.9063,216.0469 460.5,215.7813 Q461.0938,215.5 461.7188,214.9219 L461.7188,217.6406 Z " fill="#000000"/><text fill="#000000" font-family="sans-serif" font-size="12" lengthAdjust="spacingAndGlyphs" textLength="32" x="479.25" y="216.1543">Clinic</text><line style="stroke:#A80036;stroke-width:1.5;" x1="407" x2="551" y1="228" y2="228"/><line style="stroke:#A80036;stroke-width:1.5;" x1="407" x2="551" y1="236" y2="236"/><ellipse cx="417" cy="247" fill="#84BE84" rx="3" ry="3" style="stroke:#038048;stroke-width:1.0;"/><text fill="#000000" font-family="sans-serif" font-size="11" lengthAdjust="spacingAndGlyphs" textLength="120" x="426" y="250.2104">registerTest(sample)</text><ellipse cx="417" cy="259.8047" fill="#84BE84" rx="3" ry="3" style="stroke:#038048;stroke-width:1.0;"/><text fill="#000000" font-family="sans-serif" font-size="11" lengthAdjust="spacingAndGlyphs" textLength="60" x="426" y="263.0151">saveTest()</text><ellipse cx="417" cy="272.6094" fill="#84BE84" rx="3" ry="3" style="stroke:#038048;stroke-width:1.0;"/><text fill="#000000" font-family="sans-serif" font-size="11" lengthAdjust="spacingAndGlyphs" textLength="77" x="426" y="275.8198">validateTest()</text><ellipse cx="417" cy="285.4141" fill="#84BE84" rx="3" ry="3" style="stroke:#038048;stroke-width:1.0;"/><text fill="#000000" font-family="sans-serif" font-size="11" lengthAdjust="spacingAndGlyphs" textLength="54" x="426" y="288.6245">addTest()</text><!--MD5=[02e4b9b7573f1156f41e60aa5b4e25a4]
class Company--><rect codeLine="19" fill="#FEFECE" filter="url(#fy1zwq7a6lm8u)" height="112.0234" id="Company" style="stroke:#A80036;stroke-width:1.5;" width="516" x="221" y="7"/><ellipse cx="446.25" cy="23" fill="#ADD1B2" rx="11" ry="11" style="stroke:#A80036;stroke-width:1.0;"/><path d="M449.2188,28.6406 Q448.6406,28.9375 448,29.0781 Q447.3594,29.2344 446.6563,29.2344 Q444.1563,29.2344 442.8281,27.5938 Q441.5156,25.9375 441.5156,22.8125 Q441.5156,19.6875 442.8281,18.0313 Q444.1563,16.375 446.6563,16.375 Q447.3594,16.375 448,16.5313 Q448.6563,16.6875 449.2188,16.9844 L449.2188,19.7031 Q448.5938,19.125 448,18.8594 Q447.4063,18.5781 446.7813,18.5781 Q445.4375,18.5781 444.75,19.6563 Q444.0625,20.7188 444.0625,22.8125 Q444.0625,24.9063 444.75,25.9844 Q445.4375,27.0469 446.7813,27.0469 Q447.4063,27.0469 448,26.7813 Q448.5938,26.5 449.2188,25.9219 L449.2188,28.6406 Z " fill="#000000"/><text fill="#000000" font-family="sans-serif" font-size="12" lengthAdjust="spacingAndGlyphs" textLength="57" x="466.75" y="27.1543">Company</text><line style="stroke:#A80036;stroke-width:1.5;" x1="222" x2="736" y1="39" y2="39"/><line style="stroke:#A80036;stroke-width:1.5;" x1="222" x2="736" y1="47" y2="47"/><ellipse cx="232" cy="58" fill="#84BE84" rx="3" ry="3" style="stroke:#038048;stroke-width:1.0;"/><text fill="#000000" font-family="sans-serif" font-size="11" lengthAdjust="spacingAndGlyphs" textLength="490" x="241" y="61.2104">registerLab(labID, address, phoneNumber, TINnr)    +registerTest(testName, sample)</text><ellipse cx="232" cy="70.8047" fill="#000000" rx="3" ry="3" style="stroke:#000000;stroke-width:1.0;"/><text fill="#000000" font-family="sans-serif" font-size="11" lengthAdjust="spacingAndGlyphs" textLength="119" x="241" y="74.0151">validateTest(labTest)</text><ellipse cx="232" cy="83.6094" fill="#84BE84" rx="3" ry="3" style="stroke:#038048;stroke-width:1.0;"/><text fill="#000000" font-family="sans-serif" font-size="11" lengthAdjust="spacingAndGlyphs" textLength="89" x="241" y="86.8198">validateLab(lab)</text><ellipse cx="232" cy="96.4141" fill="#84BE84" rx="3" ry="3" style="stroke:#038048;stroke-width:1.0;"/><text fill="#000000" font-family="sans-serif" font-size="11" lengthAdjust="spacingAndGlyphs" textLength="66" x="241" y="99.6245">addLab(lab)</text><ellipse cx="232" cy="109.2188" fill="#84BE84" rx="3" ry="3" style="stroke:#038048;stroke-width:1.0;"/><text fill="#000000" font-family="sans-serif" font-size="11" lengthAdjust="spacingAndGlyphs" textLength="96" x="241" y="112.4292">addTest(labTest)</text><!--MD5=[0c7ed73a1c28cb6254186969be81bc73]
link RegisterLaboratoryIU to RegisterLaboratoryController--><path codeLine="29" d="M111.5692,87.2346 C119.7665,113.4805 133.1126,156.2113 143.872,190.6605 " fill="none" id="RegisterLaboratoryIU-to-RegisterLaboratoryController" style="stroke:#A80036;stroke-width:1.0;stroke-dasharray:7.0,7.0;"/><polygon fill="#A80036" points="145.4398,195.6801,146.5746,185.8968,143.9491,190.9075,138.9384,188.282,145.4398,195.6801" style="stroke:#A80036;stroke-width:1.0;"/><!--MD5=[196bcb1a5e107afd614f248cc96d54e7]
link Company to Clinic--><path codeLine="30" d="M479,119.2452 C479,142.0293 479,168.2453 479,190.8634 " fill="none" id="Company-to-Clinic" style="stroke:#A80036;stroke-width:1.0;"/><polygon fill="#A80036" points="479,195.9305,483,186.9305,479,190.9305,475,186.9305,479,195.9305" style="stroke:#A80036;stroke-width:1.0;"/><text fill="#000000" font-family="sans-serif" font-size="13" lengthAdjust="spacingAndGlyphs" textLength="54" x="480" y="162.0669">contains</text><text fill="#000000" font-family="sans-serif" font-size="13" lengthAdjust="spacingAndGlyphs" textLength="8" x="470.5125" y="139.0877">1</text><text fill="#000000" font-family="sans-serif" font-size="13" lengthAdjust="spacingAndGlyphs" textLength="7" x="471.5078" y="184.966">*</text><!--MD5=[d595274eea6643560c51d1f5216d9e35]
link Company to RegisterLaboratoryController--><path codeLine="31" d="M380.9947,119.2452 C339.7929,142.8909 292.1503,170.2329 251.7589,193.4135 " fill="none" id="Company-to-RegisterLaboratoryController" style="stroke:#A80036;stroke-width:1.0;"/><polygon fill="#A80036" points="247.3732,195.9305,257.1701,194.92,251.7098,193.4417,253.188,187.9814,247.3732,195.9305" style="stroke:#A80036;stroke-width:1.0;"/><text fill="#000000" font-family="sans-serif" font-size="13" lengthAdjust="spacingAndGlyphs" textLength="54" x="321" y="162.0669">contains</text><text fill="#000000" font-family="sans-serif" font-size="13" lengthAdjust="spacingAndGlyphs" textLength="8" x="360.5628" y="139.0877">1</text><text fill="#000000" font-family="sans-serif" font-size="13" lengthAdjust="spacingAndGlyphs" textLength="7" x="252.0272" y="184.966">*</text><!--MD5=[e7015d88af36fe6c71319e66d0e77e98]
@startuml
skinparam classAtributionIconSize 0

class RegisterLaboratoryIU

class RegisterLaboratoryController {
    +registerLab(labID, address, phoneNumber, TINnr)
    +saveLab()
    +registerTest(sample)
    +saveTest()
}

class Clinic {
    +registerTest(sample)
    +saveTest()
    +validateTest()
    +addTest()
  }

class Company {
    +registerLab(labID, address, phoneNumber, TINnr)    +registerTest(testName, sample)
    *validateTest(labTest)
    +validateLab(lab)
    +addLab(lab)
    +addTest(labTest)

}

RegisterLaboratoryIU ..> RegisterLaboratoryController
Company "1" - -> "*" Clinic : contains
Company "1" - -> "*" RegisterLaboratoryController : contains
@enduml

PlantUML version 1.2020.22(Sun Dec 06 09:36:27 UTC 2020)
(GPL source distribution)
Java Runtime: OpenJDK Runtime Environment
JVM: OpenJDK 64-Bit Server VM
Default Encoding: UTF-8
Language: en
Country: US
--></g></svg>