<?xml version="1.0" encoding="UTF-8" standalone="no"?><svg xmlns="http://www.w3.org/2000/svg" xmlns:xlink="http://www.w3.org/1999/xlink" contentScriptType="application/ecmascript" contentStyleType="text/css" height="607px" preserveAspectRatio="none" style="width:329px;height:607px;" version="1.1" viewBox="0 0 329 607" width="329px" zoomAndPan="magnify"><defs><filter height="300%" id="f1i3ig8syns6ls" width="300%" x="-1" y="-1"><feGaussianBlur result="blurOut" stdDeviation="2.0"/><feColorMatrix in="blurOut" result="blurOut2" type="matrix" values="0 0 0 0 0 0 0 0 0 0 0 0 0 0 0 0 0 0 .4 0"/><feOffset dx="4.0" dy="4.0" in="blurOut2" result="blurOut3"/><feBlend in="SourceGraphic" in2="blurOut3" mode="normal"/></filter></defs><g><!--MD5=[fa8a3ae974441d663f93f377aed0cf8f]
class RegisterLaboratoryIU--><rect codeLine="3" fill="#FEFECE" filter="url(#f1i3ig8syns6ls)" height="48" id="RegisterLaboratoryIU" style="stroke:#A80036;stroke-width:1.5;" width="163" x="79.5" y="7"/><ellipse cx="94.5" cy="23" fill="#ADD1B2" rx="11" ry="11" style="stroke:#A80036;stroke-width:1.0;"/><path d="M97.4688,28.6406 Q96.8906,28.9375 96.25,29.0781 Q95.6094,29.2344 94.9063,29.2344 Q92.4063,29.2344 91.0781,27.5938 Q89.7656,25.9375 89.7656,22.8125 Q89.7656,19.6875 91.0781,18.0313 Q92.4063,16.375 94.9063,16.375 Q95.6094,16.375 96.25,16.5313 Q96.9063,16.6875 97.4688,16.9844 L97.4688,19.7031 Q96.8438,19.125 96.25,18.8594 Q95.6563,18.5781 95.0313,18.5781 Q93.6875,18.5781 93,19.6563 Q92.3125,20.7188 92.3125,22.8125 Q92.3125,24.9063 93,25.9844 Q93.6875,27.0469 95.0313,27.0469 Q95.6563,27.0469 96.25,26.7813 Q96.8438,26.5 97.4688,25.9219 L97.4688,28.6406 Z " fill="#000000"/><text fill="#000000" font-family="sans-serif" font-size="12" lengthAdjust="spacingAndGlyphs" textLength="131" x="108.5" y="27.1543">RegisterLaboratoryIU</text><line style="stroke:#A80036;stroke-width:1.5;" x1="80.5" x2="241.5" y1="39" y2="39"/><line style="stroke:#A80036;stroke-width:1.5;" x1="80.5" x2="241.5" y1="47" y2="47"/><!--MD5=[76b3dce3952ff410247bd0024b4c3e8f]
class RegisterLaboratoryController--><rect codeLine="5" fill="#FEFECE" filter="url(#f1i3ig8syns6ls)" height="99.2188" id="RegisterLaboratoryController" style="stroke:#A80036;stroke-width:1.5;" width="308" x="7" y="116"/><ellipse cx="66.75" cy="132" fill="#ADD1B2" rx="11" ry="11" style="stroke:#A80036;stroke-width:1.0;"/><path d="M69.7188,137.6406 Q69.1406,137.9375 68.5,138.0781 Q67.8594,138.2344 67.1563,138.2344 Q64.6563,138.2344 63.3281,136.5938 Q62.0156,134.9375 62.0156,131.8125 Q62.0156,128.6875 63.3281,127.0313 Q64.6563,125.375 67.1563,125.375 Q67.8594,125.375 68.5,125.5313 Q69.1563,125.6875 69.7188,125.9844 L69.7188,128.7031 Q69.0938,128.125 68.5,127.8594 Q67.9063,127.5781 67.2813,127.5781 Q65.9375,127.5781 65.25,128.6563 Q64.5625,129.7188 64.5625,131.8125 Q64.5625,133.9063 65.25,134.9844 Q65.9375,136.0469 67.2813,136.0469 Q67.9063,136.0469 68.5,135.7813 Q69.0938,135.5 69.7188,134.9219 L69.7188,137.6406 Z " fill="#000000"/><text fill="#000000" font-family="sans-serif" font-size="12" lengthAdjust="spacingAndGlyphs" textLength="180" x="87.25" y="136.1543">RegisterLaboratoryController</text><line style="stroke:#A80036;stroke-width:1.5;" x1="8" x2="314" y1="148" y2="148"/><line style="stroke:#A80036;stroke-width:1.5;" x1="8" x2="314" y1="156" y2="156"/><ellipse cx="18" cy="167" fill="#84BE84" rx="3" ry="3" style="stroke:#038048;stroke-width:1.0;"/><text fill="#000000" font-family="sans-serif" font-size="11" lengthAdjust="spacingAndGlyphs" textLength="282" x="27" y="170.2104">registerLab(labID, address, phoneNumber, TINnr)</text><ellipse cx="18" cy="179.8047" fill="#84BE84" rx="3" ry="3" style="stroke:#038048;stroke-width:1.0;"/><text fill="#000000" font-family="sans-serif" font-size="11" lengthAdjust="spacingAndGlyphs" textLength="72" x="27" y="183.0151">saveLab(lab)</text><ellipse cx="18" cy="192.6094" fill="#84BE84" rx="3" ry="3" style="stroke:#038048;stroke-width:1.0;"/><text fill="#000000" font-family="sans-serif" font-size="11" lengthAdjust="spacingAndGlyphs" textLength="183" x="27" y="195.8198">registerTest(sample, testName)</text><ellipse cx="18" cy="205.4141" fill="#84BE84" rx="3" ry="3" style="stroke:#038048;stroke-width:1.0;"/><text fill="#000000" font-family="sans-serif" font-size="11" lengthAdjust="spacingAndGlyphs" textLength="102" x="27" y="208.6245">saveTest(labTest)</text><!--MD5=[ca9d99efa02e66bc16d27330652d1b85]
class Clinic--><rect codeLine="12" fill="#FEFECE" filter="url(#f1i3ig8syns6ls)" height="99.2188" id="Clinic" style="stroke:#A80036;stroke-width:1.5;" width="209" x="56.5" y="494"/><ellipse cx="140.75" cy="510" fill="#ADD1B2" rx="11" ry="11" style="stroke:#A80036;stroke-width:1.0;"/><path d="M143.7188,515.6406 Q143.1406,515.9375 142.5,516.0781 Q141.8594,516.2344 141.1563,516.2344 Q138.6563,516.2344 137.3281,514.5938 Q136.0156,512.9375 136.0156,509.8125 Q136.0156,506.6875 137.3281,505.0313 Q138.6563,503.375 141.1563,503.375 Q141.8594,503.375 142.5,503.5313 Q143.1563,503.6875 143.7188,503.9844 L143.7188,506.7031 Q143.0938,506.125 142.5,505.8594 Q141.9063,505.5781 141.2813,505.5781 Q139.9375,505.5781 139.25,506.6563 Q138.5625,507.7188 138.5625,509.8125 Q138.5625,511.9063 139.25,512.9844 Q139.9375,514.0469 141.2813,514.0469 Q141.9063,514.0469 142.5,513.7813 Q143.0938,513.5 143.7188,512.9219 L143.7188,515.6406 Z " fill="#000000"/><text fill="#000000" font-family="sans-serif" font-size="12" lengthAdjust="spacingAndGlyphs" textLength="32" x="161.25" y="514.1543">Clinic</text><line style="stroke:#A80036;stroke-width:1.5;" x1="57.5" x2="264.5" y1="526" y2="526"/><line style="stroke:#A80036;stroke-width:1.5;" x1="57.5" x2="264.5" y1="534" y2="534"/><ellipse cx="67.5" cy="545" fill="#84BE84" rx="3" ry="3" style="stroke:#038048;stroke-width:1.0;"/><text fill="#000000" font-family="sans-serif" font-size="11" lengthAdjust="spacingAndGlyphs" textLength="183" x="76.5" y="548.2104">registerTest(sample, testName)</text><ellipse cx="67.5" cy="557.8047" fill="#84BE84" rx="3" ry="3" style="stroke:#038048;stroke-width:1.0;"/><text fill="#000000" font-family="sans-serif" font-size="11" lengthAdjust="spacingAndGlyphs" textLength="102" x="76.5" y="561.0151">saveTest(labTest)</text><ellipse cx="67.5" cy="570.6094" fill="#84BE84" rx="3" ry="3" style="stroke:#038048;stroke-width:1.0;"/><text fill="#000000" font-family="sans-serif" font-size="11" lengthAdjust="spacingAndGlyphs" textLength="119" x="76.5" y="573.8198">validateTest(labTest)</text><ellipse cx="67.5" cy="583.4141" fill="#84BE84" rx="3" ry="3" style="stroke:#038048;stroke-width:1.0;"/><text fill="#000000" font-family="sans-serif" font-size="11" lengthAdjust="spacingAndGlyphs" textLength="96" x="76.5" y="586.6245">addTest(labTest)</text><!--MD5=[02e4b9b7573f1156f41e60aa5b4e25a4]
class Company--><rect codeLine="19" fill="#FEFECE" filter="url(#f1i3ig8syns6ls)" height="124.8281" id="Company" style="stroke:#A80036;stroke-width:1.5;" width="308" x="7" y="292"/><ellipse cx="128.25" cy="308" fill="#ADD1B2" rx="11" ry="11" style="stroke:#A80036;stroke-width:1.0;"/><path d="M131.2188,313.6406 Q130.6406,313.9375 130,314.0781 Q129.3594,314.2344 128.6563,314.2344 Q126.1563,314.2344 124.8281,312.5938 Q123.5156,310.9375 123.5156,307.8125 Q123.5156,304.6875 124.8281,303.0313 Q126.1563,301.375 128.6563,301.375 Q129.3594,301.375 130,301.5313 Q130.6563,301.6875 131.2188,301.9844 L131.2188,304.7031 Q130.5938,304.125 130,303.8594 Q129.4063,303.5781 128.7813,303.5781 Q127.4375,303.5781 126.75,304.6563 Q126.0625,305.7188 126.0625,307.8125 Q126.0625,309.9063 126.75,310.9844 Q127.4375,312.0469 128.7813,312.0469 Q129.4063,312.0469 130,311.7813 Q130.5938,311.5 131.2188,310.9219 L131.2188,313.6406 Z " fill="#000000"/><text fill="#000000" font-family="sans-serif" font-size="12" lengthAdjust="spacingAndGlyphs" textLength="57" x="148.75" y="312.1543">Company</text><line style="stroke:#A80036;stroke-width:1.5;" x1="8" x2="314" y1="324" y2="324"/><line style="stroke:#A80036;stroke-width:1.5;" x1="8" x2="314" y1="332" y2="332"/><ellipse cx="18" cy="343" fill="#84BE84" rx="3" ry="3" style="stroke:#038048;stroke-width:1.0;"/><text fill="#000000" font-family="sans-serif" font-size="11" lengthAdjust="spacingAndGlyphs" textLength="282" x="27" y="346.2104">registerLab(labID, address, phoneNumber, TINnr)</text><ellipse cx="18" cy="355.8047" fill="#84BE84" rx="3" ry="3" style="stroke:#038048;stroke-width:1.0;"/><text fill="#000000" font-family="sans-serif" font-size="11" lengthAdjust="spacingAndGlyphs" textLength="183" x="27" y="359.0151">registerTest(testName, sample)</text><ellipse cx="18" cy="368.6094" fill="#84BE84" rx="3" ry="3" style="stroke:#038048;stroke-width:1.0;"/><text fill="#000000" font-family="sans-serif" font-size="11" lengthAdjust="spacingAndGlyphs" textLength="119" x="27" y="371.8198">validateTest(labTest)</text><ellipse cx="18" cy="381.4141" fill="#84BE84" rx="3" ry="3" style="stroke:#038048;stroke-width:1.0;"/><text fill="#000000" font-family="sans-serif" font-size="11" lengthAdjust="spacingAndGlyphs" textLength="89" x="27" y="384.6245">validateLab(lab)</text><ellipse cx="18" cy="394.2188" fill="#84BE84" rx="3" ry="3" style="stroke:#038048;stroke-width:1.0;"/><text fill="#000000" font-family="sans-serif" font-size="11" lengthAdjust="spacingAndGlyphs" textLength="66" x="27" y="397.4292">addLab(lab)</text><ellipse cx="18" cy="407.0234" fill="#84BE84" rx="3" ry="3" style="stroke:#038048;stroke-width:1.0;"/><text fill="#000000" font-family="sans-serif" font-size="11" lengthAdjust="spacingAndGlyphs" textLength="96" x="27" y="410.2339">addTest(labTest)</text><!--MD5=[0c7ed73a1c28cb6254186969be81bc73]
link RegisterLaboratoryIU to RegisterLaboratoryController--><path codeLine="29" d="M161,55.0459 C161,70.4478 161,91.0929 161,110.3652 " fill="none" id="RegisterLaboratoryIU-to-RegisterLaboratoryController" style="stroke:#A80036;stroke-width:1.0;stroke-dasharray:7.0,7.0;"/><polygon fill="#A80036" points="161,115.759,165,106.759,161,110.759,157,106.759,161,115.759" style="stroke:#A80036;stroke-width:1.0;"/><!--MD5=[196bcb1a5e107afd614f248cc96d54e7]
link Company to Clinic--><path codeLine="30" d="M161,417.1717 C161,440.3481 161,466.4164 161,488.8271 " fill="none" id="Company-to-Clinic" style="stroke:#A80036;stroke-width:1.0;"/><polygon fill="#A80036" points="161,493.8463,165,484.8463,161,488.8463,157,484.8463,161,493.8463" style="stroke:#A80036;stroke-width:1.0;"/><text fill="#000000" font-family="sans-serif" font-size="13" lengthAdjust="spacingAndGlyphs" textLength="23" x="162" y="460.0669">has</text><text fill="#000000" font-family="sans-serif" font-size="13" lengthAdjust="spacingAndGlyphs" textLength="8" x="152.5625" y="436.9303">1</text><text fill="#000000" font-family="sans-serif" font-size="13" lengthAdjust="spacingAndGlyphs" textLength="7" x="153.5078" y="482.8699">*</text><!--MD5=[6562fd30a616ce738409ab5e50ee7c97]
link RegisterLaboratoryController to Company--><path codeLine="31" d="M161,215.1575 C161,237.1106 161,263.2667 161,286.9564 " fill="none" id="RegisterLaboratoryController-to-Company" style="stroke:#A80036;stroke-width:1.0;stroke-dasharray:7.0,7.0;"/><polygon fill="#A80036" points="161,291.9717,165,282.9717,161,286.9717,157,282.9717,161,291.9717" style="stroke:#A80036;stroke-width:1.0;"/><text fill="#000000" font-family="sans-serif" font-size="13" lengthAdjust="spacingAndGlyphs" textLength="67" x="162" y="258.0669">belongs to</text><text fill="#000000" font-family="sans-serif" font-size="13" lengthAdjust="spacingAndGlyphs" textLength="7" x="153.5078" y="235.2561">*</text><text fill="#000000" font-family="sans-serif" font-size="13" lengthAdjust="spacingAndGlyphs" textLength="8" x="152.5375" y="280.9592">1</text><!--MD5=[e70393c3dbe2bec957692932dcaed3fc]
@startuml
skinparam classAtributionIconSize 0

class RegisterLaboratoryIU

class RegisterLaboratoryController {
    +registerLab(labID, address, phoneNumber, TINnr)
    +saveLab(lab)
    +registerTest(sample, testName)
    +saveTest(labTest)
}

class Clinic {
    +registerTest(sample, testName)
    +saveTest(labTest)
    +validateTest(labTest)
    +addTest(labTest)
  }

class Company {
    +registerLab(labID, address, phoneNumber, TINnr)
    +registerTest(testName, sample)
    +validateTest(labTest)
    +validateLab(lab)
    +addLab(lab)
    +addTest(labTest)

}

RegisterLaboratoryIU ..> RegisterLaboratoryController
Company "1" - -> "*" Clinic : has
RegisterLaboratoryController "*" ..> "1" Company : belongs to
@enduml

PlantUML version 1.2020.22(Sun Dec 06 09:36:27 UTC 2020)
(GPL source distribution)
Java Runtime: OpenJDK Runtime Environment
JVM: OpenJDK 64-Bit Server VM
Default Encoding: UTF-8
Language: en
Country: US
--></g></svg>