<?xml version="1.0" encoding="UTF-8" standalone="no"?><svg xmlns="http://www.w3.org/2000/svg" xmlns:xlink="http://www.w3.org/1999/xlink" contentScriptType="application/ecmascript" contentStyleType="text/css" height="736px" preserveAspectRatio="none" style="width:868px;height:736px;" version="1.1" viewBox="0 0 868 736" width="868px" zoomAndPan="magnify"><defs><filter height="300%" id="f1eue85bhgq2qt" width="300%" x="-1" y="-1"><feGaussianBlur result="blurOut" stdDeviation="4.0"/><feColorMatrix in="blurOut" result="blurOut2" type="matrix" values="0 0 0 0 0 0 0 0 0 0 0 0 0 0 0 0 0 0 .4 0"/><feOffset dx="8.0" dy="8.0" in="blurOut2" result="blurOut3"/><feBlend in="SourceGraphic" in2="blurOut3" mode="normal"/></filter></defs><g><line style="stroke:#A80036;stroke-width:2.0;stroke-dasharray:5.0,5.0;" x1="60" x2="60" y1="176.9766" y2="568.7031"/><line style="stroke:#A80036;stroke-width:2.0;stroke-dasharray:5.0,5.0;" x1="783" x2="783" y1="176.9766" y2="568.7031"/><text fill="#000000" font-family="sans-serif" font-size="28" lengthAdjust="spacing" textLength="90" x="10" y="171.0703">Admin</text><ellipse cx="61" cy="30" fill="#FEFECE" filter="url(#f1eue85bhgq2qt)" rx="16" ry="16" style="stroke:#A80036;stroke-width:4.0;"/><path d="M61,46 L61,100 M35,62 L87,62 M61,100 L35,130 M61,100 L87,130 " fill="none" filter="url(#f1eue85bhgq2qt)" style="stroke:#A80036;stroke-width:4.0;"/><text fill="#000000" font-family="sans-serif" font-size="28" lengthAdjust="spacing" textLength="90" x="10" y="593.7734">Admin</text><ellipse cx="61" cy="619.6797" fill="#FEFECE" filter="url(#f1eue85bhgq2qt)" rx="16" ry="16" style="stroke:#A80036;stroke-width:4.0;"/><path d="M61,635.6797 L61,689.6797 M35,651.6797 L87,651.6797 M61,689.6797 L35,719.6797 M61,689.6797 L87,719.6797 " fill="none" filter="url(#f1eue85bhgq2qt)" style="stroke:#A80036;stroke-width:4.0;"/><rect fill="#FEFECE" filter="url(#f1eue85bhgq2qt)" height="60.9766" style="stroke:#A80036;stroke-width:3.0;" width="124" x="717" y="106"/><text fill="#000000" font-family="sans-serif" font-size="28" lengthAdjust="spacing" textLength="96" x="731" y="147.0703">System</text><rect fill="#FEFECE" filter="url(#f1eue85bhgq2qt)" height="60.9766" style="stroke:#A80036;stroke-width:3.0;" width="124" x="717" y="566.7031"/><text fill="#000000" font-family="sans-serif" font-size="28" lengthAdjust="spacing" textLength="96" x="731" y="607.7734">System</text><polygon fill="#A80036" points="759,231.5977,779,239.5977,759,247.5977,767,239.5977" style="stroke:#A80036;stroke-width:2.0;"/><line style="stroke:#A80036;stroke-width:2.0;" x1="61" x2="771" y1="239.5977" y2="239.5977"/><text fill="#000000" font-family="sans-serif" font-size="26" font-weight="bold" lengthAdjust="spacing" textLength="18" x="75" y="230.1133">1</text><text fill="#000000" font-family="sans-serif" font-size="26" lengthAdjust="spacing" textLength="404" x="101" y="230.1133">starts to register new laboratory</text><polygon fill="#A80036" points="83,290.2188,63,298.2188,83,306.2188,75,298.2188" style="stroke:#A80036;stroke-width:2.0;"/><line style="stroke:#A80036;stroke-width:2.0;stroke-dasharray:2.0,2.0;" x1="71" x2="781" y1="298.2188" y2="298.2188"/><text fill="#000000" font-family="sans-serif" font-size="26" font-weight="bold" lengthAdjust="spacing" textLength="18" x="95" y="288.7344">2</text><text fill="#000000" font-family="sans-serif" font-size="26" lengthAdjust="spacing" textLength="648" x="121" y="288.7344">requests data (labID, name, address, phoneNR, TIN)</text><polygon fill="#A80036" points="759,348.8398,779,356.8398,759,364.8398,767,356.8398" style="stroke:#A80036;stroke-width:2.0;"/><line style="stroke:#A80036;stroke-width:2.0;" x1="61" x2="771" y1="356.8398" y2="356.8398"/><text fill="#000000" font-family="sans-serif" font-size="26" font-weight="bold" lengthAdjust="spacing" textLength="18" x="75" y="347.3555">3</text><text fill="#000000" font-family="sans-serif" font-size="26" lengthAdjust="spacing" textLength="262" x="101" y="347.3555">types requested data</text><polygon fill="#A80036" points="83,407.4609,63,415.4609,83,423.4609,75,415.4609" style="stroke:#A80036;stroke-width:2.0;"/><line style="stroke:#A80036;stroke-width:2.0;stroke-dasharray:2.0,2.0;" x1="71" x2="781" y1="415.4609" y2="415.4609"/><text fill="#000000" font-family="sans-serif" font-size="26" font-weight="bold" lengthAdjust="spacing" textLength="18" x="95" y="405.9766">4</text><text fill="#000000" font-family="sans-serif" font-size="26" lengthAdjust="spacing" textLength="530" x="121" y="405.9766">shows the data and requests confirmation</text><polygon fill="#A80036" points="759,466.082,779,474.082,759,482.082,767,474.082" style="stroke:#A80036;stroke-width:2.0;"/><line style="stroke:#A80036;stroke-width:2.0;" x1="61" x2="771" y1="474.082" y2="474.082"/><text fill="#000000" font-family="sans-serif" font-size="26" font-weight="bold" lengthAdjust="spacing" textLength="18" x="75" y="464.5977">5</text><text fill="#000000" font-family="sans-serif" font-size="26" lengthAdjust="spacing" textLength="174" x="101" y="464.5977">confirms data</text><polygon fill="#A80036" points="83,524.7031,63,532.7031,83,540.7031,75,532.7031" style="stroke:#A80036;stroke-width:2.0;"/><line style="stroke:#A80036;stroke-width:2.0;stroke-dasharray:2.0,2.0;" x1="71" x2="781" y1="532.7031" y2="532.7031"/><text fill="#000000" font-family="sans-serif" font-size="26" font-weight="bold" lengthAdjust="spacing" textLength="18" x="95" y="523.2188">6</text><text fill="#000000" font-family="sans-serif" font-size="26" lengthAdjust="spacing" textLength="206" x="121" y="523.2188">informs success</text><!--MD5=[e3852ef5bab57233e7e849b86cc5595e]
@startuml
'https://plantuml.com/sequence-diagram

autonumber

actor  "Admin"

Admin -> System: starts to register new laboratory
System - -> Admin: requests data (labID, name, address, phoneNR, TIN)

Admin -> System: types requested data
System - -> Admin: shows the data and requests confirmation

Admin -> System: confirms data
System - -> Admin: informs success
@enduml

@startuml

autonumber

actor  "Admin"

Admin -> System: starts to register new laboratory
System - -> Admin: requests data (labID, name, address, phoneNR, TIN)

Admin -> System: types requested data
System - -> Admin: shows the data and requests confirmation

Admin -> System: confirms data
System - -> Admin: informs success
@enduml

PlantUML version 1.2021.5(Sun Apr 25 12:20:28 WEST 2021)
(GPL source distribution)
Java Runtime: OpenJDK Runtime Environment
JVM: OpenJDK 64-Bit Server VM
Default Encoding: UTF-8
Language: en
Country: PT
--></g></svg>