<?xml version="1.0" encoding="UTF-8" standalone="no"?><svg xmlns="http://www.w3.org/2000/svg" xmlns:xlink="http://www.w3.org/1999/xlink" contentScriptType="application/ecmascript" contentStyleType="text/css" height="732px" preserveAspectRatio="none" style="width:647px;height:732px;" version="1.1" viewBox="0 0 647 732" width="647px" zoomAndPan="magnify"><defs><filter height="300%" id="f1g8ivmpnxxxhw" width="300%" x="-1" y="-1"><feGaussianBlur result="blurOut" stdDeviation="2.0"/><feColorMatrix in="blurOut" result="blurOut2" type="matrix" values="0 0 0 0 0 0 0 0 0 0 0 0 0 0 0 0 0 0 .4 0"/><feOffset dx="4.0" dy="4.0" in="blurOut2" result="blurOut3"/><feBlend in="SourceGraphic" in2="blurOut3" mode="normal"/></filter></defs><g><!--MD5=[9681dc6e01e10c6b4fe06895ae94f592]
cluster UI--><polygon fill="#DDDDDD" filter="url(#f1g8ivmpnxxxhw)" points="121,6.294,141,6.294,148,29.0939,599,29.0939,599,145.294,121,145.294,121,6.294" style="stroke:#000000;stroke-width:1.5;"/><line style="stroke:#000000;stroke-width:1.5;" x1="121" x2="148" y1="29.0939" y2="29.0939"/><text fill="#000000" font-family="sans-serif" font-size="14" font-weight="bold" lengthAdjust="spacing" textLength="14" x="125" y="21.2999">UI</text><!--MD5=[1f2cfc53d9d308f53762fd0fcbaa4873]
cluster Controller--><polygon fill="#DDDDDD" filter="url(#f1g8ivmpnxxxhw)" points="255,178.294,329,178.294,336,201.0939,465,201.0939,465,383.294,255,383.294,255,178.294" style="stroke:#000000;stroke-width:1.5;"/><line style="stroke:#000000;stroke-width:1.5;" x1="255" x2="336" y1="201.0939" y2="201.0939"/><text fill="#000000" font-family="sans-serif" font-size="14" font-weight="bold" lengthAdjust="spacing" textLength="68" x="259" y="193.2999">Controller</text><!--MD5=[121a8bf1197281ab89ed693fab589f94]
cluster Domain--><polygon fill="#DDDDDD" filter="url(#f1g8ivmpnxxxhw)" points="16,416.294,74,416.294,81,439.0939,232,439.0939,232,714.294,16,714.294,16,416.294" style="stroke:#000000;stroke-width:1.5;"/><line style="stroke:#000000;stroke-width:1.5;" x1="16" x2="81" y1="439.0939" y2="439.0939"/><text fill="#000000" font-family="sans-serif" font-size="14" font-weight="bold" lengthAdjust="spacing" textLength="52" x="20" y="431.2999">Domain</text><!--MD5=[ea5b5017dbea0b34f2db993a45ed3d27]
cluster Adapter--><polygon fill="#DDDDDD" filter="url(#f1g8ivmpnxxxhw)" points="256,436.294,316,436.294,323,459.0939,630,459.0939,630,725.294,256,725.294,256,436.294" style="stroke:#000000;stroke-width:1.5;"/><line style="stroke:#000000;stroke-width:1.5;" x1="256" x2="323" y1="459.0939" y2="459.0939"/><text fill="#000000" font-family="sans-serif" font-size="14" font-weight="bold" lengthAdjust="spacing" textLength="54" x="260" y="451.2999">Adapter</text><!--MD5=[d4990c54c7418166d4df01716c0f5e34]
cluster ContingentSum--><polygon fill="#DDDDDD" filter="url(#f1g8ivmpnxxxhw)" points="280,602.294,393,602.294,400,625.0939,606,625.0939,606,701.294,280,701.294,280,602.294" style="stroke:#000000;stroke-width:1.5;"/><line style="stroke:#000000;stroke-width:1.5;" x1="280" x2="400" y1="625.0939" y2="625.0939"/><text fill="#000000" font-family="sans-serif" font-size="14" font-weight="bold" lengthAdjust="spacing" textLength="107" x="284" y="617.2999">ContingentSum</text><!--MD5=[beacec301d5b9ec8c30406b18b2de939]
class OverviewTestsUI--><rect codeLine="2" fill="#FEFECE" filter="url(#f1g8ivmpnxxxhw)" height="87.5997" id="OverviewTestsUI" style="stroke:#A80036;stroke-width:1.5;" width="446" x="137" y="41.294"/><ellipse cx="309.75" cy="57.294" fill="#ADD1B2" rx="11" ry="11" style="stroke:#A80036;stroke-width:1.0;"/><path d="M304.75,58.4502 C304.75,60.9502 306.8906,62.7627 309.8125,62.7627 C311.0469,62.7627 312.2188,62.4659 312.9688,61.9502 C313.5781,61.5284 313.9063,61.1065 313.9063,60.7002 C313.9063,60.2315 313.4844,59.8252 312.9844,59.8252 C312.75,59.8252 312.5313,59.9034 312.3281,60.1065 C311.8906,60.544 311.8906,60.544 311.7188,60.6377 C311.2656,60.8721 310.625,61.0127 309.8594,61.0127 C307.8594,61.0127 306.5781,59.9971 306.5781,58.419 L306.5781,57.3721 C306.5781,55.669 307.7969,54.4659 309.5,54.4659 C310.0781,54.4659 310.6563,54.6065 311.125,54.8565 C311.5938,55.1221 311.7656,55.3096 311.8281,55.669 C311.9531,56.3409 312.2031,56.5909 312.7344,56.5909 C313.0156,56.5909 313.2969,56.4502 313.4844,56.2315 C313.6094,56.0596 313.6563,55.8877 313.6563,55.4502 L313.6563,54.0909 C313.6563,53.669 313.6406,53.5284 313.5156,53.3565 C313.3438,53.1065 313.0625,52.9502 312.7344,52.9502 C312.4219,52.9502 312.2188,53.0596 312,53.3252 C310.8281,52.8252 310.3906,52.7159 309.4375,52.7159 C306.7656,52.7159 304.75,54.7315 304.75,57.3565 L304.75,58.4502 Z " fill="#000000"/><text fill="#000000" font-family="sans-serif" font-size="12" lengthAdjust="spacing" textLength="92" x="330.25" y="61.242">OverviewTestsUI</text><line style="stroke:#A80036;stroke-width:1.5;" x1="138" x2="582" y1="73.294" y2="73.294"/><line style="stroke:#A80036;stroke-width:1.5;" x1="138" x2="582" y1="81.294" y2="81.294"/><rect fill="#F24D5C" height="6" style="stroke:#C82930;stroke-width:1.0;" width="6" x="145" y="89.294"/><text fill="#000000" font-family="sans-serif" font-size="11" lengthAdjust="spacing" textLength="420" x="157" y="95.5129">show(numRegisteredTests,numValidatedTests,numAvailableTests,earlyDate,lateDate)</text><rect fill="#F24D5C" height="6" style="stroke:#C82930;stroke-width:1.0;" width="6" x="145" y="102.4939"/><text fill="#000000" font-family="sans-serif" font-size="11" lengthAdjust="spacing" textLength="126" x="157" y="108.7128">selectDates(date1, date2)</text><rect fill="#F24D5C" height="6" style="stroke:#C82930;stroke-width:1.0;" width="6" x="145" y="115.6938"/><text fill="#000000" font-family="sans-serif" font-size="11" lengthAdjust="spacing" textLength="86" x="157" y="121.9127">draw(GraphData)</text><!--MD5=[50fb21a926a2696db78816614cf1fa3d]
class OverviewTestsController--><rect codeLine="10" fill="#FEFECE" filter="url(#f1g8ivmpnxxxhw)" height="153.5992" id="OverviewTestsController" style="stroke:#A80036;stroke-width:1.5;" width="178" x="271" y="213.294"/><ellipse cx="291.4" cy="229.294" fill="#ADD1B2" rx="11" ry="11" style="stroke:#A80036;stroke-width:1.0;"/><path d="M286.4,230.4502 C286.4,232.9502 288.5406,234.7627 291.4625,234.7627 C292.6969,234.7627 293.8688,234.4659 294.6188,233.9502 C295.2281,233.5284 295.5563,233.1065 295.5563,232.7002 C295.5563,232.2315 295.1344,231.8252 294.6344,231.8252 C294.4,231.8252 294.1813,231.9034 293.9781,232.1065 C293.5406,232.544 293.5406,232.544 293.3688,232.6377 C292.9156,232.8721 292.275,233.0127 291.5094,233.0127 C289.5094,233.0127 288.2281,231.9971 288.2281,230.419 L288.2281,229.3721 C288.2281,227.669 289.4469,226.4659 291.15,226.4659 C291.7281,226.4659 292.3063,226.6065 292.775,226.8565 C293.2438,227.1221 293.4156,227.3096 293.4781,227.669 C293.6031,228.3409 293.8531,228.5909 294.3844,228.5909 C294.6656,228.5909 294.9469,228.4502 295.1344,228.2315 C295.2594,228.0596 295.3063,227.8877 295.3063,227.4502 L295.3063,226.0909 C295.3063,225.669 295.2906,225.5284 295.1656,225.3565 C294.9938,225.1065 294.7125,224.9502 294.3844,224.9502 C294.0719,224.9502 293.8688,225.0596 293.65,225.3252 C292.4781,224.8252 292.0406,224.7159 291.0875,224.7159 C288.4156,224.7159 286.4,226.7315 286.4,229.3565 L286.4,230.4502 Z " fill="#000000"/><text fill="#000000" font-family="sans-serif" font-size="12" lengthAdjust="spacing" textLength="134" x="306.6" y="233.242">OverviewTestsController</text><line style="stroke:#A80036;stroke-width:1.5;" x1="272" x2="448" y1="245.294" y2="245.294"/><ellipse cx="282" cy="256.294" rx="3" ry="3" style="stroke:#038048;stroke-width:1.0;fill:none;"/><text fill="#000000" font-family="sans-serif" font-size="11" lengthAdjust="spacing" textLength="73" x="291" y="259.5129">Date earlyDate</text><ellipse cx="282" cy="269.4939" rx="3" ry="3" style="stroke:#038048;stroke-width:1.0;fill:none;"/><text fill="#000000" font-family="sans-serif" font-size="11" lengthAdjust="spacing" textLength="66" x="291" y="272.7128">Date lateDate</text><ellipse cx="282" cy="282.6938" rx="3" ry="3" style="stroke:#038048;stroke-width:1.0;fill:none;"/><text fill="#000000" font-family="sans-serif" font-size="11" lengthAdjust="spacing" textLength="106" x="291" y="285.9127">int numAvailableTests</text><ellipse cx="282" cy="295.8937" rx="3" ry="3" style="stroke:#038048;stroke-width:1.0;fill:none;"/><text fill="#000000" font-family="sans-serif" font-size="11" lengthAdjust="spacing" textLength="116" x="291" y="299.1126">int numRegisteredTests</text><ellipse cx="282" cy="309.0936" rx="3" ry="3" style="stroke:#038048;stroke-width:1.0;fill:none;"/><text fill="#000000" font-family="sans-serif" font-size="11" lengthAdjust="spacing" textLength="107" x="291" y="312.3125">int numValidatedTests</text><ellipse cx="282" cy="322.2935" rx="3" ry="3" style="stroke:#038048;stroke-width:1.0;fill:none;"/><text fill="#000000" font-family="sans-serif" font-size="11" lengthAdjust="spacing" textLength="152" x="291" y="325.5124">ArrayList&lt;Test&gt; validatedTests</text><line style="stroke:#A80036;stroke-width:1.5;" x1="272" x2="448" y1="332.4934" y2="332.4934"/><ellipse cx="282" cy="343.4934" fill="#84BE84" rx="3" ry="3" style="stroke:#038048;stroke-width:1.0;"/><text fill="#000000" font-family="sans-serif" font-size="11" lengthAdjust="spacing" textLength="98" x="291" y="346.7123">setEarlyDate(date1)</text><ellipse cx="282" cy="356.6933" fill="#84BE84" rx="3" ry="3" style="stroke:#038048;stroke-width:1.0;"/><text fill="#000000" font-family="sans-serif" font-size="11" lengthAdjust="spacing" textLength="94" x="291" y="359.9122">setLateDate(date2)</text><!--MD5=[02e4b9b7573f1156f41e60aa5b4e25a4]
class Company--><rect codeLine="24" fill="#FEFECE" filter="url(#f1g8ivmpnxxxhw)" height="87.5997" id="Company" style="stroke:#A80036;stroke-width:1.5;" width="184" x="32" y="451.294"/><ellipse cx="93.25" cy="467.294" fill="#ADD1B2" rx="11" ry="11" style="stroke:#A80036;stroke-width:1.0;"/><path d="M88.25,468.4502 C88.25,470.9502 90.3906,472.7627 93.3125,472.7627 C94.5469,472.7627 95.7188,472.4659 96.4688,471.9502 C97.0781,471.5284 97.4063,471.1065 97.4063,470.7002 C97.4063,470.2315 96.9844,469.8252 96.4844,469.8252 C96.25,469.8252 96.0313,469.9034 95.8281,470.1065 C95.3906,470.544 95.3906,470.544 95.2188,470.6377 C94.7656,470.8721 94.125,471.0127 93.3594,471.0127 C91.3594,471.0127 90.0781,469.9971 90.0781,468.419 L90.0781,467.3721 C90.0781,465.669 91.2969,464.4659 93,464.4659 C93.5781,464.4659 94.1563,464.6065 94.625,464.8565 C95.0938,465.1221 95.2656,465.3096 95.3281,465.669 C95.4531,466.3409 95.7031,466.5909 96.2344,466.5909 C96.5156,466.5909 96.7969,466.4502 96.9844,466.2315 C97.1094,466.0596 97.1563,465.8877 97.1563,465.4502 L97.1563,464.0909 C97.1563,463.669 97.1406,463.5284 97.0156,463.3565 C96.8438,463.1065 96.5625,462.9502 96.2344,462.9502 C95.9219,462.9502 95.7188,463.0596 95.5,463.3252 C94.3281,462.8252 93.8906,462.7159 92.9375,462.7159 C90.2656,462.7159 88.25,464.7315 88.25,467.3565 L88.25,468.4502 Z " fill="#000000"/><text fill="#000000" font-family="sans-serif" font-size="12" lengthAdjust="spacing" textLength="53" x="113.75" y="471.242">Company</text><line style="stroke:#A80036;stroke-width:1.5;" x1="33" x2="215" y1="483.294" y2="483.294"/><line style="stroke:#A80036;stroke-width:1.5;" x1="33" x2="215" y1="491.294" y2="491.294"/><ellipse cx="43" cy="502.294" fill="#84BE84" rx="3" ry="3" style="stroke:#038048;stroke-width:1.0;"/><text fill="#000000" font-family="sans-serif" font-size="11" lengthAdjust="spacing" textLength="158" x="52" y="505.5129">List&lt;Test&gt; getRegisteredTests()</text><ellipse cx="43" cy="515.4939" fill="#84BE84" rx="3" ry="3" style="stroke:#038048;stroke-width:1.0;"/><text fill="#000000" font-family="sans-serif" font-size="11" lengthAdjust="spacing" textLength="149" x="52" y="518.7128">List&lt;Test&gt; getValidatedTests()</text><ellipse cx="43" cy="528.6938" fill="#84BE84" rx="3" ry="3" style="stroke:#038048;stroke-width:1.0;"/><text fill="#000000" font-family="sans-serif" font-size="11" lengthAdjust="spacing" textLength="148" x="52" y="531.9127">List&lt;Test&gt; getAvailableTests()</text><!--MD5=[df38be88ccee13e832d6fafd6288a4ca]
class Test--><rect codeLine="29" fill="#FEFECE" filter="url(#f1g8ivmpnxxxhw)" height="74.3998" id="Test" style="stroke:#A80036;stroke-width:1.5;" width="144" x="52" y="624.294"/><ellipse cx="108.25" cy="640.294" fill="#ADD1B2" rx="11" ry="11" style="stroke:#A80036;stroke-width:1.0;"/><path d="M103.25,641.4502 C103.25,643.9502 105.3906,645.7627 108.3125,645.7627 C109.5469,645.7627 110.7188,645.4659 111.4688,644.9502 C112.0781,644.5284 112.4063,644.1065 112.4063,643.7002 C112.4063,643.2315 111.9844,642.8252 111.4844,642.8252 C111.25,642.8252 111.0313,642.9034 110.8281,643.1065 C110.3906,643.544 110.3906,643.544 110.2188,643.6377 C109.7656,643.8721 109.125,644.0127 108.3594,644.0127 C106.3594,644.0127 105.0781,642.9971 105.0781,641.419 L105.0781,640.3721 C105.0781,638.669 106.2969,637.4659 108,637.4659 C108.5781,637.4659 109.1563,637.6065 109.625,637.8565 C110.0938,638.1221 110.2656,638.3096 110.3281,638.669 C110.4531,639.3409 110.7031,639.5909 111.2344,639.5909 C111.5156,639.5909 111.7969,639.4502 111.9844,639.2315 C112.1094,639.0596 112.1563,638.8877 112.1563,638.4502 L112.1563,637.0909 C112.1563,636.669 112.1406,636.5284 112.0156,636.3565 C111.8438,636.1065 111.5625,635.9502 111.2344,635.9502 C110.9219,635.9502 110.7188,636.0596 110.5,636.3252 C109.3281,635.8252 108.8906,635.7159 107.9375,635.7159 C105.2656,635.7159 103.25,637.7315 103.25,640.3565 L103.25,641.4502 Z " fill="#000000"/><text fill="#000000" font-family="sans-serif" font-size="12" lengthAdjust="spacing" textLength="23" x="128.75" y="644.242">Test</text><line style="stroke:#A80036;stroke-width:1.5;" x1="53" x2="195" y1="656.294" y2="656.294"/><rect fill="none" height="6" style="stroke:#C82930;stroke-width:1.0;" width="6" x="60" y="664.294"/><text fill="#000000" font-family="sans-serif" font-size="11" lengthAdjust="spacing" textLength="94" x="72" y="670.5129">Date validationDate</text><line style="stroke:#A80036;stroke-width:1.5;" x1="53" x2="195" y1="677.4939" y2="677.4939"/><ellipse cx="63" cy="688.4939" fill="#84BE84" rx="3" ry="3" style="stroke:#038048;stroke-width:1.0;"/><text fill="#000000" font-family="sans-serif" font-size="11" lengthAdjust="spacing" textLength="118" x="72" y="691.7128">Date getValidationDate()</text><!--MD5=[78d471d4be937896b47081b0d7aba860]
class ReflectorUtility--><rect codeLine="45" fill="#FEFECE" filter="url(#f1g8ivmpnxxxhw)" height="48" id="ReflectorUtility" style="stroke:#A80036;stroke-width:1.5;" width="111" x="304.5" y="471.294"/><ellipse cx="319.5" cy="487.294" fill="#ADD1B2" rx="11" ry="11" style="stroke:#A80036;stroke-width:1.0;"/><path d="M314.5,488.4502 C314.5,490.9502 316.6406,492.7627 319.5625,492.7627 C320.7969,492.7627 321.9688,492.4659 322.7188,491.9502 C323.3281,491.5284 323.6563,491.1065 323.6563,490.7002 C323.6563,490.2315 323.2344,489.8252 322.7344,489.8252 C322.5,489.8252 322.2813,489.9034 322.0781,490.1065 C321.6406,490.544 321.6406,490.544 321.4688,490.6377 C321.0156,490.8721 320.375,491.0127 319.6094,491.0127 C317.6094,491.0127 316.3281,489.9971 316.3281,488.419 L316.3281,487.3721 C316.3281,485.669 317.5469,484.4659 319.25,484.4659 C319.8281,484.4659 320.4063,484.6065 320.875,484.8565 C321.3438,485.1221 321.5156,485.3096 321.5781,485.669 C321.7031,486.3409 321.9531,486.5909 322.4844,486.5909 C322.7656,486.5909 323.0469,486.4502 323.2344,486.2315 C323.3594,486.0596 323.4063,485.8877 323.4063,485.4502 L323.4063,484.0909 C323.4063,483.669 323.3906,483.5284 323.2656,483.3565 C323.0938,483.1065 322.8125,482.9502 322.4844,482.9502 C322.1719,482.9502 321.9688,483.0596 321.75,483.3252 C320.5781,482.8252 320.1406,482.7159 319.1875,482.7159 C316.5156,482.7159 314.5,484.7315 314.5,487.3565 L314.5,488.4502 Z " fill="#000000"/><text fill="#000000" font-family="sans-serif" font-size="12" lengthAdjust="spacing" textLength="79" x="333.5" y="491.242">ReflectorUtility</text><line style="stroke:#A80036;stroke-width:1.5;" x1="305.5" x2="414.5" y1="503.294" y2="503.294"/><line style="stroke:#A80036;stroke-width:1.5;" x1="305.5" x2="414.5" y1="511.294" y2="511.294"/><!--MD5=[6b41395186febf2b5ecb17534a813bdf]
class AlgorithmInterface--><rect codeLine="47" fill="#FEFECE" filter="url(#f1g8ivmpnxxxhw)" height="48" id="AlgorithmInterface" style="stroke:#A80036;stroke-width:1.5;" width="131" x="458.5" y="637.294"/><ellipse cx="473.5" cy="653.294" fill="#B4A7E5" rx="11" ry="11" style="stroke:#A80036;stroke-width:1.0;"/><path d="M474.5156,650.4502 L476.1719,650.4502 C476.5625,650.4502 476.7656,650.419 476.9219,650.3409 C477.1875,650.169 477.3594,649.8721 477.3594,649.5752 C477.3594,649.294 477.2188,649.044 476.9844,648.8721 C476.7969,648.7471 476.6406,648.7002 476.1719,648.7002 L471.0313,648.7002 C470.5938,648.7002 470.4531,648.7159 470.2813,648.8252 C470.0156,648.9971 469.8438,649.2784 469.8438,649.5752 C469.8438,649.8565 469.9844,650.1377 470.2188,650.294 C470.4063,650.419 470.5938,650.4502 471.0313,650.4502 L472.6875,650.4502 L472.6875,656.544 L471.0313,656.544 C470.5938,656.544 470.4531,656.5596 470.2813,656.669 C470.0156,656.8252 469.8438,657.1221 469.8438,657.4034 C469.8438,658.0127 470.25,658.294 471.0313,658.294 L476.1719,658.294 C476.9531,658.294 477.3594,658.0127 477.3594,657.4034 C477.3594,657.1377 477.2188,656.8877 476.9844,656.7159 C476.7969,656.5752 476.625,656.544 476.1719,656.544 L474.5156,656.544 L474.5156,650.4502 Z " fill="#000000"/><text fill="#000000" font-family="sans-serif" font-size="12" font-style="italic" lengthAdjust="spacing" textLength="99" x="487.5" y="658.394">AlgorithmInterface</text><line style="stroke:#A80036;stroke-width:1.5;" x1="459.5" x2="588.5" y1="669.294" y2="669.294"/><line style="stroke:#A80036;stroke-width:1.5;" x1="459.5" x2="588.5" y1="677.294" y2="677.294"/><!--MD5=[3138106b431ee09a3df76317cc3353cc]
class AlgorithmAdapter--><rect fill="#FEFECE" filter="url(#f1g8ivmpnxxxhw)" height="48" id="AlgorithmAdapter" style="stroke:#A80036;stroke-width:1.5;" width="127" x="296.5" y="637.294"/><ellipse cx="311.5" cy="653.294" fill="#ADD1B2" rx="11" ry="11" style="stroke:#A80036;stroke-width:1.0;"/><path d="M306.5,654.4502 C306.5,656.9502 308.6406,658.7627 311.5625,658.7627 C312.7969,658.7627 313.9688,658.4659 314.7188,657.9502 C315.3281,657.5284 315.6563,657.1065 315.6563,656.7002 C315.6563,656.2315 315.2344,655.8252 314.7344,655.8252 C314.5,655.8252 314.2813,655.9034 314.0781,656.1065 C313.6406,656.544 313.6406,656.544 313.4688,656.6377 C313.0156,656.8721 312.375,657.0127 311.6094,657.0127 C309.6094,657.0127 308.3281,655.9971 308.3281,654.419 L308.3281,653.3721 C308.3281,651.669 309.5469,650.4659 311.25,650.4659 C311.8281,650.4659 312.4063,650.6065 312.875,650.8565 C313.3438,651.1221 313.5156,651.3096 313.5781,651.669 C313.7031,652.3409 313.9531,652.5909 314.4844,652.5909 C314.7656,652.5909 315.0469,652.4502 315.2344,652.2315 C315.3594,652.0596 315.4063,651.8877 315.4063,651.4502 L315.4063,650.0909 C315.4063,649.669 315.3906,649.5284 315.2656,649.3565 C315.0938,649.1065 314.8125,648.9502 314.4844,648.9502 C314.1719,648.9502 313.9688,649.0596 313.75,649.3252 C312.5781,648.8252 312.1406,648.7159 311.1875,648.7159 C308.5156,648.7159 306.5,650.7315 306.5,653.3565 L306.5,654.4502 Z " fill="#000000"/><text fill="#000000" font-family="sans-serif" font-size="12" lengthAdjust="spacing" textLength="95" x="325.5" y="657.242">AlgorithmAdapter</text><line style="stroke:#A80036;stroke-width:1.5;" x1="297.5" x2="422.5" y1="669.294" y2="669.294"/><line style="stroke:#A80036;stroke-width:1.5;" x1="297.5" x2="422.5" y1="677.294" y2="677.294"/><!--MD5=[0f1d81f8144c5fe563d14dd6b1e7f526]
link OverviewTestsController to Company--><path codeLine="37" d="M271.45,367.464 C240.16,394.374 205.92,423.834 178.32,447.574 " fill="none" id="OverviewTestsController-to-Company" style="stroke:#A80036;stroke-width:1.0;stroke-dasharray:7.0,7.0;"/><polygon fill="#A80036" points="174.29,451.034,183.7265,448.2139,178.0863,447.78,178.5201,442.1398,174.29,451.034" style="stroke:#A80036;stroke-width:1.0;"/><!--MD5=[7e4bc624457760b649895ff2ead938fa]
link Company to Test--><path codeLine="41" d="M124,539.384 C124,564.014 124,594.744 124,619.054 " fill="none" id="Company-to-Test" style="stroke:#A80036;stroke-width:1.0;"/><polygon fill="#A80036" points="124,624.144,128,615.144,124,619.144,120,615.144,124,624.144" style="stroke:#A80036;stroke-width:1.0;"/><text fill="#000000" font-family="sans-serif" font-size="13" lengthAdjust="spacing" textLength="7" x="116.4859" y="559.1117">1</text><text fill="#000000" font-family="sans-serif" font-size="13" lengthAdjust="spacing" textLength="5" x="118.5234" y="612.7287">*</text><!--MD5=[93a56e9d495298c61e39bf22cbcde310]
link AlgorithmAdapter to AlgorithmInterface--><path codeLine="49" d="M423.74,661.294 C428.5,661.294 433.26,661.294 438.01,661.294 " fill="none" id="AlgorithmAdapter-to-AlgorithmInterface" style="stroke:#A80036;stroke-width:1.0;"/><polygon fill="none" points="438.21,654.294,458.21,661.294,438.21,668.294,438.21,654.294" style="stroke:#A80036;stroke-width:1.0;"/><!--MD5=[e123ad70db2d95cf772d727cb2e3b70f]
link ReflectorUtility to AlgorithmAdapter--><path codeLine="52" d="M359.6,519.304 C359.38,533.674 359.11,552.564 359,569.294 C358.86,590.194 359.13,613.804 359.42,631.734 " fill="none" id="ReflectorUtility-to-AlgorithmAdapter" style="stroke:#A80036;stroke-width:1.0;stroke-dasharray:7.0,7.0;"/><polygon fill="#A80036" points="359.52,637.104,363.3651,628.0367,359.4343,632.1047,355.3663,628.1739,359.52,637.104" style="stroke:#A80036;stroke-width:1.0;"/><text fill="#000000" font-family="sans-serif" font-size="13" lengthAdjust="spacing" textLength="135" x="360" y="582.371">creates using reflection</text><!--MD5=[35057a4170ebba61a0f565d960a957d3]
link OverviewTestsUI to OverviewTestsController--><path codeLine="54" d="M360,129.344 C360,152.244 360,181.164 360,208.094 " fill="none" id="OverviewTestsUI-to-OverviewTestsController" style="stroke:#A80036;stroke-width:1.0;stroke-dasharray:7.0,7.0;"/><polygon fill="#A80036" points="360,213.104,364,204.104,360,208.104,356,204.104,360,213.104" style="stroke:#A80036;stroke-width:1.0;"/><!--MD5=[cd2a9c0273c343fdf49ed340be92eba4]
link OverviewTestsController to AlgorithmInterface--><path codeLine="56" d="M449.33,348.124 C469.18,365.054 487.9,385.314 500,408.294 C538.53,481.454 533.39,583.194 527.96,631.984 " fill="none" id="OverviewTestsController-to-AlgorithmInterface" style="stroke:#A80036;stroke-width:1.0;"/><polygon fill="#A80036" points="527.36,637.104,532.3616,628.6196,527.931,632.1367,524.4139,627.7061,527.36,637.104" style="stroke:#A80036;stroke-width:1.0;"/><!--MD5=[5ddf32a436ac10ac15f6d8d821ea8f05]
link OverviewTestsController to ReflectorUtility--><path codeLine="58" d="M360,367.464 C360,401.914 360,440.524 360,465.994 " fill="none" id="OverviewTestsController-to-ReflectorUtility" style="stroke:#A80036;stroke-width:1.0;stroke-dasharray:7.0,7.0;"/><polygon fill="#A80036" points="360,471.224,364,462.224,360,466.224,356,462.224,360,471.224" style="stroke:#A80036;stroke-width:1.0;"/><!--MD5=[7e147c3cfe185ad8e025268966b21f5f]
@startuml
package "UI" #DDDDDD {
class OverviewTestsUI {
 -show(numRegisteredTests,numValidatedTests,numAvailableTests,earlyDate,lateDate)
 -selectDates(date1, date2)
 -draw(GraphData)
}
}

package "Controller" #DDDDDD {
class OverviewTestsController {
  +Date earlyDate
  +Date lateDate
  +int numAvailableTests
  +int numRegisteredTests
  +int numValidatedTests
  +ArrayList<Test> validatedTests

  +setEarlyDate(date1)
  +setLateDate(date2)
}
}

package "Domain" #DDDDDD {
class Company {
  +List<Test> getRegisteredTests()
  +List<Test> getValidatedTests()
  +List<Test> getAvailableTests()
}
class Test {
-Date validationDate
+Date getValidationDate()
}



}
OverviewTestsController ..> Company



Company "1" - -> "*" Test

package "Adapter" #DDDDDD {

class ReflectorUtility
package "ContingentSum" #DDDDDD {
interface AlgorithmInterface

AlgorithmAdapter -|> AlgorithmInterface
}

ReflectorUtility ..> AlgorithmAdapter : creates using reflection
}
OverviewTestsUI ..> OverviewTestsController

OverviewTestsController - -> AlgorithmInterface

OverviewTestsController ..> ReflectorUtility

@enduml

PlantUML version 1.2021.5(Sun Apr 25 12:20:28 WEST 2021)
(GPL source distribution)
Java Runtime: OpenJDK Runtime Environment
JVM: OpenJDK 64-Bit Server VM
Default Encoding: ANSI_X3.4-1968
Language: en
Country: US
--></g></svg>