<?xml version="1.0" encoding="UTF-8" standalone="no"?><svg xmlns="http://www.w3.org/2000/svg" xmlns:xlink="http://www.w3.org/1999/xlink" contentScriptType="application/ecmascript" contentStyleType="text/css" height="623px" preserveAspectRatio="none" style="width:591px;height:623px;" version="1.1" viewBox="0 0 591 623" width="591px" zoomAndPan="magnify"><defs><filter height="300%" id="f1sskp5im4nlwz" width="300%" x="-1" y="-1"><feGaussianBlur result="blurOut" stdDeviation="2.0"/><feColorMatrix in="blurOut" result="blurOut2" type="matrix" values="0 0 0 0 0 0 0 0 0 0 0 0 0 0 0 0 0 0 .4 0"/><feOffset dx="4.0" dy="4.0" in="blurOut2" result="blurOut3"/><feBlend in="SourceGraphic" in2="blurOut3" mode="normal"/></filter></defs><g><!--MD5=[71152100d89f377ebd8dc97f1c2b0d02]
class RegisterClientUI--><rect codeLine="1" fill="#FEFECE" filter="url(#f1sskp5im4nlwz)" height="74.3998" id="RegisterClientUI" style="stroke:#A80036;stroke-width:1.5;" width="122" x="357.5" y="7"/><ellipse cx="372.5" cy="23" fill="#ADD1B2" rx="11" ry="11" style="stroke:#A80036;stroke-width:1.0;"/><path d="M367.5,24.1563 C367.5,26.6563 369.6406,28.4688 372.5625,28.4688 C373.7969,28.4688 374.9688,28.1719 375.7188,27.6563 C376.3281,27.2344 376.6563,26.8125 376.6563,26.4063 C376.6563,25.9375 376.2344,25.5313 375.7344,25.5313 C375.5,25.5313 375.2813,25.6094 375.0781,25.8125 C374.6406,26.25 374.6406,26.25 374.4688,26.3438 C374.0156,26.5781 373.375,26.7188 372.6094,26.7188 C370.6094,26.7188 369.3281,25.7031 369.3281,24.125 L369.3281,23.0781 C369.3281,21.375 370.5469,20.1719 372.25,20.1719 C372.8281,20.1719 373.4063,20.3125 373.875,20.5625 C374.3438,20.8281 374.5156,21.0156 374.5781,21.375 C374.7031,22.0469 374.9531,22.2969 375.4844,22.2969 C375.7656,22.2969 376.0469,22.1563 376.2344,21.9375 C376.3594,21.7656 376.4063,21.5938 376.4063,21.1563 L376.4063,19.7969 C376.4063,19.375 376.3906,19.2344 376.2656,19.0625 C376.0938,18.8125 375.8125,18.6563 375.4844,18.6563 C375.1719,18.6563 374.9688,18.7656 374.75,19.0313 C373.5781,18.5313 373.1406,18.4219 372.1875,18.4219 C369.5156,18.4219 367.5,20.4375 367.5,23.0625 L367.5,24.1563 Z " fill="#000000"/><text fill="#000000" font-family="sans-serif" font-size="12" lengthAdjust="spacingAndGlyphs" textLength="90" x="386.5" y="26.948">RegisterClientUI</text><line style="stroke:#A80036;stroke-width:1.5;" x1="358.5" x2="478.5" y1="39" y2="39"/><line style="stroke:#A80036;stroke-width:1.5;" x1="358.5" x2="478.5" y1="47" y2="47"/><rect fill="#F24D5C" height="6" style="stroke:#C82930;stroke-width:1.0;" width="6" x="365.5" y="55"/><text fill="#000000" font-family="sans-serif" font-size="11" lengthAdjust="spacingAndGlyphs" textLength="83" x="377.5" y="61.2189">show(clientDTO)</text><rect fill="#F24D5C" height="6" style="stroke:#C82930;stroke-width:1.0;" width="6" x="365.5" y="68.1999"/><text fill="#000000" font-family="sans-serif" font-size="11" lengthAdjust="spacingAndGlyphs" textLength="58" x="377.5" y="74.4188">show(state)</text><!--MD5=[1a7fda4a36185bcd740bdf14b2b3a45e]
class RegisterClientController--><rect codeLine="6" fill="#FEFECE" filter="url(#f1sskp5im4nlwz)" height="87.5997" id="RegisterClientController" style="stroke:#A80036;stroke-width:1.5;" width="513" x="7" y="142"/><ellipse cx="193.25" cy="158" fill="#ADD1B2" rx="11" ry="11" style="stroke:#A80036;stroke-width:1.0;"/><path d="M188.25,159.1563 C188.25,161.6563 190.3906,163.4688 193.3125,163.4688 C194.5469,163.4688 195.7188,163.1719 196.4688,162.6563 C197.0781,162.2344 197.4063,161.8125 197.4063,161.4063 C197.4063,160.9375 196.9844,160.5313 196.4844,160.5313 C196.25,160.5313 196.0313,160.6094 195.8281,160.8125 C195.3906,161.25 195.3906,161.25 195.2188,161.3438 C194.7656,161.5781 194.125,161.7188 193.3594,161.7188 C191.3594,161.7188 190.0781,160.7031 190.0781,159.125 L190.0781,158.0781 C190.0781,156.375 191.2969,155.1719 193,155.1719 C193.5781,155.1719 194.1563,155.3125 194.625,155.5625 C195.0938,155.8281 195.2656,156.0156 195.3281,156.375 C195.4531,157.0469 195.7031,157.2969 196.2344,157.2969 C196.5156,157.2969 196.7969,157.1563 196.9844,156.9375 C197.1094,156.7656 197.1563,156.5938 197.1563,156.1563 L197.1563,154.7969 C197.1563,154.375 197.1406,154.2344 197.0156,154.0625 C196.8438,153.8125 196.5625,153.6563 196.2344,153.6563 C195.9219,153.6563 195.7188,153.7656 195.5,154.0313 C194.3281,153.5313 193.8906,153.4219 192.9375,153.4219 C190.2656,153.4219 188.25,155.4375 188.25,158.0625 L188.25,159.1563 Z " fill="#000000"/><text fill="#000000" font-family="sans-serif" font-size="12" lengthAdjust="spacingAndGlyphs" textLength="132" x="213.75" y="161.948">RegisterClientController</text><line style="stroke:#A80036;stroke-width:1.5;" x1="8" x2="519" y1="174" y2="174"/><ellipse cx="18" cy="185" fill="none" rx="3" ry="3" style="stroke:#038048;stroke-width:1.0;"/><text fill="#000000" font-family="sans-serif" font-size="11" lengthAdjust="spacingAndGlyphs" textLength="65" x="27" y="188.2189">boolean state</text><line style="stroke:#A80036;stroke-width:1.5;" x1="8" x2="519" y1="195.1999" y2="195.1999"/><ellipse cx="18" cy="206.1999" fill="#84BE84" rx="3" ry="3" style="stroke:#038048;stroke-width:1.0;"/><text fill="#000000" font-family="sans-serif" font-size="11" lengthAdjust="spacingAndGlyphs" textLength="121" x="27" y="209.4188">registerClient(clientDTO)</text><ellipse cx="18" cy="219.3998" fill="#84BE84" rx="3" ry="3" style="stroke:#038048;stroke-width:1.0;"/><text fill="#000000" font-family="sans-serif" font-size="11" lengthAdjust="spacingAndGlyphs" textLength="487" x="27" y="222.6187">createClientDTO(name, CCNumber, NHSNumber, birthdate, sex, TINNumber, phoneNumber, email)</text><!--MD5=[d92da6d3e9b1e9631354e1a6db35e891]
class ClientDTO--><rect codeLine="15" fill="#FEFECE" filter="url(#f1sskp5im4nlwz)" height="153.5992" id="ClientDTO" style="stroke:#A80036;stroke-width:1.5;" width="126" x="395.5" y="456"/><ellipse cx="427.15" cy="472" fill="#ADD1B2" rx="11" ry="11" style="stroke:#A80036;stroke-width:1.0;"/><path d="M422.15,473.1563 C422.15,475.6563 424.2906,477.4688 427.2125,477.4688 C428.4469,477.4688 429.6188,477.1719 430.3688,476.6563 C430.9781,476.2344 431.3063,475.8125 431.3063,475.4063 C431.3063,474.9375 430.8844,474.5313 430.3844,474.5313 C430.15,474.5313 429.9313,474.6094 429.7281,474.8125 C429.2906,475.25 429.2906,475.25 429.1188,475.3438 C428.6656,475.5781 428.025,475.7188 427.2594,475.7188 C425.2594,475.7188 423.9781,474.7031 423.9781,473.125 L423.9781,472.0781 C423.9781,470.375 425.1969,469.1719 426.9,469.1719 C427.4781,469.1719 428.0563,469.3125 428.525,469.5625 C428.9938,469.8281 429.1656,470.0156 429.2281,470.375 C429.3531,471.0469 429.6031,471.2969 430.1344,471.2969 C430.4156,471.2969 430.6969,471.1563 430.8844,470.9375 C431.0094,470.7656 431.0563,470.5938 431.0563,470.1563 L431.0563,468.7969 C431.0563,468.375 431.0406,468.2344 430.9156,468.0625 C430.7438,467.8125 430.4625,467.6563 430.1344,467.6563 C429.8219,467.6563 429.6188,467.7656 429.4,468.0313 C428.2281,467.5313 427.7906,467.4219 426.8375,467.4219 C424.1656,467.4219 422.15,469.4375 422.15,472.0625 L422.15,473.1563 Z " fill="#000000"/><text fill="#000000" font-family="sans-serif" font-size="12" lengthAdjust="spacingAndGlyphs" textLength="57" x="444.85" y="475.948">ClientDTO</text><line style="stroke:#A80036;stroke-width:1.5;" x1="396.5" x2="520.5" y1="488" y2="488"/><ellipse cx="406.5" cy="499" fill="none" rx="3" ry="3" style="stroke:#038048;stroke-width:1.0;"/><text fill="#000000" font-family="sans-serif" font-size="11" lengthAdjust="spacingAndGlyphs" textLength="58" x="415.5" y="502.2189">String name</text><ellipse cx="406.5" cy="512.1999" fill="none" rx="3" ry="3" style="stroke:#038048;stroke-width:1.0;"/><text fill="#000000" font-family="sans-serif" font-size="11" lengthAdjust="spacingAndGlyphs" textLength="86" x="415.5" y="515.4188">String CCNumber</text><ellipse cx="406.5" cy="525.3998" fill="none" rx="3" ry="3" style="stroke:#038048;stroke-width:1.0;"/><text fill="#000000" font-family="sans-serif" font-size="11" lengthAdjust="spacingAndGlyphs" textLength="93" x="415.5" y="528.6187">String NHSNumber</text><ellipse cx="406.5" cy="538.5997" fill="none" rx="3" ry="3" style="stroke:#038048;stroke-width:1.0;"/><text fill="#000000" font-family="sans-serif" font-size="11" lengthAdjust="spacingAndGlyphs" textLength="68" x="415.5" y="541.8186">Date birthdate</text><ellipse cx="406.5" cy="551.7996" fill="none" rx="3" ry="3" style="stroke:#038048;stroke-width:1.0;"/><text fill="#000000" font-family="sans-serif" font-size="11" lengthAdjust="spacingAndGlyphs" textLength="49" x="415.5" y="555.0185">String sex</text><ellipse cx="406.5" cy="564.9995" fill="none" rx="3" ry="3" style="stroke:#038048;stroke-width:1.0;"/><text fill="#000000" font-family="sans-serif" font-size="11" lengthAdjust="spacingAndGlyphs" textLength="88" x="415.5" y="568.2184">String TINNumber</text><ellipse cx="406.5" cy="578.1994" fill="none" rx="3" ry="3" style="stroke:#038048;stroke-width:1.0;"/><text fill="#000000" font-family="sans-serif" font-size="11" lengthAdjust="spacingAndGlyphs" textLength="100" x="415.5" y="581.4183">String phoneNumber</text><ellipse cx="406.5" cy="591.3993" fill="none" rx="3" ry="3" style="stroke:#038048;stroke-width:1.0;"/><text fill="#000000" font-family="sans-serif" font-size="11" lengthAdjust="spacingAndGlyphs" textLength="56" x="415.5" y="594.6182">String email</text><line style="stroke:#A80036;stroke-width:1.5;" x1="396.5" x2="520.5" y1="601.5992" y2="601.5992"/><!--MD5=[03960189e81aa2c066c762ffabbee709]
class Receptionist--><rect codeLine="28" fill="#FEFECE" filter="url(#f1sskp5im4nlwz)" height="87.5997" id="Receptionist" style="stroke:#A80036;stroke-width:1.5;" width="143" x="245" y="291"/><ellipse cx="279.35" cy="307" fill="#ADD1B2" rx="11" ry="11" style="stroke:#A80036;stroke-width:1.0;"/><path d="M274.35,308.1563 C274.35,310.6563 276.4906,312.4688 279.4125,312.4688 C280.6469,312.4688 281.8188,312.1719 282.5688,311.6563 C283.1781,311.2344 283.5063,310.8125 283.5063,310.4063 C283.5063,309.9375 283.0844,309.5313 282.5844,309.5313 C282.35,309.5313 282.1313,309.6094 281.9281,309.8125 C281.4906,310.25 281.4906,310.25 281.3188,310.3438 C280.8656,310.5781 280.225,310.7188 279.4594,310.7188 C277.4594,310.7188 276.1781,309.7031 276.1781,308.125 L276.1781,307.0781 C276.1781,305.375 277.3969,304.1719 279.1,304.1719 C279.6781,304.1719 280.2563,304.3125 280.725,304.5625 C281.1938,304.8281 281.3656,305.0156 281.4281,305.375 C281.5531,306.0469 281.8031,306.2969 282.3344,306.2969 C282.6156,306.2969 282.8969,306.1563 283.0844,305.9375 C283.2094,305.7656 283.2563,305.5938 283.2563,305.1563 L283.2563,303.7969 C283.2563,303.375 283.2406,303.2344 283.1156,303.0625 C282.9438,302.8125 282.6625,302.6563 282.3344,302.6563 C282.0219,302.6563 281.8188,302.7656 281.6,303.0313 C280.4281,302.5313 279.9906,302.4219 279.0375,302.4219 C276.3656,302.4219 274.35,304.4375 274.35,307.0625 L274.35,308.1563 Z " fill="#000000"/><text fill="#000000" font-family="sans-serif" font-size="12" lengthAdjust="spacingAndGlyphs" textLength="68" x="297.65" y="310.948">Receptionist</text><line style="stroke:#A80036;stroke-width:1.5;" x1="246" x2="387" y1="323" y2="323"/><line style="stroke:#A80036;stroke-width:1.5;" x1="246" x2="387" y1="331" y2="331"/><ellipse cx="256" cy="342" fill="#84BE84" rx="3" ry="3" style="stroke:#038048;stroke-width:1.0;"/><text fill="#000000" font-family="sans-serif" font-size="11" lengthAdjust="spacingAndGlyphs" textLength="50" x="265" y="345.2189">getUser();</text><ellipse cx="256" cy="355.1999" fill="#84BE84" rx="3" ry="3" style="stroke:#038048;stroke-width:1.0;"/><text fill="#000000" font-family="sans-serif" font-size="11" lengthAdjust="spacingAndGlyphs" textLength="53" x="265" y="358.4188">getClient();</text><ellipse cx="256" cy="368.3998" fill="#84BE84" rx="3" ry="3" style="stroke:#038048;stroke-width:1.0;"/><text fill="#000000" font-family="sans-serif" font-size="11" lengthAdjust="spacingAndGlyphs" textLength="117" x="265" y="371.6187">createClient(ClientDTO)</text><!--MD5=[ed6624c6556d5e7b1bd23032162d20b7]
class Client--><rect codeLine="36" fill="#FEFECE" filter="url(#f1sskp5im4nlwz)" height="153.5992" id="Client" style="stroke:#A80036;stroke-width:1.5;" width="126" x="198.5" y="456"/><ellipse cx="241.4" cy="472" fill="#ADD1B2" rx="11" ry="11" style="stroke:#A80036;stroke-width:1.0;"/><path d="M236.4,473.1563 C236.4,475.6563 238.5406,477.4688 241.4625,477.4688 C242.6969,477.4688 243.8688,477.1719 244.6188,476.6563 C245.2281,476.2344 245.5563,475.8125 245.5563,475.4063 C245.5563,474.9375 245.1344,474.5313 244.6344,474.5313 C244.4,474.5313 244.1813,474.6094 243.9781,474.8125 C243.5406,475.25 243.5406,475.25 243.3688,475.3438 C242.9156,475.5781 242.275,475.7188 241.5094,475.7188 C239.5094,475.7188 238.2281,474.7031 238.2281,473.125 L238.2281,472.0781 C238.2281,470.375 239.4469,469.1719 241.15,469.1719 C241.7281,469.1719 242.3063,469.3125 242.775,469.5625 C243.2438,469.8281 243.4156,470.0156 243.4781,470.375 C243.6031,471.0469 243.8531,471.2969 244.3844,471.2969 C244.6656,471.2969 244.9469,471.1563 245.1344,470.9375 C245.2594,470.7656 245.3063,470.5938 245.3063,470.1563 L245.3063,468.7969 C245.3063,468.375 245.2906,468.2344 245.1656,468.0625 C244.9938,467.8125 244.7125,467.6563 244.3844,467.6563 C244.0719,467.6563 243.8688,467.7656 243.65,468.0313 C242.4781,467.5313 242.0406,467.4219 241.0875,467.4219 C238.4156,467.4219 236.4,469.4375 236.4,472.0625 L236.4,473.1563 Z " fill="#000000"/><text fill="#000000" font-family="sans-serif" font-size="12" lengthAdjust="spacingAndGlyphs" textLength="32" x="261.6" y="475.948">Client</text><line style="stroke:#A80036;stroke-width:1.5;" x1="199.5" x2="323.5" y1="488" y2="488"/><ellipse cx="209.5" cy="499" fill="none" rx="3" ry="3" style="stroke:#038048;stroke-width:1.0;"/><text fill="#000000" font-family="sans-serif" font-size="11" lengthAdjust="spacingAndGlyphs" textLength="58" x="218.5" y="502.2189">String name</text><ellipse cx="209.5" cy="512.1999" fill="none" rx="3" ry="3" style="stroke:#038048;stroke-width:1.0;"/><text fill="#000000" font-family="sans-serif" font-size="11" lengthAdjust="spacingAndGlyphs" textLength="86" x="218.5" y="515.4188">String CCNumber</text><ellipse cx="209.5" cy="525.3998" fill="none" rx="3" ry="3" style="stroke:#038048;stroke-width:1.0;"/><text fill="#000000" font-family="sans-serif" font-size="11" lengthAdjust="spacingAndGlyphs" textLength="93" x="218.5" y="528.6187">String NHSNumber</text><ellipse cx="209.5" cy="538.5997" fill="none" rx="3" ry="3" style="stroke:#038048;stroke-width:1.0;"/><text fill="#000000" font-family="sans-serif" font-size="11" lengthAdjust="spacingAndGlyphs" textLength="68" x="218.5" y="541.8186">Date birthdate</text><ellipse cx="209.5" cy="551.7996" fill="none" rx="3" ry="3" style="stroke:#038048;stroke-width:1.0;"/><text fill="#000000" font-family="sans-serif" font-size="11" lengthAdjust="spacingAndGlyphs" textLength="49" x="218.5" y="555.0185">String sex</text><ellipse cx="209.5" cy="564.9995" fill="none" rx="3" ry="3" style="stroke:#038048;stroke-width:1.0;"/><text fill="#000000" font-family="sans-serif" font-size="11" lengthAdjust="spacingAndGlyphs" textLength="88" x="218.5" y="568.2184">String TINNumber</text><ellipse cx="209.5" cy="578.1994" fill="none" rx="3" ry="3" style="stroke:#038048;stroke-width:1.0;"/><text fill="#000000" font-family="sans-serif" font-size="11" lengthAdjust="spacingAndGlyphs" textLength="100" x="218.5" y="581.4183">String phoneNumber</text><ellipse cx="209.5" cy="591.3993" fill="none" rx="3" ry="3" style="stroke:#038048;stroke-width:1.0;"/><text fill="#000000" font-family="sans-serif" font-size="11" lengthAdjust="spacingAndGlyphs" textLength="56" x="218.5" y="594.6182">String email</text><line style="stroke:#A80036;stroke-width:1.5;" x1="199.5" x2="323.5" y1="601.5992" y2="601.5992"/><!--MD5=[02e4b9b7573f1156f41e60aa5b4e25a4]
class Company--><rect codeLine="47" fill="#FEFECE" filter="url(#f1sskp5im4nlwz)" height="74.3998" id="Company" style="stroke:#A80036;stroke-width:1.5;" width="115" x="95" y="298"/><ellipse cx="123.5" cy="314" fill="#ADD1B2" rx="11" ry="11" style="stroke:#A80036;stroke-width:1.0;"/><path d="M118.5,315.1563 C118.5,317.6563 120.6406,319.4688 123.5625,319.4688 C124.7969,319.4688 125.9688,319.1719 126.7188,318.6563 C127.3281,318.2344 127.6563,317.8125 127.6563,317.4063 C127.6563,316.9375 127.2344,316.5313 126.7344,316.5313 C126.5,316.5313 126.2813,316.6094 126.0781,316.8125 C125.6406,317.25 125.6406,317.25 125.4688,317.3438 C125.0156,317.5781 124.375,317.7188 123.6094,317.7188 C121.6094,317.7188 120.3281,316.7031 120.3281,315.125 L120.3281,314.0781 C120.3281,312.375 121.5469,311.1719 123.25,311.1719 C123.8281,311.1719 124.4063,311.3125 124.875,311.5625 C125.3438,311.8281 125.5156,312.0156 125.5781,312.375 C125.7031,313.0469 125.9531,313.2969 126.4844,313.2969 C126.7656,313.2969 127.0469,313.1563 127.2344,312.9375 C127.3594,312.7656 127.4063,312.5938 127.4063,312.1563 L127.4063,310.7969 C127.4063,310.375 127.3906,310.2344 127.2656,310.0625 C127.0938,309.8125 126.8125,309.6563 126.4844,309.6563 C126.1719,309.6563 125.9688,309.7656 125.75,310.0313 C124.5781,309.5313 124.1406,309.4219 123.1875,309.4219 C120.5156,309.4219 118.5,311.4375 118.5,314.0625 L118.5,315.1563 Z " fill="#000000"/><text fill="#000000" font-family="sans-serif" font-size="12" lengthAdjust="spacingAndGlyphs" textLength="53" x="140.5" y="317.948">Company</text><line style="stroke:#A80036;stroke-width:1.5;" x1="96" x2="209" y1="330" y2="330"/><rect fill="none" height="6" style="stroke:#C82930;stroke-width:1.0;" width="6" x="103" y="338"/><text fill="#000000" font-family="sans-serif" font-size="11" lengthAdjust="spacingAndGlyphs" textLength="89" x="115" y="344.2189">Set&lt;Client&gt; clients</text><line style="stroke:#A80036;stroke-width:1.5;" x1="96" x2="209" y1="351.1999" y2="351.1999"/><ellipse cx="106" cy="362.1999" fill="#84BE84" rx="3" ry="3" style="stroke:#038048;stroke-width:1.0;"/><text fill="#000000" font-family="sans-serif" font-size="11" lengthAdjust="spacingAndGlyphs" textLength="59" x="115" y="365.4188">save(Client)</text><!--MD5=[98d2d934d445daef8d5bcbeea20c1f70]
link RegisterClientUI to RegisterClientController--><path codeLine="12" d="M378.58,81.05 C359.25,98.52 335.79,119.71 315.11,138.38 " fill="none" id="RegisterClientUI-to-RegisterClientController" style="stroke:#A80036;stroke-width:1.0;stroke-dasharray:7.0,7.0;"/><polygon fill="#A80036" points="311.28,141.84,320.639,138.7726,314.9894,138.4873,315.2747,132.8376,311.28,141.84" style="stroke:#A80036;stroke-width:1.0;"/><!--MD5=[401103b44f5971919e28af6a6eb0cda9]
link RegisterClientController to ClientDTO--><path codeLine="13" d="M342.91,230.06 C366.26,246.3 389.73,266.81 405.5,291 C436.42,338.45 449.54,401.17 455,450.73 " fill="none" id="RegisterClientController-to-ClientDTO" style="stroke:#A80036;stroke-width:1.0;stroke-dasharray:7.0,7.0;"/><polygon fill="#A80036" points="455.53,455.79,458.556,446.4175,455.0014,450.818,450.6009,447.2633,455.53,455.79" style="stroke:#A80036;stroke-width:1.0;"/><text fill="#000000" font-family="sans-serif" font-size="13" lengthAdjust="spacingAndGlyphs" textLength="43" x="442.5" y="339.577">creates</text><!--MD5=[bdc3035898bd7d7abd5a65788303ba4d]
link RegisterClientController to Receptionist--><path codeLine="27" d="M279.12,230.31 C285.42,247.8 292.73,268.06 299.2,286 " fill="none" id="RegisterClientController-to-Receptionist" style="stroke:#A80036;stroke-width:1.0;stroke-dasharray:7.0,7.0;"/><polygon fill="#A80036" points="301,291,301.7098,281.1768,299.3039,286.2965,294.1842,283.8905,301,291" style="stroke:#A80036;stroke-width:1.0;"/><!--MD5=[6a35157f4c730bda767e7c9f1b8b7f73]
link Receptionist to Client--><path codeLine="34" d="M304.43,379.01 C298.5,400.14 291.16,426.31 284.23,451 " fill="none" id="Receptionist-to-Client" style="stroke:#A80036;stroke-width:1.0;stroke-dasharray:7.0,7.0;"/><polygon fill="#A80036" points="282.85,455.91,289.121,448.3156,284.1934,451.0938,281.4152,446.1662,282.85,455.91" style="stroke:#A80036;stroke-width:1.0;"/><text fill="#000000" font-family="sans-serif" font-size="13" lengthAdjust="spacingAndGlyphs" textLength="43" x="296.5" y="422.077">creates</text><!--MD5=[643792627e1c1924fc8ffc1a39f5e611]
link RegisterClientUI to ClientDTO--><path codeLine="52" d="M479.76,78.93 C502.25,94.87 525.21,116.12 537.5,142 C584.94,241.88 542.18,369.32 503.46,450.82 " fill="none" id="RegisterClientUI-to-ClientDTO" style="stroke:#A80036;stroke-width:1.0;stroke-dasharray:7.0,7.0;"/><polygon fill="#A80036" points="501.15,455.63,508.6395,449.2341,503.3058,451.1186,501.4213,445.7849,501.15,455.63" style="stroke:#A80036;stroke-width:1.0;"/><!--MD5=[6eee883fdf517d3604e8bd0f2058e9aa]
link Company to Client--><path codeLine="53" d="M172.75,372.41 C185.08,394.58 201.34,423.83 216.58,451.22 " fill="none" id="Company-to-Client" style="stroke:#A80036;stroke-width:1.0;"/><polygon fill="#A80036" points="219.01,455.6,218.1358,445.79,216.5818,451.2292,211.1426,449.6752,219.01,455.6" style="stroke:#A80036;stroke-width:1.0;"/><text fill="#000000" font-family="sans-serif" font-size="13" lengthAdjust="spacingAndGlyphs" textLength="49" x="201.5" y="422.077">contains</text><text fill="#000000" font-family="sans-serif" font-size="13" lengthAdjust="spacingAndGlyphs" textLength="7" x="168.7336" y="392.5044">1</text><text fill="#000000" font-family="sans-serif" font-size="13" lengthAdjust="spacingAndGlyphs" textLength="5" x="209.5813" y="444.3689">*</text><!--MD5=[a9f3adf95abaa71f246e1e58b82ba5c3]
link Receptionist to ClientDTO--><path codeLine="55" d="M347.66,379.01 C363.1,400.32 382.25,426.75 400.26,451.62 " fill="none" id="Receptionist-to-ClientDTO" style="stroke:#A80036;stroke-width:1.0;stroke-dasharray:7.0,7.0;"/><polygon fill="#A80036" points="403.38,455.91,401.3396,446.2748,400.4468,451.8608,394.8609,450.9679,403.38,455.91" style="stroke:#A80036;stroke-width:1.0;"/><!--MD5=[198be3749d42ca56b2a20022cdc44bdd]
link RegisterClientController to Company--><path codeLine="56" d="M230.8,230.31 C215.7,250.31 197.87,273.92 183.04,293.55 " fill="none" id="RegisterClientController-to-Company" style="stroke:#A80036;stroke-width:1.0;stroke-dasharray:7.0,7.0;"/><polygon fill="#A80036" points="179.73,297.93,188.3491,293.1645,182.746,293.942,181.9684,288.3389,179.73,297.93" style="stroke:#A80036;stroke-width:1.0;"/><!--MD5=[8d4bcb12ab47aaa8e74cf597bba37c27]
@startuml
class RegisterClientUI {
 -show(clientDTO)
 -show(state)
}

class RegisterClientController {
  +boolean state
  +registerClient(clientDTO)
  +createClientDTO(name, CCNumber, NHSNumber, birthdate, sex, TINNumber, phoneNumber, email)
}

RegisterClientUI ..> RegisterClientController
RegisterClientController ..> ClientDTO : creates

class ClientDTO{
+String name
+String CCNumber
+String NHSNumber
+Date birthdate
+String sex
+String TINNumber
+String phoneNumber
+String email
}


RegisterClientController ..> Receptionist
class Receptionist{
+getUser();
+getClient();
+createClient(ClientDTO)
}

Receptionist ..> Client : creates

class Client{
+String name
+String CCNumber
+String NHSNumber
+Date birthdate
+String sex
+String TINNumber
+String phoneNumber
+String email
}

class Company{
+save(Client)
-Set<Client> clients
}

RegisterClientUI ..> ClientDTO
Company "1" - -> "*" Client : contains

Receptionist ..> ClientDTO
RegisterClientController ..> Company

@enduml

PlantUML version 1.2020.23(Sun Dec 13 19:14:58 WET 2020)
(GPL source distribution)
Java Runtime: OpenJDK Runtime Environment
JVM: OpenJDK 64-Bit Server VM
Default Encoding: ANSI_X3.4-1968
Language: en
Country: US
--></g></svg>