<?xml version="1.0" encoding="UTF-8" standalone="no"?><svg xmlns="http://www.w3.org/2000/svg" xmlns:xlink="http://www.w3.org/1999/xlink" contentScriptType="application/ecmascript" contentStyleType="text/css" height="1113px" preserveAspectRatio="none" style="width:572px;height:1113px;" version="1.1" viewBox="0 0 572 1113" width="572px" zoomAndPan="magnify"><defs><filter height="300%" id="f190chr6kqhpy" width="300%" x="-1" y="-1"><feGaussianBlur result="blurOut" stdDeviation="2.0"/><feColorMatrix in="blurOut" result="blurOut2" type="matrix" values="0 0 0 0 0 0 0 0 0 0 0 0 0 0 0 0 0 0 .4 0"/><feOffset dx="4.0" dy="4.0" in="blurOut2" result="blurOut3"/><feBlend in="SourceGraphic" in2="blurOut3" mode="normal"/></filter></defs><g><!--MD5=[87a04b683345c3cce94ac9a6e159ab2f]
entity Receptionist--><ellipse cx="81" cy="1000" fill="#FEFECE" filter="url(#f190chr6kqhpy)" rx="8" ry="8" style="stroke:#A80036;stroke-width:1.5;"/><path d="M81,1008 L81,1035 M68,1016 L94,1016 M81,1035 L68,1050 M81,1035 L94,1050 " fill="none" filter="url(#f190chr6kqhpy)" style="stroke:#A80036;stroke-width:1.5;"/><text fill="#000000" font-family="sans-serif" font-size="14" lengthAdjust="spacingAndGlyphs" textLength="78" x="42" y="1068.5059">Receptionist</text><ellipse cx="388.616" cy="1002.4232" fill="#FEFECE" filter="url(#f190chr6kqhpy)" rx="122.616" ry="26.9232" style="stroke:#A80036;stroke-width:1.5;"/><text fill="#000000" font-family="sans-serif" font-size="14" lengthAdjust="spacingAndGlyphs" textLength="212" x="282.616" y="1005.0292">registers the test to be performed</text><ellipse cx="388.4571" cy="1083.4914" fill="#FEFECE" filter="url(#f190chr6kqhpy)" rx="80.4571" ry="18.4914" style="stroke:#A80036;stroke-width:1.5;"/><text fill="#000000" font-family="sans-serif" font-size="14" lengthAdjust="spacingAndGlyphs" textLength="116" x="327.4571" y="1087.2444">registers the client</text><!--MD5=[f11b5a63a5330873409f43ce2c4e9a69]
entity Chemistry Technologist--><ellipse cx="81" cy="627" fill="#FEFECE" filter="url(#f190chr6kqhpy)" rx="8" ry="8" style="stroke:#A80036;stroke-width:1.5;"/><path d="M81,635 L81,662 M68,643 L94,643 M81,662 L68,677 M81,662 L94,677 " fill="none" filter="url(#f190chr6kqhpy)" style="stroke:#A80036;stroke-width:1.5;"/><text fill="#000000" font-family="sans-serif" font-size="14" lengthAdjust="spacingAndGlyphs" textLength="149" x="6.5" y="695.5059">Chemistry Technologist</text><ellipse cx="388.5216" cy="658.7043" fill="#FEFECE" filter="url(#f190chr6kqhpy)" rx="124.0216" ry="27.2043" style="stroke:#A80036;stroke-width:1.5;"/><text fill="#000000" font-family="sans-serif" font-size="14" lengthAdjust="spacingAndGlyphs" textLength="215" x="281.0216" y="661.3103">registers the result of the samples</text><ellipse cx="388.6398" cy="744.328" fill="#FEFECE" filter="url(#f190chr6kqhpy)" rx="69.6398" ry="16.328" style="stroke:#A80036;stroke-width:1.5;"/><text fill="#000000" font-family="sans-serif" font-size="14" lengthAdjust="spacingAndGlyphs" textLength="87" x="342.1398" y="748.0809">verifies report</text><!--MD5=[9884406be06f71c6442cc0d4e009fb6d]
entity Medical Lab Technician--><ellipse cx="81" cy="744" fill="#FEFECE" filter="url(#f190chr6kqhpy)" rx="8" ry="8" style="stroke:#A80036;stroke-width:1.5;"/><path d="M81,752 L81,779 M68,760 L94,760 M81,779 L68,794 M81,779 L94,794 " fill="none" filter="url(#f190chr6kqhpy)" style="stroke:#A80036;stroke-width:1.5;"/><text fill="#000000" font-family="sans-serif" font-size="14" lengthAdjust="spacingAndGlyphs" textLength="150" x="6" y="812.5059">Medical Lab Technician</text><ellipse cx="388.3259" cy="813.5652" fill="#FEFECE" filter="url(#f190chr6kqhpy)" rx="75.8259" ry="17.5652" style="stroke:#A80036;stroke-width:1.5;"/><text fill="#000000" font-family="sans-serif" font-size="14" lengthAdjust="spacingAndGlyphs" textLength="104" x="333.3259" y="817.3181">collects samples</text><!--MD5=[5c107df4c3a6612dd5cfe4282a9cf4f8]
entity Specialist Doctor--><ellipse cx="81" cy="861" fill="#FEFECE" filter="url(#f190chr6kqhpy)" rx="8" ry="8" style="stroke:#A80036;stroke-width:1.5;"/><path d="M81,869 L81,896 M68,877 L94,877 M81,896 L68,911 M81,896 L94,911 " fill="none" filter="url(#f190chr6kqhpy)" style="stroke:#A80036;stroke-width:1.5;"/><text fill="#000000" font-family="sans-serif" font-size="14" lengthAdjust="spacingAndGlyphs" textLength="106" x="28" y="929.5059">Specialist Doctor</text><ellipse cx="388.4409" cy="892.3882" fill="#FEFECE" filter="url(#f190chr6kqhpy)" rx="82.4409" ry="18.8882" style="stroke:#A80036;stroke-width:1.5;"/><text fill="#000000" font-family="sans-serif" font-size="14" lengthAdjust="spacingAndGlyphs" textLength="121" x="324.9409" y="896.1412">diagnostics sample</text><!--MD5=[1a0ff44a601722ffef7405dd923fd24f]
entity Laboratory Coordinator--><ellipse cx="81" cy="510" fill="#FEFECE" filter="url(#f190chr6kqhpy)" rx="8" ry="8" style="stroke:#A80036;stroke-width:1.5;"/><path d="M81,518 L81,545 M68,526 L94,526 M81,545 L68,560 M81,545 L94,560 " fill="none" filter="url(#f190chr6kqhpy)" style="stroke:#A80036;stroke-width:1.5;"/><text fill="#000000" font-family="sans-serif" font-size="14" lengthAdjust="spacingAndGlyphs" textLength="148" x="7" y="578.5059">Laboratory Coordinator</text><ellipse cx="388.6676" cy="541.6335" fill="#FEFECE" filter="url(#f190chr6kqhpy)" rx="96.1676" ry="21.6335" style="stroke:#A80036;stroke-width:1.5;"/><text fill="#000000" font-family="sans-serif" font-size="14" lengthAdjust="spacingAndGlyphs" textLength="154" x="309.3124" y="545.1703">validates/verifies reports</text><!--MD5=[0ba5ee7700168656dc1b457c6fe9fdac]
entity Client--><ellipse cx="81" cy="393" fill="#FEFECE" filter="url(#f190chr6kqhpy)" rx="8" ry="8" style="stroke:#A80036;stroke-width:1.5;"/><path d="M81,401 L81,428 M68,409 L94,409 M81,428 L68,443 M81,428 L94,443 " fill="none" filter="url(#f190chr6kqhpy)" style="stroke:#A80036;stroke-width:1.5;"/><text fill="#000000" font-family="sans-serif" font-size="14" lengthAdjust="spacingAndGlyphs" textLength="36" x="63" y="461.5059">Client</text><ellipse cx="388.4231" cy="424.2846" fill="#FEFECE" filter="url(#f190chr6kqhpy)" rx="111.9231" ry="24.7846" style="stroke:#A80036;stroke-width:1.5;"/><text fill="#000000" font-family="sans-serif" font-size="14" lengthAdjust="spacingAndGlyphs" textLength="189" x="293.9231" y="426.8906">views the reports/examination</text><!--MD5=[62529e7d5259bf274c3bf3e446350d88]
entity Administrator--><ellipse cx="81" cy="212" fill="#FEFECE" filter="url(#f190chr6kqhpy)" rx="8" ry="8" style="stroke:#A80036;stroke-width:1.5;"/><path d="M81,220 L81,247 M68,228 L94,228 M81,247 L68,262 M81,247 L94,262 " fill="none" filter="url(#f190chr6kqhpy)" style="stroke:#A80036;stroke-width:1.5;"/><text fill="#000000" font-family="sans-serif" font-size="14" lengthAdjust="spacingAndGlyphs" textLength="84" x="39" y="280.5059">Administrator</text><ellipse cx="388.2926" cy="137.3585" fill="#FEFECE" filter="url(#f190chr6kqhpy)" rx="172.2926" ry="36.8585" style="stroke:#A80036;stroke-width:1.5;"/><text fill="#000000" font-family="sans-serif" font-size="14" lengthAdjust="spacingAndGlyphs" textLength="316" x="230.2926" y="139.9645">specify new type of test and its collecting methods</text><ellipse cx="388.421" cy="243.3842" fill="#FEFECE" filter="url(#f190chr6kqhpy)" rx="154.921" ry="33.3842" style="stroke:#A80036;stroke-width:1.5;"/><text fill="#000000" font-family="sans-serif" font-size="14" lengthAdjust="spacingAndGlyphs" textLength="280" x="248.421" y="245.9902">specify new test parameter and categorize it</text><ellipse cx="388.4133" cy="338.5827" fill="#FEFECE" filter="url(#f190chr6kqhpy)" rx="118.4133" ry="26.0827" style="stroke:#A80036;stroke-width:1.5;"/><text fill="#000000" font-family="sans-serif" font-size="14" lengthAdjust="spacingAndGlyphs" textLength="203" x="286.9133" y="341.1886">specify new parameter category</text><!--MD5=[52244217770951987a130bd5b09c96eb]
entity Time--><ellipse cx="81" cy="14" fill="#FEFECE" filter="url(#f190chr6kqhpy)" rx="8" ry="8" style="stroke:#A80036;stroke-width:1.5;"/><path d="M81,22 L81,49 M68,30 L94,30 M81,49 L68,64 M81,49 L94,64 " fill="none" filter="url(#f190chr6kqhpy)" style="stroke:#A80036;stroke-width:1.5;"/><text fill="#000000" font-family="sans-serif" font-size="14" lengthAdjust="spacingAndGlyphs" textLength="32" x="65" y="82.5059">Time</text><ellipse cx="388.4024" cy="45.2805" fill="#FEFECE" filter="url(#f190chr6kqhpy)" rx="86.9024" ry="19.7805" style="stroke:#A80036;stroke-width:1.5;"/><text fill="#000000" font-family="sans-serif" font-size="14" lengthAdjust="spacingAndGlyphs" textLength="132" x="319.4024" y="49.0334">generate daily report</text><!--MD5=[e5662b0974371581467d05d7a0be200b]
link Receptionist to registers the test to be performed--><path d="M120.07,1027.89 C157.73,1024.31 217.29,1018.66 270.65,1013.59 " fill="none" id="Receptionist-to-registers the test to be performed" style="stroke:#A80036;stroke-width:1.0;"/><polygon fill="#A80036" points="275.8,1013.1,266.4546,1009.9915,270.8236,1013.5848,267.2303,1017.9538,275.8,1013.1" style="stroke:#A80036;stroke-width:1.0;"/><!--MD5=[a4132aa7a80fb1c54b44a6067074b184]
link Receptionist to registers the client--><path d="M120.07,1037.98 C169.55,1046.4 256.84,1061.26 318.21,1071.71 " fill="none" id="Receptionist-to-registers the client" style="stroke:#A80036;stroke-width:1.0;"/><polygon fill="#A80036" points="323.32,1072.58,315.1231,1067.1201,318.3915,1071.7372,313.7745,1075.0057,323.32,1072.58" style="stroke:#A80036;stroke-width:1.0;"/><!--MD5=[ce0d56283e037c19767c275cb68423c0]
link Chemistry Technologist to registers the result of the samples--><path d="M155.56,658.5 C186.7,658.5 223.89,658.5 259.29,658.5 " fill="none" id="Chemistry Technologist-to-registers the result of the samples" style="stroke:#A80036;stroke-width:1.0;"/><polygon fill="#A80036" points="264.49,658.5,255.49,654.5,259.49,658.5,255.49,662.5,264.49,658.5" style="stroke:#A80036;stroke-width:1.0;"/><!--MD5=[f1a507cc0fbf5c53dd33d7db9783bd12]
link Chemistry Technologist to verifies report--><path d="M155.7,684.57 C175.2,691.1 196.3,697.85 216,703.5 C254.14,714.44 297.63,724.81 331.27,732.39 " fill="none" id="Chemistry Technologist-to-verifies report" style="stroke:#A80036;stroke-width:1.0;"/><polygon fill="#A80036" points="336.16,733.49,328.242,727.6329,331.2791,732.4053,326.5066,735.4424,336.16,733.49" style="stroke:#A80036;stroke-width:1.0;"/><!--MD5=[7b6fd6e60cd48d2911abcf66cb8bff50]
link Medical Lab Technician to collects samples--><path d="M156.34,784.75 C204.91,790.79 267.99,798.63 315.98,804.6 " fill="none" id="Medical Lab Technician-to-collects samples" style="stroke:#A80036;stroke-width:1.0;"/><polygon fill="#A80036" points="321.16,805.25,312.7185,800.1765,316.1977,804.6368,311.7374,808.1161,321.16,805.25" style="stroke:#A80036;stroke-width:1.0;"/><!--MD5=[b65a87f8edfea68731d91158562088af]
link Medical Lab Technician to verifies report--><path d="M156.34,767.96 C205.93,762.92 270.65,756.36 318.99,751.45 " fill="none" id="Medical Lab Technician-to-verifies report" style="stroke:#A80036;stroke-width:1.0;"/><polygon fill="#A80036" points="324.2,750.92,314.8362,747.8673,319.2265,751.4345,315.6594,755.8249,324.2,750.92" style="stroke:#A80036;stroke-width:1.0;"/><!--MD5=[8af8aab39703c8a5ae12e18dc3ea4ce4]
link Specialist Doctor to diagnostics sample--><path d="M134.17,892.5 C179.82,892.5 247.04,892.5 300.77,892.5 " fill="none" id="Specialist Doctor-to-diagnostics sample" style="stroke:#A80036;stroke-width:1.0;"/><polygon fill="#A80036" points="305.92,892.5,296.92,888.5,300.92,892.5,296.92,896.5,305.92,892.5" style="stroke:#A80036;stroke-width:1.0;"/><!--MD5=[e50e684ad235943eb19efb8274041980]
link Specialist Doctor to verifies report--><path d="M134.21,852.49 C141.61,846.56 149.06,840.44 156,834.5 C183.71,810.78 183.53,795.13 216,778.5 C246.9,762.67 284.43,754.2 316.49,749.67 " fill="none" id="Specialist Doctor-to-verifies report" style="stroke:#A80036;stroke-width:1.0;"/><polygon fill="#A80036" points="321.58,748.98,312.1168,746.2509,316.6272,749.6651,313.213,754.1755,321.58,748.98" style="stroke:#A80036;stroke-width:1.0;"/><!--MD5=[aaff44e27350c21e6dca933a9fe6f54e]
link Laboratory Coordinator to validates/verifies reports--><path d="M155.17,541.5 C194.7,541.5 244.08,541.5 287.14,541.5 " fill="none" id="Laboratory Coordinator-to-validates/verifies reports" style="stroke:#A80036;stroke-width:1.0;"/><polygon fill="#A80036" points="292.36,541.5,283.36,537.5,287.36,541.5,283.36,545.5,292.36,541.5" style="stroke:#A80036;stroke-width:1.0;"/><!--MD5=[5a8542b4e47b15dd22c8e4f9a4e0c43e]
link Client to views the reports/examination--><path d="M99.3,424.5 C132.21,424.5 206.33,424.5 271.16,424.5 " fill="none" id="Client-to-views the reports/examination" style="stroke:#A80036;stroke-width:1.0;"/><polygon fill="#A80036" points="276.2,424.5,267.2,420.5,271.2,424.5,267.2,428.5,276.2,424.5" style="stroke:#A80036;stroke-width:1.0;"/><!--MD5=[da93323f64927cfba1d835ae6c114e41]
link Administrator to specify new type of test and its collecting methods--><path d="M123.14,227.19 C149.55,216.89 184.64,203.49 216,192.5 C238.18,184.73 262.11,176.78 284.87,169.43 " fill="none" id="Administrator-to-specify new type of test and its collecting methods" style="stroke:#A80036;stroke-width:1.0;"/><polygon fill="#A80036" points="289.7,167.87,279.9078,166.815,284.9397,169.3996,282.3551,174.4315,289.7,167.87" style="stroke:#A80036;stroke-width:1.0;"/><!--MD5=[0729d605835fb6b30afc9c18f0724d1d]
link Administrator to specify new test parameter and categorize it--><path d="M123.2,243.5 C150.87,243.5 189.27,243.5 228.24,243.5 " fill="none" id="Administrator-to-specify new test parameter and categorize it" style="stroke:#A80036;stroke-width:1.0;"/><polygon fill="#A80036" points="233.49,243.5,224.49,239.5,228.49,243.5,224.49,247.5,233.49,243.5" style="stroke:#A80036;stroke-width:1.0;"/><!--MD5=[7b66cb4d6fd6444b34ec883f21ede135]
link Administrator to specify new parameter category--><path d="M123.22,260.57 C149.51,271.11 184.45,284.48 216,294.5 C243.44,303.21 273.76,311.44 301.18,318.37 " fill="none" id="Administrator-to-specify new parameter category" style="stroke:#A80036;stroke-width:1.0;"/><polygon fill="#A80036" points="306.27,319.65,298.5257,313.5652,301.4227,318.4239,296.5639,321.3209,306.27,319.65" style="stroke:#A80036;stroke-width:1.0;"/><!--MD5=[2444f86e142b61827b1ff6c9ae736042]
link Time to generate daily report--><path d="M97.15,45.5 C132.95,45.5 225.11,45.5 296.08,45.5 " fill="none" id="Time-to-generate daily report" style="stroke:#A80036;stroke-width:1.0;"/><polygon fill="#A80036" points="301.15,45.5,292.15,41.5,296.15,45.5,292.15,49.5,301.15,45.5" style="stroke:#A80036;stroke-width:1.0;"/><!--MD5=[702422098ceb8d2703c42df064663c1b]
@startuml
left to right direction

:Receptionist: - -> (registers the test to be performed)
:Receptionist: - -> (registers the client)

:Chemistry Technologist: - -> (registers the result of the samples)
:Chemistry Technologist: - -> (verifies report)

:Medical Lab Technician: - -> (collects samples)
:Medical Lab Technician: - -> (verifies report)

:Specialist Doctor: - -> (diagnostics sample)
:Specialist Doctor: - -> (verifies report)

:Laboratory Coordinator: - -> (validates/verifies reports)

:Client: - -> (views the reports/examination)

:Administrator: - -> (specify new type of test and its collecting methods)
:Administrator: - -> (specify new test parameter and categorize it)
:Administrator: - -> (specify new parameter category)

:Time: - -> (generate daily report)

@enduml

PlantUML version 1.2020.26(Mon Dec 21 17:45:07 WET 2020)
(GPL source distribution)
Java Runtime: OpenJDK Runtime Environment
JVM: OpenJDK 64-Bit Server VM
Default Encoding: ANSI_X3.4-1968
Language: en
Country: US
--></g></svg>