<?xml version="1.0" encoding="UTF-8" standalone="no"?><svg xmlns="http://www.w3.org/2000/svg" xmlns:xlink="http://www.w3.org/1999/xlink" contentScriptType="application/ecmascript" contentStyleType="text/css" height="371px" preserveAspectRatio="none" style="width:520px;height:371px;" version="1.1" viewBox="0 0 520 371" width="520px" zoomAndPan="magnify"><defs><filter height="300%" id="f1up16xmrv2ows" width="300%" x="-1" y="-1"><feGaussianBlur result="blurOut" stdDeviation="2.0"/><feColorMatrix in="blurOut" result="blurOut2" type="matrix" values="0 0 0 0 0 0 0 0 0 0 0 0 0 0 0 0 0 0 .4 0"/><feOffset dx="4.0" dy="4.0" in="blurOut2" result="blurOut3"/><feBlend in="SourceGraphic" in2="blurOut3" mode="normal"/></filter></defs><g><rect fill="#FFFFFF" filter="url(#f1up16xmrv2ows)" height="169.6001" style="stroke:#A80036;stroke-width:1.0;" width="10" x="42" y="98.7999"/><rect fill="#FFFFFF" filter="url(#f1up16xmrv2ows)" height="29.6" style="stroke:#A80036;stroke-width:1.0;" width="10" x="473" y="120.3999"/><rect fill="#FFFFFF" filter="url(#f1up16xmrv2ows)" height="29.6" style="stroke:#A80036;stroke-width:1.0;" width="10" x="473" y="179.6"/><rect fill="#FFFFFF" filter="url(#f1up16xmrv2ows)" height="29.6" style="stroke:#A80036;stroke-width:1.0;" width="10" x="473" y="238.8"/><line style="stroke:#A80036;stroke-width:1.0;stroke-dasharray:5.0,5.0;" x1="47" x2="47" y1="88.7999" y2="286.4"/><line style="stroke:#A80036;stroke-width:1.0;stroke-dasharray:5.0,5.0;" x1="477.5" x2="477.5" y1="88.7999" y2="286.4"/><text fill="#000000" font-family="sans-serif" font-size="14" lengthAdjust="spacingAndGlyphs" textLength="78" x="5" y="85.0059">Receptionist</text><ellipse cx="47" cy="15" fill="#FEFECE" filter="url(#f1up16xmrv2ows)" rx="8" ry="8" style="stroke:#A80036;stroke-width:2.0;"/><path d="M47,23 L47,50 M34,31 L60,31 M47,50 L34,65 M47,50 L60,65 " fill="none" filter="url(#f1up16xmrv2ows)" style="stroke:#A80036;stroke-width:2.0;"/><text fill="#000000" font-family="sans-serif" font-size="14" lengthAdjust="spacingAndGlyphs" textLength="78" x="5" y="298.406">Receptionist</text><ellipse cx="47" cy="312.1999" fill="#FEFECE" filter="url(#f1up16xmrv2ows)" rx="8" ry="8" style="stroke:#A80036;stroke-width:2.0;"/><path d="M47,320.1999 L47,347.1999 M34,328.1999 L60,328.1999 M47,347.1999 L34,362.1999 M47,347.1999 L60,362.1999 " fill="none" filter="url(#f1up16xmrv2ows)" style="stroke:#A80036;stroke-width:2.0;"/><rect fill="#FEFECE" filter="url(#f1up16xmrv2ows)" height="30.7999" style="stroke:#A80036;stroke-width:1.5;" width="61" x="445.5" y="53"/><text fill="#000000" font-family="sans-serif" font-size="14" lengthAdjust="spacingAndGlyphs" textLength="47" x="452.5" y="73.0059">System</text><rect fill="#FEFECE" filter="url(#f1up16xmrv2ows)" height="30.7999" style="stroke:#A80036;stroke-width:1.5;" width="61" x="445.5" y="285.4"/><text fill="#000000" font-family="sans-serif" font-size="14" lengthAdjust="spacingAndGlyphs" textLength="47" x="452.5" y="305.406">System</text><rect fill="#FFFFFF" filter="url(#f1up16xmrv2ows)" height="169.6001" style="stroke:#A80036;stroke-width:1.0;" width="10" x="42" y="98.7999"/><rect fill="#FFFFFF" filter="url(#f1up16xmrv2ows)" height="29.6" style="stroke:#A80036;stroke-width:1.0;" width="10" x="473" y="120.3999"/><rect fill="#FFFFFF" filter="url(#f1up16xmrv2ows)" height="29.6" style="stroke:#A80036;stroke-width:1.0;" width="10" x="473" y="179.6"/><rect fill="#FFFFFF" filter="url(#f1up16xmrv2ows)" height="29.6" style="stroke:#A80036;stroke-width:1.0;" width="10" x="473" y="238.8"/><polygon fill="#A80036" points="461,116.3999,471,120.3999,461,124.3999,465,120.3999" style="stroke:#A80036;stroke-width:1.0;"/><line style="stroke:#A80036;stroke-width:1.0;" x1="52" x2="467" y1="120.3999" y2="120.3999"/><text fill="#000000" font-family="sans-serif" font-size="13" font-weight="bold" lengthAdjust="spacingAndGlyphs" textLength="7" x="59" y="114.8769">1</text><text fill="#000000" font-family="sans-serif" font-size="13" lengthAdjust="spacingAndGlyphs" textLength="354" x="70" y="114.8769">initiates the creation of a test type and its collecting methods</text><polygon fill="#A80036" points="63,146,53,150,63,154,59,150" style="stroke:#A80036;stroke-width:1.0;"/><line style="stroke:#A80036;stroke-width:1.0;" x1="57" x2="477" y1="150" y2="150"/><text fill="#000000" font-family="sans-serif" font-size="13" font-weight="bold" lengthAdjust="spacingAndGlyphs" textLength="7" x="69" y="144.477">2</text><text fill="#000000" font-family="sans-serif" font-size="13" lengthAdjust="spacingAndGlyphs" textLength="386" x="80" y="144.477">requests the data required ( testTypeDesignation, CMDesignation )</text><polygon fill="#A80036" points="461,175.6,471,179.6,461,183.6,465,179.6" style="stroke:#A80036;stroke-width:1.0;"/><line style="stroke:#A80036;stroke-width:1.0;" x1="52" x2="467" y1="179.6" y2="179.6"/><text fill="#000000" font-family="sans-serif" font-size="13" font-weight="bold" lengthAdjust="spacingAndGlyphs" textLength="7" x="59" y="174.077">3</text><text fill="#000000" font-family="sans-serif" font-size="13" lengthAdjust="spacingAndGlyphs" textLength="151" x="70" y="174.077">inserts the requested data</text><polygon fill="#A80036" points="63,205.2,53,209.2,63,213.2,59,209.2" style="stroke:#A80036;stroke-width:1.0;"/><line style="stroke:#A80036;stroke-width:1.0;" x1="57" x2="477" y1="209.2" y2="209.2"/><text fill="#000000" font-family="sans-serif" font-size="13" font-weight="bold" lengthAdjust="spacingAndGlyphs" textLength="7" x="69" y="203.677">4</text><text fill="#000000" font-family="sans-serif" font-size="13" lengthAdjust="spacingAndGlyphs" textLength="253" x="80" y="203.677">shows the data and requests a confirmation</text><polygon fill="#A80036" points="461,234.8,471,238.8,461,242.8,465,238.8" style="stroke:#A80036;stroke-width:1.0;"/><line style="stroke:#A80036;stroke-width:1.0;" x1="52" x2="467" y1="238.8" y2="238.8"/><text fill="#000000" font-family="sans-serif" font-size="13" font-weight="bold" lengthAdjust="spacingAndGlyphs" textLength="7" x="59" y="233.277">5</text><text fill="#000000" font-family="sans-serif" font-size="13" lengthAdjust="spacingAndGlyphs" textLength="101" x="70" y="233.277">confirms the data</text><polygon fill="#A80036" points="58,264.4,48,268.4,58,272.4,54,268.4" style="stroke:#A80036;stroke-width:1.0;"/><line style="stroke:#A80036;stroke-width:1.0;" x1="52" x2="477" y1="268.4" y2="268.4"/><text fill="#000000" font-family="sans-serif" font-size="13" font-weight="bold" lengthAdjust="spacingAndGlyphs" textLength="7" x="64" y="262.877">6</text><text fill="#000000" font-family="sans-serif" font-size="13" lengthAdjust="spacingAndGlyphs" textLength="153" x="75" y="262.877">informs operation success</text><!--MD5=[d63d394890c2e6a03097e9d17ac77367]
@startuml
autonumber

actor "Receptionist" as RCP
participant "System" as SYS

activate RCP


RCP -> SYS : initiates the creation of a test type and its collecting methods
activate SYS

SYS -> RCP : requests the data required ( testTypeDesignation, CMDesignation )
deactivate SYS

RCP -> SYS : inserts the requested data
activate SYS

SYS -> RCP : shows the data and requests a confirmation
deactivate SYS

RCP -> SYS : confirms the data
activate SYS
SYS -> RCP : informs operation success

deactivate SYS
deactivate RCP

@enduml

PlantUML version 1.2020.23(Sun Dec 13 19:14:58 WET 2020)
(GPL source distribution)
Java Runtime: OpenJDK Runtime Environment
JVM: OpenJDK 64-Bit Server VM
Default Encoding: ANSI_X3.4-1968
Language: en
Country: US
--></g></svg>