<?xml version="1.0" encoding="UTF-8" standalone="no"?><svg xmlns="http://www.w3.org/2000/svg" xmlns:xlink="http://www.w3.org/1999/xlink" contentScriptType="application/ecmascript" contentStyleType="text/css" height="836px" preserveAspectRatio="none" style="width:2375px;height:836px;" version="1.1" viewBox="0 0 2375 836" width="2375px" zoomAndPan="magnify"><defs><filter height="300%" id="fonfy6m8mvqeo" width="300%" x="-1" y="-1"><feGaussianBlur result="blurOut" stdDeviation="2.0"/><feColorMatrix in="blurOut" result="blurOut2" type="matrix" values="0 0 0 0 0 0 0 0 0 0 0 0 0 0 0 0 0 0 .4 0"/><feOffset dx="4.0" dy="4.0" in="blurOut2" result="blurOut3"/><feBlend in="SourceGraphic" in2="blurOut3" mode="normal"/></filter></defs><g><rect fill="#FEFECE" filter="url(#fonfy6m8mvqeo)" height="50.4001" style="stroke:#A80036;stroke-width:1.5;" width="80" x="1048" y="7"/><text fill="#000000" font-family="sans-serif" font-size="12" lengthAdjust="spacingAndGlyphs" textLength="53" x="1061.5" y="20.1481">Company</text><line style="stroke:#A80036;stroke-width:1.5;" x1="1049" x2="1127" y1="25.4001" y2="25.4001"/><rect fill="none" height="6" style="stroke:#C82930;stroke-width:1.0;" width="6" x="1056" y="33.4001"/><text fill="#000000" font-family="sans-serif" font-size="10" lengthAdjust="spacingAndGlyphs" textLength="54" x="1068" y="38.6901">designation</text><rect fill="none" height="6" style="stroke:#C82930;stroke-width:1.0;" width="6" x="1056" y="45.4001"/><text fill="#000000" font-family="sans-serif" font-size="10" lengthAdjust="spacingAndGlyphs" textLength="37" x="1068" y="50.6901">address</text><rect fill="#FEFECE" filter="url(#fonfy6m8mvqeo)" height="34.4001" style="stroke:#A80036;stroke-width:1.5;" width="66" x="2190" y="382"/><text fill="#000000" font-family="sans-serif" font-size="12" lengthAdjust="spacingAndGlyphs" textLength="52" x="2197" y="395.1481">LabOrder</text><line style="stroke:#A80036;stroke-width:1.5;" x1="2191" x2="2255" y1="400.4001" y2="400.4001"/><rect fill="#FEFECE" filter="url(#fonfy6m8mvqeo)" height="62.4001" style="stroke:#A80036;stroke-width:1.5;" width="74" x="1779" y="134"/><text fill="#000000" font-family="sans-serif" font-size="12" lengthAdjust="spacingAndGlyphs" textLength="23" x="1804.5" y="147.1481">Test</text><line style="stroke:#A80036;stroke-width:1.5;" x1="1780" x2="1852" y1="152.4001" y2="152.4001"/><rect fill="none" height="6" style="stroke:#C82930;stroke-width:1.0;" width="6" x="1787" y="160.4001"/><text fill="#000000" font-family="sans-serif" font-size="10" lengthAdjust="spacingAndGlyphs" textLength="27" x="1799" y="165.6901">testID</text><rect fill="none" height="6" style="stroke:#C82930;stroke-width:1.0;" width="6" x="1787" y="172.4001"/><text fill="#000000" font-family="sans-serif" font-size="10" lengthAdjust="spacingAndGlyphs" textLength="40" x="1799" y="177.6901">nhscode</text><rect fill="none" height="6" style="stroke:#C82930;stroke-width:1.0;" width="6" x="1787" y="184.4001"/><text fill="#000000" font-family="sans-serif" font-size="10" lengthAdjust="spacingAndGlyphs" textLength="48" x="1799" y="189.6901">createdAT</text><rect fill="#FEFECE" filter="url(#fonfy6m8mvqeo)" height="34.4001" style="stroke:#A80036;stroke-width:1.5;" width="45" x="289.5" y="226"/><text fill="#000000" font-family="sans-serif" font-size="12" lengthAdjust="spacingAndGlyphs" textLength="31" x="296.5" y="239.1481">Clinic</text><line style="stroke:#A80036;stroke-width:1.5;" x1="290.5" x2="333.5" y1="244.4001" y2="244.4001"/><rect fill="#FEFECE" filter="url(#fonfy6m8mvqeo)" height="38.4001" style="stroke:#A80036;stroke-width:1.5;" width="80" x="1314" y="452"/><text fill="#000000" font-family="sans-serif" font-size="12" lengthAdjust="spacingAndGlyphs" textLength="57" x="1325.5" y="465.1481">Parameter</text><line style="stroke:#A80036;stroke-width:1.5;" x1="1315" x2="1393" y1="470.4001" y2="470.4001"/><rect fill="none" height="6" style="stroke:#C82930;stroke-width:1.0;" width="6" x="1322" y="478.4001"/><text fill="#000000" font-family="sans-serif" font-size="10" lengthAdjust="spacingAndGlyphs" textLength="54" x="1334" y="483.6901">designation</text><rect fill="#FEFECE" filter="url(#fonfy6m8mvqeo)" height="62.4001" style="stroke:#A80036;stroke-width:1.5;" width="121" x="1571.5" y="290"/><text fill="#000000" font-family="sans-serif" font-size="12" lengthAdjust="spacingAndGlyphs" textLength="107" x="1578.5" y="303.1481">ParameterCategory</text><line style="stroke:#A80036;stroke-width:1.5;" x1="1572.5" x2="1691.5" y1="308.4001" y2="308.4001"/><rect fill="none" height="6" style="stroke:#C82930;stroke-width:1.0;" width="6" x="1579.5" y="316.4001"/><text fill="#000000" font-family="sans-serif" font-size="10" lengthAdjust="spacingAndGlyphs" textLength="23" x="1591.5" y="321.6901">code</text><rect fill="none" height="6" style="stroke:#C82930;stroke-width:1.0;" width="6" x="1579.5" y="328.4001"/><text fill="#000000" font-family="sans-serif" font-size="10" lengthAdjust="spacingAndGlyphs" textLength="50" x="1591.5" y="333.6901">description</text><rect fill="none" height="6" style="stroke:#C82930;stroke-width:1.0;" width="6" x="1579.5" y="340.4001"/><text fill="#000000" font-family="sans-serif" font-size="10" lengthAdjust="spacingAndGlyphs" textLength="25" x="1591.5" y="345.6901">nhsld</text><rect fill="#FEFECE" filter="url(#fonfy6m8mvqeo)" height="50.4001" style="stroke:#A80036;stroke-width:1.5;" width="102" x="1626" y="446"/><text fill="#000000" font-family="sans-serif" font-size="12" lengthAdjust="spacingAndGlyphs" textLength="72" x="1641" y="459.1481">Administrator</text><line style="stroke:#A80036;stroke-width:1.5;" x1="1627" x2="1727" y1="464.4001" y2="464.4001"/><rect fill="none" height="6" style="stroke:#C82930;stroke-width:1.0;" width="6" x="1634" y="472.4001"/><text fill="#000000" font-family="sans-serif" font-size="10" lengthAdjust="spacingAndGlyphs" textLength="76" x="1646" y="477.6901">authenticationID</text><rect fill="none" height="6" style="stroke:#C82930;stroke-width:1.0;" width="6" x="1634" y="484.4001"/><text fill="#000000" font-family="sans-serif" font-size="10" lengthAdjust="spacingAndGlyphs" textLength="44" x="1646" y="489.6901">password</text><rect fill="#FEFECE" filter="url(#fonfy6m8mvqeo)" height="38.4001" style="stroke:#A80036;stroke-width:1.5;" width="69" x="1939.5" y="302"/><text fill="#000000" font-family="sans-serif" font-size="12" lengthAdjust="spacingAndGlyphs" textLength="55" x="1946.5" y="315.1481">Diagnosis</text><line style="stroke:#A80036;stroke-width:1.5;" x1="1940.5" x2="2007.5" y1="320.4001" y2="320.4001"/><rect fill="none" height="6" style="stroke:#C82930;stroke-width:1.0;" width="6" x="1947.5" y="328.4001"/><text fill="#000000" font-family="sans-serif" font-size="10" lengthAdjust="spacingAndGlyphs" textLength="25" x="1959.5" y="333.6901">result</text><rect fill="#FEFECE" filter="url(#fonfy6m8mvqeo)" height="50.4001" style="stroke:#A80036;stroke-width:1.5;" width="66" x="640" y="446"/><text fill="#000000" font-family="sans-serif" font-size="12" lengthAdjust="spacingAndGlyphs" textLength="42" x="652" y="459.1481">Sample</text><line style="stroke:#A80036;stroke-width:1.5;" x1="641" x2="705" y1="464.4001" y2="464.4001"/><rect fill="none" height="6" style="stroke:#C82930;stroke-width:1.0;" width="6" x="648" y="472.4001"/><text fill="#000000" font-family="sans-serif" font-size="10" lengthAdjust="spacingAndGlyphs" textLength="40" x="660" y="477.6901">barCode</text><rect fill="none" height="6" style="stroke:#C82930;stroke-width:1.0;" width="6" x="648" y="484.4001"/><text fill="#000000" font-family="sans-serif" font-size="10" lengthAdjust="spacingAndGlyphs" textLength="20" x="660" y="489.6901">type</text><rect fill="#FEFECE" filter="url(#fonfy6m8mvqeo)" height="50.4001" style="stroke:#A80036;stroke-width:1.5;" width="51" x="1612.5" y="573"/><text fill="#000000" font-family="sans-serif" font-size="12" lengthAdjust="spacingAndGlyphs" textLength="37" x="1619.5" y="586.1481">Report</text><line style="stroke:#A80036;stroke-width:1.5;" x1="1613.5" x2="1662.5" y1="591.4001" y2="591.4001"/><rect fill="none" height="6" style="stroke:#C82930;stroke-width:1.0;" width="6" x="1620.5" y="599.4001"/><text fill="#000000" font-family="sans-serif" font-size="10" lengthAdjust="spacingAndGlyphs" textLength="20" x="1632.5" y="604.6901">type</text><rect fill="none" height="6" style="stroke:#C82930;stroke-width:1.0;" width="6" x="1620.5" y="611.4001"/><text fill="#000000" font-family="sans-serif" font-size="10" lengthAdjust="spacingAndGlyphs" textLength="25" x="1632.5" y="616.6901">result</text><rect fill="#FEFECE" filter="url(#fonfy6m8mvqeo)" height="50.4001" style="stroke:#A80036;stroke-width:1.5;" width="138" x="604" y="573"/><text fill="#000000" font-family="sans-serif" font-size="12" lengthAdjust="spacingAndGlyphs" textLength="124" x="611" y="586.1481">MedicalLabTechnician</text><line style="stroke:#A80036;stroke-width:1.5;" x1="605" x2="741" y1="591.4001" y2="591.4001"/><rect fill="none" height="6" style="stroke:#C82930;stroke-width:1.0;" width="6" x="612" y="599.4001"/><text fill="#000000" font-family="sans-serif" font-size="10" lengthAdjust="spacingAndGlyphs" textLength="76" x="624" y="604.6901">authenticationID</text><rect fill="none" height="6" style="stroke:#C82930;stroke-width:1.0;" width="6" x="612" y="611.4001"/><text fill="#000000" font-family="sans-serif" font-size="10" lengthAdjust="spacingAndGlyphs" textLength="44" x="624" y="616.6901">password</text><rect fill="#FEFECE" filter="url(#fonfy6m8mvqeo)" height="50.4001" style="stroke:#A80036;stroke-width:1.5;" width="103" x="1963.5" y="446"/><text fill="#000000" font-family="sans-serif" font-size="12" lengthAdjust="spacingAndGlyphs" textLength="89" x="1970.5" y="459.1481">SpecialistDoctor</text><line style="stroke:#A80036;stroke-width:1.5;" x1="1964.5" x2="2065.5" y1="464.4001" y2="464.4001"/><rect fill="none" height="6" style="stroke:#C82930;stroke-width:1.0;" width="6" x="1971.5" y="472.4001"/><text fill="#000000" font-family="sans-serif" font-size="10" lengthAdjust="spacingAndGlyphs" textLength="76" x="1983.5" y="477.6901">authenticationID</text><rect fill="none" height="6" style="stroke:#C82930;stroke-width:1.0;" width="6" x="1971.5" y="484.4001"/><text fill="#000000" font-family="sans-serif" font-size="10" lengthAdjust="spacingAndGlyphs" textLength="44" x="1983.5" y="489.6901">password</text><rect fill="#FEFECE" filter="url(#fonfy6m8mvqeo)" height="50.4001" style="stroke:#A80036;stroke-width:1.5;" width="138" x="1453" y="446"/><text fill="#000000" font-family="sans-serif" font-size="12" lengthAdjust="spacingAndGlyphs" textLength="124" x="1460" y="459.1481">LaboratoryCoordinator</text><line style="stroke:#A80036;stroke-width:1.5;" x1="1454" x2="1590" y1="464.4001" y2="464.4001"/><rect fill="none" height="6" style="stroke:#C82930;stroke-width:1.0;" width="6" x="1461" y="472.4001"/><text fill="#000000" font-family="sans-serif" font-size="10" lengthAdjust="spacingAndGlyphs" textLength="76" x="1473" y="477.6901">authenticationID</text><rect fill="none" height="6" style="stroke:#C82930;stroke-width:1.0;" width="6" x="1461" y="484.4001"/><text fill="#000000" font-family="sans-serif" font-size="10" lengthAdjust="spacingAndGlyphs" textLength="44" x="1473" y="489.6901">password</text><rect fill="#FEFECE" filter="url(#fonfy6m8mvqeo)" height="122.4" style="stroke:#A80036;stroke-width:1.5;" width="183" x="2045.5" y="700"/><text fill="#000000" font-family="sans-serif" font-size="12" lengthAdjust="spacingAndGlyphs" textLength="32" x="2121" y="713.1481">Client</text><line style="stroke:#A80036;stroke-width:1.5;" x1="2046.5" x2="2227.5" y1="718.4001" y2="718.4001"/><rect fill="none" height="6" style="stroke:#C82930;stroke-width:1.0;" width="6" x="2053.5" y="726.4001"/><text fill="#000000" font-family="sans-serif" font-size="10" lengthAdjust="spacingAndGlyphs" textLength="26" x="2065.5" y="731.6901">name</text><rect fill="none" height="6" style="stroke:#C82930;stroke-width:1.0;" width="6" x="2053.5" y="738.4001"/><text fill="#000000" font-family="sans-serif" font-size="10" lengthAdjust="spacingAndGlyphs" textLength="87" x="2065.5" y="743.6901">citizenCardNumber</text><rect fill="none" height="6" style="stroke:#C82930;stroke-width:1.0;" width="6" x="2053.5" y="750.4001"/><text fill="#000000" font-family="sans-serif" font-size="10" lengthAdjust="spacingAndGlyphs" textLength="157" x="2065.5" y="755.6901">nationalHealthcareServiceNumber</text><rect fill="none" height="6" style="stroke:#C82930;stroke-width:1.0;" width="6" x="2053.5" y="762.4001"/><text fill="#000000" font-family="sans-serif" font-size="10" lengthAdjust="spacingAndGlyphs" textLength="41" x="2065.5" y="767.6901">birthdate</text><rect fill="none" height="6" style="stroke:#C82930;stroke-width:1.0;" width="6" x="2053.5" y="774.4001"/><text fill="#000000" font-family="sans-serif" font-size="10" lengthAdjust="spacingAndGlyphs" textLength="16" x="2065.5" y="779.69">sex</text><rect fill="none" height="6" style="stroke:#C82930;stroke-width:1.0;" width="6" x="2053.5" y="786.4"/><text fill="#000000" font-family="sans-serif" font-size="10" lengthAdjust="spacingAndGlyphs" textLength="109" x="2065.5" y="791.69">taxIdentificationNumber</text><rect fill="none" height="6" style="stroke:#C82930;stroke-width:1.0;" width="6" x="2053.5" y="798.4"/><text fill="#000000" font-family="sans-serif" font-size="10" lengthAdjust="spacingAndGlyphs" textLength="66" x="2065.5" y="803.69">phoneNumber</text><rect fill="none" height="6" style="stroke:#C82930;stroke-width:1.0;" width="6" x="2053.5" y="810.4"/><text fill="#000000" font-family="sans-serif" font-size="10" lengthAdjust="spacingAndGlyphs" textLength="24" x="2065.5" y="815.69">email</text><rect fill="#FEFECE" filter="url(#fonfy6m8mvqeo)" height="50.4001" style="stroke:#A80036;stroke-width:1.5;" width="102" x="2078" y="7"/><text fill="#000000" font-family="sans-serif" font-size="12" lengthAdjust="spacingAndGlyphs" textLength="68" x="2095" y="20.1481">Receptionist</text><line style="stroke:#A80036;stroke-width:1.5;" x1="2079" x2="2179" y1="25.4001" y2="25.4001"/><rect fill="none" height="6" style="stroke:#C82930;stroke-width:1.0;" width="6" x="2086" y="33.4001"/><text fill="#000000" font-family="sans-serif" font-size="10" lengthAdjust="spacingAndGlyphs" textLength="76" x="2098" y="38.6901">authenticationID</text><rect fill="none" height="6" style="stroke:#C82930;stroke-width:1.0;" width="6" x="2086" y="45.4001"/><text fill="#000000" font-family="sans-serif" font-size="10" lengthAdjust="spacingAndGlyphs" textLength="44" x="2098" y="50.6901">password</text><rect fill="#FEFECE" filter="url(#fonfy6m8mvqeo)" height="50.4001" style="stroke:#A80036;stroke-width:1.5;" width="180" x="575" y="296"/><text fill="#000000" font-family="sans-serif" font-size="12" lengthAdjust="spacingAndGlyphs" textLength="166" x="582" y="309.1481">ClinicalChemistryTechnologist</text><line style="stroke:#A80036;stroke-width:1.5;" x1="576" x2="754" y1="314.4001" y2="314.4001"/><rect fill="none" height="6" style="stroke:#C82930;stroke-width:1.0;" width="6" x="583" y="322.4001"/><text fill="#000000" font-family="sans-serif" font-size="10" lengthAdjust="spacingAndGlyphs" textLength="76" x="595" y="327.6901">authenticationID</text><rect fill="none" height="6" style="stroke:#C82930;stroke-width:1.0;" width="6" x="583" y="334.4001"/><text fill="#000000" font-family="sans-serif" font-size="10" lengthAdjust="spacingAndGlyphs" textLength="44" x="595" y="339.6901">password</text><rect fill="#FEFECE" filter="url(#fonfy6m8mvqeo)" height="34.4001" style="stroke:#A80036;stroke-width:1.5;" width="125" x="414.5" y="304"/><text fill="#000000" font-family="sans-serif" font-size="12" lengthAdjust="spacingAndGlyphs" textLength="111" x="421.5" y="317.1481">ChemicalLaboratory</text><line style="stroke:#A80036;stroke-width:1.5;" x1="415.5" x2="538.5" y1="322.4001" y2="322.4001"/><rect fill="#FEFECE" filter="url(#fonfy6m8mvqeo)" height="50.4001" style="stroke:#A80036;stroke-width:1.5;" width="80" x="1456" y="296"/><text fill="#000000" font-family="sans-serif" font-size="12" lengthAdjust="spacingAndGlyphs" textLength="50" x="1471" y="309.1481">TestType</text><line style="stroke:#A80036;stroke-width:1.5;" x1="1457" x2="1535" y1="314.4001" y2="314.4001"/><rect fill="none" height="6" style="stroke:#C82930;stroke-width:1.0;" width="6" x="1464" y="322.4001"/><text fill="#000000" font-family="sans-serif" font-size="10" lengthAdjust="spacingAndGlyphs" textLength="50" x="1476" y="327.6901">testTypeID</text><rect fill="none" height="6" style="stroke:#C82930;stroke-width:1.0;" width="6" x="1464" y="334.4001"/><text fill="#000000" font-family="sans-serif" font-size="10" lengthAdjust="spacingAndGlyphs" textLength="54" x="1476" y="339.6901">designation</text><rect fill="#FEFECE" filter="url(#fonfy6m8mvqeo)" height="34.4001" style="stroke:#A80036;stroke-width:1.5;" width="77" x="1049.5" y="148"/><text fill="#000000" font-family="sans-serif" font-size="12" lengthAdjust="spacingAndGlyphs" textLength="63" x="1056.5" y="161.1481">NHSReport</text><line style="stroke:#A80036;stroke-width:1.5;" x1="1050.5" x2="1125.5" y1="166.4001" y2="166.4001"/><rect fill="#FEFECE" filter="url(#fonfy6m8mvqeo)" height="34.4001" style="stroke:#A80036;stroke-width:1.5;" width="82" x="790" y="304"/><text fill="#000000" font-family="sans-serif" font-size="12" lengthAdjust="spacingAndGlyphs" textLength="68" x="797" y="317.1481">BarCodeAPI</text><line style="stroke:#A80036;stroke-width:1.5;" x1="791" x2="871" y1="322.4001" y2="322.4001"/><rect fill="#FEFECE" filter="url(#fonfy6m8mvqeo)" height="34.4001" style="stroke:#A80036;stroke-width:1.5;" width="59" x="1080.5" y="304"/><text fill="#000000" font-family="sans-serif" font-size="12" lengthAdjust="spacingAndGlyphs" textLength="45" x="1087.5" y="317.1481">NHSAPI</text><line style="stroke:#A80036;stroke-width:1.5;" x1="1081.5" x2="1138.5" y1="322.4001" y2="322.4001"/><!--MD5=[742a261f27a3dcd734c626287d811acd]
link Company to TestType--><path codeLine="106" d="M1128.16,37.39 C1169.73,43.4 1235.27,57.08 1284,87 C1374.65,142.66 1449.93,248.24 1480.87,295.76 " fill="none" id="Company-TestType" style="stroke:#A80036;stroke-width:1.0;"/><text fill="#000000" font-family="sans-serif" font-size="13" lengthAdjust="spacingAndGlyphs" textLength="53" x="1406" y="169.577">conducts</text><text fill="#000000" font-family="sans-serif" font-size="13" lengthAdjust="spacingAndGlyphs" textLength="7" x="1136.2823" y="33.6379">1</text><text fill="#000000" font-family="sans-serif" font-size="13" lengthAdjust="spacingAndGlyphs" textLength="5" x="1471.3523" y="284.473">*</text><!--MD5=[7e4bc624457760b649895ff2ead938fa]
link Company to Test--><path codeLine="107" d="M1128.02,34.25 C1213.96,37.58 1422.13,49.21 1592,87 C1659.44,102 1734.83,130.48 1778.7,148.28 " fill="none" id="Company-Test" style="stroke:#A80036;stroke-width:1.0;"/><text fill="#000000" font-family="sans-serif" font-size="13" lengthAdjust="spacingAndGlyphs" textLength="51" x="1655" y="100.077">performs</text><text fill="#000000" font-family="sans-serif" font-size="13" lengthAdjust="spacingAndGlyphs" textLength="7" x="1136.044" y="30.3775">1</text><text fill="#000000" font-family="sans-serif" font-size="13" lengthAdjust="spacingAndGlyphs" textLength="5" x="1766.1131" y="140.7591">*</text><!--MD5=[196bcb1a5e107afd614f248cc96d54e7]
link Company to Clinic--><path codeLine="108" d="M1047.75,34.89 C974.31,39.11 814.14,51.85 684,87 C546.21,124.22 391.8,200.55 334.75,230.02 " fill="none" id="Company-Clinic" style="stroke:#A80036;stroke-width:1.0;"/><text fill="#000000" font-family="sans-serif" font-size="13" lengthAdjust="spacingAndGlyphs" textLength="21" x="685" y="100.077">has</text><text fill="#000000" font-family="sans-serif" font-size="13" lengthAdjust="spacingAndGlyphs" textLength="7" x="1032.957" y="31.1637">1</text><text fill="#000000" font-family="sans-serif" font-size="13" lengthAdjust="spacingAndGlyphs" textLength="5" x="342.4828" y="220.8556">*</text><!--MD5=[d6a5ae732362cd0f86c2003645f951b1]
link Company to ChemicalLaboratory--><path codeLine="109" d="M1047.98,43.31 C1012.64,52.95 960.03,68.59 916,87 C753.21,155.08 570.36,263.07 503.39,303.77 " fill="none" id="Company-ChemicalLaboratory" style="stroke:#A80036;stroke-width:1.0;"/><text fill="#000000" font-family="sans-serif" font-size="13" lengthAdjust="spacingAndGlyphs" textLength="21" x="807" y="169.577">has</text><text fill="#000000" font-family="sans-serif" font-size="13" lengthAdjust="spacingAndGlyphs" textLength="7" x="1032.956" y="58.8735">1</text><text fill="#000000" font-family="sans-serif" font-size="13" lengthAdjust="spacingAndGlyphs" textLength="7" x="504.2584" y="292.3804">1</text><!--MD5=[12d76240d3c3c66074d4ec2ea8bf469c]
link Company to Parameter--><path codeLine="110" d="M1128.01,46.17 C1149.34,54.91 1174.67,68.25 1192,87 C1219.01,116.23 1319.68,379.25 1347.08,451.63 " fill="none" id="Company-Parameter" style="stroke:#A80036;stroke-width:1.0;"/><text fill="#000000" font-family="sans-serif" font-size="13" lengthAdjust="spacingAndGlyphs" textLength="119" x="1273" y="247.577">capable of analysing</text><text fill="#000000" font-family="sans-serif" font-size="13" lengthAdjust="spacingAndGlyphs" textLength="7" x="1136.0322" y="62.2608">1</text><text fill="#000000" font-family="sans-serif" font-size="13" lengthAdjust="spacingAndGlyphs" textLength="5" x="1339.1951" y="440.5087">*</text><!--MD5=[93b4f25fb503a8e0e9a46b1d30ff3f44]
link Company to ParameterCategory--><path codeLine="111" d="M1128.25,35.44 C1201.5,41.56 1359.07,62.66 1468,134 C1531.75,175.75 1585.74,248.68 1613,289.72 " fill="none" id="Company-ParameterCategory" style="stroke:#A80036;stroke-width:1.0;"/><text fill="#000000" font-family="sans-serif" font-size="13" lengthAdjust="spacingAndGlyphs" textLength="39" x="1541" y="169.577">adopts</text><text fill="#000000" font-family="sans-serif" font-size="13" lengthAdjust="spacingAndGlyphs" textLength="7" x="1136.043" y="49.4835">1</text><text fill="#000000" font-family="sans-serif" font-size="13" lengthAdjust="spacingAndGlyphs" textLength="5" x="1603.2969" y="278.3358">*</text><!--MD5=[7a9e3e328fb1db48284e23a673c1e60d]
link ParameterCategory to Parameter--><path codeLine="114" d="M1575.41,352.13 C1519.21,382.05 1434.88,426.94 1388.19,451.8 " fill="none" id="ParameterCategory-Parameter" style="stroke:#A80036;stroke-width:1.0;"/><text fill="#000000" font-family="sans-serif" font-size="13" lengthAdjust="spacingAndGlyphs" textLength="60" x="1519" y="403.577">belongs to</text><text fill="#000000" font-family="sans-serif" font-size="13" lengthAdjust="spacingAndGlyphs" textLength="5" x="1558.2227" y="372.1951">*</text><text fill="#000000" font-family="sans-serif" font-size="13" lengthAdjust="spacingAndGlyphs" textLength="7" x="1390.9724" y="440.3982">1</text><!--MD5=[8fed49cf12a674e36a1de475622ee091]
link ParameterCategory to Administrator--><path codeLine="115" d="M1620.36,352.33 C1614.93,371.31 1611.35,395.9 1620,416 C1624.9,427.4 1633.52,437.51 1642.6,445.82 " fill="none" id="ParameterCategory-Administrator" style="stroke:#A80036;stroke-width:1.0;"/><text fill="#000000" font-family="sans-serif" font-size="13" lengthAdjust="spacingAndGlyphs" textLength="75" x="1621" y="403.577">is created by</text><text fill="#000000" font-family="sans-serif" font-size="13" lengthAdjust="spacingAndGlyphs" textLength="7" x="1610.2374" y="372.4363">1</text><text fill="#000000" font-family="sans-serif" font-size="13" lengthAdjust="spacingAndGlyphs" textLength="7" x="1625.8881" y="434.5484">1</text><!--MD5=[3994f36c72829dbcddd1cf7021dddf61]
link Test to Client--><path codeLine="117" d="M1853.14,167.02 C1937.63,171.5 2137,195.3 2137,320 C2137,320 2137,320 2137,599 C2137,632.4 2137,669.7 2137,699.98 " fill="none" id="Test-Client" style="stroke:#A80036;stroke-width:1.0;"/><text fill="#000000" font-family="sans-serif" font-size="13" lengthAdjust="spacingAndGlyphs" textLength="39" x="2138" y="475.577">makes</text><text fill="#000000" font-family="sans-serif" font-size="13" lengthAdjust="spacingAndGlyphs" textLength="5" x="1860.9441" y="163.0378">*</text><text fill="#000000" font-family="sans-serif" font-size="13" lengthAdjust="spacingAndGlyphs" textLength="7" x="2129.5516" y="688.2907">1</text><!--MD5=[8742b9b07f4ff1e96b776c10733812b1]
link Test to ParameterCategory--><path codeLine="118" d="M1778.57,182.97 C1757.26,193.63 1730.76,208.63 1710,226 C1687.88,244.5 1667.25,269.88 1652.77,289.6 " fill="none" id="Test-ParameterCategory" style="stroke:#A80036;stroke-width:1.0;"/><text fill="#000000" font-family="sans-serif" font-size="13" lengthAdjust="spacingAndGlyphs" textLength="25" x="1711" y="247.577">is of</text><text fill="#000000" font-family="sans-serif" font-size="13" lengthAdjust="spacingAndGlyphs" textLength="5" x="1765.9583" y="182.0619">*</text><text fill="#000000" font-family="sans-serif" font-size="13" lengthAdjust="spacingAndGlyphs" textLength="7" x="1649.3319" y="278.6745">1</text><!--MD5=[e981d4f96c4342412d1e68160b30cf70]
link Test to TestType--><path codeLine="119" d="M1778.76,175.89 C1742.6,186.15 1686.63,203.8 1641,226 C1599.99,245.95 1556.56,275.35 1528.05,295.94 " fill="none" id="Test-TestType" style="stroke:#A80036;stroke-width:1.0;"/><text fill="#000000" font-family="sans-serif" font-size="13" lengthAdjust="spacingAndGlyphs" textLength="25" x="1642" y="247.577">is of</text><text fill="#000000" font-family="sans-serif" font-size="13" lengthAdjust="spacingAndGlyphs" textLength="5" x="1765.9362" y="191.6072">*</text><text fill="#000000" font-family="sans-serif" font-size="13" lengthAdjust="spacingAndGlyphs" textLength="7" x="1528.7228" y="284.2934">1</text><!--MD5=[c589a96ea5b3e7b46913d69cfe3024d4]
link Test to Diagnosis--><path codeLine="120" d="M1853.29,191.17 C1867.27,201.31 1882.92,213.55 1896,226 C1921.34,250.13 1946.42,282.2 1961.05,301.96 " fill="none" id="Test-Diagnosis" style="stroke:#A80036;stroke-width:1.0;"/><text fill="#000000" font-family="sans-serif" font-size="13" lengthAdjust="spacingAndGlyphs" textLength="7" x="1861.0656" y="209.6844">1</text><text fill="#000000" font-family="sans-serif" font-size="13" lengthAdjust="spacingAndGlyphs" textLength="7" x="1948.8066" y="290.6092">1</text><!--MD5=[cb5e86f6614a99551e1d9ce6f0ae5849]
link Sample to MedicalLabTechnician--><path codeLine="122" d="M673,496.1 C673,518.24 673,550.86 673,572.97 " fill="none" id="Sample-MedicalLabTechnician" style="stroke:#A80036;stroke-width:1.0;"/><text fill="#000000" font-family="sans-serif" font-size="13" lengthAdjust="spacingAndGlyphs" textLength="140" x="674" y="539.077">is collected/analyzed by</text><text fill="#000000" font-family="sans-serif" font-size="13" lengthAdjust="spacingAndGlyphs" textLength="5" x="667.3594" y="516.5564">*</text><text fill="#000000" font-family="sans-serif" font-size="13" lengthAdjust="spacingAndGlyphs" textLength="7" x="665.0594" y="561.3314">1</text><!--MD5=[1ae83efc6d1967ce5bc17dfe294d00c2]
link Sample to Test--><path codeLine="123" d="M706.14,470.27 C816.02,470.68 1166.89,467.81 1265,416 C1329.21,382.09 1308.7,330.46 1369,290 C1448.61,236.58 1482.67,251.81 1575,226 C1646.63,205.97 1731.15,185.69 1778.67,174.59 " fill="none" id="Sample-Test" style="stroke:#A80036;stroke-width:1.0;"/><text fill="#000000" font-family="sans-serif" font-size="13" lengthAdjust="spacingAndGlyphs" textLength="67" x="1370" y="325.577">is based on</text><text fill="#000000" font-family="sans-serif" font-size="13" lengthAdjust="spacingAndGlyphs" textLength="5" x="713.9363" y="483.8498">*</text><text fill="#000000" font-family="sans-serif" font-size="13" lengthAdjust="spacingAndGlyphs" textLength="7" x="1763.8868" y="172.0845">1</text><!--MD5=[fd5f5b962c28af1c88b5bc5c4cfdb2d8]
link Diagnosis to SpecialistDoctor--><path codeLine="125" d="M1983.7,340.16 C1989.53,351.82 1996.65,367.44 2001,382 C2007.29,403.05 2010.91,427.82 2012.88,445.71 " fill="none" id="Diagnosis-SpecialistDoctor" style="stroke:#A80036;stroke-width:1.0;"/><text fill="#000000" font-family="sans-serif" font-size="13" lengthAdjust="spacingAndGlyphs" textLength="39" x="2009" y="403.577">makes</text><text fill="#000000" font-family="sans-serif" font-size="13" lengthAdjust="spacingAndGlyphs" textLength="5" x="1980.905" y="360.4322">*</text><text fill="#000000" font-family="sans-serif" font-size="13" lengthAdjust="spacingAndGlyphs" textLength="7" x="2004.4399" y="434.4102">1</text><!--MD5=[35c5d5b78cc27fdb07caaeeaa436e174]
link SpecialistDoctor to Report--><path codeLine="126" d="M1981.1,496.14 C1957.87,511.64 1925.8,531.03 1895,543 C1813.83,574.55 1710.72,589.08 1663.59,594.43 " fill="none" id="SpecialistDoctor-Report" style="stroke:#A80036;stroke-width:1.0;"/><text fill="#000000" font-family="sans-serif" font-size="13" lengthAdjust="spacingAndGlyphs" textLength="60" x="1930" y="539.077">elaborates</text><text fill="#000000" font-family="sans-serif" font-size="13" lengthAdjust="spacingAndGlyphs" textLength="7" x="1964.5163" y="516.6066">1</text><text fill="#000000" font-family="sans-serif" font-size="13" lengthAdjust="spacingAndGlyphs" textLength="7" x="1671.2246" y="584.2394">1</text><!--MD5=[5e725acbb7a10da2a51afc9131ad2e50]
link Diagnosis to Report--><path codeLine="127" d="M1976.26,340.32 C1977.77,360.91 1976.99,394.31 1960,416 C1938.37,443.62 1915.23,425.18 1887,446 C1842.03,479.17 1853.27,511.67 1807,543 C1761.98,573.48 1698.71,587.6 1663.75,593.43 " fill="none" id="Diagnosis-Report" style="stroke:#A80036;stroke-width:1.0;"/><text fill="#000000" font-family="sans-serif" font-size="13" lengthAdjust="spacingAndGlyphs" textLength="57" x="1888" y="475.577">generates</text><text fill="#000000" font-family="sans-serif" font-size="13" lengthAdjust="spacingAndGlyphs" textLength="7" x="1968.8803" y="360.6412">1</text><text fill="#000000" font-family="sans-serif" font-size="13" lengthAdjust="spacingAndGlyphs" textLength="7" x="1671.6109" y="587.2901">1</text><!--MD5=[5ae6b4c3a62cf5bfaeb8394ae40a1d00]
link Diagnosis to Sample--><path codeLine="128" d="M1945.39,340.13 C1928.03,351.52 1905.69,366.88 1887,382 C1869.89,395.84 1871.26,407.4 1851,416 C1823.91,427.5 894.63,461.92 706.15,468.8 " fill="none" id="Diagnosis-Sample" style="stroke:#A80036;stroke-width:1.0;"/><text fill="#000000" font-family="sans-serif" font-size="13" lengthAdjust="spacingAndGlyphs" textLength="67" x="1888" y="403.577">is based on</text><text fill="#000000" font-family="sans-serif" font-size="13" lengthAdjust="spacingAndGlyphs" textLength="5" x="1930.8626" y="360.3931">*</text><text fill="#000000" font-family="sans-serif" font-size="13" lengthAdjust="spacingAndGlyphs" textLength="7" x="714.1672" y="463.777">1</text><!--MD5=[63d25d625ab355317a074a623d33bba8]
link Report to Test--><path codeLine="129" d="M1663.59,593.28 C1691.95,587.69 1736.62,574.22 1759,543 C1800.87,484.59 1736.87,443.53 1774,382 C1786.61,361.1 1808.37,373.46 1820,352 C1833.12,327.77 1820.44,317.55 1820,290 C1819.48,257.91 1818.21,221.17 1817.24,196.06 " fill="none" id="Report-Test" style="stroke:#A80036;stroke-width:1.0;"/><text fill="#000000" font-family="sans-serif" font-size="13" lengthAdjust="spacingAndGlyphs" textLength="67" x="1775" y="403.577">is based on</text><text fill="#000000" font-family="sans-serif" font-size="13" lengthAdjust="spacingAndGlyphs" textLength="7" x="1671.4079" y="606.131">1</text><text fill="#000000" font-family="sans-serif" font-size="13" lengthAdjust="spacingAndGlyphs" textLength="7" x="1809.7456" y="216.5939">1</text><!--MD5=[1dbb730aa792675a530b390feeeb5270]
link Report to Client--><path codeLine="130" d="M1663.78,607.32 C1733.53,629.82 1928.56,692.75 2045.33,730.42 " fill="none" id="Report-Client" style="stroke:#A80036;stroke-width:1.0;"/><text fill="#000000" font-family="sans-serif" font-size="13" lengthAdjust="spacingAndGlyphs" textLength="126" x="1858" y="666.077">is sent via application</text><text fill="#000000" font-family="sans-serif" font-size="13" lengthAdjust="spacingAndGlyphs" textLength="5" x="1671.3803" y="623.9443">*</text><text fill="#000000" font-family="sans-serif" font-size="13" lengthAdjust="spacingAndGlyphs" textLength="7" x="2030.4487" y="724.3518">1</text><!--MD5=[f0cf61b3d44ca7b4a714aa4fb0975b4b]
link Administrator to Test--><path codeLine="131" d="M1688.03,445.88 C1713.14,390.95 1774.56,256.63 1802.16,196.26 " fill="none" id="Administrator-Test" style="stroke:#A80036;stroke-width:1.0;"/><text fill="#000000" font-family="sans-serif" font-size="13" lengthAdjust="spacingAndGlyphs" textLength="52" x="1759" y="325.577">specifies</text><text fill="#000000" font-family="sans-serif" font-size="13" lengthAdjust="spacingAndGlyphs" textLength="7" x="1682.9596" y="434.6238">1</text><text fill="#000000" font-family="sans-serif" font-size="13" lengthAdjust="spacingAndGlyphs" textLength="5" x="1793.7899" y="216.3519">*</text><!--MD5=[6a35157f4c730bda767e7c9f1b8b7f73]
link Receptionist to Client--><path codeLine="132" d="M2180.1,45.19 C2235.47,61.8 2316,97.41 2316,164 C2316,164 2316,164 2316,599 C2316,651.66 2272.64,691.49 2228.6,718.36 " fill="none" id="Receptionist-Client" style="stroke:#A80036;stroke-width:1.0;"/><text fill="#000000" font-family="sans-serif" font-size="13" lengthAdjust="spacingAndGlyphs" textLength="50" x="2317" y="403.577">registers</text><text fill="#000000" font-family="sans-serif" font-size="13" lengthAdjust="spacingAndGlyphs" textLength="7" x="2188.1194" y="43.1174">1</text><text fill="#000000" font-family="sans-serif" font-size="13" lengthAdjust="spacingAndGlyphs" textLength="5" x="2236.3927" y="711.2931">*</text><!--MD5=[e8b34c2e6517a986175307f5599f058a]
link Receptionist to Test--><path codeLine="133" d="M2077.66,54.49 C2014.54,80.91 1908.91,125.11 1853.13,148.46 " fill="none" id="Receptionist-Test" style="stroke:#A80036;stroke-width:1.0;"/><text fill="#000000" font-family="sans-serif" font-size="13" lengthAdjust="spacingAndGlyphs" textLength="50" x="1992" y="100.077">registers</text><text fill="#000000" font-family="sans-serif" font-size="13" lengthAdjust="spacingAndGlyphs" textLength="7" x="2062.9481" y="53.689">1</text><text fill="#000000" font-family="sans-serif" font-size="13" lengthAdjust="spacingAndGlyphs" textLength="5" x="1860.9322" y="140.8238">*</text><!--MD5=[848c8065b29fb9bba3c9b45c1c07083f]
link LaboratoryCoordinator to Report--><path codeLine="134" d="M1532.67,496.03 C1539.89,510.62 1550.4,529.06 1563,543 C1577.21,558.71 1596.7,572.57 1612.26,582.32 " fill="none" id="LaboratoryCoordinator-Report" style="stroke:#A80036;stroke-width:1.0;"/><text fill="#000000" font-family="sans-serif" font-size="13" lengthAdjust="spacingAndGlyphs" textLength="190" x="1564" y="539.077">validates and confirms the report</text><text fill="#000000" font-family="sans-serif" font-size="13" lengthAdjust="spacingAndGlyphs" textLength="7" x="1527.5073" y="516.4684">1</text><text fill="#000000" font-family="sans-serif" font-size="13" lengthAdjust="spacingAndGlyphs" textLength="5" x="1599.6705" y="573.1943">*</text><!--MD5=[47855ee4dabeea37c5949a17ed9e3a41]
link ChemicalLaboratory to Sample--><path codeLine="135" d="M448.62,338.07 C419.01,356.88 379.75,388.88 402,416 C431.78,452.3 574.47,464.66 639.98,468.47 " fill="none" id="ChemicalLaboratory-Sample" style="stroke:#A80036;stroke-width:1.0;"/><text fill="#000000" font-family="sans-serif" font-size="13" lengthAdjust="spacingAndGlyphs" textLength="63" x="403" y="403.577">is received</text><text fill="#000000" font-family="sans-serif" font-size="13" lengthAdjust="spacingAndGlyphs" textLength="7" x="430.6613" y="358.6273">1</text><text fill="#000000" font-family="sans-serif" font-size="13" lengthAdjust="spacingAndGlyphs" textLength="5" x="627.21" y="481.6561">*</text><!--MD5=[47855ee4dabeea37c5949a17ed9e3a41]
link ChemicalLaboratory to Sample--><path codeLine="137" d="M483.72,338.14 C493.06,358.81 511.85,394.51 538,416 C567.94,440.6 610.51,455.11 639.8,462.79 " fill="none" id="ChemicalLaboratory-Sample-1" style="stroke:#A80036;stroke-width:1.0;"/><text fill="#000000" font-family="sans-serif" font-size="13" lengthAdjust="spacingAndGlyphs" textLength="121" x="539" y="403.577">it's where it analyzes</text><text fill="#000000" font-family="sans-serif" font-size="13" lengthAdjust="spacingAndGlyphs" textLength="7" x="477.7866" y="358.4121">1</text><text fill="#000000" font-family="sans-serif" font-size="13" lengthAdjust="spacingAndGlyphs" textLength="5" x="626.9906" y="456.4523">*</text><!--MD5=[98994e1502641fa381021dffe882d56a]
link ClinicalChemistryTechnologist to Sample--><path codeLine="136" d="M666.28,346.35 C667.28,365.32 668.71,392.34 670,416 C670.53,425.75 671.12,436.49 671.64,445.81 " fill="none" id="ClinicalChemistryTechnologist-Sample" style="stroke:#A80036;stroke-width:1.0;"/><text fill="#000000" font-family="sans-serif" font-size="13" lengthAdjust="spacingAndGlyphs" textLength="108" x="671" y="403.577">registers the result</text><text fill="#000000" font-family="sans-serif" font-size="13" lengthAdjust="spacingAndGlyphs" textLength="7" x="658.7389" y="366.4586">1</text><text fill="#000000" font-family="sans-serif" font-size="13" lengthAdjust="spacingAndGlyphs" textLength="5" x="665.6509" y="434.5358">*</text><!--MD5=[f5a9db9581d941416aba73cad643e04c]
link ChemicalLaboratory to Report--><path codeLine="138" d="M437.22,338.09 C418.71,347.84 398.5,362.26 388,382 C380.9,395.34 380.65,402.8 388,416 C453.86,534.34 531.79,518.56 665,543 C854.7,577.81 1478.29,593.45 1612.43,596.45 " fill="none" id="ChemicalLaboratory-Report" style="stroke:#A80036;stroke-width:1.0;"/><text fill="#000000" font-family="sans-serif" font-size="13" lengthAdjust="spacingAndGlyphs" textLength="103" x="458" y="475.577">it's where it writes</text><text fill="#000000" font-family="sans-serif" font-size="13" lengthAdjust="spacingAndGlyphs" textLength="7" x="415.8835" y="358.3456">1</text><text fill="#000000" font-family="sans-serif" font-size="13" lengthAdjust="spacingAndGlyphs" textLength="5" x="1599.5353" y="610.2286">*</text><!--MD5=[d57f6ed9b95aa4f13f83120b06a0e576]
link Clinic to Sample--><path codeLine="139" d="M289.4,258.67 C279.31,266.6 268.47,277.36 263,290 C252.05,315.29 248.63,328.49 263,352 C303.23,417.8 549.32,454.63 639.73,466.08 " fill="none" id="Clinic-Sample" style="stroke:#A80036;stroke-width:1.0;"/><text fill="#000000" font-family="sans-serif" font-size="13" lengthAdjust="spacingAndGlyphs" textLength="132" x="264" y="325.577">it's where are collected</text><text fill="#000000" font-family="sans-serif" font-size="13" lengthAdjust="spacingAndGlyphs" textLength="7" x="274.4069" y="258.2797">1</text><text fill="#000000" font-family="sans-serif" font-size="13" lengthAdjust="spacingAndGlyphs" textLength="5" x="626.9053" y="460.462">*</text><!--MD5=[6eee883fdf517d3604e8bd0f2058e9aa]
link Company to Client--><path codeLine="140" d="M1047.88,33.55 C852.07,36.78 6,56.91 6,164 C6,164 6,164 6,599 C6,702.89 1637.55,748.24 2045.43,757.95 " fill="none" id="Company-Client" style="stroke:#A80036;stroke-width:1.0;"/><text fill="#000000" font-family="sans-serif" font-size="13" lengthAdjust="spacingAndGlyphs" textLength="214" x="7" y="403.577">notifies by SMS when report is ready</text><text fill="#000000" font-family="sans-serif" font-size="13" lengthAdjust="spacingAndGlyphs" textLength="7" x="1033.1102" y="47.2568">1</text><text fill="#000000" font-family="sans-serif" font-size="13" lengthAdjust="spacingAndGlyphs" textLength="7" x="2030.557" y="754.1616">1</text><!--MD5=[670dbdf7395d3fcbb40104f0a070263e]
link Company to Report--><path codeLine="142" d="M1063.74,57.1 C1011.41,112.09 897.48,249.99 960,352 C1104.87,588.36 1506.62,599.12 1612.27,597.73 " fill="none" id="Company-Report" style="stroke:#A80036;stroke-width:1.0;"/><text fill="#000000" font-family="sans-serif" font-size="13" lengthAdjust="spacingAndGlyphs" textLength="101" x="961" y="325.577">generates reports</text><text fill="#000000" font-family="sans-serif" font-size="13" lengthAdjust="spacingAndGlyphs" textLength="7" x="1049.6265" y="77.5564">1</text><text fill="#000000" font-family="sans-serif" font-size="13" lengthAdjust="spacingAndGlyphs" textLength="5" x="1599.3303" y="592.6498">*</text><!--MD5=[193708d372bf20240ce878c7171061ec]
link NHSReport to Report--><path codeLine="143" d="M1118.13,182.1 C1135.52,192.65 1156.7,207.84 1171,226 C1252.83,329.88 1191.81,414.57 1296,496 C1394.78,573.2 1551.28,591.46 1612.38,595.73 " fill="none" id="NHSReport-Report" style="stroke:#A80036;stroke-width:1.0;"/><text fill="#000000" font-family="sans-serif" font-size="13" lengthAdjust="spacingAndGlyphs" textLength="62" x="1238" y="403.577">are of type</text><text fill="#000000" font-family="sans-serif" font-size="13" lengthAdjust="spacingAndGlyphs" textLength="7" x="1119.9512" y="202.3589">1</text><text fill="#000000" font-family="sans-serif" font-size="13" lengthAdjust="spacingAndGlyphs" textLength="5" x="1599.4713" y="590.0873">*</text><!--MD5=[1a29efac474ed00332939ff55dd5f4e3]
link Company to NHSReport--><path codeLine="144" d="M1088,57.03 C1088,83.47 1088,125.23 1088,147.97 " fill="none" id="Company-NHSReport" style="stroke:#A80036;stroke-width:1.0;"/><text fill="#000000" font-family="sans-serif" font-size="13" lengthAdjust="spacingAndGlyphs" textLength="94" x="1089" y="100.077">sends reports to</text><text fill="#000000" font-family="sans-serif" font-size="13" lengthAdjust="spacingAndGlyphs" textLength="7" x="1080.1031" y="77.4684">1</text><text fill="#000000" font-family="sans-serif" font-size="13" lengthAdjust="spacingAndGlyphs" textLength="5" x="1082.1094" y="136.3438">*</text><!--MD5=[e9cb46346a41c4f3ce6d81918a0b149a]
link NHSReport to NHSAPI--><path codeLine="145" d="M1069.66,182.08 C1050.85,200.61 1026.06,232.12 1039,260 C1047.63,278.59 1065.17,293.5 1080.66,303.81 " fill="none" id="NHSReport-NHSAPI" style="stroke:#A80036;stroke-width:1.0;"/><text fill="#000000" font-family="sans-serif" font-size="13" lengthAdjust="spacingAndGlyphs" textLength="126" x="1040" y="247.577">sends reports via API</text><text fill="#000000" font-family="sans-serif" font-size="13" lengthAdjust="spacingAndGlyphs" textLength="5" x="1057.7568" y="202.3322">*</text><text fill="#000000" font-family="sans-serif" font-size="13" lengthAdjust="spacingAndGlyphs" textLength="7" x="1065.6553" y="294.8932">1</text><!--MD5=[b097d9d314264888b7dbeddc95343863]
link LabOrder to Client--><path codeLine="146" d="M2219.77,416.21 C2211.29,458.3 2187.41,574.39 2163,670 C2160.55,679.61 2157.79,689.75 2155,699.63 " fill="none" id="LabOrder-Client" style="stroke:#A80036;stroke-width:1.0;"/><text fill="#000000" font-family="sans-serif" font-size="13" lengthAdjust="spacingAndGlyphs" textLength="60" x="2197" y="539.077">belongs to</text><text fill="#000000" font-family="sans-serif" font-size="13" lengthAdjust="spacingAndGlyphs" textLength="7" x="2210.5407" y="436.5053">1</text><text fill="#000000" font-family="sans-serif" font-size="13" lengthAdjust="spacingAndGlyphs" textLength="7" x="2149.7672" y="688.3257">1</text><!--MD5=[7ae31b06ecb5db678e40497ee74dd179]
link Test to LabOrder--><path codeLine="148" d="M1853.05,167.75 C1932.66,172.23 2116.6,186.66 2163,226 C2210.76,266.49 2220.54,347.24 2222.51,381.75 " fill="none" id="Test-LabOrder" style="stroke:#A80036;stroke-width:1.0;"/><text fill="#000000" font-family="sans-serif" font-size="13" lengthAdjust="spacingAndGlyphs" textLength="67" x="2190" y="247.577">is based on</text><text fill="#000000" font-family="sans-serif" font-size="13" lengthAdjust="spacingAndGlyphs" textLength="7" x="1861.0333" y="181.8647">1</text><text fill="#000000" font-family="sans-serif" font-size="13" lengthAdjust="spacingAndGlyphs" textLength="7" x="2214.1384" y="370.3536">1</text><!--MD5=[526c8970af1cae9b904b18ba951c8bf5]
link BarCodeAPI to Sample--><path codeLine="149" d="M826.46,338.24 C820.02,358.68 806.44,393.8 784,416 C762.21,437.55 730.13,451.88 706.05,460.32 " fill="none" id="BarCodeAPI-Sample" style="stroke:#A80036;stroke-width:1.0;"/><text fill="#000000" font-family="sans-serif" font-size="13" lengthAdjust="spacingAndGlyphs" textLength="109" x="809" y="403.577">generates barCode</text><text fill="#000000" font-family="sans-serif" font-size="13" lengthAdjust="spacingAndGlyphs" textLength="7" x="816.7968" y="358.5452">1</text><text fill="#000000" font-family="sans-serif" font-size="13" lengthAdjust="spacingAndGlyphs" textLength="5" x="713.8266" y="453.442">*</text><!--MD5=[a88faabe00abad8d85fa95b57223593d]
@startuml

object Company{
-designation
-address
}

object LabOrder{
}

object Test{
-testID
-nhscode
-createdAT
}


object Clinic{
}

object Parameter{
-designation
}

object ParameterCategory{
-code
-description
-nhsld
}


object Administrator{
-authenticationID
-password
}

object Diagnosis{
-result
}

object Sample{
-barCode
-type
}

object Report{
-type
-result
}

object MedicalLabTechnician{
-authenticationID
-password

}

object SpecialistDoctor{
-authenticationID
-password
}

object LaboratoryCoordinator{
-authenticationID
-password

}

object Client{
-name
-citizenCardNumber
-nationalHealthcareServiceNumber
-birthdate
-sex
-taxIdentificationNumber
-phoneNumber
-email
}

object Receptionist{
-authenticationID
-password
}

object ClinicalChemistryTechnologist{
-authenticationID
-password

}

object ChemicalLaboratory{
}

object TestType{
-testTypeID
-designation
}

object NHSReport{
}

object BarCodeAPI{
}

object NHSAPI{
}

Company "1" - - "*" TestType : conducts
Company "1" - - "*" Test : performs
Company "1" - - "*" Clinic : has
Company "1" - - "1" ChemicalLaboratory : has
Company "1" - - "*" Parameter : capable of analysing
Company "1" - - "*" ParameterCategory : adopts


ParameterCategory "*" - - "1" Parameter : belongs to
ParameterCategory "1" - - "1" Administrator : is created by

Test "*" - - "1" Client : makes
Test "*" - - "1" ParameterCategory : is of
Test "*" - - "1" TestType : is of
Test "1" - - "1" Diagnosis

Sample "*" - - "1" MedicalLabTechnician : is collected/analyzed by
Sample "*" - - "1" Test : is based on

Diagnosis "*" - - "1" SpecialistDoctor : makes
SpecialistDoctor "1" - - "1" Report : elaborates
Diagnosis "1" - - "1" Report : generates
Diagnosis "*" - - "1" Sample : is based on
Report "1" - - "1" Test : is based on
Report "*" - - "1" Client : is sent via application
Administrator "1" - - "*" Test : specifies
Receptionist "1" - - "*" Client : registers
Receptionist "1" - - "*" Test : registers
LaboratoryCoordinator "1" - - "*" Report : validates and confirms the report
ChemicalLaboratory "1" - - "*" Sample : is received
ClinicalChemistryTechnologist "1" - - "*" Sample : registers the result
ChemicalLaboratory "1" - - "*" Sample : it's where it analyzes
ChemicalLaboratory "1" - - "*" Report : it's where it writes
Clinic "1" - - "*" Sample : it's where are collected
Company "1" - - "1" Client : notifies by SMS when report is ready

Company "1" - - "*" Report : generates reports
NHSReport "1" - - "*" Report : are of type
Company "1" - - "*" NHSReport : sends reports to
NHSReport "*" - - "1" NHSAPI : sends reports via API
LabOrder "1" - - "1" Client : belongs to

Test "1" - - "1" LabOrder : is based on
BarCodeAPI "1" - - "*" Sample : generates barCode


@enduml

PlantUML version 1.2020.26(Mon Dec 21 17:45:07 WET 2020)
(GPL source distribution)
Java Runtime: OpenJDK Runtime Environment
JVM: OpenJDK 64-Bit Server VM
Default Encoding: ANSI_X3.4-1968
Language: en
Country: US
--></g></svg>