<?xml version="1.0" encoding="UTF-8" standalone="no"?><svg xmlns="http://www.w3.org/2000/svg" xmlns:xlink="http://www.w3.org/1999/xlink" contentScriptType="application/ecmascript" contentStyleType="text/css" height="1427px" preserveAspectRatio="none" style="width:773px;height:1427px;" version="1.1" viewBox="0 0 773 1427" width="773px" zoomAndPan="magnify"><defs><filter height="300%" id="f1a3uec6x6njtp" width="300%" x="-1" y="-1"><feGaussianBlur result="blurOut" stdDeviation="2.0"/><feColorMatrix in="blurOut" result="blurOut2" type="matrix" values="0 0 0 0 0 0 0 0 0 0 0 0 0 0 0 0 0 0 .4 0"/><feOffset dx="4.0" dy="4.0" in="blurOut2" result="blurOut3"/><feBlend in="SourceGraphic" in2="blurOut3" mode="normal"/></filter></defs><g><!--MD5=[87a04b683345c3cce94ac9a6e159ab2f]
entity Receptionist--><ellipse cx="81" cy="1308" fill="#FEFECE" filter="url(#f1a3uec6x6njtp)" rx="8" ry="8" style="stroke:#A80036;stroke-width:1.5;"/><path d="M81,1316 L81,1343 M68,1324 L94,1324 M81,1343 L68,1358 M81,1343 L94,1358 " fill="none" filter="url(#f1a3uec6x6njtp)" style="stroke:#A80036;stroke-width:1.5;"/><text fill="#000000" font-family="sans-serif" font-size="14" lengthAdjust="spacingAndGlyphs" textLength="78" x="42" y="1376.5059">Receptionist</text><ellipse cx="489.116" cy="1309.4232" fill="#FEFECE" filter="url(#f1a3uec6x6njtp)" rx="122.616" ry="26.9232" style="stroke:#A80036;stroke-width:1.5;"/><text fill="#000000" font-family="sans-serif" font-size="14" lengthAdjust="spacingAndGlyphs" textLength="212" x="383.116" y="1312.0292">registers the test to be performed</text><ellipse cx="488.7843" cy="1393.6569" fill="#FEFECE" filter="url(#f1a3uec6x6njtp)" rx="98.7843" ry="22.1569" style="stroke:#A80036;stroke-width:1.5;"/><text fill="#000000" font-family="sans-serif" font-size="14" lengthAdjust="spacingAndGlyphs" textLength="160" x="407.105" y="1396.9505">US 3 - registers the client</text><!--MD5=[f11b5a63a5330873409f43ce2c4e9a69]
entity Chemistry Technologist--><ellipse cx="81" cy="933" fill="#FEFECE" filter="url(#f1a3uec6x6njtp)" rx="8" ry="8" style="stroke:#A80036;stroke-width:1.5;"/><path d="M81,941 L81,968 M68,949 L94,949 M81,968 L68,983 M81,968 L94,983 " fill="none" filter="url(#f1a3uec6x6njtp)" style="stroke:#A80036;stroke-width:1.5;"/><text fill="#000000" font-family="sans-serif" font-size="14" lengthAdjust="spacingAndGlyphs" textLength="149" x="6.5" y="1001.5059">Chemistry Technologist</text><ellipse cx="489.0216" cy="964.7043" fill="#FEFECE" filter="url(#f1a3uec6x6njtp)" rx="124.0216" ry="27.2043" style="stroke:#A80036;stroke-width:1.5;"/><text fill="#000000" font-family="sans-serif" font-size="14" lengthAdjust="spacingAndGlyphs" textLength="215" x="381.5216" y="967.3103">registers the result of the samples</text><ellipse cx="489.1398" cy="1050.328" fill="#FEFECE" filter="url(#f1a3uec6x6njtp)" rx="69.6398" ry="16.328" style="stroke:#A80036;stroke-width:1.5;"/><text fill="#000000" font-family="sans-serif" font-size="14" lengthAdjust="spacingAndGlyphs" textLength="87" x="442.6398" y="1054.0809">verifies report</text><!--MD5=[9884406be06f71c6442cc0d4e009fb6d]
entity Medical Lab Technician--><ellipse cx="81" cy="1050" fill="#FEFECE" filter="url(#f1a3uec6x6njtp)" rx="8" ry="8" style="stroke:#A80036;stroke-width:1.5;"/><path d="M81,1058 L81,1085 M68,1066 L94,1066 M81,1085 L68,1100 M81,1085 L94,1100 " fill="none" filter="url(#f1a3uec6x6njtp)" style="stroke:#A80036;stroke-width:1.5;"/><text fill="#000000" font-family="sans-serif" font-size="14" lengthAdjust="spacingAndGlyphs" textLength="150" x="6" y="1118.5059">Medical Lab Technician</text><ellipse cx="488.8259" cy="1119.5652" fill="#FEFECE" filter="url(#f1a3uec6x6njtp)" rx="75.8259" ry="17.5652" style="stroke:#A80036;stroke-width:1.5;"/><text fill="#000000" font-family="sans-serif" font-size="14" lengthAdjust="spacingAndGlyphs" textLength="104" x="433.8259" y="1123.3181">collects samples</text><!--MD5=[5c107df4c3a6612dd5cfe4282a9cf4f8]
entity Specialist Doctor--><ellipse cx="81" cy="1167" fill="#FEFECE" filter="url(#f1a3uec6x6njtp)" rx="8" ry="8" style="stroke:#A80036;stroke-width:1.5;"/><path d="M81,1175 L81,1202 M68,1183 L94,1183 M81,1202 L68,1217 M81,1202 L94,1217 " fill="none" filter="url(#f1a3uec6x6njtp)" style="stroke:#A80036;stroke-width:1.5;"/><text fill="#000000" font-family="sans-serif" font-size="14" lengthAdjust="spacingAndGlyphs" textLength="106" x="28" y="1235.5059">Specialist Doctor</text><ellipse cx="488.9409" cy="1198.3882" fill="#FEFECE" filter="url(#f1a3uec6x6njtp)" rx="82.4409" ry="18.8882" style="stroke:#A80036;stroke-width:1.5;"/><text fill="#000000" font-family="sans-serif" font-size="14" lengthAdjust="spacingAndGlyphs" textLength="121" x="425.4409" y="1202.1412">diagnostics sample</text><!--MD5=[1a0ff44a601722ffef7405dd923fd24f]
entity Laboratory Coordinator--><ellipse cx="81" cy="785" fill="#FEFECE" filter="url(#f1a3uec6x6njtp)" rx="8" ry="8" style="stroke:#A80036;stroke-width:1.5;"/><path d="M81,793 L81,820 M68,801 L94,801 M81,820 L68,835 M81,820 L94,835 " fill="none" filter="url(#f1a3uec6x6njtp)" style="stroke:#A80036;stroke-width:1.5;"/><text fill="#000000" font-family="sans-serif" font-size="14" lengthAdjust="spacingAndGlyphs" textLength="148" x="7" y="853.5059">Laboratory Coordinator</text><ellipse cx="489.1676" cy="794.6335" fill="#FEFECE" filter="url(#f1a3uec6x6njtp)" rx="96.1676" ry="21.6335" style="stroke:#A80036;stroke-width:1.5;"/><text fill="#000000" font-family="sans-serif" font-size="14" lengthAdjust="spacingAndGlyphs" textLength="154" x="409.8124" y="798.1703">validates/verifies reports</text><ellipse cx="489.1971" cy="876.3394" fill="#FEFECE" filter="url(#f1a3uec6x6njtp)" rx="114.6971" ry="25.3394" style="stroke:#A80036;stroke-width:1.5;"/><text fill="#000000" font-family="sans-serif" font-size="14" lengthAdjust="spacingAndGlyphs" textLength="195" x="391.6971" y="878.9454">creates reports on waiting time</text><!--MD5=[0ba5ee7700168656dc1b457c6fe9fdac]
entity Client--><ellipse cx="81" cy="659" fill="#FEFECE" filter="url(#f1a3uec6x6njtp)" rx="8" ry="8" style="stroke:#A80036;stroke-width:1.5;"/><path d="M81,667 L81,694 M68,675 L94,675 M81,694 L68,709 M81,694 L94,709 " fill="none" filter="url(#f1a3uec6x6njtp)" style="stroke:#A80036;stroke-width:1.5;"/><text fill="#000000" font-family="sans-serif" font-size="14" lengthAdjust="spacingAndGlyphs" textLength="36" x="63" y="727.5059">Client</text><ellipse cx="488.9231" cy="690.2846" fill="#FEFECE" filter="url(#f1a3uec6x6njtp)" rx="111.9231" ry="24.7846" style="stroke:#A80036;stroke-width:1.5;"/><text fill="#000000" font-family="sans-serif" font-size="14" lengthAdjust="spacingAndGlyphs" textLength="189" x="394.4231" y="692.8906">views the reports/examination</text><!--MD5=[62529e7d5259bf274c3bf3e446350d88]
entity Administrator--><ellipse cx="81" cy="330" fill="#FEFECE" filter="url(#f1a3uec6x6njtp)" rx="8" ry="8" style="stroke:#A80036;stroke-width:1.5;"/><path d="M81,338 L81,365 M68,346 L94,346 M81,365 L68,380 M81,365 L94,380 " fill="none" filter="url(#f1a3uec6x6njtp)" style="stroke:#A80036;stroke-width:1.5;"/><text fill="#000000" font-family="sans-serif" font-size="14" lengthAdjust="spacingAndGlyphs" textLength="84" x="39" y="398.5059">Administrator</text><ellipse cx="489.1829" cy="141.6366" fill="#FEFECE" filter="url(#f1a3uec6x6njtp)" rx="193.6829" ry="41.1366" style="stroke:#A80036;stroke-width:1.5;"/><text fill="#000000" font-family="sans-serif" font-size="14" lengthAdjust="spacingAndGlyphs" textLength="360" x="309.1829" y="144.2426">US 9 - specify new type of test and its collecting methods</text><ellipse cx="489.0536" cy="256.4107" fill="#FEFECE" filter="url(#f1a3uec6x6njtp)" rx="180.0536" ry="38.4107" style="stroke:#A80036;stroke-width:1.5;"/><text fill="#000000" font-family="sans-serif" font-size="14" lengthAdjust="spacingAndGlyphs" textLength="332" x="323.0536" y="259.0167">US 10 - specify new test parameter and categorize it</text><ellipse cx="488.9508" cy="361.4902" fill="#FEFECE" filter="url(#f1a3uec6x6njtp)" rx="142.9508" ry="30.9902" style="stroke:#A80036;stroke-width:1.5;"/><text fill="#000000" font-family="sans-serif" font-size="14" lengthAdjust="spacingAndGlyphs" textLength="255" x="361.4508" y="364.0961">US 11 - specify new parameter category</text><ellipse cx="488.7784" cy="454.4557" fill="#FEFECE" filter="url(#f1a3uec6x6njtp)" rx="120.2784" ry="26.4557" style="stroke:#A80036;stroke-width:1.5;"/><text fill="#000000" font-family="sans-serif" font-size="14" lengthAdjust="spacingAndGlyphs" textLength="207" x="385.2784" y="457.0617">US 7 - registers a new employee</text><ellipse cx="488.7892" cy="573.4578" fill="#FEFECE" filter="url(#f1a3uec6x6njtp)" rx="272.7892" ry="56.9578" style="stroke:#A80036;stroke-width:1.5;"/><text fill="#000000" font-family="sans-serif" font-size="14" lengthAdjust="spacingAndGlyphs" textLength="521" x="228.2892" y="576.0638">US 8 - register new clinical analysis laboratory stating which kind of test it operates</text><!--MD5=[52244217770951987a130bd5b09c96eb]
entity Time--><ellipse cx="81" cy="14" fill="#FEFECE" filter="url(#f1a3uec6x6njtp)" rx="8" ry="8" style="stroke:#A80036;stroke-width:1.5;"/><path d="M81,22 L81,49 M68,30 L94,30 M81,49 L68,64 M81,49 L94,64 " fill="none" filter="url(#f1a3uec6x6njtp)" style="stroke:#A80036;stroke-width:1.5;"/><text fill="#000000" font-family="sans-serif" font-size="14" lengthAdjust="spacingAndGlyphs" textLength="32" x="65" y="82.5059">Time</text><ellipse cx="488.9024" cy="45.2805" fill="#FEFECE" filter="url(#f1a3uec6x6njtp)" rx="86.9024" ry="19.7805" style="stroke:#A80036;stroke-width:1.5;"/><text fill="#000000" font-family="sans-serif" font-size="14" lengthAdjust="spacingAndGlyphs" textLength="132" x="419.9024" y="49.0334">generate daily report</text><!--MD5=[e5662b0974371581467d05d7a0be200b]
link Receptionist to registers the test to be performed--><path d="M120.2,1336.68 C176.23,1332.54 283.17,1324.63 367.36,1318.41 " fill="none" id="Receptionist-to-registers the test to be performed" style="stroke:#A80036;stroke-width:1.0;"/><polygon fill="#A80036" points="372.37,1318.04,363.0977,1314.7197,367.3838,1318.4115,363.692,1322.6976,372.37,1318.04" style="stroke:#A80036;stroke-width:1.0;"/><!--MD5=[16488d8dc3806a4384b612672e9f88a7]
link Receptionist to US 3 - registers the client--><path d="M120.2,1344.58 C183.39,1352.99 311.34,1370 398.37,1381.58 " fill="none" id="Receptionist-to-US 3 - registers the client" style="stroke:#A80036;stroke-width:1.0;"/><polygon fill="#A80036" points="403.53,1382.26,395.1337,1377.112,398.5734,1381.6029,394.0824,1385.0426,403.53,1382.26" style="stroke:#A80036;stroke-width:1.0;"/><!--MD5=[ce0d56283e037c19767c275cb68423c0]
link Chemistry Technologist to registers the result of the samples--><path d="M155.52,964.5 C212.31,964.5 292.31,964.5 359.6,964.5 " fill="none" id="Chemistry Technologist-to-registers the result of the samples" style="stroke:#A80036;stroke-width:1.0;"/><polygon fill="#A80036" points="364.83,964.5,355.83,960.5,359.83,964.5,355.83,968.5,364.83,964.5" style="stroke:#A80036;stroke-width:1.0;"/><!--MD5=[f1a507cc0fbf5c53dd33d7db9783bd12]
link Chemistry Technologist to verifies report--><path d="M155.75,991.83 C175.15,998.31 196.2,1004.72 216,1009.5 C284.36,1026 364.07,1037.08 419.46,1043.52 " fill="none" id="Chemistry Technologist-to-verifies report" style="stroke:#A80036;stroke-width:1.0;"/><polygon fill="#A80036" points="424.74,1044.13,416.2556,1039.1284,419.7727,1043.559,415.3421,1047.0761,424.74,1044.13" style="stroke:#A80036;stroke-width:1.0;"/><!--MD5=[7b6fd6e60cd48d2911abcf66cb8bff50]
link Medical Lab Technician to collects samples--><path d="M156.47,1088.47 C229.46,1095.3 340.11,1105.66 413.21,1112.5 " fill="none" id="Medical Lab Technician-to-collects samples" style="stroke:#A80036;stroke-width:1.0;"/><polygon fill="#A80036" points="418.41,1112.99,409.8278,1108.1582,413.4323,1112.518,409.0726,1116.1225,418.41,1112.99" style="stroke:#A80036;stroke-width:1.0;"/><!--MD5=[b65a87f8edfea68731d91158562088af]
link Medical Lab Technician to verifies report--><path d="M156.47,1075.81 C230.91,1070.13 344.53,1061.45 417.53,1055.88 " fill="none" id="Medical Lab Technician-to-verifies report" style="stroke:#A80036;stroke-width:1.0;"/><polygon fill="#A80036" points="422.72,1055.48,413.4383,1052.1861,417.7349,1055.8657,414.0553,1060.1623,422.72,1055.48" style="stroke:#A80036;stroke-width:1.0;"/><!--MD5=[8af8aab39703c8a5ae12e18dc3ea4ce4]
link Specialist Doctor to diagnostics sample--><path d="M134.25,1198.5 C201.73,1198.5 320.12,1198.5 401.21,1198.5 " fill="none" id="Specialist Doctor-to-diagnostics sample" style="stroke:#A80036;stroke-width:1.0;"/><polygon fill="#A80036" points="406.5,1198.5,397.5,1194.5,401.5,1198.5,397.5,1202.5,406.5,1198.5" style="stroke:#A80036;stroke-width:1.0;"/><!--MD5=[e50e684ad235943eb19efb8274041980]
link Specialist Doctor to verifies report--><path d="M134.21,1158.49 C141.61,1152.56 149.06,1146.44 156,1140.5 C183.71,1116.78 182.96,1099.96 216,1084.5 C278.97,1055.04 358.65,1048.13 415.46,1047.63 " fill="none" id="Specialist Doctor-to-verifies report" style="stroke:#A80036;stroke-width:1.0;"/><polygon fill="#A80036" points="420.54,1047.6,411.5173,1043.6515,415.5401,1047.6286,411.563,1051.6514,420.54,1047.6" style="stroke:#A80036;stroke-width:1.0;"/><!--MD5=[aaff44e27350c21e6dca933a9fe6f54e]
link Laboratory Coordinator to validates/verifies reports--><path d="M155.05,812.54 C220.82,808.98 317.99,803.71 390.4,799.79 " fill="none" id="Laboratory Coordinator-to-validates/verifies reports" style="stroke:#A80036;stroke-width:1.0;"/><polygon fill="#A80036" points="395.57,799.51,386.3664,796.0037,390.5774,799.781,386.8001,803.992,395.57,799.51" style="stroke:#A80036;stroke-width:1.0;"/><!--MD5=[05ba7b17c3a46140b21a171eb4784b86]
link Laboratory Coordinator to creates reports on waiting time--><path d="M155.05,827.3 C220.04,836.9 315.69,851.04 387.81,861.69 " fill="none" id="Laboratory Coordinator-to-creates reports on waiting time" style="stroke:#A80036;stroke-width:1.0;"/><polygon fill="#A80036" points="392.96,862.45,384.6373,857.1838,388.0131,861.7229,383.474,865.0988,392.96,862.45" style="stroke:#A80036;stroke-width:1.0;"/><!--MD5=[5a8542b4e47b15dd22c8e4f9a4e0c43e]
link Client to views the reports/examination--><path d="M99.19,690.5 C145.3,690.5 274.84,690.5 371.81,690.5 " fill="none" id="Client-to-views the reports/examination" style="stroke:#A80036;stroke-width:1.0;"/><polygon fill="#A80036" points="376.98,690.5,367.98,686.5,371.98,690.5,367.98,694.5,376.98,690.5" style="stroke:#A80036;stroke-width:1.0;"/><!--MD5=[ea01db740bc4ae556042235680bf6f33]
link Administrator to US 9 - specify new type of test and its collecting methods--><path d="M105.16,320.46 C128.34,283.27 167.49,229.92 216,200.5 C245.04,182.89 278.64,170.5 312.11,161.79 " fill="none" id="Administrator-to-US 9 - specify new type of test and its collecting methods" style="stroke:#A80036;stroke-width:1.0;"/><polygon fill="#A80036" points="317.05,160.54,307.3439,158.8691,312.2027,161.7661,309.3057,166.6248,317.05,160.54" style="stroke:#A80036;stroke-width:1.0;"/><!--MD5=[86d54083418e95b0f046f8b51a303350]
link Administrator to US 10 - specify new test parameter and categorize it--><path d="M123.17,345.09 C149.44,335.04 184.37,322.43 216,313.5 C257.83,301.69 303.9,291.13 346.05,282.4 " fill="none" id="Administrator-to-US 10 - specify new test parameter and categorize it" style="stroke:#A80036;stroke-width:1.0;"/><polygon fill="#A80036" points="351.17,281.35,341.5448,279.2629,346.2744,282.3663,343.171,287.0959,351.17,281.35" style="stroke:#A80036;stroke-width:1.0;"/><!--MD5=[9ac1082d81f2c74a27ad3f663d2883a9]
link Administrator to US 11 - specify new parameter category--><path d="M123.16,361.5 C173.96,361.5 263.12,361.5 340.58,361.5 " fill="none" id="Administrator-to-US 11 - specify new parameter category" style="stroke:#A80036;stroke-width:1.0;"/><polygon fill="#A80036" points="345.66,361.5,336.66,357.5,340.66,361.5,336.66,365.5,345.66,361.5" style="stroke:#A80036;stroke-width:1.0;"/><!--MD5=[bdceb84df0ac8907fe8a6b54620bae1f]
link Administrator to US 7 - registers a new employee--><path d="M123,378.8 C149.2,389.27 184.12,402.17 216,410.5 C268.24,424.14 327.29,434.31 376.99,441.41 " fill="none" id="Administrator-to-US 7 - registers a new employee" style="stroke:#A80036;stroke-width:1.0;"/><polygon fill="#A80036" points="382.08,442.13,373.7425,436.8873,377.1311,441.4169,372.6015,444.8055,382.08,442.13" style="stroke:#A80036;stroke-width:1.0;"/><!--MD5=[d96261ac23ff0250a566f0f12f62acff]
link Administrator to US 8 - register new clinical analysis laboratory stating which kind of test it operates--><path d="M112.29,402.61 C136.97,433.3 174.44,474 216,498.5 C238.54,511.79 263.52,522.8 288.94,531.9 " fill="none" id="Administrator-to-US 8 - register new clinical analysis laboratory stating which kind of test it operates" style="stroke:#A80036;stroke-width:1.0;"/><polygon fill="#A80036" points="293.69,533.58,286.544,526.8025,288.9774,531.9092,283.8707,534.3426,293.69,533.58" style="stroke:#A80036;stroke-width:1.0;"/><!--MD5=[2444f86e142b61827b1ff6c9ae736042]
link Time to generate daily report--><path d="M97.42,45.5 C145.73,45.5 296.85,45.5 396.33,45.5 " fill="none" id="Time-to-generate daily report" style="stroke:#A80036;stroke-width:1.0;"/><polygon fill="#A80036" points="401.61,45.5,392.61,41.5,396.61,45.5,392.61,49.5,401.61,45.5" style="stroke:#A80036;stroke-width:1.0;"/><!--MD5=[392249d733bab7eb6e86d67f481c4993]
@startuml
left to right direction

:Receptionist: - -> (registers the test to be performed)
:Receptionist: - -> (US 3 - registers the client)

:Chemistry Technologist: - -> (registers the result of the samples)
:Chemistry Technologist: - -> (verifies report)

:Medical Lab Technician: - -> (collects samples)
:Medical Lab Technician: - -> (verifies report)

:Specialist Doctor: - -> (diagnostics sample)
:Specialist Doctor: - -> (verifies report)

:Laboratory Coordinator: - -> (validates/verifies reports)
:Laboratory Coordinator: - -> (creates reports on waiting time)

:Client: - -> (views the reports/examination)

:Administrator: - -> (US 9 - specify new type of test and its collecting methods)
:Administrator: - -> (US 10 - specify new test parameter and categorize it)
:Administrator: - -> (US 11 - specify new parameter category)
:Administrator: - -> (US 7 - registers a new employee)
:Administrator: - -> (US 8 - register new clinical analysis laboratory stating which kind of test it operates)


:Time: - -> (generate daily report)

@enduml

PlantUML version 1.2020.26(Mon Dec 21 17:45:07 WET 2020)
(GPL source distribution)
Java Runtime: OpenJDK Runtime Environment
JVM: OpenJDK 64-Bit Server VM
Default Encoding: ANSI_X3.4-1968
Language: en
Country: US
--></g></svg>