<?xml version="1.0" encoding="UTF-8" standalone="no"?><svg xmlns="http://www.w3.org/2000/svg" xmlns:xlink="http://www.w3.org/1999/xlink" contentScriptType="application/ecmascript" contentStyleType="text/css" height="979px" preserveAspectRatio="none" style="width:390px;height:979px;" version="1.1" viewBox="0 0 390 979" width="390px" zoomAndPan="magnify"><defs><filter height="300%" id="f1mindauo95dsp" width="300%" x="-1" y="-1"><feGaussianBlur result="blurOut" stdDeviation="2.0"/><feColorMatrix in="blurOut" result="blurOut2" type="matrix" values="0 0 0 0 0 0 0 0 0 0 0 0 0 0 0 0 0 0 .4 0"/><feOffset dx="4.0" dy="4.0" in="blurOut2" result="blurOut3"/><feBlend in="SourceGraphic" in2="blurOut3" mode="normal"/></filter></defs><g><!--MD5=[dc548cf8b8a921e529ef6dffc75baca7]
class RecordSamplesUI--><rect codeLine="1" fill="#FEFECE" filter="url(#f1mindauo95dsp)" height="74.3998" id="RecordSamplesUI" style="stroke:#A80036;stroke-width:1.5;" width="132" x="163.5" y="7"/><ellipse cx="178.5" cy="23" fill="#ADD1B2" rx="11" ry="11" style="stroke:#A80036;stroke-width:1.0;"/><path d="M173.5,24.1563 C173.5,26.6563 175.6406,28.4688 178.5625,28.4688 C179.7969,28.4688 180.9688,28.1719 181.7188,27.6563 C182.3281,27.2344 182.6563,26.8125 182.6563,26.4063 C182.6563,25.9375 182.2344,25.5313 181.7344,25.5313 C181.5,25.5313 181.2813,25.6094 181.0781,25.8125 C180.6406,26.25 180.6406,26.25 180.4688,26.3438 C180.0156,26.5781 179.375,26.7188 178.6094,26.7188 C176.6094,26.7188 175.3281,25.7031 175.3281,24.125 L175.3281,23.0781 C175.3281,21.375 176.5469,20.1719 178.25,20.1719 C178.8281,20.1719 179.4063,20.3125 179.875,20.5625 C180.3438,20.8281 180.5156,21.0156 180.5781,21.375 C180.7031,22.0469 180.9531,22.2969 181.4844,22.2969 C181.7656,22.2969 182.0469,22.1563 182.2344,21.9375 C182.3594,21.7656 182.4063,21.5938 182.4063,21.1563 L182.4063,19.7969 C182.4063,19.375 182.3906,19.2344 182.2656,19.0625 C182.0938,18.8125 181.8125,18.6563 181.4844,18.6563 C181.1719,18.6563 180.9688,18.7656 180.75,19.0313 C179.5781,18.5313 179.1406,18.4219 178.1875,18.4219 C175.5156,18.4219 173.5,20.4375 173.5,23.0625 L173.5,24.1563 Z " fill="#000000"/><text fill="#000000" font-family="sans-serif" font-size="12" lengthAdjust="spacing" textLength="100" x="192.5" y="26.948">RecordSamplesUI</text><line style="stroke:#A80036;stroke-width:1.5;" x1="164.5" x2="294.5" y1="39" y2="39"/><line style="stroke:#A80036;stroke-width:1.5;" x1="164.5" x2="294.5" y1="47" y2="47"/><rect fill="#F24D5C" height="6" style="stroke:#C82930;stroke-width:1.0;" width="6" x="171.5" y="55"/><text fill="#000000" font-family="sans-serif" font-size="11" lengthAdjust="spacing" textLength="105" x="183.5" y="61.2189">show(freeTestsDTO)</text><rect fill="#F24D5C" height="6" style="stroke:#C82930;stroke-width:1.0;" width="6" x="171.5" y="68.1999"/><text fill="#000000" font-family="sans-serif" font-size="11" lengthAdjust="spacing" textLength="99" x="183.5" y="74.4188">show(samplesDTO)</text><!--MD5=[a1e7b5096c55c847fdbd76277a7fd41a]
class RecordSamplesController--><rect codeLine="6" fill="#FEFECE" filter="url(#f1mindauo95dsp)" height="87.5997" id="RecordSamplesController" style="stroke:#A80036;stroke-width:1.5;" width="261" x="7" y="142"/><ellipse cx="62.25" cy="158" fill="#ADD1B2" rx="11" ry="11" style="stroke:#A80036;stroke-width:1.0;"/><path d="M57.25,159.1563 C57.25,161.6563 59.3906,163.4688 62.3125,163.4688 C63.5469,163.4688 64.7188,163.1719 65.4688,162.6563 C66.0781,162.2344 66.4063,161.8125 66.4063,161.4063 C66.4063,160.9375 65.9844,160.5313 65.4844,160.5313 C65.25,160.5313 65.0313,160.6094 64.8281,160.8125 C64.3906,161.25 64.3906,161.25 64.2188,161.3438 C63.7656,161.5781 63.125,161.7188 62.3594,161.7188 C60.3594,161.7188 59.0781,160.7031 59.0781,159.125 L59.0781,158.0781 C59.0781,156.375 60.2969,155.1719 62,155.1719 C62.5781,155.1719 63.1563,155.3125 63.625,155.5625 C64.0938,155.8281 64.2656,156.0156 64.3281,156.375 C64.4531,157.0469 64.7031,157.2969 65.2344,157.2969 C65.5156,157.2969 65.7969,157.1563 65.9844,156.9375 C66.1094,156.7656 66.1563,156.5938 66.1563,156.1563 L66.1563,154.7969 C66.1563,154.375 66.1406,154.2344 66.0156,154.0625 C65.8438,153.8125 65.5625,153.6563 65.2344,153.6563 C64.9219,153.6563 64.7188,153.7656 64.5,154.0313 C63.3281,153.5313 62.8906,153.4219 61.9375,153.4219 C59.2656,153.4219 57.25,155.4375 57.25,158.0625 L57.25,159.1563 Z " fill="#000000"/><text fill="#000000" font-family="sans-serif" font-size="12" lengthAdjust="spacing" textLength="142" x="82.75" y="161.948">RecordSamplesController</text><line style="stroke:#A80036;stroke-width:1.5;" x1="8" x2="267" y1="174" y2="174"/><ellipse cx="18" cy="185" rx="3" ry="3" style="stroke:#038048;stroke-width:1.0;fill:none;"/><text fill="#000000" font-family="sans-serif" font-size="11" lengthAdjust="spacing" textLength="101" x="27" y="188.2189">List&lt;Test&gt; freeTests</text><ellipse cx="18" cy="198.1999" rx="3" ry="3" style="stroke:#038048;stroke-width:1.0;fill:none;"/><text fill="#000000" font-family="sans-serif" font-size="11" lengthAdjust="spacing" textLength="149" x="27" y="201.4188">List&lt;TestDTO&gt; freeTestsDTO</text><line style="stroke:#A80036;stroke-width:1.5;" x1="8" x2="267" y1="208.3998" y2="208.3998"/><ellipse cx="18" cy="219.3998" fill="#84BE84" rx="3" ry="3" style="stroke:#038048;stroke-width:1.0;"/><text fill="#000000" font-family="sans-serif" font-size="11" lengthAdjust="spacing" textLength="235" x="27" y="222.6187">generateSamples(int testIndex, int numSamples)</text><!--MD5=[02e4b9b7573f1156f41e60aa5b4e25a4]
class Company--><rect codeLine="14" fill="#FEFECE" filter="url(#f1mindauo95dsp)" height="61.1999" id="Company" style="stroke:#A80036;stroke-width:1.5;" width="131" x="72" y="297.5"/><ellipse cx="107.7" cy="313.5" fill="#ADD1B2" rx="11" ry="11" style="stroke:#A80036;stroke-width:1.0;"/><path d="M102.7,314.6563 C102.7,317.1563 104.8406,318.9688 107.7625,318.9688 C108.9969,318.9688 110.1688,318.6719 110.9188,318.1563 C111.5281,317.7344 111.8563,317.3125 111.8563,316.9063 C111.8563,316.4375 111.4344,316.0313 110.9344,316.0313 C110.7,316.0313 110.4813,316.1094 110.2781,316.3125 C109.8406,316.75 109.8406,316.75 109.6688,316.8438 C109.2156,317.0781 108.575,317.2188 107.8094,317.2188 C105.8094,317.2188 104.5281,316.2031 104.5281,314.625 L104.5281,313.5781 C104.5281,311.875 105.7469,310.6719 107.45,310.6719 C108.0281,310.6719 108.6063,310.8125 109.075,311.0625 C109.5438,311.3281 109.7156,311.5156 109.7781,311.875 C109.9031,312.5469 110.1531,312.7969 110.6844,312.7969 C110.9656,312.7969 111.2469,312.6563 111.4344,312.4375 C111.5594,312.2656 111.6063,312.0938 111.6063,311.6563 L111.6063,310.2969 C111.6063,309.875 111.5906,309.7344 111.4656,309.5625 C111.2938,309.3125 111.0125,309.1563 110.6844,309.1563 C110.3719,309.1563 110.1688,309.2656 109.95,309.5313 C108.7781,309.0313 108.3406,308.9219 107.3875,308.9219 C104.7156,308.9219 102.7,310.9375 102.7,313.5625 L102.7,314.6563 Z " fill="#000000"/><text fill="#000000" font-family="sans-serif" font-size="12" lengthAdjust="spacing" textLength="53" x="126.3" y="317.448">Company</text><line style="stroke:#A80036;stroke-width:1.5;" x1="73" x2="202" y1="329.5" y2="329.5"/><line style="stroke:#A80036;stroke-width:1.5;" x1="73" x2="202" y1="337.5" y2="337.5"/><ellipse cx="83" cy="348.5" fill="#84BE84" rx="3" ry="3" style="stroke:#038048;stroke-width:1.0;"/><text fill="#000000" font-family="sans-serif" font-size="11" lengthAdjust="spacing" textLength="105" x="92" y="351.7189">List&lt;Test&gt; getTests()</text><!--MD5=[df38be88ccee13e832d6fafd6288a4ca]
class Test--><rect codeLine="20" fill="#FEFECE" filter="url(#f1mindauo95dsp)" height="74.3998" id="Test" style="stroke:#A80036;stroke-width:1.5;" width="138" x="152.5" y="426"/><ellipse cx="205.75" cy="442" fill="#ADD1B2" rx="11" ry="11" style="stroke:#A80036;stroke-width:1.0;"/><path d="M200.75,443.1563 C200.75,445.6563 202.8906,447.4688 205.8125,447.4688 C207.0469,447.4688 208.2188,447.1719 208.9688,446.6563 C209.5781,446.2344 209.9063,445.8125 209.9063,445.4063 C209.9063,444.9375 209.4844,444.5313 208.9844,444.5313 C208.75,444.5313 208.5313,444.6094 208.3281,444.8125 C207.8906,445.25 207.8906,445.25 207.7188,445.3438 C207.2656,445.5781 206.625,445.7188 205.8594,445.7188 C203.8594,445.7188 202.5781,444.7031 202.5781,443.125 L202.5781,442.0781 C202.5781,440.375 203.7969,439.1719 205.5,439.1719 C206.0781,439.1719 206.6563,439.3125 207.125,439.5625 C207.5938,439.8281 207.7656,440.0156 207.8281,440.375 C207.9531,441.0469 208.2031,441.2969 208.7344,441.2969 C209.0156,441.2969 209.2969,441.1563 209.4844,440.9375 C209.6094,440.7656 209.6563,440.5938 209.6563,440.1563 L209.6563,438.7969 C209.6563,438.375 209.6406,438.2344 209.5156,438.0625 C209.3438,437.8125 209.0625,437.6563 208.7344,437.6563 C208.4219,437.6563 208.2188,437.7656 208,438.0313 C206.8281,437.5313 206.3906,437.4219 205.4375,437.4219 C202.7656,437.4219 200.75,439.4375 200.75,442.0625 L200.75,443.1563 Z " fill="#000000"/><text fill="#000000" font-family="sans-serif" font-size="12" lengthAdjust="spacing" textLength="23" x="226.25" y="445.948">Test</text><line style="stroke:#A80036;stroke-width:1.5;" x1="153.5" x2="289.5" y1="458" y2="458"/><rect fill="none" height="6" style="stroke:#C82930;stroke-width:1.0;" width="6" x="160.5" y="466"/><text fill="#000000" font-family="sans-serif" font-size="11" lengthAdjust="spacing" textLength="110" x="172.5" y="472.2189">LocalDate sampleDate</text><rect fill="none" height="6" style="stroke:#C82930;stroke-width:1.0;" width="6" x="160.5" y="479.1999"/><text fill="#000000" font-family="sans-serif" font-size="11" lengthAdjust="spacing" textLength="112" x="172.5" y="485.4188">LocalTime sampleTime</text><line style="stroke:#A80036;stroke-width:1.5;" x1="153.5" x2="289.5" y1="492.3998" y2="492.3998"/><!--MD5=[9fb704ffefcaf68bf1a361787afa998b]
class TestDTO--><rect codeLine="27" fill="#FEFECE" filter="url(#f1mindauo95dsp)" height="74.3998" id="TestDTO" style="stroke:#A80036;stroke-width:1.5;" width="138" x="238.5" y="291"/><ellipse cx="279.6" cy="307" fill="#ADD1B2" rx="11" ry="11" style="stroke:#A80036;stroke-width:1.0;"/><path d="M274.6,308.1563 C274.6,310.6563 276.7406,312.4688 279.6625,312.4688 C280.8969,312.4688 282.0688,312.1719 282.8188,311.6563 C283.4281,311.2344 283.7563,310.8125 283.7563,310.4063 C283.7563,309.9375 283.3344,309.5313 282.8344,309.5313 C282.6,309.5313 282.3813,309.6094 282.1781,309.8125 C281.7406,310.25 281.7406,310.25 281.5688,310.3438 C281.1156,310.5781 280.475,310.7188 279.7094,310.7188 C277.7094,310.7188 276.4281,309.7031 276.4281,308.125 L276.4281,307.0781 C276.4281,305.375 277.6469,304.1719 279.35,304.1719 C279.9281,304.1719 280.5063,304.3125 280.975,304.5625 C281.4438,304.8281 281.6156,305.0156 281.6781,305.375 C281.8031,306.0469 282.0531,306.2969 282.5844,306.2969 C282.8656,306.2969 283.1469,306.1563 283.3344,305.9375 C283.4594,305.7656 283.5063,305.5938 283.5063,305.1563 L283.5063,303.7969 C283.5063,303.375 283.4906,303.2344 283.3656,303.0625 C283.1938,302.8125 282.9125,302.6563 282.5844,302.6563 C282.2719,302.6563 282.0688,302.7656 281.85,303.0313 C280.6781,302.5313 280.2406,302.4219 279.2875,302.4219 C276.6156,302.4219 274.6,304.4375 274.6,307.0625 L274.6,308.1563 Z " fill="#000000"/><text fill="#000000" font-family="sans-serif" font-size="12" lengthAdjust="spacing" textLength="48" x="299.4" y="310.948">TestDTO</text><line style="stroke:#A80036;stroke-width:1.5;" x1="239.5" x2="375.5" y1="323" y2="323"/><rect fill="none" height="6" style="stroke:#C82930;stroke-width:1.0;" width="6" x="246.5" y="331"/><text fill="#000000" font-family="sans-serif" font-size="11" lengthAdjust="spacing" textLength="110" x="258.5" y="337.2189">LocalDate sampleDate</text><rect fill="none" height="6" style="stroke:#C82930;stroke-width:1.0;" width="6" x="246.5" y="344.1999"/><text fill="#000000" font-family="sans-serif" font-size="11" lengthAdjust="spacing" textLength="112" x="258.5" y="350.4188">LocalTime sampleTime</text><line style="stroke:#A80036;stroke-width:1.5;" x1="239.5" x2="375.5" y1="357.3998" y2="357.3998"/><!--MD5=[9681492165142af2a4a3a169d90ee8d4]
class Sample--><rect codeLine="39" fill="#FEFECE" filter="url(#f1mindauo95dsp)" height="48" id="Sample" style="stroke:#A80036;stroke-width:1.5;" width="74" x="184.5" y="561"/><ellipse cx="199.5" cy="577" fill="#ADD1B2" rx="11" ry="11" style="stroke:#A80036;stroke-width:1.0;"/><path d="M194.5,578.1563 C194.5,580.6563 196.6406,582.4688 199.5625,582.4688 C200.7969,582.4688 201.9688,582.1719 202.7188,581.6563 C203.3281,581.2344 203.6563,580.8125 203.6563,580.4063 C203.6563,579.9375 203.2344,579.5313 202.7344,579.5313 C202.5,579.5313 202.2813,579.6094 202.0781,579.8125 C201.6406,580.25 201.6406,580.25 201.4688,580.3438 C201.0156,580.5781 200.375,580.7188 199.6094,580.7188 C197.6094,580.7188 196.3281,579.7031 196.3281,578.125 L196.3281,577.0781 C196.3281,575.375 197.5469,574.1719 199.25,574.1719 C199.8281,574.1719 200.4063,574.3125 200.875,574.5625 C201.3438,574.8281 201.5156,575.0156 201.5781,575.375 C201.7031,576.0469 201.9531,576.2969 202.4844,576.2969 C202.7656,576.2969 203.0469,576.1563 203.2344,575.9375 C203.3594,575.7656 203.4063,575.5938 203.4063,575.1563 L203.4063,573.7969 C203.4063,573.375 203.3906,573.2344 203.2656,573.0625 C203.0938,572.8125 202.8125,572.6563 202.4844,572.6563 C202.1719,572.6563 201.9688,572.7656 201.75,573.0313 C200.5781,572.5313 200.1406,572.4219 199.1875,572.4219 C196.5156,572.4219 194.5,574.4375 194.5,577.0625 L194.5,578.1563 Z " fill="#000000"/><text fill="#000000" font-family="sans-serif" font-size="12" lengthAdjust="spacing" textLength="42" x="213.5" y="580.948">Sample</text><line style="stroke:#A80036;stroke-width:1.5;" x1="185.5" x2="257.5" y1="593" y2="593"/><line style="stroke:#A80036;stroke-width:1.5;" x1="185.5" x2="257.5" y1="601" y2="601"/><!--MD5=[e59bda2572a266093cda22ac34510ea0]
class Barcode--><rect codeLine="45" fill="#FEFECE" filter="url(#f1mindauo95dsp)" height="61.1999" id="Barcode" style="stroke:#A80036;stroke-width:1.5;" width="142" x="150.5" y="670"/><ellipse cx="194.3" cy="686" fill="#ADD1B2" rx="11" ry="11" style="stroke:#A80036;stroke-width:1.0;"/><path d="M189.3,687.1563 C189.3,689.6563 191.4406,691.4688 194.3625,691.4688 C195.5969,691.4688 196.7688,691.1719 197.5188,690.6563 C198.1281,690.2344 198.4563,689.8125 198.4563,689.4063 C198.4563,688.9375 198.0344,688.5313 197.5344,688.5313 C197.3,688.5313 197.0813,688.6094 196.8781,688.8125 C196.4406,689.25 196.4406,689.25 196.2688,689.3438 C195.8156,689.5781 195.175,689.7188 194.4094,689.7188 C192.4094,689.7188 191.1281,688.7031 191.1281,687.125 L191.1281,686.0781 C191.1281,684.375 192.3469,683.1719 194.05,683.1719 C194.6281,683.1719 195.2063,683.3125 195.675,683.5625 C196.1438,683.8281 196.3156,684.0156 196.3781,684.375 C196.5031,685.0469 196.7531,685.2969 197.2844,685.2969 C197.5656,685.2969 197.8469,685.1563 198.0344,684.9375 C198.1594,684.7656 198.2063,684.5938 198.2063,684.1563 L198.2063,682.7969 C198.2063,682.375 198.1906,682.2344 198.0656,682.0625 C197.8938,681.8125 197.6125,681.6563 197.2844,681.6563 C196.9719,681.6563 196.7688,681.7656 196.55,682.0313 C195.3781,681.5313 194.9406,681.4219 193.9875,681.4219 C191.3156,681.4219 189.3,683.4375 189.3,686.0625 L189.3,687.1563 Z " fill="#000000"/><text fill="#000000" font-family="sans-serif" font-size="12" lengthAdjust="spacing" textLength="46" x="214.7" y="689.948">Barcode</text><line style="stroke:#A80036;stroke-width:1.5;" x1="151.5" x2="291.5" y1="702" y2="702"/><line style="stroke:#A80036;stroke-width:1.5;" x1="151.5" x2="291.5" y1="710" y2="710"/><rect fill="#F24D5C" height="6" style="stroke:#C82930;stroke-width:1.0;" width="6" x="158.5" y="718"/><text fill="#000000" font-family="sans-serif" font-size="11" lengthAdjust="spacing" textLength="116" x="170.5" y="724.2189">generateBarcode(code)</text><!--MD5=[aaaa09dcb1c0ec0279a100feab2d8a7a]
class BarcodeInterface--><rect codeLine="51" fill="#FEFECE" filter="url(#f1mindauo95dsp)" height="48" id="BarcodeInterface" style="stroke:#A80036;stroke-width:1.5;" width="125" x="225" y="917"/><ellipse cx="240" cy="933" fill="#B4A7E5" rx="11" ry="11" style="stroke:#A80036;stroke-width:1.0;"/><path d="M241.0156,930.1563 L242.6719,930.1563 C243.0625,930.1563 243.2656,930.125 243.4219,930.0469 C243.6875,929.875 243.8594,929.5781 243.8594,929.2813 C243.8594,929 243.7188,928.75 243.4844,928.5781 C243.2969,928.4531 243.1406,928.4063 242.6719,928.4063 L237.5313,928.4063 C237.0938,928.4063 236.9531,928.4219 236.7813,928.5313 C236.5156,928.7031 236.3438,928.9844 236.3438,929.2813 C236.3438,929.5625 236.4844,929.8438 236.7188,930 C236.9063,930.125 237.0938,930.1563 237.5313,930.1563 L239.1875,930.1563 L239.1875,936.25 L237.5313,936.25 C237.0938,936.25 236.9531,936.2656 236.7813,936.375 C236.5156,936.5313 236.3438,936.8281 236.3438,937.1094 C236.3438,937.7188 236.75,938 237.5313,938 L242.6719,938 C243.4531,938 243.8594,937.7188 243.8594,937.1094 C243.8594,936.8438 243.7188,936.5938 243.4844,936.4219 C243.2969,936.2813 243.125,936.25 242.6719,936.25 L241.0156,936.25 L241.0156,930.1563 Z " fill="#000000"/><text fill="#000000" font-family="sans-serif" font-size="12" font-style="italic" lengthAdjust="spacing" textLength="93" x="254" y="938.1">BarcodeInterface</text><line style="stroke:#A80036;stroke-width:1.5;" x1="226" x2="349" y1="949" y2="949"/><line style="stroke:#A80036;stroke-width:1.5;" x1="226" x2="349" y1="957" y2="957"/><!--MD5=[78d471d4be937896b47081b0d7aba860]
class ReflectorUtility--><rect codeLine="53" fill="#FEFECE" filter="url(#f1mindauo95dsp)" height="48" id="ReflectorUtility" style="stroke:#A80036;stroke-width:1.5;" width="111" x="99" y="792"/><ellipse cx="114" cy="808" fill="#ADD1B2" rx="11" ry="11" style="stroke:#A80036;stroke-width:1.0;"/><path d="M109,809.1563 C109,811.6563 111.1406,813.4688 114.0625,813.4688 C115.2969,813.4688 116.4688,813.1719 117.2188,812.6563 C117.8281,812.2344 118.1563,811.8125 118.1563,811.4063 C118.1563,810.9375 117.7344,810.5313 117.2344,810.5313 C117,810.5313 116.7813,810.6094 116.5781,810.8125 C116.1406,811.25 116.1406,811.25 115.9688,811.3438 C115.5156,811.5781 114.875,811.7188 114.1094,811.7188 C112.1094,811.7188 110.8281,810.7031 110.8281,809.125 L110.8281,808.0781 C110.8281,806.375 112.0469,805.1719 113.75,805.1719 C114.3281,805.1719 114.9063,805.3125 115.375,805.5625 C115.8438,805.8281 116.0156,806.0156 116.0781,806.375 C116.2031,807.0469 116.4531,807.2969 116.9844,807.2969 C117.2656,807.2969 117.5469,807.1563 117.7344,806.9375 C117.8594,806.7656 117.9063,806.5938 117.9063,806.1563 L117.9063,804.7969 C117.9063,804.375 117.8906,804.2344 117.7656,804.0625 C117.5938,803.8125 117.3125,803.6563 116.9844,803.6563 C116.6719,803.6563 116.4688,803.7656 116.25,804.0313 C115.0781,803.5313 114.6406,803.4219 113.6875,803.4219 C111.0156,803.4219 109,805.4375 109,808.0625 L109,809.1563 Z " fill="#000000"/><text fill="#000000" font-family="sans-serif" font-size="12" lengthAdjust="spacing" textLength="79" x="128" y="811.948">ReflectorUtility</text><line style="stroke:#A80036;stroke-width:1.5;" x1="100" x2="209" y1="824" y2="824"/><line style="stroke:#A80036;stroke-width:1.5;" x1="100" x2="209" y1="832" y2="832"/><!--MD5=[09699c8b762f7fa74b7dc251f2258f54]
class BarcodeAdapter--><rect codeLine="55" fill="#FEFECE" filter="url(#f1mindauo95dsp)" height="48" id="BarcodeAdapter" style="stroke:#A80036;stroke-width:1.5;" width="121" x="69" y="917"/><ellipse cx="84" cy="933" fill="#ADD1B2" rx="11" ry="11" style="stroke:#A80036;stroke-width:1.0;"/><path d="M79,934.1563 C79,936.6563 81.1406,938.4688 84.0625,938.4688 C85.2969,938.4688 86.4688,938.1719 87.2188,937.6563 C87.8281,937.2344 88.1563,936.8125 88.1563,936.4063 C88.1563,935.9375 87.7344,935.5313 87.2344,935.5313 C87,935.5313 86.7813,935.6094 86.5781,935.8125 C86.1406,936.25 86.1406,936.25 85.9688,936.3438 C85.5156,936.5781 84.875,936.7188 84.1094,936.7188 C82.1094,936.7188 80.8281,935.7031 80.8281,934.125 L80.8281,933.0781 C80.8281,931.375 82.0469,930.1719 83.75,930.1719 C84.3281,930.1719 84.9063,930.3125 85.375,930.5625 C85.8438,930.8281 86.0156,931.0156 86.0781,931.375 C86.2031,932.0469 86.4531,932.2969 86.9844,932.2969 C87.2656,932.2969 87.5469,932.1563 87.7344,931.9375 C87.8594,931.7656 87.9063,931.5938 87.9063,931.1563 L87.9063,929.7969 C87.9063,929.375 87.8906,929.2344 87.7656,929.0625 C87.5938,928.8125 87.3125,928.6563 86.9844,928.6563 C86.6719,928.6563 86.4688,928.7656 86.25,929.0313 C85.0781,928.5313 84.6406,928.4219 83.6875,928.4219 C81.0156,928.4219 79,930.4375 79,933.0625 L79,934.1563 Z " fill="#000000"/><text fill="#000000" font-family="sans-serif" font-size="12" lengthAdjust="spacing" textLength="89" x="98" y="936.948">BarcodeAdapter</text><line style="stroke:#A80036;stroke-width:1.5;" x1="70" x2="189" y1="949" y2="949"/><line style="stroke:#A80036;stroke-width:1.5;" x1="70" x2="189" y1="957" y2="957"/><!--MD5=[cb39fcb634a9bd76468eff3a82f2ba7e]
link RecordSamplesController to Company--><path codeLine="18" d="M137.5,230.15 C137.5,249.98 137.5,273.19 137.5,291.92 " fill="none" id="RecordSamplesController-to-Company" style="stroke:#A80036;stroke-width:1.0;stroke-dasharray:7.0,7.0;"/><polygon fill="#A80036" points="137.5,297.08,141.5,288.08,137.5,292.08,133.5,288.08,137.5,297.08" style="stroke:#A80036;stroke-width:1.0;"/><!--MD5=[f5d49bc286cb050af674ca41a5ab89fd]
link RecordSamplesController to TestDTO--><path codeLine="33" d="M189.89,230.15 C212.12,248.45 237.85,269.64 259.57,287.53 " fill="none" id="RecordSamplesController-to-TestDTO" style="stroke:#A80036;stroke-width:1.0;stroke-dasharray:7.0,7.0;"/><polygon fill="#A80036" points="263.57,290.83,259.178,282.0146,259.7149,287.646,254.0836,288.1828,263.57,290.83" style="stroke:#A80036;stroke-width:1.0;"/><!--MD5=[a9565a26be75bb91c3dca69884270139]
link RecordSamplesUI to TestDTO--><path codeLine="34" d="M255.04,81.1 C266.22,98.67 278.38,120.6 285.5,142 C301.37,189.73 306.08,247.74 307.33,285.93 " fill="none" id="RecordSamplesUI-to-TestDTO" style="stroke:#A80036;stroke-width:1.0;stroke-dasharray:7.0,7.0;"/><polygon fill="#A80036" points="307.48,290.95,311.1953,281.8288,307.3229,285.9525,303.1993,282.0801,307.48,290.95" style="stroke:#A80036;stroke-width:1.0;"/><!--MD5=[be3b39c7463182027323f9c0e531e936]
link TestDTO to Test--><path codeLine="35" d="M284,365.34 C272.81,382.64 259.39,403.4 247.86,421.23 " fill="none" id="TestDTO-to-Test" style="stroke:#A80036;stroke-width:1.0;stroke-dasharray:7.0,7.0;"/><polygon fill="#A80036" points="244.97,425.7,253.2145,420.3122,247.6839,421.5006,246.4955,415.97,244.97,425.7" style="stroke:#A80036;stroke-width:1.0;"/><!--MD5=[7e4bc624457760b649895ff2ead938fa]
link Company to Test--><path codeLine="37" d="M156.14,358.52 C167.87,377.09 183.17,401.31 196.02,421.65 " fill="none" id="Company-to-Test" style="stroke:#A80036;stroke-width:1.0;"/><polygon fill="#A80036" points="198.72,425.93,197.2948,416.1848,196.0495,421.7029,190.5314,420.4576,198.72,425.93" style="stroke:#A80036;stroke-width:1.0;"/><text fill="#000000" font-family="sans-serif" font-size="13" lengthAdjust="spacing" textLength="7" x="152.4519" y="378.9576">1</text><text fill="#000000" font-family="sans-serif" font-size="13" lengthAdjust="spacing" textLength="5" x="188.901" y="414.5299">*</text><!--MD5=[b72ac8ab7fb5921fceb5036a3902baea]
link Test to Sample--><path codeLine="43" d="M221.5,500 C221.5,517.9 221.5,539.2 221.5,555.87 " fill="none" id="Test-to-Sample" style="stroke:#A80036;stroke-width:1.0;"/><polygon fill="#A80036" points="221.5,560.89,225.5,551.89,221.5,555.89,217.5,551.89,221.5,560.89" style="stroke:#A80036;stroke-width:1.0;"/><text fill="#000000" font-family="sans-serif" font-size="13" lengthAdjust="spacing" textLength="7" x="213.8328" y="520.5789">1</text><text fill="#000000" font-family="sans-serif" font-size="13" lengthAdjust="spacing" textLength="5" x="215.8281" y="549.5524">*</text><!--MD5=[327391d6abe62f0446af3ffbf41cf7ec]
link Sample to Barcode--><path codeLine="49" d="M221.5,609.24 C221.5,625.11 221.5,646.43 221.5,664.36 " fill="none" id="Sample-to-Barcode" style="stroke:#A80036;stroke-width:1.0;"/><polygon fill="#A80036" points="221.5,669.81,225.5,660.81,221.5,664.81,217.5,660.81,221.5,669.81" style="stroke:#A80036;stroke-width:1.0;"/><text fill="#000000" font-family="sans-serif" font-size="13" lengthAdjust="spacing" textLength="7" x="213.6469" y="629.1268">1</text><text fill="#000000" font-family="sans-serif" font-size="13" lengthAdjust="spacing" textLength="7" x="213.7344" y="658.5767">1</text><!--MD5=[fcbbdd4b367e471c089a84eb4eb6802f]
link BarcodeAdapter to BarcodeInterface--><path codeLine="57" d="M190.29,941 C195.06,941 199.83,941 204.6,941 " fill="none" id="BarcodeAdapter-to-BarcodeInterface" style="stroke:#A80036;stroke-width:1.0;"/><polygon fill="none" points="204.85,934,224.85,941,204.85,948,204.85,934" style="stroke:#A80036;stroke-width:1.0;"/><!--MD5=[973bc8e57364514e102f8ec314de6c00]
link ReflectorUtility to BarcodeAdapter--><path codeLine="59" d="M138.52,840.21 C133.29,849.12 128.15,859.63 125.5,870 C122.04,883.53 122.49,899 124.03,911.95 " fill="none" id="ReflectorUtility-to-BarcodeAdapter" style="stroke:#A80036;stroke-width:1.0;stroke-dasharray:7.0,7.0;"/><polygon fill="#A80036" points="124.7,916.96,127.4558,907.5046,124.0289,912.0052,119.5282,908.5783,124.7,916.96" style="stroke:#A80036;stroke-width:1.0;"/><text fill="#000000" font-family="sans-serif" font-size="13" lengthAdjust="spacing" textLength="135" x="126.5" y="883.077">creates using reflection</text><!--MD5=[2b8f4f220c107d5b0c7e594325c75009]
link RecordSamplesUI to RecordSamplesController--><path codeLine="61" d="M205.81,81.05 C194.57,98.16 180.98,118.83 168.9,137.22 " fill="none" id="RecordSamplesUI-to-RecordSamplesController" style="stroke:#A80036;stroke-width:1.0;stroke-dasharray:7.0,7.0;"/><polygon fill="#A80036" points="165.86,141.84,174.1469,136.5176,168.607,137.6622,167.4624,132.1224,165.86,141.84" style="stroke:#A80036;stroke-width:1.0;"/><!--MD5=[9abb9859b6999436f11a52c62fd996bc]
link Barcode to BarcodeInterface--><path codeLine="63" d="M229.73,731.22 C242.54,777.52 267.08,866.22 279.66,911.66 " fill="none" id="Barcode-to-BarcodeInterface" style="stroke:#A80036;stroke-width:1.0;"/><polygon fill="#A80036" points="281.06,916.71,282.5023,906.9673,279.7203,911.8928,274.7948,909.1108,281.06,916.71" style="stroke:#A80036;stroke-width:1.0;"/><!--MD5=[7e3a6b87e3be8f0acda0121d5f10c9b0]
link Barcode to ReflectorUtility--><path codeLine="65" d="M204.07,731.02 C193.86,748.32 181.05,770.03 171.01,787.04 " fill="none" id="Barcode-to-ReflectorUtility" style="stroke:#A80036;stroke-width:1.0;stroke-dasharray:7.0,7.0;"/><polygon fill="#A80036" points="168.25,791.71,176.2742,785.9993,170.7951,787.4062,169.3881,781.9271,168.25,791.71" style="stroke:#A80036;stroke-width:1.0;"/><!--MD5=[9713a2dc9c4b87bff26b773f51397afc]
@startuml
class RecordSamplesUI {
 -show(freeTestsDTO)
 -show(samplesDTO)
}

class RecordSamplesController {
  +List<Test> freeTests
  +List<TestDTO> freeTestsDTO
  +generateSamples(int testIndex, int numSamples)
}



class Company {
  +List<Test> getTests()
}

RecordSamplesController ..> Company

class Test {
-LocalDate sampleDate
-LocalTime sampleTime

}


class TestDTO {
-LocalDate sampleDate
-LocalTime sampleTime

}

RecordSamplesController ..> TestDTO
RecordSamplesUI ..> TestDTO
TestDTO ..> Test

Company "1" - -> "*" Test

class Sample {

}

Test "1" - -> "*" Sample

class Barcode {
 -generateBarcode(code)
}

Sample "1" - -> "1" Barcode

interface BarcodeInterface

class ReflectorUtility

class BarcodeAdapter

BarcodeAdapter -|> BarcodeInterface

ReflectorUtility ..> BarcodeAdapter : creates using reflection

RecordSamplesUI ..> RecordSamplesController

Barcode - -> BarcodeInterface

Barcode ..> ReflectorUtility

@enduml

PlantUML version 1.2021.5(Sun Apr 25 12:20:28 WEST 2021)
(GPL source distribution)
Java Runtime: OpenJDK Runtime Environment
JVM: OpenJDK 64-Bit Server VM
Default Encoding: ANSI_X3.4-1968
Language: en
Country: US
--></g></svg>