<?xml version="1.0" encoding="UTF-8" standalone="no"?><svg xmlns="http://www.w3.org/2000/svg" xmlns:xlink="http://www.w3.org/1999/xlink" contentScriptType="application/ecmascript" contentStyleType="text/css" height="371px" preserveAspectRatio="none" style="width:453px;height:371px;" version="1.1" viewBox="0 0 453 371" width="453px" zoomAndPan="magnify"><defs><filter height="300%" id="fj018qda8sspj" width="300%" x="-1" y="-1"><feGaussianBlur result="blurOut" stdDeviation="2.0"/><feColorMatrix in="blurOut" result="blurOut2" type="matrix" values="0 0 0 0 0 0 0 0 0 0 0 0 0 0 0 0 0 0 .4 0"/><feOffset dx="4.0" dy="4.0" in="blurOut2" result="blurOut3"/><feBlend in="SourceGraphic" in2="blurOut3" mode="normal"/></filter></defs><g><rect fill="#FFFFFF" filter="url(#fj018qda8sspj)" height="178.6001" style="stroke:#A80036;stroke-width:1.0;" width="10" x="74" y="98.7999"/><rect fill="#FFFFFF" filter="url(#fj018qda8sspj)" height="29.6" style="stroke:#A80036;stroke-width:1.0;" width="10" x="406" y="120.3999"/><rect fill="#FFFFFF" filter="url(#fj018qda8sspj)" height="29.6" style="stroke:#A80036;stroke-width:1.0;" width="10" x="406" y="179.6"/><rect fill="#FFFFFF" filter="url(#fj018qda8sspj)" height="29.6" style="stroke:#A80036;stroke-width:1.0;" width="10" x="406" y="238.8"/><line style="stroke:#A80036;stroke-width:1.0;stroke-dasharray:5.0,5.0;" x1="79" x2="79" y1="88.7999" y2="286.4"/><line style="stroke:#A80036;stroke-width:1.0;stroke-dasharray:5.0,5.0;" x1="410.5" x2="410.5" y1="88.7999" y2="286.4"/><text fill="#000000" font-family="sans-serif" font-size="14" lengthAdjust="spacingAndGlyphs" textLength="142" x="5" y="85.0059">MedicalLabTechnician</text><ellipse cx="79" cy="15" fill="#FEFECE" filter="url(#fj018qda8sspj)" rx="8" ry="8" style="stroke:#A80036;stroke-width:2.0;"/><path d="M79,23 L79,50 M66,31 L92,31 M79,50 L66,65 M79,50 L92,65 " fill="none" filter="url(#fj018qda8sspj)" style="stroke:#A80036;stroke-width:2.0;"/><text fill="#000000" font-family="sans-serif" font-size="14" lengthAdjust="spacingAndGlyphs" textLength="142" x="5" y="298.406">MedicalLabTechnician</text><ellipse cx="79" cy="312.1999" fill="#FEFECE" filter="url(#fj018qda8sspj)" rx="8" ry="8" style="stroke:#A80036;stroke-width:2.0;"/><path d="M79,320.1999 L79,347.1999 M66,328.1999 L92,328.1999 M79,347.1999 L66,362.1999 M79,347.1999 L92,362.1999 " fill="none" filter="url(#fj018qda8sspj)" style="stroke:#A80036;stroke-width:2.0;"/><rect fill="#FEFECE" filter="url(#fj018qda8sspj)" height="30.7999" style="stroke:#A80036;stroke-width:1.5;" width="61" x="378.5" y="53"/><text fill="#000000" font-family="sans-serif" font-size="14" lengthAdjust="spacingAndGlyphs" textLength="47" x="385.5" y="73.0059">System</text><rect fill="#FEFECE" filter="url(#fj018qda8sspj)" height="30.7999" style="stroke:#A80036;stroke-width:1.5;" width="61" x="378.5" y="285.4"/><text fill="#000000" font-family="sans-serif" font-size="14" lengthAdjust="spacingAndGlyphs" textLength="47" x="385.5" y="305.406">System</text><rect fill="#FFFFFF" filter="url(#fj018qda8sspj)" height="178.6001" style="stroke:#A80036;stroke-width:1.0;" width="10" x="74" y="98.7999"/><rect fill="#FFFFFF" filter="url(#fj018qda8sspj)" height="29.6" style="stroke:#A80036;stroke-width:1.0;" width="10" x="406" y="120.3999"/><rect fill="#FFFFFF" filter="url(#fj018qda8sspj)" height="29.6" style="stroke:#A80036;stroke-width:1.0;" width="10" x="406" y="179.6"/><rect fill="#FFFFFF" filter="url(#fj018qda8sspj)" height="29.6" style="stroke:#A80036;stroke-width:1.0;" width="10" x="406" y="238.8"/><polygon fill="#A80036" points="394,116.3999,404,120.3999,394,124.3999,398,120.3999" style="stroke:#A80036;stroke-width:1.0;"/><line style="stroke:#A80036;stroke-width:1.0;" x1="84" x2="400" y1="120.3999" y2="120.3999"/><text fill="#000000" font-family="sans-serif" font-size="13" font-weight="bold" lengthAdjust="spacingAndGlyphs" textLength="7" x="91" y="114.8769">1</text><text fill="#000000" font-family="sans-serif" font-size="13" lengthAdjust="spacingAndGlyphs" textLength="179" x="102" y="114.8769">initiates the record of a sample</text><polygon fill="#A80036" points="95,146,85,150,95,154,91,150" style="stroke:#A80036;stroke-width:1.0;"/><line style="stroke:#A80036;stroke-width:1.0;" x1="89" x2="410" y1="150" y2="150"/><text fill="#000000" font-family="sans-serif" font-size="13" font-weight="bold" lengthAdjust="spacingAndGlyphs" textLength="7" x="101" y="144.477">2</text><text fill="#000000" font-family="sans-serif" font-size="13" lengthAdjust="spacingAndGlyphs" textLength="287" x="112" y="144.477">requests the data required (testID, barCode, type)</text><polygon fill="#A80036" points="394,175.6,404,179.6,394,183.6,398,179.6" style="stroke:#A80036;stroke-width:1.0;"/><line style="stroke:#A80036;stroke-width:1.0;" x1="84" x2="400" y1="179.6" y2="179.6"/><text fill="#000000" font-family="sans-serif" font-size="13" font-weight="bold" lengthAdjust="spacingAndGlyphs" textLength="7" x="91" y="174.077">3</text><text fill="#000000" font-family="sans-serif" font-size="13" lengthAdjust="spacingAndGlyphs" textLength="151" x="102" y="174.077">inserts the requested data</text><polygon fill="#A80036" points="95,205.2,85,209.2,95,213.2,91,209.2" style="stroke:#A80036;stroke-width:1.0;"/><line style="stroke:#A80036;stroke-width:1.0;" x1="89" x2="410" y1="209.2" y2="209.2"/><text fill="#000000" font-family="sans-serif" font-size="13" font-weight="bold" lengthAdjust="spacingAndGlyphs" textLength="7" x="101" y="203.677">4</text><text fill="#000000" font-family="sans-serif" font-size="13" lengthAdjust="spacingAndGlyphs" textLength="253" x="112" y="203.677">shows the data and requests a confirmation</text><polygon fill="#A80036" points="394,234.8,404,238.8,394,242.8,398,238.8" style="stroke:#A80036;stroke-width:1.0;"/><line style="stroke:#A80036;stroke-width:1.0;" x1="84" x2="400" y1="238.8" y2="238.8"/><text fill="#000000" font-family="sans-serif" font-size="13" font-weight="bold" lengthAdjust="spacingAndGlyphs" textLength="7" x="91" y="233.277">5</text><text fill="#000000" font-family="sans-serif" font-size="13" lengthAdjust="spacingAndGlyphs" textLength="101" x="102" y="233.277">confirms the data</text><polygon fill="#A80036" points="95,264.4,85,268.4,95,272.4,91,268.4" style="stroke:#A80036;stroke-width:1.0;"/><line style="stroke:#A80036;stroke-width:1.0;" x1="89" x2="410" y1="268.4" y2="268.4"/><text fill="#000000" font-family="sans-serif" font-size="13" font-weight="bold" lengthAdjust="spacingAndGlyphs" textLength="7" x="101" y="262.877">6</text><text fill="#000000" font-family="sans-serif" font-size="13" lengthAdjust="spacingAndGlyphs" textLength="153" x="112" y="262.877">informs operation success</text><!--MD5=[c4bfaec3d307f9057f80df64f5eba4a3]
@startuml
autonumber

actor "MedicalLabTechnician" as MLT
participant "System" as SYS

activate MLT


MLT -> SYS : initiates the record of a sample
activate SYS

SYS -> MLT : requests the data required (testID, barCode, type)
deactivate SYS

MLT -> SYS : inserts the requested data
activate SYS

SYS -> MLT : shows the data and requests a confirmation
deactivate SYS

MLT -> SYS : confirms the data
activate SYS
SYS -> MLT : informs operation success

deactivate SYS

@enduml

PlantUML version 1.2020.26(Mon Dec 21 17:45:07 WET 2020)
(GPL source distribution)
Java Runtime: OpenJDK Runtime Environment
JVM: OpenJDK 64-Bit Server VM
Default Encoding: ANSI_X3.4-1968
Language: en
Country: US
--></g></svg>