<?xml version="1.0" encoding="UTF-8" standalone="no"?><svg xmlns="http://www.w3.org/2000/svg" xmlns:xlink="http://www.w3.org/1999/xlink" contentScriptType="application/ecmascript" contentStyleType="text/css" height="419px" preserveAspectRatio="none" style="width:273px;height:419px;" version="1.1" viewBox="0 0 273 419" width="273px" zoomAndPan="magnify"><defs><filter height="300%" id="f1nzrmsyp06jya" width="300%" x="-1" y="-1"><feGaussianBlur result="blurOut" stdDeviation="2.0"/><feColorMatrix in="blurOut" result="blurOut2" type="matrix" values="0 0 0 0 0 0 0 0 0 0 0 0 0 0 0 0 0 0 .4 0"/><feOffset dx="4.0" dy="4.0" in="blurOut2" result="blurOut3"/><feBlend in="SourceGraphic" in2="blurOut3" mode="normal"/></filter></defs><g><!--MD5=[9ef9c9606c83dc111e7571bed1bb09a3]
cluster BarCodeAPI--><polygon fill="#DDDDDD" filter="url(#f1nzrmsyp06jya)" points="89,6.294,177,6.294,184,29.0939,221,29.0939,221,105.294,89,105.294,89,6.294" style="stroke:#000000;stroke-width:1.5;"/><line style="stroke:#000000;stroke-width:1.5;" x1="89" x2="184" y1="29.0939" y2="29.0939"/><text fill="#000000" font-family="sans-serif" font-size="14" font-weight="bold" lengthAdjust="spacingAndGlyphs" textLength="82" x="93" y="21.2999">BarCodeAPI</text><!--MD5=[9d174528ebd498af808f6357775d0285]
class BarCodeAPI--><rect fill="#FEFECE" filter="url(#f1nzrmsyp06jya)" height="48" id="BarCodeAPI" style="stroke:#A80036;stroke-width:1.5;" width="100" x="105" y="41.294"/><ellipse cx="120" cy="57.294" fill="#ADD1B2" rx="11" ry="11" style="stroke:#A80036;stroke-width:1.0;"/><path d="M115,58.4502 C115,60.9502 117.1406,62.7627 120.0625,62.7627 C121.2969,62.7627 122.4688,62.4659 123.2188,61.9502 C123.8281,61.5284 124.1563,61.1065 124.1563,60.7002 C124.1563,60.2315 123.7344,59.8252 123.2344,59.8252 C123,59.8252 122.7813,59.9034 122.5781,60.1065 C122.1406,60.544 122.1406,60.544 121.9688,60.6377 C121.5156,60.8721 120.875,61.0127 120.1094,61.0127 C118.1094,61.0127 116.8281,59.9971 116.8281,58.419 L116.8281,57.3721 C116.8281,55.669 118.0469,54.4659 119.75,54.4659 C120.3281,54.4659 120.9063,54.6065 121.375,54.8565 C121.8438,55.1221 122.0156,55.3096 122.0781,55.669 C122.2031,56.3409 122.4531,56.5909 122.9844,56.5909 C123.2656,56.5909 123.5469,56.4502 123.7344,56.2315 C123.8594,56.0596 123.9063,55.8877 123.9063,55.4502 L123.9063,54.0909 C123.9063,53.669 123.8906,53.5284 123.7656,53.3565 C123.5938,53.1065 123.3125,52.9502 122.9844,52.9502 C122.6719,52.9502 122.4688,53.0596 122.25,53.3252 C121.0781,52.8252 120.6406,52.7159 119.6875,52.7159 C117.0156,52.7159 115,54.7315 115,57.3565 L115,58.4502 Z " fill="#000000"/><text fill="#000000" font-family="sans-serif" font-size="12" lengthAdjust="spacingAndGlyphs" textLength="68" x="134" y="61.242">BarCodeAPI</text><line style="stroke:#A80036;stroke-width:1.5;" x1="106" x2="204" y1="73.294" y2="73.294"/><line style="stroke:#A80036;stroke-width:1.5;" x1="106" x2="204" y1="81.294" y2="81.294"/><rect fill="#FEFECE" filter="url(#f1nzrmsyp06jya)" height="50.4001" style="stroke:#A80036;stroke-width:1.5;" width="80" x="7" y="168.294"/><text fill="#000000" font-family="sans-serif" font-size="12" lengthAdjust="spacingAndGlyphs" textLength="53" x="20.5" y="181.4421">Company</text><line style="stroke:#A80036;stroke-width:1.5;" x1="8" x2="86" y1="186.6941" y2="186.6941"/><rect fill="none" height="6" style="stroke:#C82930;stroke-width:1.0;" width="6" x="15" y="194.6941"/><text fill="#000000" font-family="sans-serif" font-size="10" lengthAdjust="spacingAndGlyphs" textLength="54" x="27" y="199.9841">designation</text><rect fill="none" height="6" style="stroke:#C82930;stroke-width:1.0;" width="6" x="15" y="206.6941"/><text fill="#000000" font-family="sans-serif" font-size="10" lengthAdjust="spacingAndGlyphs" textLength="37" x="27" y="211.9841">address</text><rect fill="#FEFECE" filter="url(#f1nzrmsyp06jya)" height="38.4001" style="stroke:#A80036;stroke-width:1.5;" width="66" x="122" y="174.294"/><text fill="#000000" font-family="sans-serif" font-size="12" lengthAdjust="spacingAndGlyphs" textLength="42" x="134" y="187.4421">Sample</text><line style="stroke:#A80036;stroke-width:1.5;" x1="123" x2="187" y1="192.6941" y2="192.6941"/><rect fill="none" height="6" style="stroke:#C82930;stroke-width:1.0;" width="6" x="130" y="200.6941"/><text fill="#000000" font-family="sans-serif" font-size="10" lengthAdjust="spacingAndGlyphs" textLength="40" x="142" y="205.9841">barCode</text><rect fill="#FEFECE" filter="url(#f1nzrmsyp06jya)" height="110.4" style="stroke:#A80036;stroke-width:1.5;" width="93" x="46.5" y="295.294"/><text fill="#000000" font-family="sans-serif" font-size="12" lengthAdjust="spacingAndGlyphs" textLength="23" x="81.5" y="308.4421">Test</text><line style="stroke:#A80036;stroke-width:1.5;" x1="47.5" x2="138.5" y1="313.6941" y2="313.6941"/><rect fill="none" height="6" style="stroke:#C82930;stroke-width:1.0;" width="6" x="54.5" y="321.6941"/><text fill="#000000" font-family="sans-serif" font-size="10" lengthAdjust="spacingAndGlyphs" textLength="27" x="66.5" y="326.9841">testID</text><rect fill="none" height="6" style="stroke:#C82930;stroke-width:1.0;" width="6" x="54.5" y="333.6941"/><text fill="#000000" font-family="sans-serif" font-size="10" lengthAdjust="spacingAndGlyphs" textLength="40" x="66.5" y="338.9841">nhscode</text><rect fill="none" height="6" style="stroke:#C82930;stroke-width:1.0;" width="6" x="54.5" y="345.6941"/><text fill="#000000" font-family="sans-serif" font-size="10" lengthAdjust="spacingAndGlyphs" textLength="50" x="66.5" y="350.9841">description</text><rect fill="none" height="6" style="stroke:#C82930;stroke-width:1.0;" width="6" x="54.5" y="357.694"/><text fill="#000000" font-family="sans-serif" font-size="10" lengthAdjust="spacingAndGlyphs" textLength="66" x="66.5" y="362.984">dateDiagnosis</text><rect fill="none" height="6" style="stroke:#C82930;stroke-width:1.0;" width="6" x="54.5" y="369.694"/><text fill="#000000" font-family="sans-serif" font-size="10" lengthAdjust="spacingAndGlyphs" textLength="64" x="66.5" y="374.984">timeDiagnosis</text><rect fill="none" height="6" style="stroke:#C82930;stroke-width:1.0;" width="6" x="54.5" y="381.694"/><text fill="#000000" font-family="sans-serif" font-size="10" lengthAdjust="spacingAndGlyphs" textLength="67" x="66.5" y="386.984">dateValidation</text><rect fill="none" height="6" style="stroke:#C82930;stroke-width:1.0;" width="6" x="54.5" y="393.694"/><text fill="#000000" font-family="sans-serif" font-size="10" lengthAdjust="spacingAndGlyphs" textLength="65" x="66.5" y="398.984">timeValidation</text><!--MD5=[7e4bc624457760b649895ff2ead938fa]
link Company to Test--><path codeLine="25" d="M45.95,218.344 C45.94,232.274 46.94,250.024 51,265.294 C53.64,275.224 57.52,285.344 61.88,294.974 " fill="none" id="Company-Test" style="stroke:#A80036;stroke-width:1.0;"/><text fill="#000000" font-family="sans-serif" font-size="13" lengthAdjust="spacingAndGlyphs" textLength="51" x="52" y="261.371">performs</text><text fill="#000000" font-family="sans-serif" font-size="13" lengthAdjust="spacingAndGlyphs" textLength="7" x="37.7841" y="238.7875">1</text><text fill="#000000" font-family="sans-serif" font-size="13" lengthAdjust="spacingAndGlyphs" textLength="5" x="52.3623" y="283.623">*</text><!--MD5=[1ae83efc6d1967ce5bc17dfe294d00c2]
link Sample to Test--><path codeLine="27" d="M147.77,212.374 C139.68,232.584 126.22,266.254 114.66,295.144 " fill="none" id="Sample-Test" style="stroke:#A80036;stroke-width:1.0;"/><text fill="#000000" font-family="sans-serif" font-size="13" lengthAdjust="spacingAndGlyphs" textLength="67" x="135" y="261.371">is based on</text><text fill="#000000" font-family="sans-serif" font-size="13" lengthAdjust="spacingAndGlyphs" textLength="5" x="139.7902" y="232.6217">*</text><text fill="#000000" font-family="sans-serif" font-size="13" lengthAdjust="spacingAndGlyphs" textLength="7" x="110.1003" y="283.8158">1</text><!--MD5=[526c8970af1cae9b904b18ba951c8bf5]
link BarCodeAPI to Sample--><path codeLine="30" d="M155,89.404 C155,113.844 155,151.884 155,174.224 " fill="none" id="BarCodeAPI-Sample" style="stroke:#A80036;stroke-width:1.0;"/><text fill="#000000" font-family="sans-serif" font-size="13" lengthAdjust="spacingAndGlyphs" textLength="109" x="156" y="134.371">generates barCode</text><text fill="#000000" font-family="sans-serif" font-size="13" lengthAdjust="spacingAndGlyphs" textLength="7" x="147.1469" y="109.2591">1</text><text fill="#000000" font-family="sans-serif" font-size="13" lengthAdjust="spacingAndGlyphs" textLength="5" x="149.2031" y="162.8637">*</text><!--MD5=[8c16f123f8c76b169e68d1ee4bacc5ef]
@startuml

object Company{
-designation
-address
}

object Sample{
-barCode
}

object Test{
-testID
-nhscode
-description
-dateDiagnosis
-timeDiagnosis
-dateValidation
-timeValidation
}

object BarCodeAPI{
}


Company "1" - - "*" Test : performs

Sample "*" - - "1" Test : is based on

package "BarCodeAPI" #DDDDDD{
	BarCodeAPI "1" - - "*" Sample : generates barCode
}


@enduml

PlantUML version 1.2020.23(Sun Dec 13 19:14:58 WET 2020)
(GPL source distribution)
Java Runtime: OpenJDK Runtime Environment
JVM: OpenJDK 64-Bit Server VM
Default Encoding: ANSI_X3.4-1968
Language: en
Country: US
--></g></svg>