<?xml version="1.0" encoding="UTF-8" standalone="no"?><svg xmlns="http://www.w3.org/2000/svg" xmlns:xlink="http://www.w3.org/1999/xlink" contentScriptType="application/ecmascript" contentStyleType="text/css" height="936px" preserveAspectRatio="none" style="width:1827px;height:936px;" version="1.1" viewBox="0 0 1827 936" width="1827px" zoomAndPan="magnify"><defs><filter height="300%" id="f1wimm1dvm8q8r" width="300%" x="-1" y="-1"><feGaussianBlur result="blurOut" stdDeviation="2.0"/><feColorMatrix in="blurOut" result="blurOut2" type="matrix" values="0 0 0 0 0 0 0 0 0 0 0 0 0 0 0 0 0 0 .4 0"/><feOffset dx="4.0" dy="4.0" in="blurOut2" result="blurOut3"/><feBlend in="SourceGraphic" in2="blurOut3" mode="normal"/></filter></defs><g><rect fill="#FFFFFF" filter="url(#f1wimm1dvm8q8r)" height="744.1998" style="stroke:#A80036;stroke-width:1.0;" width="10" x="74" y="98.7999"/><rect fill="#FFFFFF" filter="url(#f1wimm1dvm8q8r)" height="265.5999" style="stroke:#A80036;stroke-width:1.0;" width="10" x="411" y="120.3999"/><rect fill="#FFFFFF" filter="url(#f1wimm1dvm8q8r)" height="418.3998" style="stroke:#A80036;stroke-width:1.0;" width="10" x="411" y="415.5999"/><rect fill="#FFFFFF" filter="url(#f1wimm1dvm8q8r)" height="682.9997" style="stroke:#A80036;stroke-width:1.0;" width="10" x="746" y="160"/><rect fill="#FFFFFF" filter="url(#f1wimm1dvm8q8r)" height="593.3999" style="stroke:#A80036;stroke-width:1.0;" width="10" x="1095" y="249.5998"/><rect fill="#FFFFFF" filter="url(#f1wimm1dvm8q8r)" height="744.1998" style="stroke:#A80036;stroke-width:1.0;" width="10" x="1199" y="98.7999"/><rect fill="#FFFFFF" filter="url(#f1wimm1dvm8q8r)" height="358.1998" style="stroke:#A80036;stroke-width:1.0;" width="10" x="1286.5" y="484.7999"/><rect fill="#FFFFFF" filter="url(#f1wimm1dvm8q8r)" height="287.7998" style="stroke:#A80036;stroke-width:1.0;" width="10" x="1454.5" y="555.1998"/><rect fill="#FFFFFF" filter="url(#f1wimm1dvm8q8r)" height="160.4001" style="stroke:#A80036;stroke-width:1.0;" width="10" x="1573" y="682.5996"/><rect fill="#FFFFFF" filter="url(#f1wimm1dvm8q8r)" height="196.2" style="stroke:#A80036;stroke-width:1.0;" width="10" x="1735" y="646.7997"/><rect fill="#FFFFFF" filter="url(#f1wimm1dvm8q8r)" height="227.1998" style="stroke:#000000;stroke-width:2.0;" width="674" x="1139.5" y="505.9998"/><line style="stroke:#A80036;stroke-width:1.0;stroke-dasharray:5.0,5.0;" x1="79" x2="79" y1="88.7999" y2="851.9997"/><line style="stroke:#A80036;stroke-width:1.0;stroke-dasharray:5.0,5.0;" x1="415.5" x2="415.5" y1="88.7999" y2="851.9997"/><line style="stroke:#A80036;stroke-width:1.0;stroke-dasharray:5.0,5.0;" x1="750.5" x2="750.5" y1="161.2999" y2="851.9997"/><line style="stroke:#A80036;stroke-width:1.0;stroke-dasharray:5.0,5.0;" x1="1099.5" x2="1099.5" y1="207.0998" y2="851.9997"/><line style="stroke:#A80036;stroke-width:1.0;stroke-dasharray:5.0,5.0;" x1="1203.5" x2="1203.5" y1="88.7999" y2="851.9997"/><line style="stroke:#A80036;stroke-width:1.0;stroke-dasharray:5.0,5.0;" x1="1291.5" x2="1291.5" y1="486.0999" y2="851.9997"/><line style="stroke:#A80036;stroke-width:1.0;stroke-dasharray:5.0,5.0;" x1="1459.5" x2="1459.5" y1="556.4998" y2="851.9997"/><line style="stroke:#A80036;stroke-width:1.0;stroke-dasharray:5.0,5.0;" x1="1577.5" x2="1577.5" y1="602.2997" y2="851.9997"/><line style="stroke:#A80036;stroke-width:1.0;stroke-dasharray:5.0,5.0;" x1="1739.5" x2="1739.5" y1="648.0996" y2="851.9997"/><text fill="#000000" font-family="sans-serif" font-size="14" lengthAdjust="spacingAndGlyphs" textLength="142" x="5" y="85.0059">MedicalLabTechnician</text><ellipse cx="79" cy="15" fill="#FEFECE" filter="url(#f1wimm1dvm8q8r)" rx="8" ry="8" style="stroke:#A80036;stroke-width:2.0;"/><path d="M79,23 L79,50 M66,31 L92,31 M79,50 L66,65 M79,50 L92,65 " fill="none" filter="url(#f1wimm1dvm8q8r)" style="stroke:#A80036;stroke-width:2.0;"/><text fill="#000000" font-family="sans-serif" font-size="14" lengthAdjust="spacingAndGlyphs" textLength="142" x="5" y="864.0056">MedicalLabTechnician</text><ellipse cx="79" cy="877.7996" fill="#FEFECE" filter="url(#f1wimm1dvm8q8r)" rx="8" ry="8" style="stroke:#A80036;stroke-width:2.0;"/><path d="M79,885.7996 L79,912.7996 M66,893.7996 L92,893.7996 M79,912.7996 L66,927.7996 M79,912.7996 L92,927.7996 " fill="none" filter="url(#f1wimm1dvm8q8r)" style="stroke:#A80036;stroke-width:2.0;"/><rect fill="#FEFECE" filter="url(#f1wimm1dvm8q8r)" height="30.7999" style="stroke:#A80036;stroke-width:1.5;" width="129" x="349.5" y="53"/><text fill="#000000" font-family="sans-serif" font-size="14" lengthAdjust="spacingAndGlyphs" textLength="115" x="356.5" y="73.0059">RecordSamplesUI</text><rect fill="#FEFECE" filter="url(#f1wimm1dvm8q8r)" height="30.7999" style="stroke:#A80036;stroke-width:1.5;" width="129" x="349.5" y="850.9997"/><text fill="#000000" font-family="sans-serif" font-size="14" lengthAdjust="spacingAndGlyphs" textLength="115" x="356.5" y="871.0056">RecordSamplesUI</text><rect fill="#FEFECE" filter="url(#f1wimm1dvm8q8r)" height="30.7999" style="stroke:#A80036;stroke-width:1.5;" width="177" x="660.5" y="850.9997"/><text fill="#000000" font-family="sans-serif" font-size="14" lengthAdjust="spacingAndGlyphs" textLength="163" x="667.5" y="871.0056">RecordSamplesController</text><rect fill="#FEFECE" filter="url(#f1wimm1dvm8q8r)" height="30.7999" style="stroke:#A80036;stroke-width:1.5;" width="75" x="1060.5" y="850.9997"/><text fill="#000000" font-family="sans-serif" font-size="14" lengthAdjust="spacingAndGlyphs" textLength="61" x="1067.5" y="871.0056">Company</text><rect fill="#FEFECE" filter="url(#f1wimm1dvm8q8r)" height="30.7999" style="stroke:#A80036;stroke-width:1.5;" width="105" x="1149.5" y="53"/><text fill="#000000" font-family="sans-serif" font-size="14" lengthAdjust="spacingAndGlyphs" textLength="91" x="1156.5" y="73.0059">ReflectorUtility</text><rect fill="#FEFECE" filter="url(#f1wimm1dvm8q8r)" height="30.7999" style="stroke:#A80036;stroke-width:1.5;" width="105" x="1149.5" y="850.9997"/><text fill="#000000" font-family="sans-serif" font-size="14" lengthAdjust="spacingAndGlyphs" textLength="91" x="1156.5" y="871.0056">ReflectorUtility</text><rect fill="#FEFECE" filter="url(#f1wimm1dvm8q8r)" height="30.7999" style="stroke:#A80036;stroke-width:1.5;" width="42" x="1268.5" y="850.9997"/><text fill="#000000" font-family="sans-serif" font-size="14" lengthAdjust="spacingAndGlyphs" textLength="28" x="1275.5" y="871.0056">Test</text><rect fill="#FEFECE" filter="url(#f1wimm1dvm8q8r)" height="30.7999" style="stroke:#A80036;stroke-width:1.5;" width="62" x="1426.5" y="850.9997"/><text fill="#000000" font-family="sans-serif" font-size="14" lengthAdjust="spacingAndGlyphs" textLength="48" x="1433.5" y="871.0056">Sample</text><rect fill="#FEFECE" filter="url(#f1wimm1dvm8q8r)" height="30.7999" style="stroke:#A80036;stroke-width:1.5;" width="67" x="1542.5" y="850.9997"/><text fill="#000000" font-family="sans-serif" font-size="14" lengthAdjust="spacingAndGlyphs" textLength="53" x="1549.5" y="871.0056">Barcode</text><rect fill="#FEFECE" filter="url(#f1wimm1dvm8q8r)" height="30.7999" style="stroke:#A80036;stroke-width:1.5;" width="123" x="1676.5" y="850.9997"/><text fill="#000000" font-family="sans-serif" font-size="14" lengthAdjust="spacingAndGlyphs" textLength="109" x="1683.5" y="871.0056">BarcodeInterface</text><rect fill="#FFFFFF" filter="url(#f1wimm1dvm8q8r)" height="744.1998" style="stroke:#A80036;stroke-width:1.0;" width="10" x="74" y="98.7999"/><rect fill="#FFFFFF" filter="url(#f1wimm1dvm8q8r)" height="265.5999" style="stroke:#A80036;stroke-width:1.0;" width="10" x="411" y="120.3999"/><rect fill="#FFFFFF" filter="url(#f1wimm1dvm8q8r)" height="418.3998" style="stroke:#A80036;stroke-width:1.0;" width="10" x="411" y="415.5999"/><rect fill="#FFFFFF" filter="url(#f1wimm1dvm8q8r)" height="682.9997" style="stroke:#A80036;stroke-width:1.0;" width="10" x="746" y="160"/><rect fill="#FFFFFF" filter="url(#f1wimm1dvm8q8r)" height="593.3999" style="stroke:#A80036;stroke-width:1.0;" width="10" x="1095" y="249.5998"/><rect fill="#FFFFFF" filter="url(#f1wimm1dvm8q8r)" height="744.1998" style="stroke:#A80036;stroke-width:1.0;" width="10" x="1199" y="98.7999"/><rect fill="#FFFFFF" filter="url(#f1wimm1dvm8q8r)" height="358.1998" style="stroke:#A80036;stroke-width:1.0;" width="10" x="1286.5" y="484.7999"/><rect fill="#FFFFFF" filter="url(#f1wimm1dvm8q8r)" height="287.7998" style="stroke:#A80036;stroke-width:1.0;" width="10" x="1454.5" y="555.1998"/><rect fill="#FFFFFF" filter="url(#f1wimm1dvm8q8r)" height="160.4001" style="stroke:#A80036;stroke-width:1.0;" width="10" x="1573" y="682.5996"/><rect fill="#FFFFFF" filter="url(#f1wimm1dvm8q8r)" height="196.2" style="stroke:#A80036;stroke-width:1.0;" width="10" x="1735" y="646.7997"/><polygon fill="#A80036" points="399,116.3999,409,120.3999,399,124.3999,403,120.3999" style="stroke:#A80036;stroke-width:1.0;"/><line style="stroke:#A80036;stroke-width:1.0;" x1="84" x2="405" y1="120.3999" y2="120.3999"/><text fill="#000000" font-family="sans-serif" font-size="13" font-weight="bold" lengthAdjust="spacingAndGlyphs" textLength="7" x="91" y="114.8769">1</text><text fill="#000000" font-family="sans-serif" font-size="13" lengthAdjust="spacingAndGlyphs" textLength="179" x="102" y="114.8769">initiates the record of a sample</text><polygon fill="#A80036" points="648.5,146,658.5,150,648.5,154,652.5,150" style="stroke:#A80036;stroke-width:1.0;"/><line style="stroke:#A80036;stroke-width:1.0;" x1="421" x2="654.5" y1="150" y2="150"/><text fill="#000000" font-family="sans-serif" font-size="13" font-weight="bold" lengthAdjust="spacingAndGlyphs" textLength="7" x="428" y="144.477">2</text><text fill="#000000" font-family="sans-serif" font-size="13" lengthAdjust="spacingAndGlyphs" textLength="36" x="439" y="144.477">create</text><rect fill="#FEFECE" filter="url(#f1wimm1dvm8q8r)" height="30.7999" style="stroke:#A80036;stroke-width:1.5;" width="177" x="660.5" y="128.3999"/><text fill="#000000" font-family="sans-serif" font-size="14" lengthAdjust="spacingAndGlyphs" textLength="163" x="667.5" y="148.4059">RecordSamplesController</text><polygon fill="#A80036" points="1048.5,191.7999,1058.5,195.7999,1048.5,199.7999,1052.5,195.7999" style="stroke:#A80036;stroke-width:1.0;"/><line style="stroke:#A80036;stroke-width:1.0;" x1="756" x2="1054.5" y1="195.7999" y2="195.7999"/><text fill="#000000" font-family="sans-serif" font-size="13" font-weight="bold" lengthAdjust="spacingAndGlyphs" textLength="7" x="763" y="190.2769">3</text><text fill="#000000" font-family="sans-serif" font-size="13" lengthAdjust="spacingAndGlyphs" textLength="36" x="774" y="190.2769">create</text><rect fill="#FEFECE" filter="url(#f1wimm1dvm8q8r)" height="30.7999" style="stroke:#A80036;stroke-width:1.5;" width="75" x="1060.5" y="174.1999"/><text fill="#000000" font-family="sans-serif" font-size="14" lengthAdjust="spacingAndGlyphs" textLength="61" x="1067.5" y="194.2058">Company</text><line style="stroke:#A80036;stroke-width:1.0;" x1="756" x2="803" y1="236.5998" y2="236.5998"/><line style="stroke:#A80036;stroke-width:1.0;" x1="803" x2="803" y1="236.5998" y2="249.5998"/><line style="stroke:#A80036;stroke-width:1.0;" x1="762" x2="803" y1="249.5998" y2="249.5998"/><polygon fill="#A80036" points="772,245.5998,762,249.5998,772,253.5998,768,249.5998" style="stroke:#A80036;stroke-width:1.0;"/><text fill="#000000" font-family="sans-serif" font-size="13" font-weight="bold" lengthAdjust="spacingAndGlyphs" textLength="7" x="768" y="231.0768">4</text><text fill="#000000" font-family="sans-serif" font-size="13" lengthAdjust="spacingAndGlyphs" textLength="229" x="779" y="231.0768">Company = App.getInstance(Company)</text><polygon fill="#A80036" points="1083,280.1998,1093,284.1998,1083,288.1998,1087,284.1998" style="stroke:#A80036;stroke-width:1.0;"/><line style="stroke:#A80036;stroke-width:1.0;" x1="756" x2="1089" y1="284.1998" y2="284.1998"/><text fill="#000000" font-family="sans-serif" font-size="13" font-weight="bold" lengthAdjust="spacingAndGlyphs" textLength="7" x="763" y="278.6768">5</text><text fill="#000000" font-family="sans-serif" font-size="13" lengthAdjust="spacingAndGlyphs" textLength="197" x="774" y="278.6768">List&lt;Test&gt; freeTests = getTests()</text><line style="stroke:#A80036;stroke-width:1.0;" x1="756" x2="798" y1="313.7998" y2="313.7998"/><line style="stroke:#A80036;stroke-width:1.0;" x1="798" x2="798" y1="313.7998" y2="326.7998"/><line style="stroke:#A80036;stroke-width:1.0;" x1="757" x2="798" y1="326.7998" y2="326.7998"/><polygon fill="#A80036" points="767,322.7998,757,326.7998,767,330.7998,763,326.7998" style="stroke:#A80036;stroke-width:1.0;"/><text fill="#000000" font-family="sans-serif" font-size="13" font-weight="bold" lengthAdjust="spacingAndGlyphs" textLength="7" x="763" y="308.2768">6</text><text fill="#000000" font-family="sans-serif" font-size="13" lengthAdjust="spacingAndGlyphs" textLength="297" x="774" y="308.2768">List&lt;TestDTO&gt; freeTestsDTO = freeTests.toDTO()</text><polygon fill="#A80036" points="432,352.3998,422,356.3998,432,360.3998,428,356.3998" style="stroke:#A80036;stroke-width:1.0;"/><line style="stroke:#A80036;stroke-width:1.0;" x1="426" x2="745" y1="356.3998" y2="356.3998"/><text fill="#000000" font-family="sans-serif" font-size="13" font-weight="bold" lengthAdjust="spacingAndGlyphs" textLength="7" x="438" y="350.8768">7</text><text fill="#000000" font-family="sans-serif" font-size="13" lengthAdjust="spacingAndGlyphs" textLength="120" x="449" y="350.8768">show(freeTestsDTO)</text><polygon fill="#A80036" points="95,381.9999,85,385.9999,95,389.9999,91,385.9999" style="stroke:#A80036;stroke-width:1.0;"/><line style="stroke:#A80036;stroke-width:1.0;" x1="89" x2="415" y1="385.9999" y2="385.9999"/><text fill="#000000" font-family="sans-serif" font-size="13" font-weight="bold" lengthAdjust="spacingAndGlyphs" textLength="7" x="101" y="380.4769">8</text><text fill="#000000" font-family="sans-serif" font-size="13" lengthAdjust="spacingAndGlyphs" textLength="172" x="112" y="380.4769">shows a list of available tests</text><polygon fill="#A80036" points="399,411.5999,409,415.5999,399,419.5999,403,415.5999" style="stroke:#A80036;stroke-width:1.0;"/><line style="stroke:#A80036;stroke-width:1.0;" x1="84" x2="405" y1="415.5999" y2="415.5999"/><text fill="#000000" font-family="sans-serif" font-size="13" font-weight="bold" lengthAdjust="spacingAndGlyphs" textLength="7" x="91" y="410.0769">9</text><text fill="#000000" font-family="sans-serif" font-size="13" lengthAdjust="spacingAndGlyphs" textLength="297" x="102" y="410.0769">selects a test and specifies the number of samples</text><polygon fill="#A80036" points="734,441.1999,744,445.1999,734,449.1999,738,445.1999" style="stroke:#A80036;stroke-width:1.0;"/><line style="stroke:#A80036;stroke-width:1.0;" x1="421" x2="740" y1="445.1999" y2="445.1999"/><text fill="#000000" font-family="sans-serif" font-size="13" font-weight="bold" lengthAdjust="spacingAndGlyphs" textLength="14" x="428" y="439.6769">10</text><text fill="#000000" font-family="sans-serif" font-size="13" lengthAdjust="spacingAndGlyphs" textLength="283" x="446" y="439.6769">generateSamples(int testIndex, int numSamples)</text><polygon fill="#A80036" points="1256.5,470.7999,1266.5,474.7999,1256.5,478.7999,1260.5,474.7999" style="stroke:#A80036;stroke-width:1.0;"/><line style="stroke:#A80036;stroke-width:1.0;" x1="756" x2="1262.5" y1="474.7999" y2="474.7999"/><text fill="#000000" font-family="sans-serif" font-size="13" font-weight="bold" lengthAdjust="spacingAndGlyphs" textLength="14" x="763" y="469.2769">11</text><text fill="#000000" font-family="sans-serif" font-size="13" lengthAdjust="spacingAndGlyphs" textLength="139" x="781" y="469.2769">freeTests.get(testIndex)</text><rect fill="#FEFECE" filter="url(#f1wimm1dvm8q8r)" height="30.7999" style="stroke:#A80036;stroke-width:1.5;" width="42" x="1268.5" y="453.1999"/><text fill="#000000" font-family="sans-serif" font-size="14" lengthAdjust="spacingAndGlyphs" textLength="28" x="1275.5" y="473.2058">Test</text><path d="M1139.5,505.9998 L1212.5,505.9998 L1212.5,512.9998 L1202.5,522.9998 L1139.5,522.9998 L1139.5,505.9998 " fill="#EEEEEE" style="stroke:#000000;stroke-width:1.0;"/><rect fill="none" height="227.1998" style="stroke:#000000;stroke-width:2.0;" width="674" x="1139.5" y="505.9998"/><text fill="#000000" font-family="sans-serif" font-size="13" font-weight="bold" lengthAdjust="spacingAndGlyphs" textLength="28" x="1154.5" y="519.0768">loop</text><text fill="#000000" font-family="sans-serif" font-size="11" font-weight="bold" lengthAdjust="spacingAndGlyphs" textLength="77" x="1227.5" y="518.2187">[numSamples]</text><polygon fill="#A80036" points="1414.5,541.1998,1424.5,545.1998,1414.5,549.1998,1418.5,545.1998" style="stroke:#A80036;stroke-width:1.0;"/><line style="stroke:#A80036;stroke-width:1.0;" x1="1296.5" x2="1420.5" y1="545.1998" y2="545.1998"/><text fill="#000000" font-family="sans-serif" font-size="13" font-weight="bold" lengthAdjust="spacingAndGlyphs" textLength="14" x="1303.5" y="539.6768">12</text><text fill="#000000" font-family="sans-serif" font-size="13" lengthAdjust="spacingAndGlyphs" textLength="36" x="1321.5" y="539.6768">create</text><rect fill="#FEFECE" filter="url(#f1wimm1dvm8q8r)" height="30.7999" style="stroke:#A80036;stroke-width:1.5;" width="62" x="1426.5" y="523.5998"/><text fill="#000000" font-family="sans-serif" font-size="14" lengthAdjust="spacingAndGlyphs" textLength="48" x="1433.5" y="543.6058">Sample</text><polygon fill="#A80036" points="1530.5,586.9998,1540.5,590.9998,1530.5,594.9998,1534.5,590.9998" style="stroke:#A80036;stroke-width:1.0;"/><line style="stroke:#A80036;stroke-width:1.0;" x1="1464.5" x2="1536.5" y1="590.9998" y2="590.9998"/><text fill="#000000" font-family="sans-serif" font-size="13" font-weight="bold" lengthAdjust="spacingAndGlyphs" textLength="14" x="1471.5" y="585.4768">13</text><text fill="#000000" font-family="sans-serif" font-size="13" lengthAdjust="spacingAndGlyphs" textLength="36" x="1489.5" y="585.4768">create</text><rect fill="#FEFECE" filter="url(#f1wimm1dvm8q8r)" height="30.7999" style="stroke:#A80036;stroke-width:1.5;" width="67" x="1542.5" y="569.3998"/><text fill="#000000" font-family="sans-serif" font-size="14" lengthAdjust="spacingAndGlyphs" textLength="53" x="1549.5" y="589.4057">Barcode</text><polygon fill="#A80036" points="1664.5,632.7997,1674.5,636.7997,1664.5,640.7997,1668.5,636.7997" style="stroke:#A80036;stroke-width:1.0;"/><line style="stroke:#A80036;stroke-width:1.0;" x1="1464.5" x2="1670.5" y1="636.7997" y2="636.7997"/><text fill="#000000" font-family="sans-serif" font-size="13" font-weight="bold" lengthAdjust="spacingAndGlyphs" textLength="14" x="1471.5" y="631.2767">14</text><text fill="#000000" font-family="sans-serif" font-size="13" lengthAdjust="spacingAndGlyphs" textLength="170" x="1489.5" y="631.2767">Barcode = generateBarcode()</text><rect fill="#FEFECE" filter="url(#f1wimm1dvm8q8r)" height="30.7999" style="stroke:#A80036;stroke-width:1.5;" width="123" x="1676.5" y="615.1997"/><text fill="#000000" font-family="sans-serif" font-size="14" lengthAdjust="spacingAndGlyphs" textLength="109" x="1683.5" y="635.2056">BarcodeInterface</text><polygon fill="#A80036" points="1220,678.5996,1210,682.5996,1220,686.5996,1216,682.5996" style="stroke:#A80036;stroke-width:1.0;"/><line style="stroke:#A80036;stroke-width:1.0;" x1="1214" x2="1734" y1="682.5996" y2="682.5996"/><text fill="#000000" font-family="sans-serif" font-size="13" font-weight="bold" lengthAdjust="spacingAndGlyphs" textLength="14" x="1226" y="677.0766">15</text><text fill="#000000" font-family="sans-serif" font-size="13" lengthAdjust="spacingAndGlyphs" textLength="212" x="1244" y="677.0766">adapterReflection("BarcodeAdapter")</text><line style="stroke:#A80036;stroke-width:1.0;" x1="1296.5" x2="1338.5" y1="712.1996" y2="712.1996"/><line style="stroke:#A80036;stroke-width:1.0;" x1="1338.5" x2="1338.5" y1="712.1996" y2="725.1996"/><line style="stroke:#A80036;stroke-width:1.0;" x1="1297.5" x2="1338.5" y1="725.1996" y2="725.1996"/><polygon fill="#A80036" points="1307.5,721.1996,1297.5,725.1996,1307.5,729.1996,1303.5,725.1996" style="stroke:#A80036;stroke-width:1.0;"/><text fill="#000000" font-family="sans-serif" font-size="13" font-weight="bold" lengthAdjust="spacingAndGlyphs" textLength="14" x="1303.5" y="706.6766">16</text><text fill="#000000" font-family="sans-serif" font-size="13" lengthAdjust="spacingAndGlyphs" textLength="126" x="1321.5" y="706.6766">samples.add(Sample)</text><line style="stroke:#A80036;stroke-width:1.0;" x1="756" x2="798" y1="761.7997" y2="761.7997"/><line style="stroke:#A80036;stroke-width:1.0;" x1="798" x2="798" y1="761.7997" y2="774.7997"/><line style="stroke:#A80036;stroke-width:1.0;" x1="757" x2="798" y1="774.7997" y2="774.7997"/><polygon fill="#A80036" points="767,770.7997,757,774.7997,767,778.7997,763,774.7997" style="stroke:#A80036;stroke-width:1.0;"/><text fill="#000000" font-family="sans-serif" font-size="13" font-weight="bold" lengthAdjust="spacingAndGlyphs" textLength="14" x="763" y="756.2766">17</text><text fill="#000000" font-family="sans-serif" font-size="13" lengthAdjust="spacingAndGlyphs" textLength="307" x="781" y="756.2766">List&lt;SampleDTO&gt; SamplesDTO = Samples.toDTO()</text><polygon fill="#A80036" points="432,800.3997,422,804.3997,432,808.3997,428,804.3997" style="stroke:#A80036;stroke-width:1.0;"/><line style="stroke:#A80036;stroke-width:1.0;" x1="426" x2="745" y1="804.3997" y2="804.3997"/><text fill="#000000" font-family="sans-serif" font-size="13" font-weight="bold" lengthAdjust="spacingAndGlyphs" textLength="14" x="438" y="798.8767">18</text><text fill="#000000" font-family="sans-serif" font-size="13" lengthAdjust="spacingAndGlyphs" textLength="114" x="456" y="798.8767">show(samplesDTO)</text><polygon fill="#A80036" points="95,829.9997,85,833.9997,95,837.9997,91,833.9997" style="stroke:#A80036;stroke-width:1.0;"/><line style="stroke:#A80036;stroke-width:1.0;" x1="89" x2="415" y1="833.9997" y2="833.9997"/><text fill="#000000" font-family="sans-serif" font-size="13" font-weight="bold" lengthAdjust="spacingAndGlyphs" textLength="14" x="101" y="828.4767">19</text><text fill="#000000" font-family="sans-serif" font-size="13" lengthAdjust="spacingAndGlyphs" textLength="263" x="119" y="828.4767">shows the generated barcode of each sample</text><!--MD5=[b77cba0896af4ab1bcb09656e3367e9a]
@startuml
autonumber

actor "MedicalLabTechnician" as MLT
participant "RecordSamplesUI" as ui
participant "RecordSamplesController" as controller
participant "Company"
participant "ReflectorUtility"

activate MLT
activate ReflectorUtility

MLT -> ui : initiates the record of a sample
activate ui
ui -> controller ** : create
activate controller

controller -> Company ** : create
controller -> controller : Company = App.getInstance(Company)
activate Company

controller -> Company : List<Test> freeTests = getTests()
controller -> controller : List<TestDTO> freeTestsDTO = freeTests.toDTO()

controller -> ui : show(freeTestsDTO)
ui -> MLT : shows a list of available tests


deactivate ui

MLT ->ui : selects a test and specifies the number of samples
activate ui

ui -> controller : generateSamples(int testIndex, int numSamples)
controller -> Test ** : freeTests.get(testIndex)
activate Test


loop numSamples
Test -> Sample ** : create
activate Sample
Sample -> Barcode ** : create
Sample -> BarcodeInterface ** : Barcode = generateBarcode()
activate BarcodeInterface
BarcodeInterface -> ReflectorUtility : adapterReflection("BarcodeAdapter")
activate Barcode
Test -> Test : samples.add(Sample)
end
controller -> controller : List<SampleDTO> SamplesDTO = Samples.toDTO()

controller -> ui : show(samplesDTO)

ui -> MLT : shows the generated barcode of each sample
deactivate ui

@enduml

PlantUML version 1.2020.23(Sun Dec 13 19:14:58 WET 2020)
(GPL source distribution)
Java Runtime: OpenJDK Runtime Environment
JVM: OpenJDK 64-Bit Server VM
Default Encoding: ANSI_X3.4-1968
Language: en
Country: US
--></g></svg>