<?xml version="1.0" encoding="UTF-8" standalone="no"?><svg xmlns="http://www.w3.org/2000/svg" xmlns:xlink="http://www.w3.org/1999/xlink" contentScriptType="application/ecmascript" contentStyleType="text/css" height="1097px" preserveAspectRatio="none" style="width:334px;height:1097px;" version="1.1" viewBox="0 0 334 1097" width="334px" zoomAndPan="magnify"><defs><filter height="300%" id="f1vl0mencnqv1j" width="300%" x="-1" y="-1"><feGaussianBlur result="blurOut" stdDeviation="2.0"/><feColorMatrix in="blurOut" result="blurOut2" type="matrix" values="0 0 0 0 0 0 0 0 0 0 0 0 0 0 0 0 0 0 .4 0"/><feOffset dx="4.0" dy="4.0" in="blurOut2" result="blurOut3"/><feBlend in="SourceGraphic" in2="blurOut3" mode="normal"/></filter></defs><g><!--MD5=[9ef9c9606c83dc111e7571bed1bb09a3]
cluster BarCodeAPI--><polygon fill="#DDDDDD" filter="url(#f1vl0mencnqv1j)" points="151.5,6.294,239.5,6.294,246.5,29.0939,283.5,29.0939,283.5,105.294,151.5,105.294,151.5,6.294" style="stroke:#000000;stroke-width:1.5;"/><line style="stroke:#000000;stroke-width:1.5;" x1="151.5" x2="246.5" y1="29.0939" y2="29.0939"/><text fill="#000000" font-family="sans-serif" font-size="14" font-weight="bold" lengthAdjust="spacingAndGlyphs" textLength="82" x="155.5" y="21.2999">BarCodeAPI</text><!--MD5=[9d174528ebd498af808f6357775d0285]
class BarCodeAPI--><rect fill="#FEFECE" filter="url(#f1vl0mencnqv1j)" height="48" id="BarCodeAPI" style="stroke:#A80036;stroke-width:1.5;" width="100" x="167.5" y="41.294"/><ellipse cx="182.5" cy="57.294" fill="#ADD1B2" rx="11" ry="11" style="stroke:#A80036;stroke-width:1.0;"/><path d="M177.5,58.4502 C177.5,60.9502 179.6406,62.7627 182.5625,62.7627 C183.7969,62.7627 184.9688,62.4659 185.7188,61.9502 C186.3281,61.5284 186.6563,61.1065 186.6563,60.7002 C186.6563,60.2315 186.2344,59.8252 185.7344,59.8252 C185.5,59.8252 185.2813,59.9034 185.0781,60.1065 C184.6406,60.544 184.6406,60.544 184.4688,60.6377 C184.0156,60.8721 183.375,61.0127 182.6094,61.0127 C180.6094,61.0127 179.3281,59.9971 179.3281,58.419 L179.3281,57.3721 C179.3281,55.669 180.5469,54.4659 182.25,54.4659 C182.8281,54.4659 183.4063,54.6065 183.875,54.8565 C184.3438,55.1221 184.5156,55.3096 184.5781,55.669 C184.7031,56.3409 184.9531,56.5909 185.4844,56.5909 C185.7656,56.5909 186.0469,56.4502 186.2344,56.2315 C186.3594,56.0596 186.4063,55.8877 186.4063,55.4502 L186.4063,54.0909 C186.4063,53.669 186.3906,53.5284 186.2656,53.3565 C186.0938,53.1065 185.8125,52.9502 185.4844,52.9502 C185.1719,52.9502 184.9688,53.0596 184.75,53.3252 C183.5781,52.8252 183.1406,52.7159 182.1875,52.7159 C179.5156,52.7159 177.5,54.7315 177.5,57.3565 L177.5,58.4502 Z " fill="#000000"/><text fill="#000000" font-family="sans-serif" font-size="12" lengthAdjust="spacingAndGlyphs" textLength="68" x="196.5" y="61.242">BarCodeAPI</text><line style="stroke:#A80036;stroke-width:1.5;" x1="168.5" x2="266.5" y1="73.294" y2="73.294"/><line style="stroke:#A80036;stroke-width:1.5;" x1="168.5" x2="266.5" y1="81.294" y2="81.294"/><rect fill="#FEFECE" filter="url(#f1vl0mencnqv1j)" height="50.4001" style="stroke:#A80036;stroke-width:1.5;" width="80" x="202.5" y="604.294"/><text fill="#000000" font-family="sans-serif" font-size="12" lengthAdjust="spacingAndGlyphs" textLength="53" x="216" y="617.4421">Company</text><line style="stroke:#A80036;stroke-width:1.5;" x1="203.5" x2="281.5" y1="622.6941" y2="622.6941"/><rect fill="none" height="6" style="stroke:#C82930;stroke-width:1.0;" width="6" x="210.5" y="630.6941"/><text fill="#000000" font-family="sans-serif" font-size="10" lengthAdjust="spacingAndGlyphs" textLength="54" x="222.5" y="635.9841">designation</text><rect fill="none" height="6" style="stroke:#C82930;stroke-width:1.0;" width="6" x="210.5" y="642.6941"/><text fill="#000000" font-family="sans-serif" font-size="10" lengthAdjust="spacingAndGlyphs" textLength="37" x="222.5" y="647.9841">address</text><rect fill="#FEFECE" filter="url(#f1vl0mencnqv1j)" height="50.4001" style="stroke:#A80036;stroke-width:1.5;" width="66" x="88.5" y="179.294"/><text fill="#000000" font-family="sans-serif" font-size="12" lengthAdjust="spacingAndGlyphs" textLength="42" x="100.5" y="192.4421">Sample</text><line style="stroke:#A80036;stroke-width:1.5;" x1="89.5" x2="153.5" y1="197.6941" y2="197.6941"/><rect fill="none" height="6" style="stroke:#C82930;stroke-width:1.0;" width="6" x="96.5" y="205.6941"/><text fill="#000000" font-family="sans-serif" font-size="10" lengthAdjust="spacingAndGlyphs" textLength="40" x="108.5" y="210.9841">barCode</text><rect fill="none" height="6" style="stroke:#C82930;stroke-width:1.0;" width="6" x="96.5" y="217.6941"/><text fill="#000000" font-family="sans-serif" font-size="10" lengthAdjust="spacingAndGlyphs" textLength="20" x="108.5" y="222.9841">type</text><rect fill="#FEFECE" filter="url(#f1vl0mencnqv1j)" height="74.4001" style="stroke:#A80036;stroke-width:1.5;" width="125" x="7" y="28.294"/><text fill="#000000" font-family="sans-serif" font-size="12" lengthAdjust="spacingAndGlyphs" textLength="111" x="14" y="41.4421">ChemicalLaboratory</text><line style="stroke:#A80036;stroke-width:1.5;" x1="8" x2="131" y1="46.6941" y2="46.6941"/><rect fill="none" height="6" style="stroke:#C82930;stroke-width:1.0;" width="6" x="15" y="54.6941"/><text fill="#000000" font-family="sans-serif" font-size="10" lengthAdjust="spacingAndGlyphs" textLength="26" x="27" y="59.9841">name</text><rect fill="none" height="6" style="stroke:#C82930;stroke-width:1.0;" width="6" x="15" y="66.6941"/><text fill="#000000" font-family="sans-serif" font-size="10" lengthAdjust="spacingAndGlyphs" textLength="37" x="27" y="71.9841">address</text><rect fill="none" height="6" style="stroke:#C82930;stroke-width:1.0;" width="6" x="15" y="78.6941"/><text fill="#000000" font-family="sans-serif" font-size="10" lengthAdjust="spacingAndGlyphs" textLength="66" x="27" y="83.9841">phoneNumber</text><rect fill="none" height="6" style="stroke:#C82930;stroke-width:1.0;" width="6" x="15" y="90.694"/><text fill="#000000" font-family="sans-serif" font-size="10" lengthAdjust="spacingAndGlyphs" textLength="52" x="27" y="95.984">TINNumber</text><rect fill="#FEFECE" filter="url(#f1vl0mencnqv1j)" height="110.4" style="stroke:#A80036;stroke-width:1.5;" width="93" x="79" y="731.294"/><text fill="#000000" font-family="sans-serif" font-size="12" lengthAdjust="spacingAndGlyphs" textLength="23" x="114" y="744.4421">Test</text><line style="stroke:#A80036;stroke-width:1.5;" x1="80" x2="171" y1="749.6941" y2="749.6941"/><rect fill="none" height="6" style="stroke:#C82930;stroke-width:1.0;" width="6" x="87" y="757.6941"/><text fill="#000000" font-family="sans-serif" font-size="10" lengthAdjust="spacingAndGlyphs" textLength="27" x="99" y="762.9841">testID</text><rect fill="none" height="6" style="stroke:#C82930;stroke-width:1.0;" width="6" x="87" y="769.6941"/><text fill="#000000" font-family="sans-serif" font-size="10" lengthAdjust="spacingAndGlyphs" textLength="40" x="99" y="774.9841">nhscode</text><rect fill="none" height="6" style="stroke:#C82930;stroke-width:1.0;" width="6" x="87" y="781.6941"/><text fill="#000000" font-family="sans-serif" font-size="10" lengthAdjust="spacingAndGlyphs" textLength="50" x="99" y="786.9841">description</text><rect fill="none" height="6" style="stroke:#C82930;stroke-width:1.0;" width="6" x="87" y="793.694"/><text fill="#000000" font-family="sans-serif" font-size="10" lengthAdjust="spacingAndGlyphs" textLength="66" x="99" y="798.984">dateDiagnosis</text><rect fill="none" height="6" style="stroke:#C82930;stroke-width:1.0;" width="6" x="87" y="805.694"/><text fill="#000000" font-family="sans-serif" font-size="10" lengthAdjust="spacingAndGlyphs" textLength="64" x="99" y="810.984">timeDiagnosis</text><rect fill="none" height="6" style="stroke:#C82930;stroke-width:1.0;" width="6" x="87" y="817.694"/><text fill="#000000" font-family="sans-serif" font-size="10" lengthAdjust="spacingAndGlyphs" textLength="67" x="99" y="822.984">dateValidation</text><rect fill="none" height="6" style="stroke:#C82930;stroke-width:1.0;" width="6" x="87" y="829.694"/><text fill="#000000" font-family="sans-serif" font-size="10" lengthAdjust="spacingAndGlyphs" textLength="65" x="99" y="834.984">timeValidation</text><rect fill="#FEFECE" filter="url(#f1vl0mencnqv1j)" height="110.4" style="stroke:#A80036;stroke-width:1.5;" width="104" x="196.5" y="417.294"/><text fill="#000000" font-family="sans-serif" font-size="12" lengthAdjust="spacingAndGlyphs" textLength="55" x="221" y="430.4421">Employee</text><line style="stroke:#A80036;stroke-width:1.5;" x1="197.5" x2="299.5" y1="435.6941" y2="435.6941"/><rect fill="none" height="6" style="stroke:#C82930;stroke-width:1.0;" width="6" x="204.5" y="443.6941"/><text fill="#000000" font-family="sans-serif" font-size="10" lengthAdjust="spacingAndGlyphs" textLength="55" x="216.5" y="448.9841">employeeID</text><rect fill="none" height="6" style="stroke:#C82930;stroke-width:1.0;" width="6" x="204.5" y="455.6941"/><text fill="#000000" font-family="sans-serif" font-size="10" lengthAdjust="spacingAndGlyphs" textLength="78" x="216.5" y="460.9841">organizationRole</text><rect fill="none" height="6" style="stroke:#C82930;stroke-width:1.0;" width="6" x="204.5" y="467.6941"/><text fill="#000000" font-family="sans-serif" font-size="10" lengthAdjust="spacingAndGlyphs" textLength="26" x="216.5" y="472.9841">name</text><rect fill="none" height="6" style="stroke:#C82930;stroke-width:1.0;" width="6" x="204.5" y="479.694"/><text fill="#000000" font-family="sans-serif" font-size="10" lengthAdjust="spacingAndGlyphs" textLength="37" x="216.5" y="484.984">address</text><rect fill="none" height="6" style="stroke:#C82930;stroke-width:1.0;" width="6" x="204.5" y="491.694"/><text fill="#000000" font-family="sans-serif" font-size="10" lengthAdjust="spacingAndGlyphs" textLength="66" x="216.5" y="496.984">phoneNumber</text><rect fill="none" height="6" style="stroke:#C82930;stroke-width:1.0;" width="6" x="204.5" y="503.694"/><text fill="#000000" font-family="sans-serif" font-size="10" lengthAdjust="spacingAndGlyphs" textLength="24" x="216.5" y="508.984">email</text><rect fill="none" height="6" style="stroke:#C82930;stroke-width:1.0;" width="6" x="204.5" y="515.694"/><text fill="#000000" font-family="sans-serif" font-size="10" lengthAdjust="spacingAndGlyphs" textLength="47" x="216.5" y="520.984">SOCCode</text><rect fill="#FEFECE" filter="url(#f1vl0mencnqv1j)" height="34.4001" style="stroke:#A80036;stroke-width:1.5;" width="138" x="162.5" y="306.294"/><text fill="#000000" font-family="sans-serif" font-size="12" lengthAdjust="spacingAndGlyphs" textLength="124" x="169.5" y="319.4421">MedicalLabTechnician</text><line style="stroke:#A80036;stroke-width:1.5;" x1="163.5" x2="299.5" y1="324.6941" y2="324.6941"/><rect fill="#FEFECE" filter="url(#f1vl0mencnqv1j)" height="50.4001" style="stroke:#A80036;stroke-width:1.5;" width="80" x="144.5" y="918.294"/><text fill="#000000" font-family="sans-serif" font-size="12" lengthAdjust="spacingAndGlyphs" textLength="50" x="159.5" y="931.4421">TestType</text><line style="stroke:#A80036;stroke-width:1.5;" x1="145.5" x2="223.5" y1="936.6941" y2="936.6941"/><rect fill="none" height="6" style="stroke:#C82930;stroke-width:1.0;" width="6" x="152.5" y="944.6941"/><text fill="#000000" font-family="sans-serif" font-size="10" lengthAdjust="spacingAndGlyphs" textLength="50" x="164.5" y="949.9841">testTypeID</text><rect fill="none" height="6" style="stroke:#C82930;stroke-width:1.0;" width="6" x="152.5" y="956.6941"/><text fill="#000000" font-family="sans-serif" font-size="10" lengthAdjust="spacingAndGlyphs" textLength="54" x="164.5" y="961.9841">designation</text><rect fill="#FEFECE" filter="url(#f1vl0mencnqv1j)" height="38.4001" style="stroke:#A80036;stroke-width:1.5;" width="110" x="129.5" y="1045.294"/><text fill="#000000" font-family="sans-serif" font-size="12" lengthAdjust="spacingAndGlyphs" textLength="96" x="136.5" y="1058.4421">CollectingMethod</text><line style="stroke:#A80036;stroke-width:1.5;" x1="130.5" x2="238.5" y1="1063.6941" y2="1063.6941"/><rect fill="none" height="6" style="stroke:#C82930;stroke-width:1.0;" width="6" x="137.5" y="1071.6941"/><text fill="#000000" font-family="sans-serif" font-size="10" lengthAdjust="spacingAndGlyphs" textLength="54" x="149.5" y="1076.9841">designation</text><!--MD5=[742a261f27a3dcd734c626287d811acd]
link Company to TestType--><path codeLine="56" d="M239.06,654.614 C232.4,700.514 216.8,802.994 198.5,888.294 C196.39,898.144 193.68,908.904 191.21,918.204 " fill="none" id="Company-TestType" style="stroke:#A80036;stroke-width:1.0;"/><text fill="#000000" font-family="sans-serif" font-size="13" lengthAdjust="spacingAndGlyphs" textLength="53" x="227.5" y="790.871">conducts</text><text fill="#000000" font-family="sans-serif" font-size="13" lengthAdjust="spacingAndGlyphs" textLength="7" x="230.3684" y="674.7152">1</text><text fill="#000000" font-family="sans-serif" font-size="13" lengthAdjust="spacingAndGlyphs" textLength="5" x="187.2888" y="906.9554">*</text><!--MD5=[f82686d89c0d6694b448608866eb139d]
link TestType to CollectingMethod--><path codeLine="57" d="M184.5,968.374 C184.5,991.054 184.5,1024.544 184.5,1045.074 " fill="none" id="TestType-CollectingMethod" style="stroke:#A80036;stroke-width:1.0;"/><text fill="#000000" font-family="sans-serif" font-size="13" lengthAdjust="spacingAndGlyphs" textLength="21" x="185.5" y="1011.371">has</text><text fill="#000000" font-family="sans-serif" font-size="13" lengthAdjust="spacingAndGlyphs" textLength="5" x="178.8594" y="988.8252">*</text><text fill="#000000" font-family="sans-serif" font-size="13" lengthAdjust="spacingAndGlyphs" textLength="7" x="176.3844" y="1033.6659">1</text><!--MD5=[7e4bc624457760b649895ff2ead938fa]
link Company to Test--><path codeLine="59" d="M202.49,650.934 C188.63,659.684 173.96,670.964 163.5,684.294 C152.74,698.004 144.78,715.074 139.01,731.264 " fill="none" id="Company-Test" style="stroke:#A80036;stroke-width:1.0;"/><text fill="#000000" font-family="sans-serif" font-size="13" lengthAdjust="spacingAndGlyphs" textLength="51" x="164.5" y="697.371">performs</text><text fill="#000000" font-family="sans-serif" font-size="13" lengthAdjust="spacingAndGlyphs" textLength="7" x="187.4678" y="650.6365">1</text><text fill="#000000" font-family="sans-serif" font-size="13" lengthAdjust="spacingAndGlyphs" textLength="5" x="135.4895" y="719.952">*</text><!--MD5=[e981d4f96c4342412d1e68160b30cf70]
link Test to TestType--><path codeLine="61" d="M146.14,841.504 C156.1,867.694 167.56,897.794 175.34,918.234 " fill="none" id="Test-TestType" style="stroke:#A80036;stroke-width:1.0;"/><text fill="#000000" font-family="sans-serif" font-size="13" lengthAdjust="spacingAndGlyphs" textLength="25" x="164.5" y="884.371">is of</text><text fill="#000000" font-family="sans-serif" font-size="13" lengthAdjust="spacingAndGlyphs" textLength="5" x="143.4642" y="861.6285">*</text><text fill="#000000" font-family="sans-serif" font-size="13" lengthAdjust="spacingAndGlyphs" textLength="7" x="164.9376" y="906.5874">1</text><!--MD5=[cb5e86f6614a99551e1d9ce6f0ae5849]
link Sample to MedicalLabTechnician--><path codeLine="63" d="M144.29,229.534 C165.81,252.424 197.49,286.124 216.16,305.974 " fill="none" id="Sample-MedicalLabTechnician" style="stroke:#A80036;stroke-width:1.0;"/><text fill="#000000" font-family="sans-serif" font-size="13" lengthAdjust="spacingAndGlyphs" textLength="140" x="186.5" y="272.371">is collected/analyzed by</text><text fill="#000000" font-family="sans-serif" font-size="13" lengthAdjust="spacingAndGlyphs" textLength="5" x="144.2357" y="249.6157">*</text><text fill="#000000" font-family="sans-serif" font-size="13" lengthAdjust="spacingAndGlyphs" textLength="7" x="202.9193" y="294.8625">1</text><!--MD5=[1ae83efc6d1967ce5bc17dfe294d00c2]
link Sample to Test--><path codeLine="64" d="M111.84,229.514 C103.41,252.874 92.5,289.434 92.5,322.294 C92.5,322.294 92.5,322.294 92.5,630.294 C92.5,664.274 100.18,701.544 108.13,731.014 " fill="none" id="Sample-Test" style="stroke:#A80036;stroke-width:1.0;"/><text fill="#000000" font-family="sans-serif" font-size="13" lengthAdjust="spacingAndGlyphs" textLength="67" x="93.5" y="476.871">is based on</text><text fill="#000000" font-family="sans-serif" font-size="13" lengthAdjust="spacingAndGlyphs" textLength="5" x="103.876" y="249.5909">*</text><text fill="#000000" font-family="sans-serif" font-size="13" lengthAdjust="spacingAndGlyphs" textLength="7" x="98.3256" y="719.6684">1</text><!--MD5=[47855ee4dabeea37c5949a17ed9e3a41]
link ChemicalLaboratory to Sample--><path codeLine="66" d="M74.56,102.664 C77.33,117.474 81.48,134.554 87.5,149.294 C91.73,159.654 97.92,170.244 103.85,179.274 " fill="none" id="ChemicalLaboratory-Sample" style="stroke:#A80036;stroke-width:1.0;"/><text fill="#000000" font-family="sans-serif" font-size="13" lengthAdjust="spacingAndGlyphs" textLength="63" x="88.5" y="145.371">is received</text><text fill="#000000" font-family="sans-serif" font-size="13" lengthAdjust="spacingAndGlyphs" textLength="7" x="67.8379" y="122.7513">1</text><text fill="#000000" font-family="sans-serif" font-size="13" lengthAdjust="spacingAndGlyphs" textLength="5" x="93.4347" y="167.6381">*</text><!--MD5=[526c8970af1cae9b904b18ba951c8bf5]
link BarCodeAPI to Sample--><path codeLine="69" d="M201.21,89.534 C183.78,114.424 156.23,153.734 138.51,179.014 " fill="none" id="BarCodeAPI-Sample" style="stroke:#A80036;stroke-width:1.0;"/><text fill="#000000" font-family="sans-serif" font-size="13" lengthAdjust="spacingAndGlyphs" textLength="109" x="170.5" y="145.371">generates barCode</text><text fill="#000000" font-family="sans-serif" font-size="13" lengthAdjust="spacingAndGlyphs" textLength="7" x="189.3862" y="109.4207">1</text><text fill="#000000" font-family="sans-serif" font-size="13" lengthAdjust="spacingAndGlyphs" textLength="5" x="137.2282" y="167.7167">*</text><!--MD5=[2d3d1e6d66ae86ad5e3a19e2e565ce0b]
link MedicalLabTechnician to Employee--><path codeLine="72" d="M233.35,340.304 C235.48,358.684 239.08,389.814 242.23,417.114 " fill="none" id="MedicalLabTechnician-Employee" style="stroke:#A80036;stroke-width:1.0;"/><text fill="#000000" font-family="sans-serif" font-size="13" lengthAdjust="spacingAndGlyphs" textLength="21" x="238.5" y="383.371">is a</text><text fill="#000000" font-family="sans-serif" font-size="13" lengthAdjust="spacingAndGlyphs" textLength="5" x="228.1266" y="360.8407">*</text><text fill="#000000" font-family="sans-serif" font-size="13" lengthAdjust="spacingAndGlyphs" textLength="7" x="233.9172" y="405.7818">1</text><!--MD5=[d7ace9ce94145b54e26b24a174e1b7b9]
link Employee to Company--><path codeLine="73" d="M246.4,527.504 C245.39,553.694 244.22,583.794 243.43,604.234 " fill="none" id="Employee-Company" style="stroke:#A80036;stroke-width:1.0;"/><text fill="#000000" font-family="sans-serif" font-size="13" lengthAdjust="spacingAndGlyphs" textLength="53" x="245.5" y="570.371">works for</text><text fill="#000000" font-family="sans-serif" font-size="13" lengthAdjust="spacingAndGlyphs" textLength="5" x="240.8106" y="547.6285">*</text><text fill="#000000" font-family="sans-serif" font-size="13" lengthAdjust="spacingAndGlyphs" textLength="7" x="235.7393" y="592.5874">1</text><!--MD5=[bd8a426ca57f7c47dab5a73cf060b59f]
@startuml

object Company{
-designation
-address
}

object Sample{
-barCode
-type
}

object ChemicalLaboratory{
-name
-address
-phoneNumber
-TINNumber
}

object Test{
-testID
-nhscode
-description
-dateDiagnosis
-timeDiagnosis
-dateValidation
-timeValidation
}


object Employee{
-employeeID
-organizationRole
-name
-address
-phoneNumber
-email
-SOCCode

}

object MedicalLabTechnician{
}

object TestType{
-testTypeID
-designation
}

object BarCodeAPI{
}

object CollectingMethod{
-designation
}

Company "1" - - "*" TestType : conducts
TestType "*" - - "1" CollectingMethod : has

Company "1" - - "*" Test : performs

Test "*" - - "1" TestType : is of

Sample "*" - - "1" MedicalLabTechnician : is collected/analyzed by
Sample "*" - - "1" Test : is based on

ChemicalLaboratory "1" - - "*" Sample : is received

package "BarCodeAPI" #DDDDDD{
	BarCodeAPI "1" - - "*" Sample : generates barCode
}

MedicalLabTechnician "*" - - "1" Employee : is a
Employee "*" - - "1" Company : works for

@enduml

PlantUML version 1.2020.26(Mon Dec 21 17:45:07 WET 2020)
(GPL source distribution)
Java Runtime: OpenJDK Runtime Environment
JVM: OpenJDK 64-Bit Server VM
Default Encoding: ANSI_X3.4-1968
Language: en
Country: US
--></g></svg>