<?xml version="1.0" encoding="UTF-8" standalone="no"?><svg xmlns="http://www.w3.org/2000/svg" xmlns:xlink="http://www.w3.org/1999/xlink" contentScriptType="application/ecmascript" contentStyleType="text/css" height="736px" preserveAspectRatio="none" style="width:158px;height:736px;" version="1.1" viewBox="0 0 158 736" width="158px" zoomAndPan="magnify"><defs><filter height="300%" id="f6mhy34ahualf" width="300%" x="-1" y="-1"><feGaussianBlur result="blurOut" stdDeviation="2.0"/><feColorMatrix in="blurOut" result="blurOut2" type="matrix" values="0 0 0 0 0 0 0 0 0 0 0 0 0 0 0 0 0 0 .4 0"/><feOffset dx="4.0" dy="4.0" in="blurOut2" result="blurOut3"/><feBlend in="SourceGraphic" in2="blurOut3" mode="normal"/></filter></defs><g><!--MD5=[02e4b9b7573f1156f41e60aa5b4e25a4]
class Company--><rect codeLine="8" fill="#FEFECE" filter="url(#f6mhy34ahualf)" height="73.6094" id="Company" style="stroke:#A80036;stroke-width:1.5;" width="92" x="29.5" y="7"/><ellipse cx="45.85" cy="23" fill="#ADD1B2" rx="11" ry="11" style="stroke:#A80036;stroke-width:1.0;"/><path d="M48.8188,28.6406 Q48.2406,28.9375 47.6,29.0781 Q46.9594,29.2344 46.2563,29.2344 Q43.7563,29.2344 42.4281,27.5938 Q41.1156,25.9375 41.1156,22.8125 Q41.1156,19.6875 42.4281,18.0313 Q43.7563,16.375 46.2563,16.375 Q46.9594,16.375 47.6,16.5313 Q48.2563,16.6875 48.8188,16.9844 L48.8188,19.7031 Q48.1938,19.125 47.6,18.8594 Q47.0063,18.5781 46.3813,18.5781 Q45.0375,18.5781 44.35,19.6563 Q43.6625,20.7188 43.6625,22.8125 Q43.6625,24.9063 44.35,25.9844 Q45.0375,27.0469 46.3813,27.0469 Q47.0063,27.0469 47.6,26.7813 Q48.1938,26.5 48.8188,25.9219 L48.8188,28.6406 Z " fill="#000000"/><text fill="#000000" font-family="sans-serif" font-size="12" lengthAdjust="spacingAndGlyphs" textLength="57" x="60.15" y="27.1543">Company</text><line style="stroke:#A80036;stroke-width:1.5;" x1="30.5" x2="120.5" y1="39" y2="39"/><rect fill="none" height="6" style="stroke:#C82930;stroke-width:1.0;" width="6" x="37.5" y="47"/><text fill="#000000" font-family="sans-serif" font-size="11" lengthAdjust="spacingAndGlyphs" textLength="66" x="49.5" y="53.2104">designation</text><rect fill="none" height="6" style="stroke:#C82930;stroke-width:1.0;" width="6" x="37.5" y="59.8047"/><text fill="#000000" font-family="sans-serif" font-size="11" lengthAdjust="spacingAndGlyphs" textLength="47" x="49.5" y="66.0151">address</text><line style="stroke:#A80036;stroke-width:1.5;" x1="30.5" x2="120.5" y1="72.6094" y2="72.6094"/><!--MD5=[df38be88ccee13e832d6fafd6288a4ca]
class Test--><rect codeLine="13" fill="#FEFECE" filter="url(#f6mhy34ahualf)" height="137.6328" id="Test" style="stroke:#A80036;stroke-width:1.5;" width="107" x="22" y="158"/><ellipse cx="58.6" cy="174" fill="#ADD1B2" rx="11" ry="11" style="stroke:#A80036;stroke-width:1.0;"/><path d="M61.5688,179.6406 Q60.9906,179.9375 60.35,180.0781 Q59.7094,180.2344 59.0063,180.2344 Q56.5063,180.2344 55.1781,178.5938 Q53.8656,176.9375 53.8656,173.8125 Q53.8656,170.6875 55.1781,169.0313 Q56.5063,167.375 59.0063,167.375 Q59.7094,167.375 60.35,167.5313 Q61.0063,167.6875 61.5688,167.9844 L61.5688,170.7031 Q60.9438,170.125 60.35,169.8594 Q59.7563,169.5781 59.1313,169.5781 Q57.7875,169.5781 57.1,170.6563 Q56.4125,171.7188 56.4125,173.8125 Q56.4125,175.9063 57.1,176.9844 Q57.7875,178.0469 59.1313,178.0469 Q59.7563,178.0469 60.35,177.7813 Q60.9438,177.5 61.5688,176.9219 L61.5688,179.6406 Z " fill="#000000"/><text fill="#000000" font-family="sans-serif" font-size="12" lengthAdjust="spacingAndGlyphs" textLength="27" x="77.4" y="178.1543">Test</text><line style="stroke:#A80036;stroke-width:1.5;" x1="23" x2="128" y1="190" y2="190"/><rect fill="none" height="6" style="stroke:#C82930;stroke-width:1.0;" width="6" x="30" y="198"/><text fill="#000000" font-family="sans-serif" font-size="11" lengthAdjust="spacingAndGlyphs" textLength="33" x="42" y="204.2104">testID</text><rect fill="none" height="6" style="stroke:#C82930;stroke-width:1.0;" width="6" x="30" y="210.8047"/><text fill="#000000" font-family="sans-serif" font-size="11" lengthAdjust="spacingAndGlyphs" textLength="48" x="42" y="217.0151">nhscode</text><rect fill="none" height="6" style="stroke:#C82930;stroke-width:1.0;" width="6" x="30" y="223.6094"/><text fill="#000000" font-family="sans-serif" font-size="11" lengthAdjust="spacingAndGlyphs" textLength="63" x="42" y="229.8198">description</text><rect fill="none" height="6" style="stroke:#C82930;stroke-width:1.0;" width="6" x="30" y="236.4141"/><text fill="#000000" font-family="sans-serif" font-size="11" lengthAdjust="spacingAndGlyphs" textLength="81" x="42" y="242.6245">dateDiagnosis</text><rect fill="none" height="6" style="stroke:#C82930;stroke-width:1.0;" width="6" x="30" y="249.2188"/><text fill="#000000" font-family="sans-serif" font-size="11" lengthAdjust="spacingAndGlyphs" textLength="81" x="42" y="255.4292">timeDiagnosis</text><rect fill="none" height="6" style="stroke:#C82930;stroke-width:1.0;" width="6" x="30" y="262.0234"/><text fill="#000000" font-family="sans-serif" font-size="11" lengthAdjust="spacingAndGlyphs" textLength="80" x="42" y="268.2339">dateValidation</text><rect fill="none" height="6" style="stroke:#C82930;stroke-width:1.0;" width="6" x="30" y="274.8281"/><text fill="#000000" font-family="sans-serif" font-size="11" lengthAdjust="spacingAndGlyphs" textLength="80" x="42" y="281.0386">timeValidation</text><line style="stroke:#A80036;stroke-width:1.5;" x1="23" x2="128" y1="287.6328" y2="287.6328"/><!--MD5=[10d06bcee75aaf74ab8f6040820ceef2]
class Diagnosis--><rect codeLine="23" fill="#FEFECE" filter="url(#f6mhy34ahualf)" height="60.8047" id="Diagnosis" style="stroke:#A80036;stroke-width:1.5;" width="93" x="29" y="373"/><ellipse cx="44" cy="389" fill="#ADD1B2" rx="11" ry="11" style="stroke:#A80036;stroke-width:1.0;"/><path d="M46.9688,394.6406 Q46.3906,394.9375 45.75,395.0781 Q45.1094,395.2344 44.4063,395.2344 Q41.9063,395.2344 40.5781,393.5938 Q39.2656,391.9375 39.2656,388.8125 Q39.2656,385.6875 40.5781,384.0313 Q41.9063,382.375 44.4063,382.375 Q45.1094,382.375 45.75,382.5313 Q46.4063,382.6875 46.9688,382.9844 L46.9688,385.7031 Q46.3438,385.125 45.75,384.8594 Q45.1563,384.5781 44.5313,384.5781 Q43.1875,384.5781 42.5,385.6563 Q41.8125,386.7188 41.8125,388.8125 Q41.8125,390.9063 42.5,391.9844 Q43.1875,393.0469 44.5313,393.0469 Q45.1563,393.0469 45.75,392.7813 Q46.3438,392.5 46.9688,391.9219 L46.9688,394.6406 Z " fill="#000000"/><text fill="#000000" font-family="sans-serif" font-size="12" lengthAdjust="spacingAndGlyphs" textLength="61" x="58" y="393.1543">Diagnosis</text><line style="stroke:#A80036;stroke-width:1.5;" x1="30" x2="121" y1="405" y2="405"/><rect fill="none" height="6" style="stroke:#C82930;stroke-width:1.0;" width="6" x="37" y="413"/><text fill="#000000" font-family="sans-serif" font-size="11" lengthAdjust="spacingAndGlyphs" textLength="33" x="49" y="419.2104">result</text><line style="stroke:#A80036;stroke-width:1.5;" x1="30" x2="121" y1="425.8047" y2="425.8047"/><!--MD5=[7d96fd15f3014691d2fcaf89c5791e2a]
class SpecialistDoctor--><rect codeLine="27" fill="#FEFECE" filter="url(#f6mhy34ahualf)" height="60.8047" id="SpecialistDoctor" style="stroke:#A80036;stroke-width:1.5;" width="137" x="7" y="511"/><ellipse cx="23.35" cy="527" fill="#ADD1B2" rx="11" ry="11" style="stroke:#A80036;stroke-width:1.0;"/><path d="M26.3188,532.6406 Q25.7406,532.9375 25.1,533.0781 Q24.4594,533.2344 23.7563,533.2344 Q21.2563,533.2344 19.9281,531.5938 Q18.6156,529.9375 18.6156,526.8125 Q18.6156,523.6875 19.9281,522.0313 Q21.2563,520.375 23.7563,520.375 Q24.4594,520.375 25.1,520.5313 Q25.7563,520.6875 26.3188,520.9844 L26.3188,523.7031 Q25.6938,523.125 25.1,522.8594 Q24.5063,522.5781 23.8813,522.5781 Q22.5375,522.5781 21.85,523.6563 Q21.1625,524.7188 21.1625,526.8125 Q21.1625,528.9063 21.85,529.9844 Q22.5375,531.0469 23.8813,531.0469 Q24.5063,531.0469 25.1,530.7813 Q25.6938,530.5 26.3188,529.9219 L26.3188,532.6406 Z " fill="#000000"/><text fill="#000000" font-family="sans-serif" font-size="12" lengthAdjust="spacingAndGlyphs" textLength="102" x="37.65" y="531.1543">SpecialistDoctor</text><line style="stroke:#A80036;stroke-width:1.5;" x1="8" x2="143" y1="543" y2="543"/><rect fill="none" height="6" style="stroke:#C82930;stroke-width:1.0;" width="6" x="15" y="551"/><text fill="#000000" font-family="sans-serif" font-size="11" lengthAdjust="spacingAndGlyphs" textLength="111" x="27" y="557.2104">doctorIndexNumber</text><line style="stroke:#A80036;stroke-width:1.5;" x1="8" x2="143" y1="563.8047" y2="563.8047"/><!--MD5=[f00dbe8c0302c6aec2cb26b3c659c8fc]
class Report--><rect codeLine="31" fill="#FEFECE" filter="url(#f6mhy34ahualf)" height="73.6094" id="Report" style="stroke:#A80036;stroke-width:1.5;" width="74" x="38.5" y="649"/><ellipse cx="53.5" cy="665" fill="#ADD1B2" rx="11" ry="11" style="stroke:#A80036;stroke-width:1.0;"/><path d="M56.4688,670.6406 Q55.8906,670.9375 55.25,671.0781 Q54.6094,671.2344 53.9063,671.2344 Q51.4063,671.2344 50.0781,669.5938 Q48.7656,667.9375 48.7656,664.8125 Q48.7656,661.6875 50.0781,660.0313 Q51.4063,658.375 53.9063,658.375 Q54.6094,658.375 55.25,658.5313 Q55.9063,658.6875 56.4688,658.9844 L56.4688,661.7031 Q55.8438,661.125 55.25,660.8594 Q54.6563,660.5781 54.0313,660.5781 Q52.6875,660.5781 52,661.6563 Q51.3125,662.7188 51.3125,664.8125 Q51.3125,666.9063 52,667.9844 Q52.6875,669.0469 54.0313,669.0469 Q54.6563,669.0469 55.25,668.7813 Q55.8438,668.5 56.4688,667.9219 L56.4688,670.6406 Z " fill="#000000"/><text fill="#000000" font-family="sans-serif" font-size="12" lengthAdjust="spacingAndGlyphs" textLength="42" x="67.5" y="669.1543">Report</text><line style="stroke:#A80036;stroke-width:1.5;" x1="39.5" x2="111.5" y1="681" y2="681"/><rect fill="none" height="6" style="stroke:#C82930;stroke-width:1.0;" width="6" x="46.5" y="689"/><text fill="#000000" font-family="sans-serif" font-size="11" lengthAdjust="spacingAndGlyphs" textLength="24" x="58.5" y="695.2104">type</text><rect fill="none" height="6" style="stroke:#C82930;stroke-width:1.0;" width="6" x="46.5" y="701.8047"/><text fill="#000000" font-family="sans-serif" font-size="11" lengthAdjust="spacingAndGlyphs" textLength="33" x="58.5" y="708.0151">result</text><line style="stroke:#A80036;stroke-width:1.5;" x1="39.5" x2="111.5" y1="714.6094" y2="714.6094"/><!--MD5=[7e4bc624457760b649895ff2ead938fa]
link Company to Test--><path codeLine="3" d="M75.5,81.0328 C75.5,101.6062 75.5,127.9557 75.5,152.5914 " fill="none" id="Company-to-Test" style="stroke:#A80036;stroke-width:1.0;"/><polygon fill="#A80036" points="75.5,157.8196,79.5,148.8196,75.5,152.8196,71.5,148.8196,75.5,157.8196" style="stroke:#A80036;stroke-width:1.0;"/><text fill="#000000" font-family="sans-serif" font-size="13" lengthAdjust="spacingAndGlyphs" textLength="58" x="76.5" y="124.0669">performs</text><text fill="#000000" font-family="sans-serif" font-size="13" lengthAdjust="spacingAndGlyphs" textLength="8" x="66.8125" y="100.7988">1</text><text fill="#000000" font-family="sans-serif" font-size="13" lengthAdjust="spacingAndGlyphs" textLength="7" x="68.1391" y="147.0046">*</text><!--MD5=[c589a96ea5b3e7b46913d69cfe3024d4]
link Test to Diagnosis--><path codeLine="4" d="M75.5,296.2509 C75.5,320.6457 75.5,347.0738 75.5,367.5914 " fill="none" id="Test-to-Diagnosis" style="stroke:#A80036;stroke-width:1.0;"/><polygon fill="#A80036" points="75.5,372.6756,79.5,363.6756,75.5,367.6756,71.5,363.6756,75.5,372.6756" style="stroke:#A80036;stroke-width:1.0;"/><text fill="#000000" font-family="sans-serif" font-size="13" lengthAdjust="spacingAndGlyphs" textLength="23" x="76.5" y="339.0669">has</text><text fill="#000000" font-family="sans-serif" font-size="13" lengthAdjust="spacingAndGlyphs" textLength="8" x="67.1188" y="315.6569">1</text><text fill="#000000" font-family="sans-serif" font-size="13" lengthAdjust="spacingAndGlyphs" textLength="8" x="66.675" y="361.8719">1</text><!--MD5=[fd5f5b962c28af1c88b5bc5c4cfdb2d8]
link Diagnosis to SpecialistDoctor--><path codeLine="5" d="M75.5,434.1267 C75.5,455.2983 75.5,483.5374 75.5,505.7418 " fill="none" id="Diagnosis-to-SpecialistDoctor" style="stroke:#A80036;stroke-width:1.0;"/><polygon fill="#A80036" points="75.5,510.9589,79.5,501.9589,75.5,505.9589,71.5,501.9589,75.5,510.9589" style="stroke:#A80036;stroke-width:1.0;"/><text fill="#000000" font-family="sans-serif" font-size="13" lengthAdjust="spacingAndGlyphs" textLength="70" x="76.5" y="477.0669">is made by</text><text fill="#000000" font-family="sans-serif" font-size="13" lengthAdjust="spacingAndGlyphs" textLength="7" x="67.7781" y="454.0911">*</text><text fill="#000000" font-family="sans-serif" font-size="13" lengthAdjust="spacingAndGlyphs" textLength="8" x="66.625" y="499.7402">1</text><!--MD5=[35c5d5b78cc27fdb07caaeeaa436e174]
link SpecialistDoctor to Report--><path codeLine="6" d="M75.5,572.1447 C75.5,593.0172 75.5,620.917 75.5,643.8741 " fill="none" id="SpecialistDoctor-to-Report" style="stroke:#A80036;stroke-width:1.0;"/><polygon fill="#A80036" points="75.5,648.9929,79.5,639.9929,75.5,643.9929,71.5,639.9929,75.5,648.9929" style="stroke:#A80036;stroke-width:1.0;"/><text fill="#000000" font-family="sans-serif" font-size="13" lengthAdjust="spacingAndGlyphs" textLength="68" x="76.5" y="615.0669">elaborates</text><text fill="#000000" font-family="sans-serif" font-size="13" lengthAdjust="spacingAndGlyphs" textLength="8" x="66.7125" y="591.7536">1</text><text fill="#000000" font-family="sans-serif" font-size="13" lengthAdjust="spacingAndGlyphs" textLength="8" x="66.7625" y="637.9021">1</text><!--MD5=[a7207eda5604dcf4f619fd92f5a4f762]
@startuml
'https://plantuml.com/class-diagram

Company "1" - -> "*" Test : performs
Test "1" - -> "1" Diagnosis : has
Diagnosis "*" - -> "1" SpecialistDoctor : is made by
SpecialistDoctor "1" - -> "1" Report : elaborates

class Company {
- designation
- address
}

class Test {
- testID
- nhscode
- description
- dateDiagnosis
- timeDiagnosis
- dateValidation
- timeValidation
}

class Diagnosis {
- result
}

class SpecialistDoctor {
- doctorIndexNumber
}

class Report {
- type
- result
}
@enduml

@startuml

Company "1" - -> "*" Test : performs
Test "1" - -> "1" Diagnosis : has
Diagnosis "*" - -> "1" SpecialistDoctor : is made by
SpecialistDoctor "1" - -> "1" Report : elaborates

class Company {
- designation
- address
}

class Test {
- testID
- nhscode
- description
- dateDiagnosis
- timeDiagnosis
- dateValidation
- timeValidation
}

class Diagnosis {
- result
}

class SpecialistDoctor {
- doctorIndexNumber
}

class Report {
- type
- result
}
@enduml

PlantUML version 1.2020.22(Sun Dec 06 09:36:27 UTC 2020)
(GPL source distribution)
Java Runtime: OpenJDK Runtime Environment
JVM: OpenJDK 64-Bit Server VM
Default Encoding: UTF-8
Language: en
Country: US
--></g></svg>