<?xml version="1.0" encoding="UTF-8" standalone="no"?><svg xmlns="http://www.w3.org/2000/svg" xmlns:xlink="http://www.w3.org/1999/xlink" contentScriptType="application/ecmascript" contentStyleType="text/css" height="599px" preserveAspectRatio="none" style="width:143px;height:599px;" version="1.1" viewBox="0 0 143 599" width="143px" zoomAndPan="magnify"><defs><filter height="300%" id="fuz33qhc88qlb" width="300%" x="-1" y="-1"><feGaussianBlur result="blurOut" stdDeviation="2.0"/><feColorMatrix in="blurOut" result="blurOut2" type="matrix" values="0 0 0 0 0 0 0 0 0 0 0 0 0 0 0 0 0 0 .4 0"/><feOffset dx="4.0" dy="4.0" in="blurOut2" result="blurOut3"/><feBlend in="SourceGraphic" in2="blurOut3" mode="normal"/></filter></defs><g><!--MD5=[02e4b9b7573f1156f41e60aa5b4e25a4]
class Company--><rect codeLine="4" fill="#FEFECE" filter="url(#fuz33qhc88qlb)" height="75.6719" id="Company" style="stroke:#A80036;stroke-width:1.5;" width="85" x="25.5" y="7"/><ellipse cx="40.5" cy="23" fill="#ADD1B2" rx="11" ry="11" style="stroke:#A80036;stroke-width:1.0;"/><path d="M42.5,19.5 Q42.7031,19 42.9375,18.75 Q43.1719,18.5 43.4375,18.5 Q43.9063,18.5 44.2031,18.7813 Q44.5,19.0625 44.5,19.7188 L44.5,21.2813 Q44.5,21.9375 44.2188,22.2188 Q43.9375,22.5 43.5,22.5 Q43.1094,22.5 42.8594,22.3281 Q42.6094,22.1563 42.5,21.7031 Q42.4531,21.3906 42.2813,21.2188 Q41.9688,20.8906 41.4063,20.7031 Q40.8438,20.5 40.2813,20.5 Q39.5781,20.5 38.9844,20.7813 Q38.4063,21.0625 37.9531,21.6875 Q37.5,22.3125 37.5,23.1719 L37.5,24.0938 Q37.5,25.125 38.3438,25.8125 Q39.1875,26.5 40.6875,26.5 Q41.5781,26.5 42.2031,26.2969 Q42.5625,26.1875 42.9688,25.8281 Q43.2344,25.625 43.375,25.5625 Q43.5156,25.5 43.6875,25.5 Q44.0156,25.5 44.25,25.7656 Q44.5,26.0156 44.5,26.375 Q44.5,26.7188 44.1563,27.125 Q43.6563,27.7188 42.8594,28.0469 Q41.8125,28.5 40.5313,28.5 Q39.0313,28.5 37.8281,27.9063 Q36.8594,27.4375 36.1719,26.4219 Q35.5,25.4063 35.5,24.2031 L35.5,23.1094 Q35.5,21.8594 36.0938,20.7656 Q36.7031,19.6719 37.75,19.0938 Q38.8125,18.5 40,18.5 Q40.7188,18.5 41.3438,18.75 Q41.9688,19 42.5,19.5 Z " fill="#000000"/><text fill="#000000" font-family="sans-serif" font-size="12" lengthAdjust="spacing" textLength="53" x="54.5" y="27.9102">Company</text><line style="stroke:#A80036;stroke-width:1.5;" x1="26.5" x2="109.5" y1="39" y2="39"/><rect fill="none" height="6" style="stroke:#C82930;stroke-width:1.0;" width="6" x="33.5" y="47"/><text fill="#000000" font-family="sans-serif" font-size="11" lengthAdjust="spacing" textLength="55" x="45.5" y="54.4189">designation</text><rect fill="none" height="6" style="stroke:#C82930;stroke-width:1.0;" width="6" x="33.5" y="60.8359"/><text fill="#000000" font-family="sans-serif" font-size="11" lengthAdjust="spacing" textLength="40" x="45.5" y="68.2549">address</text><line style="stroke:#A80036;stroke-width:1.5;" x1="26.5" x2="109.5" y1="74.6719" y2="74.6719"/><!--MD5=[df38be88ccee13e832d6fafd6288a4ca]
class Test--><rect codeLine="9" fill="#FEFECE" filter="url(#fuz33qhc88qlb)" height="144.8516" id="Test" style="stroke:#A80036;stroke-width:1.5;" width="94" x="21" y="161"/><ellipse cx="53.1" cy="177" fill="#ADD1B2" rx="11" ry="11" style="stroke:#A80036;stroke-width:1.0;"/><path d="M55.1,173.5 Q55.3031,173 55.5375,172.75 Q55.7719,172.5 56.0375,172.5 Q56.5063,172.5 56.8031,172.7813 Q57.1,173.0625 57.1,173.7188 L57.1,175.2813 Q57.1,175.9375 56.8188,176.2188 Q56.5375,176.5 56.1,176.5 Q55.7094,176.5 55.4594,176.3281 Q55.2094,176.1563 55.1,175.7031 Q55.0531,175.3906 54.8813,175.2188 Q54.5688,174.8906 54.0063,174.7031 Q53.4438,174.5 52.8813,174.5 Q52.1781,174.5 51.5844,174.7813 Q51.0063,175.0625 50.5531,175.6875 Q50.1,176.3125 50.1,177.1719 L50.1,178.0938 Q50.1,179.125 50.9438,179.8125 Q51.7875,180.5 53.2875,180.5 Q54.1781,180.5 54.8031,180.2969 Q55.1625,180.1875 55.5688,179.8281 Q55.8344,179.625 55.975,179.5625 Q56.1156,179.5 56.2875,179.5 Q56.6156,179.5 56.85,179.7656 Q57.1,180.0156 57.1,180.375 Q57.1,180.7188 56.7563,181.125 Q56.2563,181.7188 55.4594,182.0469 Q54.4125,182.5 53.1313,182.5 Q51.6313,182.5 50.4281,181.9063 Q49.4594,181.4375 48.7719,180.4219 Q48.1,179.4063 48.1,178.2031 L48.1,177.1094 Q48.1,175.8594 48.6938,174.7656 Q49.3031,173.6719 50.35,173.0938 Q51.4125,172.5 52.6,172.5 Q53.3188,172.5 53.9438,172.75 Q54.5688,173 55.1,173.5 Z " fill="#000000"/><text fill="#000000" font-family="sans-serif" font-size="12" lengthAdjust="spacing" textLength="24" x="70.9" y="181.9102">Test</text><line style="stroke:#A80036;stroke-width:1.5;" x1="22" x2="114" y1="193" y2="193"/><rect fill="none" height="6" style="stroke:#C82930;stroke-width:1.0;" width="6" x="29" y="201"/><text fill="#000000" font-family="sans-serif" font-size="11" lengthAdjust="spacing" textLength="27" x="41" y="208.4189">testID</text><rect fill="none" height="6" style="stroke:#C82930;stroke-width:1.0;" width="6" x="29" y="214.8359"/><text fill="#000000" font-family="sans-serif" font-size="11" lengthAdjust="spacing" textLength="42" x="41" y="222.2549">nhscode</text><rect fill="none" height="6" style="stroke:#C82930;stroke-width:1.0;" width="6" x="29" y="228.6719"/><text fill="#000000" font-family="sans-serif" font-size="11" lengthAdjust="spacing" textLength="53" x="41" y="236.0908">description</text><rect fill="none" height="6" style="stroke:#C82930;stroke-width:1.0;" width="6" x="29" y="242.5078"/><text fill="#000000" font-family="sans-serif" font-size="11" lengthAdjust="spacing" textLength="68" x="41" y="249.9268">dateDiagnosis</text><rect fill="none" height="6" style="stroke:#C82930;stroke-width:1.0;" width="6" x="29" y="256.3438"/><text fill="#000000" font-family="sans-serif" font-size="11" lengthAdjust="spacing" textLength="66" x="41" y="263.7627">timeDiagnosis</text><rect fill="none" height="6" style="stroke:#C82930;stroke-width:1.0;" width="6" x="29" y="270.1797"/><text fill="#000000" font-family="sans-serif" font-size="11" lengthAdjust="spacing" textLength="68" x="41" y="277.5986">dateValidation</text><rect fill="none" height="6" style="stroke:#C82930;stroke-width:1.0;" width="6" x="29" y="284.0156"/><text fill="#000000" font-family="sans-serif" font-size="11" lengthAdjust="spacing" textLength="66" x="41" y="291.4346">timeValidation</text><line style="stroke:#A80036;stroke-width:1.5;" x1="22" x2="114" y1="297.8516" y2="297.8516"/><!--MD5=[10d06bcee75aaf74ab8f6040820ceef2]
class Diagnosis--><rect codeLine="19" fill="#FEFECE" filter="url(#fuz33qhc88qlb)" height="61.8359" id="Diagnosis" style="stroke:#A80036;stroke-width:1.5;" width="89" x="23.5" y="384"/><ellipse cx="38.5" cy="400" fill="#ADD1B2" rx="11" ry="11" style="stroke:#A80036;stroke-width:1.0;"/><path d="M40.5,396.5 Q40.7031,396 40.9375,395.75 Q41.1719,395.5 41.4375,395.5 Q41.9063,395.5 42.2031,395.7813 Q42.5,396.0625 42.5,396.7188 L42.5,398.2813 Q42.5,398.9375 42.2188,399.2188 Q41.9375,399.5 41.5,399.5 Q41.1094,399.5 40.8594,399.3281 Q40.6094,399.1563 40.5,398.7031 Q40.4531,398.3906 40.2813,398.2188 Q39.9688,397.8906 39.4063,397.7031 Q38.8438,397.5 38.2813,397.5 Q37.5781,397.5 36.9844,397.7813 Q36.4063,398.0625 35.9531,398.6875 Q35.5,399.3125 35.5,400.1719 L35.5,401.0938 Q35.5,402.125 36.3438,402.8125 Q37.1875,403.5 38.6875,403.5 Q39.5781,403.5 40.2031,403.2969 Q40.5625,403.1875 40.9688,402.8281 Q41.2344,402.625 41.375,402.5625 Q41.5156,402.5 41.6875,402.5 Q42.0156,402.5 42.25,402.7656 Q42.5,403.0156 42.5,403.375 Q42.5,403.7188 42.1563,404.125 Q41.6563,404.7188 40.8594,405.0469 Q39.8125,405.5 38.5313,405.5 Q37.0313,405.5 35.8281,404.9063 Q34.8594,404.4375 34.1719,403.4219 Q33.5,402.4063 33.5,401.2031 L33.5,400.1094 Q33.5,398.8594 34.0938,397.7656 Q34.7031,396.6719 35.75,396.0938 Q36.8125,395.5 38,395.5 Q38.7188,395.5 39.3438,395.75 Q39.9688,396 40.5,396.5 Z " fill="#000000"/><text fill="#000000" font-family="sans-serif" font-size="12" lengthAdjust="spacing" textLength="57" x="52.5" y="404.9102">Diagnosis</text><line style="stroke:#A80036;stroke-width:1.5;" x1="24.5" x2="111.5" y1="416" y2="416"/><rect fill="none" height="6" style="stroke:#C82930;stroke-width:1.0;" width="6" x="31.5" y="424"/><text fill="#000000" font-family="sans-serif" font-size="11" lengthAdjust="spacing" textLength="29" x="43.5" y="431.4189">report</text><line style="stroke:#A80036;stroke-width:1.5;" x1="24.5" x2="111.5" y1="437.8359" y2="437.8359"/><!--MD5=[7d96fd15f3014691d2fcaf89c5791e2a]
class SpecialistDoctor--><rect codeLine="23" fill="#FEFECE" filter="url(#fuz33qhc88qlb)" height="61.8359" id="SpecialistDoctor" style="stroke:#A80036;stroke-width:1.5;" width="122" x="7" y="524"/><ellipse cx="22" cy="540" fill="#ADD1B2" rx="11" ry="11" style="stroke:#A80036;stroke-width:1.0;"/><path d="M24,536.5 Q24.2031,536 24.4375,535.75 Q24.6719,535.5 24.9375,535.5 Q25.4063,535.5 25.7031,535.7813 Q26,536.0625 26,536.7188 L26,538.2813 Q26,538.9375 25.7188,539.2188 Q25.4375,539.5 25,539.5 Q24.6094,539.5 24.3594,539.3281 Q24.1094,539.1563 24,538.7031 Q23.9531,538.3906 23.7813,538.2188 Q23.4688,537.8906 22.9063,537.7031 Q22.3438,537.5 21.7813,537.5 Q21.0781,537.5 20.4844,537.7813 Q19.9063,538.0625 19.4531,538.6875 Q19,539.3125 19,540.1719 L19,541.0938 Q19,542.125 19.8438,542.8125 Q20.6875,543.5 22.1875,543.5 Q23.0781,543.5 23.7031,543.2969 Q24.0625,543.1875 24.4688,542.8281 Q24.7344,542.625 24.875,542.5625 Q25.0156,542.5 25.1875,542.5 Q25.5156,542.5 25.75,542.7656 Q26,543.0156 26,543.375 Q26,543.7188 25.6563,544.125 Q25.1563,544.7188 24.3594,545.0469 Q23.3125,545.5 22.0313,545.5 Q20.5313,545.5 19.3281,544.9063 Q18.3594,544.4375 17.6719,543.4219 Q17,542.4063 17,541.2031 L17,540.1094 Q17,538.8594 17.5938,537.7656 Q18.2031,536.6719 19.25,536.0938 Q20.3125,535.5 21.5,535.5 Q22.2188,535.5 22.8438,535.75 Q23.4688,536 24,536.5 Z " fill="#000000"/><text fill="#000000" font-family="sans-serif" font-size="12" lengthAdjust="spacing" textLength="90" x="36" y="544.9102">SpecialistDoctor</text><line style="stroke:#A80036;stroke-width:1.5;" x1="8" x2="128" y1="556" y2="556"/><rect fill="none" height="6" style="stroke:#C82930;stroke-width:1.0;" width="6" x="15" y="564"/><text fill="#000000" font-family="sans-serif" font-size="11" lengthAdjust="spacing" textLength="94" x="27" y="571.4189">doctorIndexNumber</text><line style="stroke:#A80036;stroke-width:1.5;" x1="8" x2="128" y1="577.8359" y2="577.8359"/><!--MD5=[7e4bc624457760b649895ff2ead938fa]
link Company to Test--><path codeLine="27" d="M68,83.29 C68,104.03 68,130.64 68,155.62 " fill="none" id="Company-to-Test" style="stroke:#A80036;stroke-width:1.0;"/><polygon fill="#A80036" points="68,160.92,72,151.92,68,155.92,64,151.92,68,160.92" style="stroke:#A80036;stroke-width:1.0;"/><text fill="#000000" font-family="sans-serif" font-size="13" lengthAdjust="spacing" textLength="50" x="69" y="127.4951">performs</text><text fill="#000000" font-family="sans-serif" font-size="13" lengthAdjust="spacing" textLength="7" x="60.4422" y="104.2167">1</text><text fill="#000000" font-family="sans-serif" font-size="13" lengthAdjust="spacing" textLength="5" x="62.7422" y="150.1311">*</text><!--MD5=[c589a96ea5b3e7b46913d69cfe3024d4]
link Test to Diagnosis--><path codeLine="28" d="M68,306.22 C68,331.06 68,357.83 68,378.48 " fill="none" id="Test-to-Diagnosis" style="stroke:#A80036;stroke-width:1.0;"/><polygon fill="#A80036" points="68,383.59,72,374.59,68,378.59,64,374.59,68,383.59" style="stroke:#A80036;stroke-width:1.0;"/><text fill="#000000" font-family="sans-serif" font-size="13" lengthAdjust="spacing" textLength="21" x="69" y="350.4951">has</text><text fill="#000000" font-family="sans-serif" font-size="13" lengthAdjust="spacing" textLength="7" x="60.6664" y="327.4326">1</text><text fill="#000000" font-family="sans-serif" font-size="13" lengthAdjust="spacing" textLength="7" x="60.2781" y="373.01">1</text><!--MD5=[fd5f5b962c28af1c88b5bc5c4cfdb2d8]
link Diagnosis to SpecialistDoctor--><path codeLine="29" d="M68,446.28 C68,467.59 68,496.17 68,518.53 " fill="none" id="Diagnosis-to-SpecialistDoctor" style="stroke:#A80036;stroke-width:1.0;"/><polygon fill="#A80036" points="68,523.79,72,514.79,68,518.79,64,514.79,68,523.79" style="stroke:#A80036;stroke-width:1.0;"/><text fill="#000000" font-family="sans-serif" font-size="13" lengthAdjust="spacing" textLength="64" x="69" y="490.4951">is made by</text><text fill="#000000" font-family="sans-serif" font-size="13" lengthAdjust="spacing" textLength="5" x="62.5234" y="467.312">*</text><text fill="#000000" font-family="sans-serif" font-size="13" lengthAdjust="spacing" textLength="7" x="60.2781" y="513.2512">1</text><!--MD5=[3f779864bf50be9a4c4ed39b5c20fe8a]
@startuml
'https://plantuml.com/class-diagram


class Company {
- designation
- address
}

class Test {
- testID
- nhscode
- description
- dateDiagnosis
- timeDiagnosis
- dateValidation
- timeValidation
}

class Diagnosis {
- report
}

class SpecialistDoctor {
- doctorIndexNumber
}

Company "1" - -> "*" Test : performs
Test "1" - -> "1" Diagnosis : has
Diagnosis "*" - -> "1" SpecialistDoctor : is made by



@enduml

@startuml


class Company {
- designation
- address
}

class Test {
- testID
- nhscode
- description
- dateDiagnosis
- timeDiagnosis
- dateValidation
- timeValidation
}

class Diagnosis {
- report
}

class SpecialistDoctor {
- doctorIndexNumber
}

Company "1" - -> "*" Test : performs
Test "1" - -> "1" Diagnosis : has
Diagnosis "*" - -> "1" SpecialistDoctor : is made by



@enduml

PlantUML version 1.2021.5(Sun Apr 25 12:20:28 BST 2021)
(GPL source distribution)
Java Runtime: OpenJDK Runtime Environment
JVM: Dynamic Code Evolution 64-Bit Server VM
Default Encoding: Cp1252
Language: pt
Country: PT
--></g></svg>