<?xml version="1.0" encoding="UTF-8" standalone="no"?><svg xmlns="http://www.w3.org/2000/svg" xmlns:xlink="http://www.w3.org/1999/xlink" contentScriptType="application/ecmascript" contentStyleType="text/css" height="2242px" preserveAspectRatio="none" style="width:3910px;height:2242px;background:#FFFFFF;" version="1.1" viewBox="0 0 3910 2242" width="3910px" zoomAndPan="magnify"><defs><filter height="300%" id="f1tlq9tixef93q" width="300%" x="-1" y="-1"><feGaussianBlur result="blurOut" stdDeviation="4.0"/><feColorMatrix in="blurOut" result="blurOut2" type="matrix" values="0 0 0 0 0 0 0 0 0 0 0 0 0 0 0 0 0 0 .4 0"/><feOffset dx="8.0" dy="8.0" in="blurOut2" result="blurOut3"/><feBlend in="SourceGraphic" in2="blurOut3" mode="normal"/></filter></defs><g><rect fill="#FFFFFF" filter="url(#f1tlq9tixef93q)" height="1860.0195" style="stroke:#A80036;stroke-width:2.0;" width="20" x="146" y="196.9766"/><rect fill="#FFFFFF" filter="url(#f1tlq9tixef93q)" height="817.5898" style="stroke:#A80036;stroke-width:2.0;" width="20" x="1058" y="239.5977"/><rect fill="#FFFFFF" filter="url(#f1tlq9tixef93q)" height="385.4609" style="stroke:#A80036;stroke-width:2.0;" width="20" x="1058" y="1115.8086"/><rect fill="#FFFFFF" filter="url(#f1tlq9tixef93q)" height="497.1055" style="stroke:#A80036;stroke-width:2.0;" width="20" x="1058" y="1559.8906"/><rect fill="#FFFFFF" filter="url(#f1tlq9tixef93q)" height="593.1055" style="stroke:#A80036;stroke-width:2.0;" width="20" x="1456" y="405.4609"/><rect fill="#FFFFFF" filter="url(#f1tlq9tixef93q)" height="268.2188" style="stroke:#A80036;stroke-width:2.0;" width="20" x="1456" y="1174.4297"/><rect fill="#FFFFFF" filter="url(#f1tlq9tixef93q)" height="438.4844" style="stroke:#A80036;stroke-width:2.0;" width="20" x="1456" y="1618.5117"/><rect fill="#FFFFFF" filter="url(#f1tlq9tixef93q)" height="60" style="stroke:#A80036;stroke-width:2.0;" width="20" x="1824" y="464.082"/><rect fill="#FFFFFF" filter="url(#f1tlq9tixef93q)" height="60" style="stroke:#A80036;stroke-width:2.0;" width="20" x="2083" y="582.7031"/><rect fill="#FFFFFF" filter="url(#f1tlq9tixef93q)" height="58.6211" style="stroke:#A80036;stroke-width:2.0;" width="20" x="2422" y="1233.0508"/><rect fill="#FFFFFF" filter="url(#f1tlq9tixef93q)" height="60" style="stroke:#A80036;stroke-width:2.0;" width="20" x="2422" y="1382.6484"/><rect fill="#FFFFFF" filter="url(#f1tlq9tixef93q)" height="275.2422" style="stroke:#A80036;stroke-width:2.0;" width="20" x="2422" y="1677.1328"/><rect fill="#FFFFFF" filter="url(#f1tlq9tixef93q)" height="56" style="stroke:#A80036;stroke-width:2.0;" width="20" x="2432" y="1751.7539"/><rect fill="#FFFFFF" filter="url(#f1tlq9tixef93q)" height="56" style="stroke:#A80036;stroke-width:2.0;" width="20" x="2432" y="1896.375"/><rect fill="#FFFFFF" filter="url(#f1tlq9tixef93q)" height="60" style="stroke:#A80036;stroke-width:2.0;" width="20" x="2806" y="701.3242"/><rect fill="#FFFFFF" filter="url(#f1tlq9tixef93q)" height="60" style="stroke:#A80036;stroke-width:2.0;" width="20" x="3448" y="819.9453"/><rect fill="#FFFFFF" filter="url(#f1tlq9tixef93q)" height="60" style="stroke:#A80036;stroke-width:2.0;" width="20" x="3764" y="938.5664"/><rect fill="#FFFFFF" filter="url(#f1tlq9tixef93q)" height="1771.3984" style="stroke:#000000;stroke-width:4.0;" width="3863" x="20" y="269.5977"/><line style="stroke:#A80036;stroke-width:2.0;stroke-dasharray:5.0,5.0;" x1="156" x2="156" y1="176.9766" y2="2074.9961"/><line style="stroke:#A80036;stroke-width:2.0;stroke-dasharray:5.0,5.0;" x1="1067" x2="1067" y1="176.9766" y2="2074.9961"/><line style="stroke:#A80036;stroke-width:2.0;stroke-dasharray:5.0,5.0;" x1="1465" x2="1465" y1="176.9766" y2="2074.9961"/><line style="stroke:#A80036;stroke-width:2.0;stroke-dasharray:5.0,5.0;" x1="1833" x2="1833" y1="176.9766" y2="2074.9961"/><line style="stroke:#A80036;stroke-width:2.0;stroke-dasharray:5.0,5.0;" x1="2093" x2="2093" y1="176.9766" y2="2074.9961"/><line style="stroke:#A80036;stroke-width:2.0;stroke-dasharray:5.0,5.0;" x1="2431" x2="2431" y1="176.9766" y2="2074.9961"/><line style="stroke:#A80036;stroke-width:2.0;stroke-dasharray:5.0,5.0;" x1="2815" x2="2815" y1="176.9766" y2="2074.9961"/><line style="stroke:#A80036;stroke-width:2.0;stroke-dasharray:5.0,5.0;" x1="3131" x2="3131" y1="1314.5391" y2="2074.9961"/><line style="stroke:#A80036;stroke-width:2.0;stroke-dasharray:5.0,5.0;" x1="3457" x2="3457" y1="176.9766" y2="2074.9961"/><line style="stroke:#A80036;stroke-width:2.0;stroke-dasharray:5.0,5.0;" x1="3773" x2="3773" y1="176.9766" y2="2074.9961"/><text fill="#000000" font-family="sans-serif" font-size="28" lengthAdjust="spacing" textLength="220" x="40" y="171.0703">SpecialistDoctor</text><ellipse cx="156" cy="30" fill="#FEFECE" filter="url(#f1tlq9tixef93q)" rx="16" ry="16" style="stroke:#A80036;stroke-width:4.0;"/><path d="M156,46 L156,100 M130,62 L182,62 M156,100 L130,130 M156,100 L182,130 " fill="none" filter="url(#f1tlq9tixef93q)" style="stroke:#A80036;stroke-width:4.0;"/><text fill="#000000" font-family="sans-serif" font-size="28" lengthAdjust="spacing" textLength="220" x="40" y="2100.0664">SpecialistDoctor</text><ellipse cx="156" cy="2125.9727" fill="#FEFECE" filter="url(#f1tlq9tixef93q)" rx="16" ry="16" style="stroke:#A80036;stroke-width:4.0;"/><path d="M156,2141.9727 L156,2195.9727 M130,2157.9727 L182,2157.9727 M156,2195.9727 L130,2225.9727 M156,2195.9727 L182,2225.9727 " fill="none" filter="url(#f1tlq9tixef93q)" style="stroke:#A80036;stroke-width:4.0;"/><rect fill="#FEFECE" filter="url(#f1tlq9tixef93q)" height="60.9766" style="stroke:#A80036;stroke-width:3.0;" width="246" x="941" y="106"/><text fill="#000000" font-family="sans-serif" font-size="28" lengthAdjust="spacing" textLength="218" x="955" y="147.0703">:CreateReportUI</text><rect fill="#FEFECE" filter="url(#f1tlq9tixef93q)" height="60.9766" style="stroke:#A80036;stroke-width:3.0;" width="246" x="941" y="2072.9961"/><text fill="#000000" font-family="sans-serif" font-size="28" lengthAdjust="spacing" textLength="218" x="955" y="2114.0664">:CreateReportUI</text><rect fill="#FEFECE" filter="url(#f1tlq9tixef93q)" height="60.9766" style="stroke:#A80036;stroke-width:3.0;" width="358" x="1283" y="106"/><text fill="#000000" font-family="sans-serif" font-size="28" lengthAdjust="spacing" textLength="330" x="1297" y="147.0703">:CreateReportController</text><rect fill="#FEFECE" filter="url(#f1tlq9tixef93q)" height="60.9766" style="stroke:#A80036;stroke-width:3.0;" width="358" x="1283" y="2072.9961"/><text fill="#000000" font-family="sans-serif" font-size="28" lengthAdjust="spacing" textLength="330" x="1297" y="2114.0664">:CreateReportController</text><rect fill="#FEFECE" filter="url(#f1tlq9tixef93q)" height="60.9766" style="stroke:#A80036;stroke-width:3.0;" width="166" x="1747" y="106"/><text fill="#000000" font-family="sans-serif" font-size="28" lengthAdjust="spacing" textLength="138" x="1761" y="147.0703">:Company</text><rect fill="#FEFECE" filter="url(#f1tlq9tixef93q)" height="60.9766" style="stroke:#A80036;stroke-width:3.0;" width="166" x="1747" y="2072.9961"/><text fill="#000000" font-family="sans-serif" font-size="28" lengthAdjust="spacing" textLength="138" x="1761" y="2114.0664">:Company</text><rect fill="#FEFECE" filter="url(#f1tlq9tixef93q)" height="60.9766" style="stroke:#A80036;stroke-width:3.0;" width="296" x="1941" y="106"/><text fill="#000000" font-family="sans-serif" font-size="28" lengthAdjust="spacing" textLength="268" x="1955" y="147.0703">TestStore: testStore</text><rect fill="#FEFECE" filter="url(#f1tlq9tixef93q)" height="60.9766" style="stroke:#A80036;stroke-width:3.0;" width="296" x="1941" y="2072.9961"/><text fill="#000000" font-family="sans-serif" font-size="28" lengthAdjust="spacing" textLength="268" x="1955" y="2114.0664">TestStore: testStore</text><rect fill="#FEFECE" filter="url(#f1tlq9tixef93q)" height="60.9766" style="stroke:#A80036;stroke-width:3.0;" width="326" x="2265" y="106"/><text fill="#000000" font-family="sans-serif" font-size="28" lengthAdjust="spacing" textLength="298" x="2279" y="147.0703">repStore: ReportStore</text><rect fill="#FEFECE" filter="url(#f1tlq9tixef93q)" height="60.9766" style="stroke:#A80036;stroke-width:3.0;" width="326" x="2265" y="2072.9961"/><text fill="#000000" font-family="sans-serif" font-size="28" lengthAdjust="spacing" textLength="298" x="2279" y="2114.0664">repStore: ReportStore</text><rect fill="#FEFECE" filter="url(#f1tlq9tixef93q)" height="60.9766" style="stroke:#A80036;stroke-width:3.0;" width="386" x="2619" y="106"/><text fill="#000000" font-family="sans-serif" font-size="28" lengthAdjust="spacing" textLength="358" x="2633" y="147.0703">testMapper: IdTestMapper</text><rect fill="#FEFECE" filter="url(#f1tlq9tixef93q)" height="60.9766" style="stroke:#A80036;stroke-width:3.0;" width="386" x="2619" y="2072.9961"/><text fill="#000000" font-family="sans-serif" font-size="28" lengthAdjust="spacing" textLength="358" x="2633" y="2114.0664">testMapper: IdTestMapper</text><rect fill="#FEFECE" filter="url(#f1tlq9tixef93q)" height="60.9766" style="stroke:#A80036;stroke-width:3.0;" width="190" x="3033" y="2072.9961"/><text fill="#000000" font-family="sans-serif" font-size="28" lengthAdjust="spacing" textLength="162" x="3047" y="2114.0664">rep : Report</text><rect fill="#FEFECE" filter="url(#f1tlq9tixef93q)" height="60.9766" style="stroke:#A80036;stroke-width:3.0;" width="406" x="3251" y="106"/><text fill="#000000" font-family="sans-serif" font-size="28" lengthAdjust="spacing" textLength="378" x="3265" y="147.0703">TestParameters: testParams</text><rect fill="#FEFECE" filter="url(#f1tlq9tixef93q)" height="60.9766" style="stroke:#A80036;stroke-width:3.0;" width="406" x="3251" y="2072.9961"/><text fill="#000000" font-family="sans-serif" font-size="28" lengthAdjust="spacing" textLength="378" x="3265" y="2114.0664">TestParameters: testParams</text><rect fill="#FEFECE" filter="url(#f1tlq9tixef93q)" height="60.9766" style="stroke:#A80036;stroke-width:3.0;" width="170" x="3685" y="106"/><text fill="#000000" font-family="sans-serif" font-size="28" lengthAdjust="spacing" textLength="142" x="3699" y="147.0703">TestResult</text><rect fill="#FEFECE" filter="url(#f1tlq9tixef93q)" height="60.9766" style="stroke:#A80036;stroke-width:3.0;" width="170" x="3685" y="2072.9961"/><text fill="#000000" font-family="sans-serif" font-size="28" lengthAdjust="spacing" textLength="142" x="3699" y="2114.0664">TestResult</text><rect fill="#FFFFFF" filter="url(#f1tlq9tixef93q)" height="1860.0195" style="stroke:#A80036;stroke-width:2.0;" width="20" x="146" y="196.9766"/><rect fill="#FFFFFF" filter="url(#f1tlq9tixef93q)" height="817.5898" style="stroke:#A80036;stroke-width:2.0;" width="20" x="1058" y="239.5977"/><rect fill="#FFFFFF" filter="url(#f1tlq9tixef93q)" height="385.4609" style="stroke:#A80036;stroke-width:2.0;" width="20" x="1058" y="1115.8086"/><rect fill="#FFFFFF" filter="url(#f1tlq9tixef93q)" height="497.1055" style="stroke:#A80036;stroke-width:2.0;" width="20" x="1058" y="1559.8906"/><rect fill="#FFFFFF" filter="url(#f1tlq9tixef93q)" height="593.1055" style="stroke:#A80036;stroke-width:2.0;" width="20" x="1456" y="405.4609"/><rect fill="#FFFFFF" filter="url(#f1tlq9tixef93q)" height="268.2188" style="stroke:#A80036;stroke-width:2.0;" width="20" x="1456" y="1174.4297"/><rect fill="#FFFFFF" filter="url(#f1tlq9tixef93q)" height="438.4844" style="stroke:#A80036;stroke-width:2.0;" width="20" x="1456" y="1618.5117"/><rect fill="#FFFFFF" filter="url(#f1tlq9tixef93q)" height="60" style="stroke:#A80036;stroke-width:2.0;" width="20" x="1824" y="464.082"/><rect fill="#FFFFFF" filter="url(#f1tlq9tixef93q)" height="60" style="stroke:#A80036;stroke-width:2.0;" width="20" x="2083" y="582.7031"/><rect fill="#FFFFFF" filter="url(#f1tlq9tixef93q)" height="58.6211" style="stroke:#A80036;stroke-width:2.0;" width="20" x="2422" y="1233.0508"/><rect fill="#FFFFFF" filter="url(#f1tlq9tixef93q)" height="60" style="stroke:#A80036;stroke-width:2.0;" width="20" x="2422" y="1382.6484"/><rect fill="#FFFFFF" filter="url(#f1tlq9tixef93q)" height="275.2422" style="stroke:#A80036;stroke-width:2.0;" width="20" x="2422" y="1677.1328"/><rect fill="#FFFFFF" filter="url(#f1tlq9tixef93q)" height="56" style="stroke:#A80036;stroke-width:2.0;" width="20" x="2432" y="1751.7539"/><rect fill="#FFFFFF" filter="url(#f1tlq9tixef93q)" height="56" style="stroke:#A80036;stroke-width:2.0;" width="20" x="2432" y="1896.375"/><rect fill="#FFFFFF" filter="url(#f1tlq9tixef93q)" height="60" style="stroke:#A80036;stroke-width:2.0;" width="20" x="2806" y="701.3242"/><rect fill="#FFFFFF" filter="url(#f1tlq9tixef93q)" height="60" style="stroke:#A80036;stroke-width:2.0;" width="20" x="3448" y="819.9453"/><rect fill="#FFFFFF" filter="url(#f1tlq9tixef93q)" height="60" style="stroke:#A80036;stroke-width:2.0;" width="20" x="3764" y="938.5664"/><polygon fill="#A80036" points="1034,231.5977,1054,239.5977,1034,247.5977,1042,239.5977" style="stroke:#A80036;stroke-width:2.0;"/><line style="stroke:#A80036;stroke-width:2.0;" x1="166" x2="1046" y1="239.5977" y2="239.5977"/><text fill="#000000" font-family="sans-serif" font-size="26" font-weight="bold" lengthAdjust="spacing" textLength="18" x="180" y="230.1133">1</text><text fill="#000000" font-family="sans-serif" font-size="26" lengthAdjust="spacing" textLength="694" x="206" y="230.1133">asks to access the tests already made that have results</text><path d="M20,269.5977 L168,269.5977 L168,283.5977 L148,303.5977 L20,303.5977 L20,269.5977 " fill="#EEEEEE" style="stroke:#000000;stroke-width:2.0;"/><rect fill="none" height="1771.3984" style="stroke:#000000;stroke-width:4.0;" width="3863" x="20" y="269.5977"/><text fill="#000000" font-family="sans-serif" font-size="26" font-weight="bold" lengthAdjust="spacing" textLength="58" x="50" y="296.7344">loop</text><text fill="#000000" font-family="sans-serif" font-size="22" font-weight="bold" lengthAdjust="spacing" textLength="384" x="198" y="294.8672">[for every diagnosis to be written]</text><polygon fill="#A80036" points="188,338.8398,168,346.8398,188,354.8398,180,346.8398" style="stroke:#A80036;stroke-width:2.0;"/><line style="stroke:#A80036;stroke-width:2.0;stroke-dasharray:2.0,2.0;" x1="176" x2="1056" y1="346.8398" y2="346.8398"/><text fill="#000000" font-family="sans-serif" font-size="26" font-weight="bold" lengthAdjust="spacing" textLength="18" x="200" y="337.3555">2</text><text fill="#000000" font-family="sans-serif" font-size="26" lengthAdjust="spacing" textLength="818" x="226" y="337.3555">shows the tests and asks to choose one to make the report (test)</text><polygon fill="#A80036" points="1432,397.4609,1452,405.4609,1432,413.4609,1440,405.4609" style="stroke:#A80036;stroke-width:2.0;"/><line style="stroke:#A80036;stroke-width:2.0;" x1="1078" x2="1444" y1="405.4609" y2="405.4609"/><text fill="#000000" font-family="sans-serif" font-size="26" font-weight="bold" lengthAdjust="spacing" textLength="18" x="1092" y="395.9766">3</text><text fill="#000000" font-family="sans-serif" font-size="26" lengthAdjust="spacing" textLength="258" x="1118" y="395.9766">tIDDto = getTestID()</text><polygon fill="#A80036" points="1800,456.082,1820,464.082,1800,472.082,1808,464.082" style="stroke:#A80036;stroke-width:2.0;"/><line style="stroke:#A80036;stroke-width:2.0;" x1="1476" x2="1812" y1="464.082" y2="464.082"/><text fill="#000000" font-family="sans-serif" font-size="26" font-weight="bold" lengthAdjust="spacing" textLength="18" x="1490" y="454.5977">4</text><text fill="#000000" font-family="sans-serif" font-size="26" lengthAdjust="spacing" textLength="284" x="1516" y="454.5977">tStore = getTestStore()</text><polygon fill="#A80036" points="2059,574.7031,2079,582.7031,2059,590.7031,2067,582.7031" style="stroke:#A80036;stroke-width:2.0;"/><line style="stroke:#A80036;stroke-width:2.0;" x1="1476" x2="2071" y1="582.7031" y2="582.7031"/><text fill="#000000" font-family="sans-serif" font-size="26" font-weight="bold" lengthAdjust="spacing" textLength="18" x="1490" y="573.2188">5</text><text fill="#000000" font-family="sans-serif" font-size="26" lengthAdjust="spacing" textLength="212" x="1516" y="573.2188">tID = getTestID()</text><polygon fill="#A80036" points="2782,693.3242,2802,701.3242,2782,709.3242,2790,701.3242" style="stroke:#A80036;stroke-width:2.0;"/><line style="stroke:#A80036;stroke-width:2.0;" x1="1476" x2="2794" y1="701.3242" y2="701.3242"/><text fill="#000000" font-family="sans-serif" font-size="26" font-weight="bold" lengthAdjust="spacing" textLength="18" x="1490" y="691.8398">6</text><text fill="#000000" font-family="sans-serif" font-size="26" lengthAdjust="spacing" textLength="246" x="1516" y="691.8398">tIDDto = toDto(tID)</text><polygon fill="#A80036" points="3424,811.9453,3444,819.9453,3424,827.9453,3432,819.9453" style="stroke:#A80036;stroke-width:2.0;"/><line style="stroke:#A80036;stroke-width:2.0;" x1="1476" x2="3436" y1="819.9453" y2="819.9453"/><text fill="#000000" font-family="sans-serif" font-size="26" font-weight="bold" lengthAdjust="spacing" textLength="18" x="1490" y="810.4609">7</text><text fill="#000000" font-family="sans-serif" font-size="26" lengthAdjust="spacing" textLength="384" x="1516" y="810.4609">tParams = getTestParameters()</text><polygon fill="#A80036" points="3740,930.5664,3760,938.5664,3740,946.5664,3748,938.5664" style="stroke:#A80036;stroke-width:2.0;"/><line style="stroke:#A80036;stroke-width:2.0;" x1="1476" x2="3752" y1="938.5664" y2="938.5664"/><text fill="#000000" font-family="sans-serif" font-size="26" font-weight="bold" lengthAdjust="spacing" textLength="18" x="1490" y="929.082">8</text><text fill="#000000" font-family="sans-serif" font-size="26" lengthAdjust="spacing" textLength="312" x="1516" y="929.082">tResult = getTestResult()</text><polygon fill="#A80036" points="188,1049.1875,168,1057.1875,188,1065.1875,180,1057.1875" style="stroke:#A80036;stroke-width:2.0;"/><line style="stroke:#A80036;stroke-width:2.0;stroke-dasharray:2.0,2.0;" x1="176" x2="1066" y1="1057.1875" y2="1057.1875"/><text fill="#000000" font-family="sans-serif" font-size="26" font-weight="bold" lengthAdjust="spacing" textLength="18" x="200" y="1047.7031">9</text><text fill="#000000" font-family="sans-serif" font-size="26" lengthAdjust="spacing" textLength="738" x="226" y="1047.7031">shows testID and test analysis results and asks to confirm</text><polygon fill="#A80036" points="1034,1107.8086,1054,1115.8086,1034,1123.8086,1042,1115.8086" style="stroke:#A80036;stroke-width:2.0;"/><line style="stroke:#A80036;stroke-width:2.0;" x1="166" x2="1046" y1="1115.8086" y2="1115.8086"/><text fill="#000000" font-family="sans-serif" font-size="26" font-weight="bold" lengthAdjust="spacing" textLength="36" x="180" y="1106.3242">10</text><text fill="#000000" font-family="sans-serif" font-size="26" lengthAdjust="spacing" textLength="386" x="224" y="1106.3242">writes a diagnosis for that test</text><polygon fill="#A80036" points="1432,1166.4297,1452,1174.4297,1432,1182.4297,1440,1174.4297" style="stroke:#A80036;stroke-width:2.0;"/><line style="stroke:#A80036;stroke-width:2.0;" x1="1078" x2="1444" y1="1174.4297" y2="1174.4297"/><text fill="#000000" font-family="sans-serif" font-size="26" font-weight="bold" lengthAdjust="spacing" textLength="36" x="1092" y="1164.9453">11</text><text fill="#000000" font-family="sans-serif" font-size="26" lengthAdjust="spacing" textLength="296" x="1136" y="1164.9453">createReport(diagnosis)</text><polygon fill="#A80036" points="2398,1225.0508,2418,1233.0508,2398,1241.0508,2406,1233.0508" style="stroke:#A80036;stroke-width:2.0;"/><line style="stroke:#A80036;stroke-width:2.0;" x1="1476" x2="2410" y1="1233.0508" y2="1233.0508"/><text fill="#000000" font-family="sans-serif" font-size="26" font-weight="bold" lengthAdjust="spacing" textLength="36" x="1490" y="1223.5664">12</text><text fill="#000000" font-family="sans-serif" font-size="26" lengthAdjust="spacing" textLength="372" x="1534" y="1223.5664">rep = createReport(diagnosis)</text><polygon fill="#A80036" points="3009,1283.6719,3029,1291.6719,3009,1299.6719,3017,1291.6719" style="stroke:#A80036;stroke-width:2.0;"/><line style="stroke:#A80036;stroke-width:2.0;" x1="2432" x2="3021" y1="1291.6719" y2="1291.6719"/><text fill="#000000" font-family="sans-serif" font-size="26" font-weight="bold" lengthAdjust="spacing" textLength="36" x="2446" y="1282.1875">13</text><text fill="#000000" font-family="sans-serif" font-size="26" lengthAdjust="spacing" textLength="214" x="2490" y="1282.1875">create(diagnosis)</text><rect fill="#FEFECE" filter="url(#f1tlq9tixef93q)" height="60.9766" style="stroke:#A80036;stroke-width:3.0;" width="190" x="3033" y="1249.0508"/><text fill="#000000" font-family="sans-serif" font-size="28" lengthAdjust="spacing" textLength="162" x="3047" y="1290.1211">rep : Report</text><polygon fill="#A80036" points="2398,1374.6484,2418,1382.6484,2398,1390.6484,2406,1382.6484" style="stroke:#A80036;stroke-width:2.0;"/><line style="stroke:#A80036;stroke-width:2.0;" x1="1476" x2="2410" y1="1382.6484" y2="1382.6484"/><text fill="#000000" font-family="sans-serif" font-size="26" font-weight="bold" lengthAdjust="spacing" textLength="36" x="1490" y="1373.1641">14</text><text fill="#000000" font-family="sans-serif" font-size="26" lengthAdjust="spacing" textLength="236" x="1534" y="1373.1641">validateReport(rep)</text><polygon fill="#A80036" points="188,1493.2695,168,1501.2695,188,1509.2695,180,1501.2695" style="stroke:#A80036;stroke-width:2.0;"/><line style="stroke:#A80036;stroke-width:2.0;stroke-dasharray:2.0,2.0;" x1="176" x2="1066" y1="1501.2695" y2="1501.2695"/><text fill="#000000" font-family="sans-serif" font-size="26" font-weight="bold" lengthAdjust="spacing" textLength="36" x="200" y="1491.7852">15</text><text fill="#000000" font-family="sans-serif" font-size="26" lengthAdjust="spacing" textLength="424" x="244" y="1491.7852">shows report and asks to confirm</text><polygon fill="#A80036" points="1034,1551.8906,1054,1559.8906,1034,1567.8906,1042,1559.8906" style="stroke:#A80036;stroke-width:2.0;"/><line style="stroke:#A80036;stroke-width:2.0;" x1="166" x2="1046" y1="1559.8906" y2="1559.8906"/><text fill="#000000" font-family="sans-serif" font-size="26" font-weight="bold" lengthAdjust="spacing" textLength="36" x="180" y="1550.4063">16</text><text fill="#000000" font-family="sans-serif" font-size="26" lengthAdjust="spacing" textLength="196" x="224" y="1550.4063">confirms report</text><polygon fill="#A80036" points="1432,1610.5117,1452,1618.5117,1432,1626.5117,1440,1618.5117" style="stroke:#A80036;stroke-width:2.0;"/><line style="stroke:#A80036;stroke-width:2.0;" x1="1078" x2="1444" y1="1618.5117" y2="1618.5117"/><text fill="#000000" font-family="sans-serif" font-size="26" font-weight="bold" lengthAdjust="spacing" textLength="36" x="1092" y="1609.0273">17</text><text fill="#000000" font-family="sans-serif" font-size="26" lengthAdjust="spacing" textLength="154" x="1136" y="1609.0273">saveReport()</text><polygon fill="#A80036" points="2398,1669.1328,2418,1677.1328,2398,1685.1328,2406,1677.1328" style="stroke:#A80036;stroke-width:2.0;"/><line style="stroke:#A80036;stroke-width:2.0;" x1="1476" x2="2410" y1="1677.1328" y2="1677.1328"/><text fill="#000000" font-family="sans-serif" font-size="26" font-weight="bold" lengthAdjust="spacing" textLength="36" x="1490" y="1667.6484">18</text><text fill="#000000" font-family="sans-serif" font-size="26" lengthAdjust="spacing" textLength="194" x="1534" y="1667.6484">saveReport(rep)</text><line style="stroke:#A80036;stroke-width:2.0;" x1="2452" x2="2536" y1="1735.7539" y2="1735.7539"/><line style="stroke:#A80036;stroke-width:2.0;" x1="2536" x2="2536" y1="1735.7539" y2="1761.7539"/><line style="stroke:#A80036;stroke-width:2.0;" x1="2454" x2="2536" y1="1761.7539" y2="1761.7539"/><polygon fill="#A80036" points="2474,1753.7539,2454,1761.7539,2474,1769.7539,2466,1761.7539" style="stroke:#A80036;stroke-width:2.0;"/><text fill="#000000" font-family="sans-serif" font-size="26" font-weight="bold" lengthAdjust="spacing" textLength="36" x="2466" y="1726.2695">19</text><text fill="#000000" font-family="sans-serif" font-size="26" lengthAdjust="spacing" textLength="236" x="2510" y="1726.2695">validateReport(rep)</text><line style="stroke:#A80036;stroke-width:2.0;" x1="2452" x2="2536" y1="1880.375" y2="1880.375"/><line style="stroke:#A80036;stroke-width:2.0;" x1="2536" x2="2536" y1="1880.375" y2="1906.375"/><line style="stroke:#A80036;stroke-width:2.0;" x1="2454" x2="2536" y1="1906.375" y2="1906.375"/><polygon fill="#A80036" points="2474,1898.375,2454,1906.375,2474,1914.375,2466,1906.375" style="stroke:#A80036;stroke-width:2.0;"/><text fill="#000000" font-family="sans-serif" font-size="26" font-weight="bold" lengthAdjust="spacing" textLength="36" x="2466" y="1870.8906">20</text><text fill="#000000" font-family="sans-serif" font-size="26" lengthAdjust="spacing" textLength="184" x="2510" y="1870.8906">addReport(rep)</text><polygon fill="#A80036" points="188,2016.9961,168,2024.9961,188,2032.9961,180,2024.9961" style="stroke:#A80036;stroke-width:2.0;"/><line style="stroke:#A80036;stroke-width:2.0;stroke-dasharray:2.0,2.0;" x1="176" x2="1056" y1="2024.9961" y2="2024.9961"/><text fill="#000000" font-family="sans-serif" font-size="26" font-weight="bold" lengthAdjust="spacing" textLength="36" x="200" y="2015.5117">21</text><text fill="#000000" font-family="sans-serif" font-size="26" lengthAdjust="spacing" textLength="206" x="244" y="2015.5117">informs success</text><!--MD5=[62398f8968062f5cbb47180cde043e02]
@startuml
autonumber

actor "SpecialistDoctor" as Spec
participant ":CreateReportUI" as UI
participant ":CreateReportController" as CRC
participant ":Company" as COM

participant "TestStore: testStore" as TS
participant "repStore: ReportStore" as repStore
participant "testMapper: IdTestMapper" as idMapper
participant "rep : Report" as report
participant "TestParameters: testParams"
participant "TestResult"


activate Spec

Spec -> UI : asks to access the tests already made that have results

loop for every diagnosis to be written

activate UI

UI - -> Spec : shows the tests and asks to choose one to make the report (test)

UI -> CRC : tIDDto = getTestID()

activate CRC

CRC -> COM : tStore = getTestStore()

activate COM

deactivate COM

CRC -> TS : tID = getTestID()

activate TS

deactivate TS

CRC -> idMapper : tIDDto = toDto(tID)

activate idMapper

deactivate idMapper

CRC -> "TestParameters: testParams" : tParams = getTestParameters()

activate "TestParameters: testParams"

deactivate "TestParameters: testParams"

CRC -> "TestResult" : tResult = getTestResult()

activate "TestResult"

deactivate "TestResult"

deactivate CRC

Spec <- - UI : shows testID and test analysis results and asks to confirm

deactivate UI

Spec -> UI : writes a diagnosis for that test

activate UI

UI -> CRC : createReport(diagnosis)

activate CRC

CRC -> repStore : rep = createReport(diagnosis)

activate repStore

create report

repStore -> report : create(diagnosis)

deactivate repStore

CRC -> repStore : validateReport(rep)

activate repStore

deactivate repStore

deactivate COM

deactivate CRC

UI - -> Spec : shows report and asks to confirm

deactivate UI

Spec -> UI : confirms report

activate UI

UI -> CRC : saveReport()

activate CRC

CRC ->repStore : saveReport(rep)

activate repStore

repStore -> repStore : validateReport(rep)

activate repStore

deactivate repStore

repStore -> repStore : addReport(rep)

activate repStore

deactivate repStore

deactivate repStore

deactivate repStore

UI - -> Spec : informs success

end
@enduml

PlantUML version 1.2021.7(Sun May 23 13:40:07 WEST 2021)
(GPL source distribution)
Java Runtime: OpenJDK Runtime Environment
JVM: OpenJDK 64-Bit Server VM
Default Encoding: UTF-8
Language: en
Country: PT
--></g></svg>