<?xml version="1.0" encoding="UTF-8" standalone="no"?><svg xmlns="http://www.w3.org/2000/svg" xmlns:xlink="http://www.w3.org/1999/xlink" contentScriptType="application/ecmascript" contentStyleType="text/css" height="819px" preserveAspectRatio="none" style="width:680px;height:819px;" version="1.1" viewBox="0 0 680 819" width="680px" zoomAndPan="magnify"><defs><filter height="300%" id="f19acmtebnsz8" width="300%" x="-1" y="-1"><feGaussianBlur result="blurOut" stdDeviation="2.0"/><feColorMatrix in="blurOut" result="blurOut2" type="matrix" values="0 0 0 0 0 0 0 0 0 0 0 0 0 0 0 0 0 0 .4 0"/><feOffset dx="4.0" dy="4.0" in="blurOut2" result="blurOut3"/><feBlend in="SourceGraphic" in2="blurOut3" mode="normal"/></filter></defs><g><!--MD5=[61d919aa91cd8dde0d26e62e960d0348]
class CreateReportUI--><rect codeLine="4" fill="#FEFECE" filter="url(#f19acmtebnsz8)" height="48" id="CreateReportUI" style="stroke:#A80036;stroke-width:1.5;" width="128" x="103" y="7"/><ellipse cx="118" cy="23" fill="#ADD1B2" rx="11" ry="11" style="stroke:#A80036;stroke-width:1.0;"/><path d="M120.9688,28.6406 Q120.3906,28.9375 119.75,29.0781 Q119.1094,29.2344 118.4063,29.2344 Q115.9063,29.2344 114.5781,27.5938 Q113.2656,25.9375 113.2656,22.8125 Q113.2656,19.6875 114.5781,18.0313 Q115.9063,16.375 118.4063,16.375 Q119.1094,16.375 119.75,16.5313 Q120.4063,16.6875 120.9688,16.9844 L120.9688,19.7031 Q120.3438,19.125 119.75,18.8594 Q119.1563,18.5781 118.5313,18.5781 Q117.1875,18.5781 116.5,19.6563 Q115.8125,20.7188 115.8125,22.8125 Q115.8125,24.9063 116.5,25.9844 Q117.1875,27.0469 118.5313,27.0469 Q119.1563,27.0469 119.75,26.7813 Q120.3438,26.5 120.9688,25.9219 L120.9688,28.6406 Z " fill="#000000"/><text fill="#000000" font-family="sans-serif" font-size="12" lengthAdjust="spacingAndGlyphs" textLength="96" x="132" y="27.1543">CreateReportUI</text><line style="stroke:#A80036;stroke-width:1.5;" x1="104" x2="230" y1="39" y2="39"/><line style="stroke:#A80036;stroke-width:1.5;" x1="104" x2="230" y1="47" y2="47"/><!--MD5=[435d59c09609fcea3345bfa2ae3de6e0]
class CreateReportController--><rect codeLine="7" fill="#FEFECE" filter="url(#f19acmtebnsz8)" height="73.6094" id="CreateReportController" style="stroke:#A80036;stroke-width:1.5;" width="177" x="78.5" y="116"/><ellipse cx="93.5" cy="132" fill="#ADD1B2" rx="11" ry="11" style="stroke:#A80036;stroke-width:1.0;"/><path d="M96.4688,137.6406 Q95.8906,137.9375 95.25,138.0781 Q94.6094,138.2344 93.9063,138.2344 Q91.4063,138.2344 90.0781,136.5938 Q88.7656,134.9375 88.7656,131.8125 Q88.7656,128.6875 90.0781,127.0313 Q91.4063,125.375 93.9063,125.375 Q94.6094,125.375 95.25,125.5313 Q95.9063,125.6875 96.4688,125.9844 L96.4688,128.7031 Q95.8438,128.125 95.25,127.8594 Q94.6563,127.5781 94.0313,127.5781 Q92.6875,127.5781 92,128.6563 Q91.3125,129.7188 91.3125,131.8125 Q91.3125,133.9063 92,134.9844 Q92.6875,136.0469 94.0313,136.0469 Q94.6563,136.0469 95.25,135.7813 Q95.8438,135.5 96.4688,134.9219 L96.4688,137.6406 Z " fill="#000000"/><text fill="#000000" font-family="sans-serif" font-size="12" lengthAdjust="spacingAndGlyphs" textLength="145" x="107.5" y="136.1543">CreateReportController</text><line style="stroke:#A80036;stroke-width:1.5;" x1="79.5" x2="254.5" y1="148" y2="148"/><line style="stroke:#A80036;stroke-width:1.5;" x1="79.5" x2="254.5" y1="156" y2="156"/><ellipse cx="89.5" cy="167" fill="#84BE84" rx="3" ry="3" style="stroke:#038048;stroke-width:1.0;"/><text fill="#000000" font-family="sans-serif" font-size="11" lengthAdjust="spacingAndGlyphs" textLength="136" x="98.5" y="170.2104">createReport(diagnosis)</text><ellipse cx="89.5" cy="179.8047" fill="#84BE84" rx="3" ry="3" style="stroke:#038048;stroke-width:1.0;"/><text fill="#000000" font-family="sans-serif" font-size="11" lengthAdjust="spacingAndGlyphs" textLength="72" x="98.5" y="183.0151">saveReport()</text><!--MD5=[02e4b9b7573f1156f41e60aa5b4e25a4]
class Company--><rect codeLine="12" fill="#FEFECE" filter="url(#f19acmtebnsz8)" height="73.6094" id="Company" style="stroke:#A80036;stroke-width:1.5;" width="108" x="113" y="267"/><ellipse cx="136.55" cy="283" fill="#ADD1B2" rx="11" ry="11" style="stroke:#A80036;stroke-width:1.0;"/><path d="M139.5188,288.6406 Q138.9406,288.9375 138.3,289.0781 Q137.6594,289.2344 136.9563,289.2344 Q134.4563,289.2344 133.1281,287.5938 Q131.8156,285.9375 131.8156,282.8125 Q131.8156,279.6875 133.1281,278.0313 Q134.4563,276.375 136.9563,276.375 Q137.6594,276.375 138.3,276.5313 Q138.9563,276.6875 139.5188,276.9844 L139.5188,279.7031 Q138.8938,279.125 138.3,278.8594 Q137.7063,278.5781 137.0813,278.5781 Q135.7375,278.5781 135.05,279.6563 Q134.3625,280.7188 134.3625,282.8125 Q134.3625,284.9063 135.05,285.9844 Q135.7375,287.0469 137.0813,287.0469 Q137.7063,287.0469 138.3,286.7813 Q138.8938,286.5 139.5188,285.9219 L139.5188,288.6406 Z " fill="#000000"/><text fill="#000000" font-family="sans-serif" font-size="12" lengthAdjust="spacingAndGlyphs" textLength="57" x="152.45" y="287.1543">Company</text><line style="stroke:#A80036;stroke-width:1.5;" x1="114" x2="220" y1="299" y2="299"/><ellipse cx="124" cy="310" fill="none" rx="3" ry="3" style="stroke:#038048;stroke-width:1.0;"/><text fill="#000000" font-family="sans-serif" font-size="11" lengthAdjust="spacingAndGlyphs" textLength="66" x="133" y="313.2104">designation</text><line style="stroke:#A80036;stroke-width:1.5;" x1="114" x2="220" y1="319.8047" y2="319.8047"/><ellipse cx="124" cy="330.8047" fill="#84BE84" rx="3" ry="3" style="stroke:#038048;stroke-width:1.0;"/><text fill="#000000" font-family="sans-serif" font-size="11" lengthAdjust="spacingAndGlyphs" textLength="82" x="133" y="334.0151">getTestStore()</text><!--MD5=[7421f545a0d8420c5bec41e74b387d9c]
class Employee--><rect codeLine="17" fill="#FEFECE" filter="url(#f19acmtebnsz8)" height="48" id="Employee" style="stroke:#A80036;stroke-width:1.5;" width="92" x="356" y="424.5"/><ellipse cx="371" cy="440.5" fill="#ADD1B2" rx="11" ry="11" style="stroke:#A80036;stroke-width:1.0;"/><path d="M373.9688,446.1406 Q373.3906,446.4375 372.75,446.5781 Q372.1094,446.7344 371.4063,446.7344 Q368.9063,446.7344 367.5781,445.0938 Q366.2656,443.4375 366.2656,440.3125 Q366.2656,437.1875 367.5781,435.5313 Q368.9063,433.875 371.4063,433.875 Q372.1094,433.875 372.75,434.0313 Q373.4063,434.1875 373.9688,434.4844 L373.9688,437.2031 Q373.3438,436.625 372.75,436.3594 Q372.1563,436.0781 371.5313,436.0781 Q370.1875,436.0781 369.5,437.1563 Q368.8125,438.2188 368.8125,440.3125 Q368.8125,442.4063 369.5,443.4844 Q370.1875,444.5469 371.5313,444.5469 Q372.1563,444.5469 372.75,444.2813 Q373.3438,444 373.9688,443.4219 L373.9688,446.1406 Z " fill="#000000"/><text fill="#000000" font-family="sans-serif" font-size="12" lengthAdjust="spacingAndGlyphs" textLength="60" x="385" y="444.6543">Employee</text><line style="stroke:#A80036;stroke-width:1.5;" x1="357" x2="447" y1="456.5" y2="456.5"/><line style="stroke:#A80036;stroke-width:1.5;" x1="357" x2="447" y1="464.5" y2="464.5"/><!--MD5=[7d96fd15f3014691d2fcaf89c5791e2a]
class SpecialistDoctor--><rect codeLine="56" fill="#FEFECE" filter="url(#f19acmtebnsz8)" height="48" id="SpecialistDoctor" style="stroke:#A80036;stroke-width:1.5;" width="134" x="335" y="581.5"/><ellipse cx="350" cy="597.5" fill="#ADD1B2" rx="11" ry="11" style="stroke:#A80036;stroke-width:1.0;"/><path d="M352.9688,603.1406 Q352.3906,603.4375 351.75,603.5781 Q351.1094,603.7344 350.4063,603.7344 Q347.9063,603.7344 346.5781,602.0938 Q345.2656,600.4375 345.2656,597.3125 Q345.2656,594.1875 346.5781,592.5313 Q347.9063,590.875 350.4063,590.875 Q351.1094,590.875 351.75,591.0313 Q352.4063,591.1875 352.9688,591.4844 L352.9688,594.2031 Q352.3438,593.625 351.75,593.3594 Q351.1563,593.0781 350.5313,593.0781 Q349.1875,593.0781 348.5,594.1563 Q347.8125,595.2188 347.8125,597.3125 Q347.8125,599.4063 348.5,600.4844 Q349.1875,601.5469 350.5313,601.5469 Q351.1563,601.5469 351.75,601.2813 Q352.3438,601 352.9688,600.4219 L352.9688,603.1406 Z " fill="#000000"/><text fill="#000000" font-family="sans-serif" font-size="12" lengthAdjust="spacingAndGlyphs" textLength="102" x="364" y="601.6543">SpecialistDoctor</text><line style="stroke:#A80036;stroke-width:1.5;" x1="336" x2="468" y1="613.5" y2="613.5"/><line style="stroke:#A80036;stroke-width:1.5;" x1="336" x2="468" y1="621.5" y2="621.5"/><!--MD5=[e1d86066171c3a502f759e19a2a6ce90]
class TestParameters--><rect codeLine="23" fill="#FEFECE" filter="url(#f19acmtebnsz8)" height="60.8047" id="TestParameters" style="stroke:#A80036;stroke-width:1.5;" width="144" x="11" y="418"/><ellipse cx="31.4" cy="434" fill="#ADD1B2" rx="11" ry="11" style="stroke:#A80036;stroke-width:1.0;"/><path d="M34.3688,439.6406 Q33.7906,439.9375 33.15,440.0781 Q32.5094,440.2344 31.8063,440.2344 Q29.3063,440.2344 27.9781,438.5938 Q26.6656,436.9375 26.6656,433.8125 Q26.6656,430.6875 27.9781,429.0313 Q29.3063,427.375 31.8063,427.375 Q32.5094,427.375 33.15,427.5313 Q33.8063,427.6875 34.3688,427.9844 L34.3688,430.7031 Q33.7438,430.125 33.15,429.8594 Q32.5563,429.5781 31.9313,429.5781 Q30.5875,429.5781 29.9,430.6563 Q29.2125,431.7188 29.2125,433.8125 Q29.2125,435.9063 29.9,436.9844 Q30.5875,438.0469 31.9313,438.0469 Q32.5563,438.0469 33.15,437.7813 Q33.7438,437.5 34.3688,436.9219 L34.3688,439.6406 Z " fill="#000000"/><text fill="#000000" font-family="sans-serif" font-size="12" lengthAdjust="spacingAndGlyphs" textLength="100" x="46.6" y="438.1543">TestParameters</text><line style="stroke:#A80036;stroke-width:1.5;" x1="12" x2="154" y1="450" y2="450"/><line style="stroke:#A80036;stroke-width:1.5;" x1="12" x2="154" y1="458" y2="458"/><ellipse cx="22" cy="469" fill="#84BE84" rx="3" ry="3" style="stroke:#038048;stroke-width:1.0;"/><text fill="#000000" font-family="sans-serif" font-size="11" lengthAdjust="spacingAndGlyphs" textLength="118" x="31" y="472.2104">getTestParameters()</text><!--MD5=[0f6f7964b844a64b0496af0dda7914bd]
class TestStore--><rect codeLine="27" fill="#FEFECE" filter="url(#f19acmtebnsz8)" height="60.8047" id="TestStore" style="stroke:#A80036;stroke-width:1.5;" width="93" x="205.5" y="418"/><ellipse cx="220.5" cy="434" fill="#ADD1B2" rx="11" ry="11" style="stroke:#A80036;stroke-width:1.0;"/><path d="M223.4688,439.6406 Q222.8906,439.9375 222.25,440.0781 Q221.6094,440.2344 220.9063,440.2344 Q218.4063,440.2344 217.0781,438.5938 Q215.7656,436.9375 215.7656,433.8125 Q215.7656,430.6875 217.0781,429.0313 Q218.4063,427.375 220.9063,427.375 Q221.6094,427.375 222.25,427.5313 Q222.9063,427.6875 223.4688,427.9844 L223.4688,430.7031 Q222.8438,430.125 222.25,429.8594 Q221.6563,429.5781 221.0313,429.5781 Q219.6875,429.5781 219,430.6563 Q218.3125,431.7188 218.3125,433.8125 Q218.3125,435.9063 219,436.9844 Q219.6875,438.0469 221.0313,438.0469 Q221.6563,438.0469 222.25,437.7813 Q222.8438,437.5 223.4688,436.9219 L223.4688,439.6406 Z " fill="#000000"/><text fill="#000000" font-family="sans-serif" font-size="12" lengthAdjust="spacingAndGlyphs" textLength="61" x="234.5" y="438.1543">TestStore</text><line style="stroke:#A80036;stroke-width:1.5;" x1="206.5" x2="297.5" y1="450" y2="450"/><line style="stroke:#A80036;stroke-width:1.5;" x1="206.5" x2="297.5" y1="458" y2="458"/><ellipse cx="216.5" cy="469" fill="#84BE84" rx="3" ry="3" style="stroke:#038048;stroke-width:1.0;"/><text fill="#000000" font-family="sans-serif" font-size="11" lengthAdjust="spacingAndGlyphs" textLength="62" x="225.5" y="472.2104">getTestID()</text><!--MD5=[e27cb01a39563223b22d42504ec96d07]
class TestResult--><rect codeLine="31" fill="#FEFECE" filter="url(#f19acmtebnsz8)" height="60.8047" id="TestResult" style="stroke:#A80036;stroke-width:1.5;" width="112" x="7" y="575"/><ellipse cx="28.3" cy="591" fill="#ADD1B2" rx="11" ry="11" style="stroke:#A80036;stroke-width:1.0;"/><path d="M31.2688,596.6406 Q30.6906,596.9375 30.05,597.0781 Q29.4094,597.2344 28.7063,597.2344 Q26.2063,597.2344 24.8781,595.5938 Q23.5656,593.9375 23.5656,590.8125 Q23.5656,587.6875 24.8781,586.0313 Q26.2063,584.375 28.7063,584.375 Q29.4094,584.375 30.05,584.5313 Q30.7063,584.6875 31.2688,584.9844 L31.2688,587.7031 Q30.6438,587.125 30.05,586.8594 Q29.4563,586.5781 28.8313,586.5781 Q27.4875,586.5781 26.8,587.6563 Q26.1125,588.7188 26.1125,590.8125 Q26.1125,592.9063 26.8,593.9844 Q27.4875,595.0469 28.8313,595.0469 Q29.4563,595.0469 30.05,594.7813 Q30.6438,594.5 31.2688,593.9219 L31.2688,596.6406 Z " fill="#000000"/><text fill="#000000" font-family="sans-serif" font-size="12" lengthAdjust="spacingAndGlyphs" textLength="66" x="43.7" y="595.1543">TestResult</text><line style="stroke:#A80036;stroke-width:1.5;" x1="8" x2="118" y1="607" y2="607"/><line style="stroke:#A80036;stroke-width:1.5;" x1="8" x2="118" y1="615" y2="615"/><ellipse cx="18" cy="626" fill="#84BE84" rx="3" ry="3" style="stroke:#038048;stroke-width:1.0;"/><text fill="#000000" font-family="sans-serif" font-size="11" lengthAdjust="spacingAndGlyphs" textLength="86" x="27" y="629.2104">getTestResult()</text><!--MD5=[f00dbe8c0302c6aec2cb26b3c659c8fc]
class Report--><rect codeLine="35" fill="#FEFECE" filter="url(#f19acmtebnsz8)" height="73.6094" id="Report" style="stroke:#A80036;stroke-width:1.5;" width="125" x="198.5" y="732"/><ellipse cx="236.45" cy="748" fill="#ADD1B2" rx="11" ry="11" style="stroke:#A80036;stroke-width:1.0;"/><path d="M239.4188,753.6406 Q238.8406,753.9375 238.2,754.0781 Q237.5594,754.2344 236.8563,754.2344 Q234.3563,754.2344 233.0281,752.5938 Q231.7156,750.9375 231.7156,747.8125 Q231.7156,744.6875 233.0281,743.0313 Q234.3563,741.375 236.8563,741.375 Q237.5594,741.375 238.2,741.5313 Q238.8563,741.6875 239.4188,741.9844 L239.4188,744.7031 Q238.7938,744.125 238.2,743.8594 Q237.6063,743.5781 236.9813,743.5781 Q235.6375,743.5781 234.95,744.6563 Q234.2625,745.7188 234.2625,747.8125 Q234.2625,749.9063 234.95,750.9844 Q235.6375,752.0469 236.9813,752.0469 Q237.6063,752.0469 238.2,751.7813 Q238.7938,751.5 239.4188,750.9219 L239.4188,753.6406 Z " fill="#000000"/><text fill="#000000" font-family="sans-serif" font-size="12" lengthAdjust="spacingAndGlyphs" textLength="42" x="255.55" y="752.1543">Report</text><line style="stroke:#A80036;stroke-width:1.5;" x1="199.5" x2="322.5" y1="764" y2="764"/><line style="stroke:#A80036;stroke-width:1.5;" x1="199.5" x2="322.5" y1="772" y2="772"/><ellipse cx="209.5" cy="783" fill="#84BE84" rx="3" ry="3" style="stroke:#038048;stroke-width:1.0;"/><text fill="#000000" font-family="sans-serif" font-size="11" lengthAdjust="spacingAndGlyphs" textLength="63" x="218.5" y="786.2104">(diagnosis)</text><ellipse cx="209.5" cy="795.8047" fill="#84BE84" rx="3" ry="3" style="stroke:#038048;stroke-width:1.0;"/><text fill="#000000" font-family="sans-serif" font-size="11" lengthAdjust="spacingAndGlyphs" textLength="99" x="218.5" y="799.0151">create(diagnosis)</text><!--MD5=[4dd913a3a70ef3c0d1d5c4536ea05d21]
class repStore--><rect codeLine="40" fill="#FEFECE" filter="url(#f19acmtebnsz8)" height="99.2188" id="repStore" style="stroke:#A80036;stroke-width:1.5;" width="162" x="504" y="556"/><ellipse cx="553.25" cy="572" fill="#ADD1B2" rx="11" ry="11" style="stroke:#A80036;stroke-width:1.0;"/><path d="M556.2188,577.6406 Q555.6406,577.9375 555,578.0781 Q554.3594,578.2344 553.6563,578.2344 Q551.1563,578.2344 549.8281,576.5938 Q548.5156,574.9375 548.5156,571.8125 Q548.5156,568.6875 549.8281,567.0313 Q551.1563,565.375 553.6563,565.375 Q554.3594,565.375 555,565.5313 Q555.6563,565.6875 556.2188,565.9844 L556.2188,568.7031 Q555.5938,568.125 555,567.8594 Q554.4063,567.5781 553.7813,567.5781 Q552.4375,567.5781 551.75,568.6563 Q551.0625,569.7188 551.0625,571.8125 Q551.0625,573.9063 551.75,574.9844 Q552.4375,576.0469 553.7813,576.0469 Q554.4063,576.0469 555,575.7813 Q555.5938,575.5 556.2188,574.9219 L556.2188,577.6406 Z " fill="#000000"/><text fill="#000000" font-family="sans-serif" font-size="12" lengthAdjust="spacingAndGlyphs" textLength="55" x="573.75" y="576.1543">repStore</text><line style="stroke:#A80036;stroke-width:1.5;" x1="505" x2="665" y1="588" y2="588"/><line style="stroke:#A80036;stroke-width:1.5;" x1="505" x2="665" y1="596" y2="596"/><ellipse cx="515" cy="607" fill="#84BE84" rx="3" ry="3" style="stroke:#038048;stroke-width:1.0;"/><text fill="#000000" font-family="sans-serif" font-size="11" lengthAdjust="spacingAndGlyphs" textLength="136" x="524" y="610.2104">createReport(diagnosis)</text><ellipse cx="515" cy="619.8047" fill="#84BE84" rx="3" ry="3" style="stroke:#038048;stroke-width:1.0;"/><text fill="#000000" font-family="sans-serif" font-size="11" lengthAdjust="spacingAndGlyphs" textLength="108" x="524" y="623.0151">validateReport(rep)</text><ellipse cx="515" cy="632.6094" fill="#84BE84" rx="3" ry="3" style="stroke:#038048;stroke-width:1.0;"/><text fill="#000000" font-family="sans-serif" font-size="11" lengthAdjust="spacingAndGlyphs" textLength="91" x="524" y="635.8198">saveReport(rep)</text><ellipse cx="515" cy="645.4141" fill="#84BE84" rx="3" ry="3" style="stroke:#038048;stroke-width:1.0;"/><text fill="#000000" font-family="sans-serif" font-size="11" lengthAdjust="spacingAndGlyphs" textLength="85" x="524" y="648.6245">addReport(rep)</text><!--MD5=[1d70569218baf2d503ca66c6410bd51d]
link CreateReportUI to CreateReportController--><path codeLine="47" d="M167,55.1033 C167,70.972 167,92.1768 167,110.7934 " fill="none" id="CreateReportUI-to-CreateReportController" style="stroke:#A80036;stroke-width:1.0;stroke-dasharray:7.0,7.0;"/><polygon fill="#A80036" points="167,115.9691,171,106.9691,167,110.9691,163,106.9691,167,115.9691" style="stroke:#A80036;stroke-width:1.0;"/><!--MD5=[542a6331da7bd4331414b7b7b3869a47]
link CreateReportController to Company--><path codeLine="48" d="M167,190.3259 C167,212.0047 167,239.3818 167,261.8365 " fill="none" id="CreateReportController-to-Company" style="stroke:#A80036;stroke-width:1.0;stroke-dasharray:7.0,7.0;"/><polygon fill="#A80036" points="167,266.8421,171,257.8421,167,261.8421,163,257.8421,167,266.8421" style="stroke:#A80036;stroke-width:1.0;"/><text fill="#000000" font-family="sans-serif" font-size="13" lengthAdjust="spacingAndGlyphs" textLength="67" x="168" y="233.0669">belongs to</text><text fill="#000000" font-family="sans-serif" font-size="13" lengthAdjust="spacingAndGlyphs" textLength="7" x="159.4422" y="209.5786">*</text><text fill="#000000" font-family="sans-serif" font-size="13" lengthAdjust="spacingAndGlyphs" textLength="8" x="158.2875" y="256.0009">1</text><!--MD5=[7146bbcd3b473aad158037c93a5817ae]
link Company to TestParameters--><path codeLine="49" d="M112.8882,333.5886 C99.7161,343.6134 87.3226,356.1183 80,371 C73.8072,383.5856 73.1511,398.7613 74.5512,412.3352 " fill="none" id="Company-to-TestParameters" style="stroke:#A80036;stroke-width:1.0;"/><polygon fill="#A80036" points="75.2093,417.6463,78.0719,408.2226,74.5943,412.6843,70.1327,409.2066,75.2093,417.6463" style="stroke:#A80036;stroke-width:1.0;"/><text fill="#000000" font-family="sans-serif" font-size="13" lengthAdjust="spacingAndGlyphs" textLength="127" x="81" y="384.0669">requests analysis of</text><text fill="#000000" font-family="sans-serif" font-size="13" lengthAdjust="spacingAndGlyphs" textLength="8" x="97.0794" y="333.6588">1</text><text fill="#000000" font-family="sans-serif" font-size="13" lengthAdjust="spacingAndGlyphs" textLength="23" x="48.2306" y="406.8366">1..*</text><!--MD5=[7f6cf7f175eae0af66201860de5de971]
link Company to TestStore--><path codeLine="50" d="M193.9446,341.3301 C200.4427,350.8421 207.1836,361.162 213,371 C220.9196,384.3954 228.7988,399.601 235.3804,412.974 " fill="none" id="Company-to-TestStore" style="stroke:#A80036;stroke-width:1.0;"/><polygon fill="#A80036" points="237.7441,417.8113,237.3865,407.9689,235.5489,413.319,230.1988,411.4813,237.7441,417.8113" style="stroke:#A80036;stroke-width:1.0;"/><text fill="#000000" font-family="sans-serif" font-size="13" lengthAdjust="spacingAndGlyphs" textLength="88" x="224" y="384.0669">has access to</text><text fill="#000000" font-family="sans-serif" font-size="13" lengthAdjust="spacingAndGlyphs" textLength="8" x="189.6014" y="360.5835">1</text><text fill="#000000" font-family="sans-serif" font-size="13" lengthAdjust="spacingAndGlyphs" textLength="8" x="225.9788" y="407.0356">1</text><!--MD5=[fdc5a880cd97c71109a86266209eee77]
link TestParameters to TestResult--><path codeLine="51" d="M66.9969,479.1125 C62.903,488.4526 59.0738,498.9221 57,509 C52.9179,528.8375 54.0165,551.4118 56.3191,569.7365 " fill="none" id="TestParameters-to-TestResult" style="stroke:#A80036;stroke-width:1.0;"/><polygon fill="#A80036" points="56.9972,574.7865,59.7636,565.3341,56.3316,569.831,51.8348,566.399,56.9972,574.7865" style="stroke:#A80036;stroke-width:1.0;"/><text fill="#000000" font-family="sans-serif" font-size="13" lengthAdjust="spacingAndGlyphs" textLength="110" x="58" y="522.0669">serve as base for</text><text fill="#000000" font-family="sans-serif" font-size="13" lengthAdjust="spacingAndGlyphs" textLength="23" x="38.3244" y="499.0739">1..*</text><text fill="#000000" font-family="sans-serif" font-size="13" lengthAdjust="spacingAndGlyphs" textLength="23" x="30.3872" y="564.0057">1..*</text><!--MD5=[f8867fa43cf2e6120b2e74661db065c0]
link TestParameters to Report--><path codeLine="52" d="M142.048,479.2295 C153.6737,487.5563 164.7956,497.5077 173,509 C212.0243,563.6637 190.0144,591.5363 212,655 C220.4244,679.3178 231.6569,705.7652 241.2421,727.059 " fill="none" id="TestParameters-to-Report" style="stroke:#A80036;stroke-width:1.0;"/><polygon fill="#A80036" points="243.3867,731.7987,243.3207,721.9501,241.3254,727.2433,236.0322,725.2481,243.3867,731.7987" style="stroke:#A80036;stroke-width:1.0;"/><text fill="#000000" font-family="sans-serif" font-size="13" lengthAdjust="spacingAndGlyphs" textLength="103" x="213" y="610.0669">are contained in</text><text fill="#000000" font-family="sans-serif" font-size="13" lengthAdjust="spacingAndGlyphs" textLength="23" x="128.409" y="498.8551">1..*</text><text fill="#000000" font-family="sans-serif" font-size="13" lengthAdjust="spacingAndGlyphs" textLength="8" x="231.5368" y="720.9498">1</text><!--MD5=[3a1d1c5dabc18982cba29847cc21c36c]
link TestResult to Report--><path codeLine="53" d="M54.799,636.1703 C51.2095,656.6936 50.4408,683.2722 64,702 C79.6176,723.5707 142.5887,742.5184 193.1891,754.7096 " fill="none" id="TestResult-to-Report" style="stroke:#A80036;stroke-width:1.0;"/><polygon fill="#A80036" points="198.3563,755.9416,190.5295,749.9632,193.4926,754.7819,188.674,757.7451,198.3563,755.9416" style="stroke:#A80036;stroke-width:1.0;"/><text fill="#000000" font-family="sans-serif" font-size="13" lengthAdjust="spacingAndGlyphs" textLength="103" x="65" y="698.0669">are contained in</text><text fill="#000000" font-family="sans-serif" font-size="13" lengthAdjust="spacingAndGlyphs" textLength="23" x="27.9204" y="655.7843">1..*</text><text fill="#000000" font-family="sans-serif" font-size="13" lengthAdjust="spacingAndGlyphs" textLength="8" x="182.6506" y="750.6617">1</text><!--MD5=[90ad51989d411efb74d17d287edb6e4a]
link repStore to Report--><path codeLine="54" d="M503.9831,646.4261 C498.2358,649.328 492.5303,652.2085 487,655 C433.7109,681.8984 373.3443,712.3477 328.414,735.0066 " fill="none" id="repStore-to-Report" style="stroke:#A80036;stroke-width:1.0;"/><polygon fill="#A80036" points="323.8403,737.3132,333.6774,736.8319,328.3047,735.0617,330.0749,729.6889,323.8403,737.3132" style="stroke:#A80036;stroke-width:1.0;"/><text fill="#000000" font-family="sans-serif" font-size="13" lengthAdjust="spacingAndGlyphs" textLength="54" x="425" y="698.0669">contains</text><text fill="#000000" font-family="sans-serif" font-size="13" lengthAdjust="spacingAndGlyphs" textLength="8" x="487.8799" y="646.6748">1</text><text fill="#000000" font-family="sans-serif" font-size="13" lengthAdjust="spacingAndGlyphs" textLength="7" x="331.5109" y="729.8794">*</text><!--MD5=[35c5d5b78cc27fdb07caaeeaa436e174]
link SpecialistDoctor to Report--><path codeLine="55" d="M381.195,629.625 C358.9811,655.3836 323.3744,696.6722 296.6711,727.6368 " fill="none" id="SpecialistDoctor-to-Report" style="stroke:#A80036;stroke-width:1.0;"/><polygon fill="#A80036" points="293.1301,731.7427,302.037,727.5395,296.3955,727.9563,295.9787,722.3148,293.1301,731.7427" style="stroke:#A80036;stroke-width:1.0;"/><text fill="#000000" font-family="sans-serif" font-size="13" lengthAdjust="spacingAndGlyphs" textLength="37" x="333" y="698.0669">writes</text><text fill="#000000" font-family="sans-serif" font-size="13" lengthAdjust="spacingAndGlyphs" textLength="8" x="367.1488" y="649.4167">1</text><text fill="#000000" font-family="sans-serif" font-size="13" lengthAdjust="spacingAndGlyphs" textLength="7" x="291.2298" y="720.8838">*</text><!--MD5=[372bd27a178b4208a6d241b4516ac7e6]
reverse link Employee to SpecialistDoctor--><path d="M402,492.8143 C402,521.5041 402,557.765 402,581.2853 " fill="none" id="Employee-backto-SpecialistDoctor" style="stroke:#A80036;stroke-width:1.0;"/><polygon fill="none" points="395.0001,492.6872,402,472.6872,409.0001,492.6871,395.0001,492.6872" style="stroke:#A80036;stroke-width:1.0;"/><!--MD5=[a37fde0fcb8312e3f7a0e8d93ea5349a]
@startuml
skinparam classAtributionIconSize 0


class CreateReportUI {
}

class CreateReportController {
    +createReport(diagnosis)
    +saveReport()
}

class Company {
    +designation
    +getTestStore()
}

class Employee {
}

class SpecialistDoctor {
}

class TestParameters {
    +getTestParameters()
}

class TestStore {
    +getTestID()
}

class TestResult {
    +getTestResult()
}

class Report {
    + (diagnosis)
    + create(diagnosis)
}

class repStore {
    +createReport(diagnosis)
    +validateReport(rep)
    +saveReport(rep)
    +addReport(rep)
}

CreateReportUI ..> CreateReportController
CreateReportController "*" ..> "1" Company : belongs to
Company "1" - -> "1..*" TestParameters : requests analysis of
Company "1" - -> "1" TestStore : has access to
TestParameters "1..*" - -> "1..*" TestResult : serve as base for
TestParameters "1..*" - -> "1" Report : are contained in
TestResult "1..*" - -> "1" Report : are contained in
repStore "1" - -> "*" Report : contains
SpecialistDoctor "1" - -> "*" Report : writes
class SpecialistDoctor extends Employee
@enduml

PlantUML version 1.2020.22(Sun Dec 06 09:36:27 UTC 2020)
(GPL source distribution)
Java Runtime: OpenJDK Runtime Environment
JVM: OpenJDK 64-Bit Server VM
Default Encoding: UTF-8
Language: en
Country: US
--></g></svg>