<?xml version="1.0" encoding="UTF-8" standalone="no"?><svg xmlns="http://www.w3.org/2000/svg" xmlns:xlink="http://www.w3.org/1999/xlink" contentScriptType="application/ecmascript" contentStyleType="text/css" height="1670px" preserveAspectRatio="none" style="width:2524px;height:1670px;" version="1.1" viewBox="0 0 2524 1670" width="2524px" zoomAndPan="magnify"><defs><filter height="300%" id="f1ppxpbcq2r7wn" width="300%" x="-1" y="-1"><feGaussianBlur result="blurOut" stdDeviation="4.0"/><feColorMatrix in="blurOut" result="blurOut2" type="matrix" values="0 0 0 0 0 0 0 0 0 0 0 0 0 0 0 0 0 0 .4 0"/><feOffset dx="8.0" dy="8.0" in="blurOut2" result="blurOut3"/><feBlend in="SourceGraphic" in2="blurOut3" mode="normal"/></filter></defs><g><rect fill="#FFFFFF" filter="url(#f1ppxpbcq2r7wn)" height="1269.8008" style="stroke:#A80036;stroke-width:2.0;" width="20" x="116" y="196.9766"/><rect fill="#FFFFFF" filter="url(#f1ppxpbcq2r7wn)" height="235.8633" style="stroke:#A80036;stroke-width:2.0;" width="20" x="1088" y="239.5977"/><rect fill="#FFFFFF" filter="url(#f1ppxpbcq2r7wn)" height="58.6211" style="stroke:#A80036;stroke-width:2.0;" width="20" x="1088" y="534.082"/><rect fill="#FFFFFF" filter="url(#f1ppxpbcq2r7wn)" height="58.6211" style="stroke:#A80036;stroke-width:2.0;" width="20" x="1088" y="651.3242"/><rect fill="#FFFFFF" filter="url(#f1ppxpbcq2r7wn)" height="294.4844" style="stroke:#A80036;stroke-width:2.0;" width="20" x="1088" y="768.5664"/><rect fill="#FFFFFF" filter="url(#f1ppxpbcq2r7wn)" height="345.1055" style="stroke:#A80036;stroke-width:2.0;" width="20" x="1088" y="1121.6719"/><rect fill="#FFFFFF" filter="url(#f1ppxpbcq2r7wn)" height="118.6211" style="stroke:#A80036;stroke-width:2.0;" width="20" x="1440" y="298.2188"/><rect fill="#FFFFFF" filter="url(#f1ppxpbcq2r7wn)" height="177.2422" style="stroke:#A80036;stroke-width:2.0;" width="20" x="1440" y="827.1875"/><rect fill="#FFFFFF" filter="url(#f1ppxpbcq2r7wn)" height="213.8633" style="stroke:#A80036;stroke-width:2.0;" width="20" x="1440" y="1180.293"/><rect fill="#FFFFFF" filter="url(#f1ppxpbcq2r7wn)" height="60" style="stroke:#A80036;stroke-width:2.0;" width="20" x="1856" y="356.8398"/><rect fill="#FFFFFF" filter="url(#f1ppxpbcq2r7wn)" height="118.6211" style="stroke:#A80036;stroke-width:2.0;" width="20" x="1856" y="885.8086"/><rect fill="#FFFFFF" filter="url(#f1ppxpbcq2r7wn)" height="155.2422" style="stroke:#A80036;stroke-width:2.0;" width="20" x="1856" y="1238.9141"/><rect fill="#FFFFFF" filter="url(#f1ppxpbcq2r7wn)" height="60" style="stroke:#A80036;stroke-width:2.0;" width="20" x="2406" y="944.4297"/><line style="stroke:#A80036;stroke-width:2.0;stroke-dasharray:5.0,5.0;" x1="126" x2="126" y1="176.9766" y2="1502.7773"/><line style="stroke:#A80036;stroke-width:2.0;stroke-dasharray:5.0,5.0;" x1="1097" x2="1097" y1="176.9766" y2="1502.7773"/><line style="stroke:#A80036;stroke-width:2.0;stroke-dasharray:5.0,5.0;" x1="1449" x2="1449" y1="176.9766" y2="1502.7773"/><line style="stroke:#A80036;stroke-width:2.0;stroke-dasharray:5.0,5.0;" x1="1865" x2="1865" y1="176.9766" y2="1502.7773"/><line style="stroke:#A80036;stroke-width:2.0;stroke-dasharray:5.0,5.0;" x1="2193" x2="2193" y1="176.9766" y2="1502.7773"/><line style="stroke:#A80036;stroke-width:2.0;stroke-dasharray:5.0,5.0;" x1="2415" x2="2415" y1="176.9766" y2="1502.7773"/><text fill="#000000" font-family="sans-serif" font-size="28" lengthAdjust="spacing" textLength="220" x="10" y="171.0703">SpecialistDoctor</text><ellipse cx="126" cy="30" fill="#FEFECE" filter="url(#f1ppxpbcq2r7wn)" rx="16" ry="16" style="stroke:#A80036;stroke-width:4.0;"/><path d="M126,46 L126,100 M100,62 L152,62 M126,100 L100,130 M126,100 L152,130 " fill="none" filter="url(#f1ppxpbcq2r7wn)" style="stroke:#A80036;stroke-width:4.0;"/><text fill="#000000" font-family="sans-serif" font-size="28" lengthAdjust="spacing" textLength="220" x="10" y="1527.8477">SpecialistDoctor</text><ellipse cx="126" cy="1553.7539" fill="#FEFECE" filter="url(#f1ppxpbcq2r7wn)" rx="16" ry="16" style="stroke:#A80036;stroke-width:4.0;"/><path d="M126,1569.7539 L126,1623.7539 M100,1585.7539 L152,1585.7539 M126,1623.7539 L100,1653.7539 M126,1623.7539 L152,1653.7539 " fill="none" filter="url(#f1ppxpbcq2r7wn)" style="stroke:#A80036;stroke-width:4.0;"/><rect fill="#FEFECE" filter="url(#f1ppxpbcq2r7wn)" height="60.9766" style="stroke:#A80036;stroke-width:3.0;" width="246" x="971" y="106"/><text fill="#000000" font-family="sans-serif" font-size="28" lengthAdjust="spacing" textLength="218" x="985" y="147.0703">:CreateReportUI</text><rect fill="#FEFECE" filter="url(#f1ppxpbcq2r7wn)" height="60.9766" style="stroke:#A80036;stroke-width:3.0;" width="246" x="971" y="1500.7773"/><text fill="#000000" font-family="sans-serif" font-size="28" lengthAdjust="spacing" textLength="218" x="985" y="1541.8477">:CreateReportUI</text><rect fill="#FEFECE" filter="url(#f1ppxpbcq2r7wn)" height="60.9766" style="stroke:#A80036;stroke-width:3.0;" width="358" x="1267" y="106"/><text fill="#000000" font-family="sans-serif" font-size="28" lengthAdjust="spacing" textLength="330" x="1281" y="147.0703">:CreateReportController</text><rect fill="#FEFECE" filter="url(#f1ppxpbcq2r7wn)" height="60.9766" style="stroke:#A80036;stroke-width:3.0;" width="358" x="1267" y="1500.7773"/><text fill="#000000" font-family="sans-serif" font-size="28" lengthAdjust="spacing" textLength="330" x="1281" y="1541.8477">:CreateReportController</text><rect fill="#FEFECE" filter="url(#f1ppxpbcq2r7wn)" height="60.9766" style="stroke:#A80036;stroke-width:3.0;" width="166" x="1779" y="106"/><text fill="#000000" font-family="sans-serif" font-size="28" lengthAdjust="spacing" textLength="138" x="1793" y="147.0703">:Company</text><rect fill="#FEFECE" filter="url(#f1ppxpbcq2r7wn)" height="60.9766" style="stroke:#A80036;stroke-width:3.0;" width="166" x="1779" y="1500.7773"/><text fill="#000000" font-family="sans-serif" font-size="28" lengthAdjust="spacing" textLength="138" x="1793" y="1541.8477">:Company</text><rect fill="#FEFECE" filter="url(#f1ppxpbcq2r7wn)" height="60.9766" style="stroke:#A80036;stroke-width:3.0;" width="218" x="2081" y="106"/><text fill="#000000" font-family="sans-serif" font-size="28" lengthAdjust="spacing" textLength="190" x="2095" y="147.0703">:CreateReport</text><rect fill="#FEFECE" filter="url(#f1ppxpbcq2r7wn)" height="60.9766" style="stroke:#A80036;stroke-width:3.0;" width="218" x="2081" y="1500.7773"/><text fill="#000000" font-family="sans-serif" font-size="28" lengthAdjust="spacing" textLength="190" x="2095" y="1541.8477">:CreateReport</text><rect fill="#FEFECE" filter="url(#f1ppxpbcq2r7wn)" height="60.9766" style="stroke:#A80036;stroke-width:3.0;" width="170" x="2327" y="106"/><text fill="#000000" font-family="sans-serif" font-size="28" lengthAdjust="spacing" textLength="142" x="2341" y="147.0703">:Diagnosis</text><rect fill="#FEFECE" filter="url(#f1ppxpbcq2r7wn)" height="60.9766" style="stroke:#A80036;stroke-width:3.0;" width="170" x="2327" y="1500.7773"/><text fill="#000000" font-family="sans-serif" font-size="28" lengthAdjust="spacing" textLength="142" x="2341" y="1541.8477">:Diagnosis</text><rect fill="#FFFFFF" filter="url(#f1ppxpbcq2r7wn)" height="1269.8008" style="stroke:#A80036;stroke-width:2.0;" width="20" x="116" y="196.9766"/><rect fill="#FFFFFF" filter="url(#f1ppxpbcq2r7wn)" height="235.8633" style="stroke:#A80036;stroke-width:2.0;" width="20" x="1088" y="239.5977"/><rect fill="#FFFFFF" filter="url(#f1ppxpbcq2r7wn)" height="58.6211" style="stroke:#A80036;stroke-width:2.0;" width="20" x="1088" y="534.082"/><rect fill="#FFFFFF" filter="url(#f1ppxpbcq2r7wn)" height="58.6211" style="stroke:#A80036;stroke-width:2.0;" width="20" x="1088" y="651.3242"/><rect fill="#FFFFFF" filter="url(#f1ppxpbcq2r7wn)" height="294.4844" style="stroke:#A80036;stroke-width:2.0;" width="20" x="1088" y="768.5664"/><rect fill="#FFFFFF" filter="url(#f1ppxpbcq2r7wn)" height="345.1055" style="stroke:#A80036;stroke-width:2.0;" width="20" x="1088" y="1121.6719"/><rect fill="#FFFFFF" filter="url(#f1ppxpbcq2r7wn)" height="118.6211" style="stroke:#A80036;stroke-width:2.0;" width="20" x="1440" y="298.2188"/><rect fill="#FFFFFF" filter="url(#f1ppxpbcq2r7wn)" height="177.2422" style="stroke:#A80036;stroke-width:2.0;" width="20" x="1440" y="827.1875"/><rect fill="#FFFFFF" filter="url(#f1ppxpbcq2r7wn)" height="213.8633" style="stroke:#A80036;stroke-width:2.0;" width="20" x="1440" y="1180.293"/><rect fill="#FFFFFF" filter="url(#f1ppxpbcq2r7wn)" height="60" style="stroke:#A80036;stroke-width:2.0;" width="20" x="1856" y="356.8398"/><rect fill="#FFFFFF" filter="url(#f1ppxpbcq2r7wn)" height="118.6211" style="stroke:#A80036;stroke-width:2.0;" width="20" x="1856" y="885.8086"/><rect fill="#FFFFFF" filter="url(#f1ppxpbcq2r7wn)" height="155.2422" style="stroke:#A80036;stroke-width:2.0;" width="20" x="1856" y="1238.9141"/><rect fill="#FFFFFF" filter="url(#f1ppxpbcq2r7wn)" height="60" style="stroke:#A80036;stroke-width:2.0;" width="20" x="2406" y="944.4297"/><polygon fill="#A80036" points="1064,231.5977,1084,239.5977,1064,247.5977,1072,239.5977" style="stroke:#A80036;stroke-width:2.0;"/><line style="stroke:#A80036;stroke-width:2.0;" x1="136" x2="1076" y1="239.5977" y2="239.5977"/><text fill="#000000" font-family="sans-serif" font-size="26" font-weight="bold" lengthAdjust="spacing" textLength="18" x="150" y="230.1133">1</text><text fill="#000000" font-family="sans-serif" font-size="26" lengthAdjust="spacing" textLength="476" x="176" y="230.1133">asks to access the tests already made</text><polygon fill="#A80036" points="1416,290.2188,1436,298.2188,1416,306.2188,1424,298.2188" style="stroke:#A80036;stroke-width:2.0;"/><line style="stroke:#A80036;stroke-width:2.0;stroke-dasharray:2.0,2.0;" x1="1108" x2="1428" y1="298.2188" y2="298.2188"/><text fill="#000000" font-family="sans-serif" font-size="26" font-weight="bold" lengthAdjust="spacing" textLength="18" x="1122" y="288.7344">2</text><text fill="#000000" font-family="sans-serif" font-size="26" lengthAdjust="spacing" textLength="238" x="1148" y="288.7344">getTestsToReport()</text><polygon fill="#A80036" points="1832,348.8398,1852,356.8398,1832,364.8398,1840,356.8398" style="stroke:#A80036;stroke-width:2.0;"/><line style="stroke:#A80036;stroke-width:2.0;stroke-dasharray:2.0,2.0;" x1="1460" x2="1844" y1="356.8398" y2="356.8398"/><text fill="#000000" font-family="sans-serif" font-size="26" font-weight="bold" lengthAdjust="spacing" textLength="18" x="1474" y="347.3555">3</text><text fill="#000000" font-family="sans-serif" font-size="26" lengthAdjust="spacing" textLength="238" x="1500" y="347.3555">getTestsToReport()</text><polygon fill="#A80036" points="158,467.4609,138,475.4609,158,483.4609,150,475.4609" style="stroke:#A80036;stroke-width:2.0;"/><line style="stroke:#A80036;stroke-width:2.0;stroke-dasharray:2.0,2.0;" x1="146" x2="1096" y1="475.4609" y2="475.4609"/><text fill="#000000" font-family="sans-serif" font-size="26" font-weight="bold" lengthAdjust="spacing" textLength="18" x="170" y="465.9766">4</text><text fill="#000000" font-family="sans-serif" font-size="26" lengthAdjust="spacing" textLength="878" x="196" y="465.9766">shows the tests and asks to choose one to make the report (testcode)</text><polygon fill="#A80036" points="1064,526.082,1084,534.082,1064,542.082,1072,534.082" style="stroke:#A80036;stroke-width:2.0;"/><line style="stroke:#A80036;stroke-width:2.0;stroke-dasharray:2.0,2.0;" x1="136" x2="1076" y1="534.082" y2="534.082"/><text fill="#000000" font-family="sans-serif" font-size="26" font-weight="bold" lengthAdjust="spacing" textLength="18" x="150" y="524.5977">5</text><text fill="#000000" font-family="sans-serif" font-size="26" lengthAdjust="spacing" textLength="414" x="176" y="524.5977">selects requested data (testcode)</text><polygon fill="#A80036" points="158,584.7031,138,592.7031,158,600.7031,150,592.7031" style="stroke:#A80036;stroke-width:2.0;"/><line style="stroke:#A80036;stroke-width:2.0;" x1="146" x2="1096" y1="592.7031" y2="592.7031"/><text fill="#000000" font-family="sans-serif" font-size="26" font-weight="bold" lengthAdjust="spacing" textLength="18" x="170" y="583.2188">6</text><text fill="#000000" font-family="sans-serif" font-size="26" lengthAdjust="spacing" textLength="470" x="196" y="583.2188">shows the test and asks to confirm it</text><polygon fill="#A80036" points="1064,643.3242,1084,651.3242,1064,659.3242,1072,651.3242" style="stroke:#A80036;stroke-width:2.0;"/><line style="stroke:#A80036;stroke-width:2.0;" x1="136" x2="1076" y1="651.3242" y2="651.3242"/><text fill="#000000" font-family="sans-serif" font-size="26" font-weight="bold" lengthAdjust="spacing" textLength="18" x="150" y="641.8398">7</text><text fill="#000000" font-family="sans-serif" font-size="26" lengthAdjust="spacing" textLength="442" x="176" y="641.8398">wants to write a report for that test</text><polygon fill="#A80036" points="158,701.9453,138,709.9453,158,717.9453,150,709.9453" style="stroke:#A80036;stroke-width:2.0;"/><line style="stroke:#A80036;stroke-width:2.0;" x1="146" x2="1096" y1="709.9453" y2="709.9453"/><text fill="#000000" font-family="sans-serif" font-size="26" font-weight="bold" lengthAdjust="spacing" textLength="18" x="170" y="700.4609">8</text><text fill="#000000" font-family="sans-serif" font-size="26" lengthAdjust="spacing" textLength="498" x="196" y="700.4609">requests data to write the report(report)</text><polygon fill="#A80036" points="1064,760.5664,1084,768.5664,1064,776.5664,1072,768.5664" style="stroke:#A80036;stroke-width:2.0;"/><line style="stroke:#A80036;stroke-width:2.0;" x1="136" x2="1076" y1="768.5664" y2="768.5664"/><text fill="#000000" font-family="sans-serif" font-size="26" font-weight="bold" lengthAdjust="spacing" textLength="18" x="150" y="759.082">9</text><text fill="#000000" font-family="sans-serif" font-size="26" lengthAdjust="spacing" textLength="380" x="176" y="759.082">inserts requested data (report)</text><polygon fill="#A80036" points="1416,819.1875,1436,827.1875,1416,835.1875,1424,827.1875" style="stroke:#A80036;stroke-width:2.0;"/><line style="stroke:#A80036;stroke-width:2.0;" x1="1108" x2="1428" y1="827.1875" y2="827.1875"/><text fill="#000000" font-family="sans-serif" font-size="26" font-weight="bold" lengthAdjust="spacing" textLength="36" x="1122" y="817.7031">10</text><text fill="#000000" font-family="sans-serif" font-size="26" lengthAdjust="spacing" textLength="250" x="1166" y="817.7031">createReport(report)</text><polygon fill="#A80036" points="1832,877.8086,1852,885.8086,1832,893.8086,1840,885.8086" style="stroke:#A80036;stroke-width:2.0;"/><line style="stroke:#A80036;stroke-width:2.0;" x1="1460" x2="1844" y1="885.8086" y2="885.8086"/><text fill="#000000" font-family="sans-serif" font-size="26" font-weight="bold" lengthAdjust="spacing" textLength="36" x="1474" y="876.3242">11</text><text fill="#000000" font-family="sans-serif" font-size="26" lengthAdjust="spacing" textLength="314" x="1518" y="876.3242">rep : createReport(report)</text><polygon fill="#A80036" points="2382,936.4297,2402,944.4297,2382,952.4297,2390,944.4297" style="stroke:#A80036;stroke-width:2.0;"/><line style="stroke:#A80036;stroke-width:2.0;" x1="1876" x2="2394" y1="944.4297" y2="944.4297"/><text fill="#000000" font-family="sans-serif" font-size="26" font-weight="bold" lengthAdjust="spacing" textLength="36" x="1890" y="934.9453">12</text><text fill="#000000" font-family="sans-serif" font-size="26" lengthAdjust="spacing" textLength="250" x="1934" y="934.9453">createReport(report)</text><polygon fill="#A80036" points="158,1055.0508,138,1063.0508,158,1071.0508,150,1063.0508" style="stroke:#A80036;stroke-width:2.0;"/><line style="stroke:#A80036;stroke-width:2.0;" x1="146" x2="1096" y1="1063.0508" y2="1063.0508"/><text fill="#000000" font-family="sans-serif" font-size="26" font-weight="bold" lengthAdjust="spacing" textLength="36" x="170" y="1053.5664">13</text><text fill="#000000" font-family="sans-serif" font-size="26" lengthAdjust="spacing" textLength="428" x="214" y="1053.5664">shows data and asks to confirm it</text><polygon fill="#A80036" points="1064,1113.6719,1084,1121.6719,1064,1129.6719,1072,1121.6719" style="stroke:#A80036;stroke-width:2.0;"/><line style="stroke:#A80036;stroke-width:2.0;" x1="136" x2="1076" y1="1121.6719" y2="1121.6719"/><text fill="#000000" font-family="sans-serif" font-size="26" font-weight="bold" lengthAdjust="spacing" textLength="36" x="150" y="1112.1875">14</text><text fill="#000000" font-family="sans-serif" font-size="26" lengthAdjust="spacing" textLength="174" x="194" y="1112.1875">confirms data</text><polygon fill="#A80036" points="1416,1172.293,1436,1180.293,1416,1188.293,1424,1180.293" style="stroke:#A80036;stroke-width:2.0;"/><line style="stroke:#A80036;stroke-width:2.0;" x1="1108" x2="1428" y1="1180.293" y2="1180.293"/><text fill="#000000" font-family="sans-serif" font-size="26" font-weight="bold" lengthAdjust="spacing" textLength="36" x="1122" y="1170.8086">15</text><text fill="#000000" font-family="sans-serif" font-size="26" lengthAdjust="spacing" textLength="174" x="1166" y="1170.8086">createReport()</text><polygon fill="#A80036" points="1832,1230.9141,1852,1238.9141,1832,1246.9141,1840,1238.9141" style="stroke:#A80036;stroke-width:2.0;"/><line style="stroke:#A80036;stroke-width:2.0;" x1="1460" x2="1844" y1="1238.9141" y2="1238.9141"/><text fill="#000000" font-family="sans-serif" font-size="26" font-weight="bold" lengthAdjust="spacing" textLength="36" x="1474" y="1229.4297">16</text><text fill="#000000" font-family="sans-serif" font-size="26" lengthAdjust="spacing" textLength="214" x="1518" y="1229.4297">createReport(rep)</text><line style="stroke:#A80036;stroke-width:2.0;" x1="1876" x2="1960" y1="1297.5352" y2="1297.5352"/><line style="stroke:#A80036;stroke-width:2.0;" x1="1960" x2="1960" y1="1297.5352" y2="1323.5352"/><line style="stroke:#A80036;stroke-width:2.0;" x1="1878" x2="1960" y1="1323.5352" y2="1323.5352"/><polygon fill="#A80036" points="1898,1315.5352,1878,1323.5352,1898,1331.5352,1890,1323.5352" style="stroke:#A80036;stroke-width:2.0;"/><text fill="#000000" font-family="sans-serif" font-size="26" font-weight="bold" lengthAdjust="spacing" textLength="36" x="1890" y="1288.0508">17</text><text fill="#000000" font-family="sans-serif" font-size="26" lengthAdjust="spacing" textLength="184" x="1934" y="1288.0508">addReport(rep)</text><line style="stroke:#A80036;stroke-width:2.0;" x1="1876" x2="1960" y1="1392.1563" y2="1392.1563"/><line style="stroke:#A80036;stroke-width:2.0;" x1="1960" x2="1960" y1="1392.1563" y2="1418.1563"/><line style="stroke:#A80036;stroke-width:2.0;" x1="1866" x2="1960" y1="1418.1563" y2="1418.1563"/><polygon fill="#A80036" points="1886,1410.1563,1866,1418.1563,1886,1426.1563,1878,1418.1563" style="stroke:#A80036;stroke-width:2.0;"/><text fill="#000000" font-family="sans-serif" font-size="26" font-weight="bold" lengthAdjust="spacing" textLength="36" x="1890" y="1382.6719">18</text><text fill="#000000" font-family="sans-serif" font-size="26" lengthAdjust="spacing" textLength="236" x="1934" y="1382.6719">validateReport(rep)</text><polygon fill="#A80036" points="148,1458.7773,128,1466.7773,148,1474.7773,140,1466.7773" style="stroke:#A80036;stroke-width:2.0;"/><line style="stroke:#A80036;stroke-width:2.0;" x1="136" x2="1096" y1="1466.7773" y2="1466.7773"/><text fill="#000000" font-family="sans-serif" font-size="26" font-weight="bold" lengthAdjust="spacing" textLength="36" x="160" y="1457.293">19</text><text fill="#000000" font-family="sans-serif" font-size="26" lengthAdjust="spacing" textLength="582" x="204" y="1457.293">informs success or insuccess of the operation</text><!--MD5=[05112e027c5ffa27de2a2a4fbd70e5fa]
@startuml
autonumber

actor "SpecialistDoctor" as Spec

participant ":CreateReportUI" as UI
participant ":CreateReportController" as CRC
participant ":Company" as COM
participant ":CreateReport" as CR
participant ":Diagnosis" as DIAG


activate Spec

Spec -> UI : asks to access the tests already made

activate UI

UI - -> CRC : getTestsToReport()

activate CRC

CRC - -> COM : getTestsToReport()

activate COM

deactivate COM

deactivate CRC

UI - -> Spec : shows the tests and asks to choose one to make the report (testcode)

deactivate UI

Spec - -> UI : selects requested data (testcode)

activate UI

UI -> Spec : shows the test and asks to confirm it

deactivate UI

Spec -> UI : wants to write a report for that test

activate UI

UI -> Spec : requests data to write the report(report)

deactivate UI

Spec -> UI : inserts requested data (report)

activate UI

UI -> CRC : createReport(report)

activate CRC

CRC -> COM : rep : createReport(report)

activate COM

COM -> DIAG : createReport(report)

activate DIAG

deactivate DIAG
deactivate COM
deactivate CRC

UI -> Spec : shows data and asks to confirm it

deactivate UI

Spec -> UI : confirms data

activate UI

UI -> CRC : createReport()

activate CRC

CRC -> COM : createReport(rep)

activate COM

COM -> COM : addReport(rep)
COM -> COM : validateReport(rep)

deactivate COM
deactivate CRC

UI -> Spec : informs success or insuccess of the operation

deactivate UI
deactivate Spec

@enduml

PlantUML version 1.2021.5(Sun Apr 25 12:20:28 WEST 2021)
(GPL source distribution)
Java Runtime: OpenJDK Runtime Environment
JVM: OpenJDK 64-Bit Server VM
Default Encoding: UTF-8
Language: en
Country: PT
--></g></svg>