<?xml version="1.0" encoding="UTF-8" standalone="no"?><svg xmlns="http://www.w3.org/2000/svg" xmlns:xlink="http://www.w3.org/1999/xlink" contentScriptType="application/ecmascript" contentStyleType="text/css" height="1824px" preserveAspectRatio="none" style="width:2920px;height:1824px;" version="1.1" viewBox="0 0 2920 1824" width="2920px" zoomAndPan="magnify"><defs><filter height="300%" id="faqbv7icdhmky" width="300%" x="-1" y="-1"><feGaussianBlur result="blurOut" stdDeviation="4.0"/><feColorMatrix in="blurOut" result="blurOut2" type="matrix" values="0 0 0 0 0 0 0 0 0 0 0 0 0 0 0 0 0 0 .4 0"/><feOffset dx="8.0" dy="8.0" in="blurOut2" result="blurOut3"/><feBlend in="SourceGraphic" in2="blurOut3" mode="normal"/></filter></defs><g><rect fill="#FFFFFF" filter="url(#faqbv7icdhmky)" height="1440.1563" style="stroke:#A80036;stroke-width:2.0;" width="20" x="116" y="196.9766"/><rect fill="#FFFFFF" filter="url(#faqbv7icdhmky)" height="444.082" style="stroke:#A80036;stroke-width:2.0;" width="20" x="1028" y="239.5977"/><rect fill="#FFFFFF" filter="url(#faqbv7icdhmky)" height="353.1055" style="stroke:#A80036;stroke-width:2.0;" width="20" x="1028" y="742.3008"/><rect fill="#FFFFFF" filter="url(#faqbv7icdhmky)" height="483.1055" style="stroke:#A80036;stroke-width:2.0;" width="20" x="1028" y="1154.0273"/><rect fill="#FFFFFF" filter="url(#faqbv7icdhmky)" height="326.8398" style="stroke:#A80036;stroke-width:2.0;" width="20" x="1408" y="298.2188"/><rect fill="#FFFFFF" filter="url(#faqbv7icdhmky)" height="235.8633" style="stroke:#A80036;stroke-width:2.0;" width="20" x="1408" y="800.9219"/><rect fill="#FFFFFF" filter="url(#faqbv7icdhmky)" height="333.8633" style="stroke:#A80036;stroke-width:2.0;" width="20" x="1408" y="1212.6484"/><rect fill="#FFFFFF" filter="url(#faqbv7icdhmky)" height="177.2422" style="stroke:#A80036;stroke-width:2.0;" width="20" x="1882" y="859.543"/><rect fill="#FFFFFF" filter="url(#faqbv7icdhmky)" height="275.2422" style="stroke:#A80036;stroke-width:2.0;" width="20" x="1882" y="1271.2695"/><rect fill="#FFFFFF" filter="url(#faqbv7icdhmky)" height="56" style="stroke:#A80036;stroke-width:2.0;" width="20" x="1892" y="1345.8906"/><rect fill="#FFFFFF" filter="url(#faqbv7icdhmky)" height="56" style="stroke:#A80036;stroke-width:2.0;" width="20" x="1892" y="1490.5117"/><rect fill="#FFFFFF" filter="url(#faqbv7icdhmky)" height="60" style="stroke:#A80036;stroke-width:2.0;" width="20" x="2508" y="415.4609"/><rect fill="#FFFFFF" filter="url(#faqbv7icdhmky)" height="60" style="stroke:#A80036;stroke-width:2.0;" width="20" x="2792" y="918.1641"/><line style="stroke:#A80036;stroke-width:2.0;stroke-dasharray:5.0,5.0;" x1="126" x2="126" y1="176.9766" y2="1655.1328"/><line style="stroke:#A80036;stroke-width:2.0;stroke-dasharray:5.0,5.0;" x1="1037" x2="1037" y1="176.9766" y2="1655.1328"/><line style="stroke:#A80036;stroke-width:2.0;stroke-dasharray:5.0,5.0;" x1="1417" x2="1417" y1="176.9766" y2="1655.1328"/><line style="stroke:#A80036;stroke-width:2.0;stroke-dasharray:5.0,5.0;" x1="1891" x2="1891" y1="176.9766" y2="1655.1328"/><line style="stroke:#A80036;stroke-width:2.0;stroke-dasharray:5.0,5.0;" x1="2219" x2="2219" y1="176.9766" y2="1655.1328"/><line style="stroke:#A80036;stroke-width:2.0;stroke-dasharray:5.0,5.0;" x1="2517" x2="2517" y1="176.9766" y2="1655.1328"/><line style="stroke:#A80036;stroke-width:2.0;stroke-dasharray:5.0,5.0;" x1="2801" x2="2801" y1="556.9492" y2="1655.1328"/><text fill="#000000" font-family="sans-serif" font-size="28" lengthAdjust="spacing" textLength="220" x="10" y="171.0703">SpecialistDoctor</text><ellipse cx="126" cy="30" fill="#FEFECE" filter="url(#faqbv7icdhmky)" rx="16" ry="16" style="stroke:#A80036;stroke-width:4.0;"/><path d="M126,46 L126,100 M100,62 L152,62 M126,100 L100,130 M126,100 L152,130 " fill="none" filter="url(#faqbv7icdhmky)" style="stroke:#A80036;stroke-width:4.0;"/><text fill="#000000" font-family="sans-serif" font-size="28" lengthAdjust="spacing" textLength="220" x="10" y="1680.2031">SpecialistDoctor</text><ellipse cx="126" cy="1706.1094" fill="#FEFECE" filter="url(#faqbv7icdhmky)" rx="16" ry="16" style="stroke:#A80036;stroke-width:4.0;"/><path d="M126,1722.1094 L126,1776.1094 M100,1738.1094 L152,1738.1094 M126,1776.1094 L100,1806.1094 M126,1776.1094 L152,1806.1094 " fill="none" filter="url(#faqbv7icdhmky)" style="stroke:#A80036;stroke-width:4.0;"/><rect fill="#FEFECE" filter="url(#faqbv7icdhmky)" height="60.9766" style="stroke:#A80036;stroke-width:3.0;" width="246" x="911" y="106"/><text fill="#000000" font-family="sans-serif" font-size="28" lengthAdjust="spacing" textLength="218" x="925" y="147.0703">:CreateReportUI</text><rect fill="#FEFECE" filter="url(#faqbv7icdhmky)" height="60.9766" style="stroke:#A80036;stroke-width:3.0;" width="246" x="911" y="1653.1328"/><text fill="#000000" font-family="sans-serif" font-size="28" lengthAdjust="spacing" textLength="218" x="925" y="1694.2031">:CreateReportUI</text><rect fill="#FEFECE" filter="url(#faqbv7icdhmky)" height="60.9766" style="stroke:#A80036;stroke-width:3.0;" width="358" x="1235" y="106"/><text fill="#000000" font-family="sans-serif" font-size="28" lengthAdjust="spacing" textLength="330" x="1249" y="147.0703">:CreateReportController</text><rect fill="#FEFECE" filter="url(#faqbv7icdhmky)" height="60.9766" style="stroke:#A80036;stroke-width:3.0;" width="358" x="1235" y="1653.1328"/><text fill="#000000" font-family="sans-serif" font-size="28" lengthAdjust="spacing" textLength="330" x="1249" y="1694.2031">:CreateReportController</text><rect fill="#FEFECE" filter="url(#faqbv7icdhmky)" height="60.9766" style="stroke:#A80036;stroke-width:3.0;" width="166" x="1805" y="106"/><text fill="#000000" font-family="sans-serif" font-size="28" lengthAdjust="spacing" textLength="138" x="1819" y="147.0703">:Company</text><rect fill="#FEFECE" filter="url(#faqbv7icdhmky)" height="60.9766" style="stroke:#A80036;stroke-width:3.0;" width="166" x="1805" y="1653.1328"/><text fill="#000000" font-family="sans-serif" font-size="28" lengthAdjust="spacing" textLength="138" x="1819" y="1694.2031">:Company</text><rect fill="#FEFECE" filter="url(#faqbv7icdhmky)" height="60.9766" style="stroke:#A80036;stroke-width:3.0;" width="218" x="2107" y="106"/><text fill="#000000" font-family="sans-serif" font-size="28" lengthAdjust="spacing" textLength="190" x="2121" y="147.0703">:CreateReport</text><rect fill="#FEFECE" filter="url(#faqbv7icdhmky)" height="60.9766" style="stroke:#A80036;stroke-width:3.0;" width="218" x="2107" y="1653.1328"/><text fill="#000000" font-family="sans-serif" font-size="28" lengthAdjust="spacing" textLength="190" x="2121" y="1694.2031">:CreateReport</text><rect fill="#FEFECE" filter="url(#faqbv7icdhmky)" height="60.9766" style="stroke:#A80036;stroke-width:3.0;" width="322" x="2353" y="106"/><text fill="#000000" font-family="sans-serif" font-size="28" lengthAdjust="spacing" textLength="294" x="2367" y="147.0703">TestStore: testIdStore</text><rect fill="#FEFECE" filter="url(#faqbv7icdhmky)" height="60.9766" style="stroke:#A80036;stroke-width:3.0;" width="322" x="2353" y="1653.1328"/><text fill="#000000" font-family="sans-serif" font-size="28" lengthAdjust="spacing" textLength="294" x="2367" y="1694.2031">TestStore: testIdStore</text><rect fill="#FEFECE" filter="url(#faqbv7icdhmky)" height="60.9766" style="stroke:#A80036;stroke-width:3.0;" width="190" x="2703" y="1653.1328"/><text fill="#000000" font-family="sans-serif" font-size="28" lengthAdjust="spacing" textLength="162" x="2717" y="1694.2031">rep : Report</text><rect fill="#FFFFFF" filter="url(#faqbv7icdhmky)" height="1440.1563" style="stroke:#A80036;stroke-width:2.0;" width="20" x="116" y="196.9766"/><rect fill="#FFFFFF" filter="url(#faqbv7icdhmky)" height="444.082" style="stroke:#A80036;stroke-width:2.0;" width="20" x="1028" y="239.5977"/><rect fill="#FFFFFF" filter="url(#faqbv7icdhmky)" height="353.1055" style="stroke:#A80036;stroke-width:2.0;" width="20" x="1028" y="742.3008"/><rect fill="#FFFFFF" filter="url(#faqbv7icdhmky)" height="483.1055" style="stroke:#A80036;stroke-width:2.0;" width="20" x="1028" y="1154.0273"/><rect fill="#FFFFFF" filter="url(#faqbv7icdhmky)" height="326.8398" style="stroke:#A80036;stroke-width:2.0;" width="20" x="1408" y="298.2188"/><rect fill="#FFFFFF" filter="url(#faqbv7icdhmky)" height="235.8633" style="stroke:#A80036;stroke-width:2.0;" width="20" x="1408" y="800.9219"/><rect fill="#FFFFFF" filter="url(#faqbv7icdhmky)" height="333.8633" style="stroke:#A80036;stroke-width:2.0;" width="20" x="1408" y="1212.6484"/><rect fill="#FFFFFF" filter="url(#faqbv7icdhmky)" height="177.2422" style="stroke:#A80036;stroke-width:2.0;" width="20" x="1882" y="859.543"/><rect fill="#FFFFFF" filter="url(#faqbv7icdhmky)" height="275.2422" style="stroke:#A80036;stroke-width:2.0;" width="20" x="1882" y="1271.2695"/><rect fill="#FFFFFF" filter="url(#faqbv7icdhmky)" height="56" style="stroke:#A80036;stroke-width:2.0;" width="20" x="1892" y="1345.8906"/><rect fill="#FFFFFF" filter="url(#faqbv7icdhmky)" height="56" style="stroke:#A80036;stroke-width:2.0;" width="20" x="1892" y="1490.5117"/><rect fill="#FFFFFF" filter="url(#faqbv7icdhmky)" height="60" style="stroke:#A80036;stroke-width:2.0;" width="20" x="2508" y="415.4609"/><rect fill="#FFFFFF" filter="url(#faqbv7icdhmky)" height="60" style="stroke:#A80036;stroke-width:2.0;" width="20" x="2792" y="918.1641"/><polygon fill="#A80036" points="1004,231.5977,1024,239.5977,1004,247.5977,1012,239.5977" style="stroke:#A80036;stroke-width:2.0;"/><line style="stroke:#A80036;stroke-width:2.0;" x1="136" x2="1016" y1="239.5977" y2="239.5977"/><text fill="#000000" font-family="sans-serif" font-size="26" font-weight="bold" lengthAdjust="spacing" textLength="18" x="150" y="230.1133">1</text><text fill="#000000" font-family="sans-serif" font-size="26" lengthAdjust="spacing" textLength="476" x="176" y="230.1133">asks to access the tests already made</text><polygon fill="#A80036" points="158,290.2188,138,298.2188,158,306.2188,150,298.2188" style="stroke:#A80036;stroke-width:2.0;"/><line style="stroke:#A80036;stroke-width:2.0;stroke-dasharray:2.0,2.0;" x1="146" x2="1026" y1="298.2188" y2="298.2188"/><text fill="#000000" font-family="sans-serif" font-size="26" font-weight="bold" lengthAdjust="spacing" textLength="18" x="170" y="288.7344">2</text><text fill="#000000" font-family="sans-serif" font-size="26" lengthAdjust="spacing" textLength="818" x="196" y="288.7344">shows the tests and asks to choose one to make the report (test)</text><polygon fill="#A80036" points="1384,348.8398,1404,356.8398,1384,364.8398,1392,356.8398" style="stroke:#A80036;stroke-width:2.0;"/><line style="stroke:#A80036;stroke-width:2.0;" x1="1048" x2="1396" y1="356.8398" y2="356.8398"/><text fill="#000000" font-family="sans-serif" font-size="26" font-weight="bold" lengthAdjust="spacing" textLength="18" x="1062" y="347.3555">3</text><text fill="#000000" font-family="sans-serif" font-size="26" lengthAdjust="spacing" textLength="244" x="1088" y="347.3555">selectTestId(testID)</text><polygon fill="#A80036" points="2484,407.4609,2504,415.4609,2484,423.4609,2492,415.4609" style="stroke:#A80036;stroke-width:2.0;"/><line style="stroke:#A80036;stroke-width:2.0;" x1="1428" x2="2496" y1="415.4609" y2="415.4609"/><text fill="#000000" font-family="sans-serif" font-size="26" font-weight="bold" lengthAdjust="spacing" textLength="18" x="1442" y="405.9766">4</text><text fill="#000000" font-family="sans-serif" font-size="26" lengthAdjust="spacing" textLength="288" x="1468" y="405.9766">tID = getTestID(testID)</text><polygon fill="#A80036" points="2679,526.082,2699,534.082,2679,542.082,2687,534.082" style="stroke:#A80036;stroke-width:2.0;"/><line style="stroke:#A80036;stroke-width:2.0;" x1="1428" x2="2691" y1="534.082" y2="534.082"/><text fill="#000000" font-family="sans-serif" font-size="26" font-weight="bold" lengthAdjust="spacing" textLength="18" x="1442" y="524.5977">5</text><text fill="#000000" font-family="sans-serif" font-size="26" lengthAdjust="spacing" textLength="280" x="1468" y="524.5977">addT = addTestID(tID)</text><rect fill="#FEFECE" filter="url(#faqbv7icdhmky)" height="60.9766" style="stroke:#A80036;stroke-width:3.0;" width="190" x="2703" y="491.4609"/><text fill="#000000" font-family="sans-serif" font-size="28" lengthAdjust="spacing" textLength="162" x="2717" y="532.5313">rep : Report</text><polygon fill="#A80036" points="1070,617.0586,1050,625.0586,1070,633.0586,1062,625.0586" style="stroke:#A80036;stroke-width:2.0;"/><line style="stroke:#A80036;stroke-width:2.0;" x1="1058" x2="1416" y1="625.0586" y2="625.0586"/><text fill="#000000" font-family="sans-serif" font-size="26" font-weight="bold" lengthAdjust="spacing" textLength="18" x="1082" y="615.5742">6</text><text fill="#000000" font-family="sans-serif" font-size="26" lengthAdjust="spacing" textLength="32" x="1108" y="615.5742">ok</text><polygon fill="#A80036" points="158,675.6797,138,683.6797,158,691.6797,150,683.6797" style="stroke:#A80036;stroke-width:2.0;"/><line style="stroke:#A80036;stroke-width:2.0;stroke-dasharray:2.0,2.0;" x1="146" x2="1036" y1="683.6797" y2="683.6797"/><text fill="#000000" font-family="sans-serif" font-size="26" font-weight="bold" lengthAdjust="spacing" textLength="18" x="170" y="674.1953">7</text><text fill="#000000" font-family="sans-serif" font-size="26" lengthAdjust="spacing" textLength="802" x="196" y="674.1953">shows testID and chemical analysis results and asks to confirm</text><polygon fill="#A80036" points="1004,734.3008,1024,742.3008,1004,750.3008,1012,742.3008" style="stroke:#A80036;stroke-width:2.0;"/><line style="stroke:#A80036;stroke-width:2.0;" x1="136" x2="1016" y1="742.3008" y2="742.3008"/><text fill="#000000" font-family="sans-serif" font-size="26" font-weight="bold" lengthAdjust="spacing" textLength="18" x="150" y="732.8164">8</text><text fill="#000000" font-family="sans-serif" font-size="26" lengthAdjust="spacing" textLength="386" x="176" y="732.8164">writes a diagnosis for that test</text><polygon fill="#A80036" points="1384,792.9219,1404,800.9219,1384,808.9219,1392,800.9219" style="stroke:#A80036;stroke-width:2.0;"/><line style="stroke:#A80036;stroke-width:2.0;" x1="1048" x2="1396" y1="800.9219" y2="800.9219"/><text fill="#000000" font-family="sans-serif" font-size="26" font-weight="bold" lengthAdjust="spacing" textLength="18" x="1062" y="791.4375">9</text><text fill="#000000" font-family="sans-serif" font-size="26" lengthAdjust="spacing" textLength="296" x="1088" y="791.4375">createReport(diagnosis)</text><polygon fill="#A80036" points="1858,851.543,1878,859.543,1858,867.543,1866,859.543" style="stroke:#A80036;stroke-width:2.0;"/><line style="stroke:#A80036;stroke-width:2.0;" x1="1428" x2="1870" y1="859.543" y2="859.543"/><text fill="#000000" font-family="sans-serif" font-size="26" font-weight="bold" lengthAdjust="spacing" textLength="36" x="1442" y="850.0586">10</text><text fill="#000000" font-family="sans-serif" font-size="26" lengthAdjust="spacing" textLength="372" x="1486" y="850.0586">rep = createReport(diagnosis)</text><polygon fill="#A80036" points="2768,910.1641,2788,918.1641,2768,926.1641,2776,918.1641" style="stroke:#A80036;stroke-width:2.0;"/><line style="stroke:#A80036;stroke-width:2.0;" x1="1902" x2="2780" y1="918.1641" y2="918.1641"/><text fill="#000000" font-family="sans-serif" font-size="26" font-weight="bold" lengthAdjust="spacing" textLength="36" x="1916" y="908.6797">11</text><text fill="#000000" font-family="sans-serif" font-size="26" lengthAdjust="spacing" textLength="214" x="1960" y="908.6797">create(diagnosis)</text><polygon fill="#A80036" points="1868,1028.7852,1888,1036.7852,1868,1044.7852,1876,1036.7852" style="stroke:#A80036;stroke-width:2.0;"/><line style="stroke:#A80036;stroke-width:2.0;" x1="1418" x2="1880" y1="1036.7852" y2="1036.7852"/><text fill="#000000" font-family="sans-serif" font-size="26" font-weight="bold" lengthAdjust="spacing" textLength="36" x="1432" y="1027.3008">12</text><text fill="#000000" font-family="sans-serif" font-size="26" lengthAdjust="spacing" textLength="236" x="1476" y="1027.3008">validateReport(rep)</text><polygon fill="#A80036" points="158,1087.4063,138,1095.4063,158,1103.4063,150,1095.4063" style="stroke:#A80036;stroke-width:2.0;"/><line style="stroke:#A80036;stroke-width:2.0;stroke-dasharray:2.0,2.0;" x1="146" x2="1036" y1="1095.4063" y2="1095.4063"/><text fill="#000000" font-family="sans-serif" font-size="26" font-weight="bold" lengthAdjust="spacing" textLength="36" x="170" y="1085.9219">13</text><text fill="#000000" font-family="sans-serif" font-size="26" lengthAdjust="spacing" textLength="424" x="214" y="1085.9219">shows report and asks to confirm</text><polygon fill="#A80036" points="1004,1146.0273,1024,1154.0273,1004,1162.0273,1012,1154.0273" style="stroke:#A80036;stroke-width:2.0;"/><line style="stroke:#A80036;stroke-width:2.0;" x1="136" x2="1016" y1="1154.0273" y2="1154.0273"/><text fill="#000000" font-family="sans-serif" font-size="26" font-weight="bold" lengthAdjust="spacing" textLength="36" x="150" y="1144.543">14</text><text fill="#000000" font-family="sans-serif" font-size="26" lengthAdjust="spacing" textLength="196" x="194" y="1144.543">confirms report</text><polygon fill="#A80036" points="1384,1204.6484,1404,1212.6484,1384,1220.6484,1392,1212.6484" style="stroke:#A80036;stroke-width:2.0;"/><line style="stroke:#A80036;stroke-width:2.0;" x1="1048" x2="1396" y1="1212.6484" y2="1212.6484"/><text fill="#000000" font-family="sans-serif" font-size="26" font-weight="bold" lengthAdjust="spacing" textLength="36" x="1062" y="1203.1641">15</text><text fill="#000000" font-family="sans-serif" font-size="26" lengthAdjust="spacing" textLength="154" x="1106" y="1203.1641">saveReport()</text><polygon fill="#A80036" points="1858,1263.2695,1878,1271.2695,1858,1279.2695,1866,1271.2695" style="stroke:#A80036;stroke-width:2.0;"/><line style="stroke:#A80036;stroke-width:2.0;" x1="1428" x2="1870" y1="1271.2695" y2="1271.2695"/><text fill="#000000" font-family="sans-serif" font-size="26" font-weight="bold" lengthAdjust="spacing" textLength="36" x="1442" y="1261.7852">16</text><text fill="#000000" font-family="sans-serif" font-size="26" lengthAdjust="spacing" textLength="194" x="1486" y="1261.7852">saveReport(rep)</text><line style="stroke:#A80036;stroke-width:2.0;" x1="1912" x2="1996" y1="1329.8906" y2="1329.8906"/><line style="stroke:#A80036;stroke-width:2.0;" x1="1996" x2="1996" y1="1329.8906" y2="1355.8906"/><line style="stroke:#A80036;stroke-width:2.0;" x1="1914" x2="1996" y1="1355.8906" y2="1355.8906"/><polygon fill="#A80036" points="1934,1347.8906,1914,1355.8906,1934,1363.8906,1926,1355.8906" style="stroke:#A80036;stroke-width:2.0;"/><text fill="#000000" font-family="sans-serif" font-size="26" font-weight="bold" lengthAdjust="spacing" textLength="36" x="1926" y="1320.4063">17</text><text fill="#000000" font-family="sans-serif" font-size="26" lengthAdjust="spacing" textLength="236" x="1970" y="1320.4063">validateReport(rep)</text><line style="stroke:#A80036;stroke-width:2.0;" x1="1912" x2="1996" y1="1474.5117" y2="1474.5117"/><line style="stroke:#A80036;stroke-width:2.0;" x1="1996" x2="1996" y1="1474.5117" y2="1500.5117"/><line style="stroke:#A80036;stroke-width:2.0;" x1="1914" x2="1996" y1="1500.5117" y2="1500.5117"/><polygon fill="#A80036" points="1934,1492.5117,1914,1500.5117,1934,1508.5117,1926,1500.5117" style="stroke:#A80036;stroke-width:2.0;"/><text fill="#000000" font-family="sans-serif" font-size="26" font-weight="bold" lengthAdjust="spacing" textLength="36" x="1926" y="1465.0273">18</text><text fill="#000000" font-family="sans-serif" font-size="26" lengthAdjust="spacing" textLength="184" x="1970" y="1465.0273">addReport(rep)</text><polygon fill="#A80036" points="158,1611.1328,138,1619.1328,158,1627.1328,150,1619.1328" style="stroke:#A80036;stroke-width:2.0;"/><line style="stroke:#A80036;stroke-width:2.0;stroke-dasharray:2.0,2.0;" x1="146" x2="1026" y1="1619.1328" y2="1619.1328"/><text fill="#000000" font-family="sans-serif" font-size="26" font-weight="bold" lengthAdjust="spacing" textLength="36" x="170" y="1609.6484">19</text><text fill="#000000" font-family="sans-serif" font-size="26" lengthAdjust="spacing" textLength="206" x="214" y="1609.6484">informs success</text><!--MD5=[f0ecaab52c11a1754225d4d948139c86]
@startuml
autonumber

actor "SpecialistDoctor" as Spec

participant ":CreateReportUI" as UI
participant ":CreateReportController" as CRC
participant ":Company" as COM
participant ":CreateReport" as CR
participant "TestStore: testIdStore" as TS
participant "rep : Report" as reporttt

activate Spec

Spec -> UI : asks to access the tests already made

activate UI

UI - -> Spec : shows the tests and asks to choose one to make the report (test)

activate CRC

UI -> CRC : selectTestId(testID)


CRC -> TS : tID = getTestID(testID)

activate TS

deactivate TS

create reporttt

CRC -> reporttt : addT = addTestID(tID)

CRC -> UI : ok

deactivate CRC

Spec <- - UI : shows testID and chemical analysis results and asks to confirm

deactivate UI



Spec -> UI : writes a diagnosis for that test

activate UI


UI -> CRC : createReport(diagnosis)

activate CRC


CRC -> COM : rep = createReport(diagnosis)

activate COM

COM -> reporttt : create(diagnosis)

activate reporttt

deactivate reporttt

CRC -> COM : validateReport(rep)

deactivate COM

deactivate CRC

UI - -> Spec : shows report and asks to confirm

deactivate UI

Spec -> UI : confirms report

activate UI

UI -> CRC : saveReport()

activate CRC

CRC -> COM : saveReport(rep)

activate COM

COM -> COM : validateReport(rep)

activate COM

deactivate COM

COM -> COM : addReport(rep)

activate COM

deactivate COM

deactivate COM

deactivate CRC

UI - -> Spec : informs success
@enduml

PlantUML version 1.2021.5(Sun Apr 25 12:20:28 WEST 2021)
(GPL source distribution)
Java Runtime: OpenJDK Runtime Environment
JVM: OpenJDK 64-Bit Server VM
Default Encoding: UTF-8
Language: en
Country: PT
--></g></svg>