<?xml version="1.0" encoding="UTF-8" standalone="no"?><svg xmlns="http://www.w3.org/2000/svg" xmlns:xlink="http://www.w3.org/1999/xlink" contentScriptType="application/ecmascript" contentStyleType="text/css" height="1734px" preserveAspectRatio="none" style="width:2576px;height:1734px;" version="1.1" viewBox="0 0 2576 1734" width="2576px" zoomAndPan="magnify"><defs><filter height="300%" id="f1icv8x197kye8" width="300%" x="-1" y="-1"><feGaussianBlur result="blurOut" stdDeviation="4.0"/><feColorMatrix in="blurOut" result="blurOut2" type="matrix" values="0 0 0 0 0 0 0 0 0 0 0 0 0 0 0 0 0 0 .4 0"/><feOffset dx="8.0" dy="8.0" in="blurOut2" result="blurOut3"/><feBlend in="SourceGraphic" in2="blurOut3" mode="normal"/></filter></defs><g><rect fill="#FFFFFF" filter="url(#f1icv8x197kye8)" height="1318.4219" style="stroke:#A80036;stroke-width:2.0;" width="20" x="146" y="196.9766"/><rect fill="#FFFFFF" filter="url(#f1icv8x197kye8)" height="284.4844" style="stroke:#A80036;stroke-width:2.0;" width="20" x="1118" y="239.5977"/><rect fill="#FFFFFF" filter="url(#f1icv8x197kye8)" height="58.6211" style="stroke:#A80036;stroke-width:2.0;" width="20" x="1118" y="582.7031"/><rect fill="#FFFFFF" filter="url(#f1icv8x197kye8)" height="58.6211" style="stroke:#A80036;stroke-width:2.0;" width="20" x="1118" y="699.9453"/><rect fill="#FFFFFF" filter="url(#f1icv8x197kye8)" height="294.4844" style="stroke:#A80036;stroke-width:2.0;" width="20" x="1118" y="817.1875"/><rect fill="#FFFFFF" filter="url(#f1icv8x197kye8)" height="345.1055" style="stroke:#A80036;stroke-width:2.0;" width="20" x="1118" y="1170.293"/><rect fill="#FFFFFF" filter="url(#f1icv8x197kye8)" height="118.6211" style="stroke:#A80036;stroke-width:2.0;" width="20" x="1534" y="346.8398"/><rect fill="#FFFFFF" filter="url(#f1icv8x197kye8)" height="177.2422" style="stroke:#A80036;stroke-width:2.0;" width="20" x="1534" y="875.8086"/><rect fill="#FFFFFF" filter="url(#f1icv8x197kye8)" height="213.8633" style="stroke:#A80036;stroke-width:2.0;" width="20" x="1534" y="1228.9141"/><rect fill="#FFFFFF" filter="url(#f1icv8x197kye8)" height="60" style="stroke:#A80036;stroke-width:2.0;" width="20" x="2014" y="405.4609"/><rect fill="#FFFFFF" filter="url(#f1icv8x197kye8)" height="118.6211" style="stroke:#A80036;stroke-width:2.0;" width="20" x="2014" y="934.4297"/><rect fill="#FFFFFF" filter="url(#f1icv8x197kye8)" height="155.2422" style="stroke:#A80036;stroke-width:2.0;" width="20" x="2014" y="1287.5352"/><rect fill="#FFFFFF" filter="url(#f1icv8x197kye8)" height="60" style="stroke:#A80036;stroke-width:2.0;" width="20" x="2430" y="993.0508"/><rect fill="#FFFFFF" filter="url(#f1icv8x197kye8)" height="1261.8008" style="stroke:#000000;stroke-width:4.0;" width="2529" x="20" y="269.5977"/><line style="stroke:#A80036;stroke-width:2.0;stroke-dasharray:5.0,5.0;" x1="156" x2="156" y1="176.9766" y2="1565.3984"/><line style="stroke:#A80036;stroke-width:2.0;stroke-dasharray:5.0,5.0;" x1="1127" x2="1127" y1="176.9766" y2="1565.3984"/><line style="stroke:#A80036;stroke-width:2.0;stroke-dasharray:5.0,5.0;" x1="1543" x2="1543" y1="176.9766" y2="1565.3984"/><line style="stroke:#A80036;stroke-width:2.0;stroke-dasharray:5.0,5.0;" x1="2023" x2="2023" y1="176.9766" y2="1565.3984"/><line style="stroke:#A80036;stroke-width:2.0;stroke-dasharray:5.0,5.0;" x1="2439" x2="2439" y1="176.9766" y2="1565.3984"/><text fill="#000000" font-family="sans-serif" font-size="28" lengthAdjust="spacing" textLength="220" x="40" y="171.0703">SpecialistDoctor</text><ellipse cx="156" cy="30" fill="#FEFECE" filter="url(#f1icv8x197kye8)" rx="16" ry="16" style="stroke:#A80036;stroke-width:4.0;"/><path d="M156,46 L156,100 M130,62 L182,62 M156,100 L130,130 M156,100 L182,130 " fill="none" filter="url(#f1icv8x197kye8)" style="stroke:#A80036;stroke-width:4.0;"/><text fill="#000000" font-family="sans-serif" font-size="28" lengthAdjust="spacing" textLength="220" x="40" y="1590.4688">SpecialistDoctor</text><ellipse cx="156" cy="1616.375" fill="#FEFECE" filter="url(#f1icv8x197kye8)" rx="16" ry="16" style="stroke:#A80036;stroke-width:4.0;"/><path d="M156,1632.375 L156,1686.375 M130,1648.375 L182,1648.375 M156,1686.375 L130,1716.375 M156,1686.375 L182,1716.375 " fill="none" filter="url(#f1icv8x197kye8)" style="stroke:#A80036;stroke-width:4.0;"/><rect fill="#FEFECE" filter="url(#f1icv8x197kye8)" height="60.9766" style="stroke:#A80036;stroke-width:3.0;" width="246" x="1001" y="106"/><text fill="#000000" font-family="sans-serif" font-size="28" lengthAdjust="spacing" textLength="218" x="1015" y="147.0703">:CreateReportUI</text><rect fill="#FEFECE" filter="url(#f1icv8x197kye8)" height="60.9766" style="stroke:#A80036;stroke-width:3.0;" width="246" x="1001" y="1563.3984"/><text fill="#000000" font-family="sans-serif" font-size="28" lengthAdjust="spacing" textLength="218" x="1015" y="1604.4688">:CreateReportUI</text><rect fill="#FEFECE" filter="url(#f1icv8x197kye8)" height="60.9766" style="stroke:#A80036;stroke-width:3.0;" width="358" x="1361" y="106"/><text fill="#000000" font-family="sans-serif" font-size="28" lengthAdjust="spacing" textLength="330" x="1375" y="147.0703">:CreateReportController</text><rect fill="#FEFECE" filter="url(#f1icv8x197kye8)" height="60.9766" style="stroke:#A80036;stroke-width:3.0;" width="358" x="1361" y="1563.3984"/><text fill="#000000" font-family="sans-serif" font-size="28" lengthAdjust="spacing" textLength="330" x="1375" y="1604.4688">:CreateReportController</text><rect fill="#FEFECE" filter="url(#f1icv8x197kye8)" height="60.9766" style="stroke:#A80036;stroke-width:3.0;" width="166" x="1937" y="106"/><text fill="#000000" font-family="sans-serif" font-size="28" lengthAdjust="spacing" textLength="138" x="1951" y="147.0703">:Company</text><rect fill="#FEFECE" filter="url(#f1icv8x197kye8)" height="60.9766" style="stroke:#A80036;stroke-width:3.0;" width="166" x="1937" y="1563.3984"/><text fill="#000000" font-family="sans-serif" font-size="28" lengthAdjust="spacing" textLength="138" x="1951" y="1604.4688">:Company</text><rect fill="#FEFECE" filter="url(#f1icv8x197kye8)" height="60.9766" style="stroke:#A80036;stroke-width:3.0;" width="170" x="2351" y="106"/><text fill="#000000" font-family="sans-serif" font-size="28" lengthAdjust="spacing" textLength="142" x="2365" y="147.0703">:Diagnosis</text><rect fill="#FEFECE" filter="url(#f1icv8x197kye8)" height="60.9766" style="stroke:#A80036;stroke-width:3.0;" width="170" x="2351" y="1563.3984"/><text fill="#000000" font-family="sans-serif" font-size="28" lengthAdjust="spacing" textLength="142" x="2365" y="1604.4688">:Diagnosis</text><rect fill="#FFFFFF" filter="url(#f1icv8x197kye8)" height="1318.4219" style="stroke:#A80036;stroke-width:2.0;" width="20" x="146" y="196.9766"/><rect fill="#FFFFFF" filter="url(#f1icv8x197kye8)" height="284.4844" style="stroke:#A80036;stroke-width:2.0;" width="20" x="1118" y="239.5977"/><rect fill="#FFFFFF" filter="url(#f1icv8x197kye8)" height="58.6211" style="stroke:#A80036;stroke-width:2.0;" width="20" x="1118" y="582.7031"/><rect fill="#FFFFFF" filter="url(#f1icv8x197kye8)" height="58.6211" style="stroke:#A80036;stroke-width:2.0;" width="20" x="1118" y="699.9453"/><rect fill="#FFFFFF" filter="url(#f1icv8x197kye8)" height="294.4844" style="stroke:#A80036;stroke-width:2.0;" width="20" x="1118" y="817.1875"/><rect fill="#FFFFFF" filter="url(#f1icv8x197kye8)" height="345.1055" style="stroke:#A80036;stroke-width:2.0;" width="20" x="1118" y="1170.293"/><rect fill="#FFFFFF" filter="url(#f1icv8x197kye8)" height="118.6211" style="stroke:#A80036;stroke-width:2.0;" width="20" x="1534" y="346.8398"/><rect fill="#FFFFFF" filter="url(#f1icv8x197kye8)" height="177.2422" style="stroke:#A80036;stroke-width:2.0;" width="20" x="1534" y="875.8086"/><rect fill="#FFFFFF" filter="url(#f1icv8x197kye8)" height="213.8633" style="stroke:#A80036;stroke-width:2.0;" width="20" x="1534" y="1228.9141"/><rect fill="#FFFFFF" filter="url(#f1icv8x197kye8)" height="60" style="stroke:#A80036;stroke-width:2.0;" width="20" x="2014" y="405.4609"/><rect fill="#FFFFFF" filter="url(#f1icv8x197kye8)" height="118.6211" style="stroke:#A80036;stroke-width:2.0;" width="20" x="2014" y="934.4297"/><rect fill="#FFFFFF" filter="url(#f1icv8x197kye8)" height="155.2422" style="stroke:#A80036;stroke-width:2.0;" width="20" x="2014" y="1287.5352"/><rect fill="#FFFFFF" filter="url(#f1icv8x197kye8)" height="60" style="stroke:#A80036;stroke-width:2.0;" width="20" x="2430" y="993.0508"/><polygon fill="#A80036" points="1094,231.5977,1114,239.5977,1094,247.5977,1102,239.5977" style="stroke:#A80036;stroke-width:2.0;"/><line style="stroke:#A80036;stroke-width:2.0;" x1="166" x2="1106" y1="239.5977" y2="239.5977"/><text fill="#000000" font-family="sans-serif" font-size="26" font-weight="bold" lengthAdjust="spacing" textLength="18" x="180" y="230.1133">1</text><text fill="#000000" font-family="sans-serif" font-size="26" lengthAdjust="spacing" textLength="476" x="206" y="230.1133">asks to access the tests already made</text><path d="M20,269.5977 L168,269.5977 L168,283.5977 L148,303.5977 L20,303.5977 L20,269.5977 " fill="#EEEEEE" style="stroke:#000000;stroke-width:2.0;"/><rect fill="none" height="1261.8008" style="stroke:#000000;stroke-width:4.0;" width="2529" x="20" y="269.5977"/><text fill="#000000" font-family="sans-serif" font-size="26" font-weight="bold" lengthAdjust="spacing" textLength="58" x="50" y="296.7344">loop</text><text fill="#000000" font-family="sans-serif" font-size="22" font-weight="bold" lengthAdjust="spacing" textLength="320" x="198" y="294.8672">[for any/every intended test]</text><polygon fill="#A80036" points="1510,338.8398,1530,346.8398,1510,354.8398,1518,346.8398" style="stroke:#A80036;stroke-width:2.0;"/><line style="stroke:#A80036;stroke-width:2.0;stroke-dasharray:2.0,2.0;" x1="1138" x2="1522" y1="346.8398" y2="346.8398"/><text fill="#000000" font-family="sans-serif" font-size="26" font-weight="bold" lengthAdjust="spacing" textLength="18" x="1152" y="337.3555">2</text><text fill="#000000" font-family="sans-serif" font-size="26" lengthAdjust="spacing" textLength="238" x="1178" y="337.3555">getTestsToReport()</text><polygon fill="#A80036" points="1990,397.4609,2010,405.4609,1990,413.4609,1998,405.4609" style="stroke:#A80036;stroke-width:2.0;"/><line style="stroke:#A80036;stroke-width:2.0;stroke-dasharray:2.0,2.0;" x1="1554" x2="2002" y1="405.4609" y2="405.4609"/><text fill="#000000" font-family="sans-serif" font-size="26" font-weight="bold" lengthAdjust="spacing" textLength="18" x="1568" y="395.9766">3</text><text fill="#000000" font-family="sans-serif" font-size="26" lengthAdjust="spacing" textLength="238" x="1594" y="395.9766">getTestsToReport()</text><polygon fill="#A80036" points="188,516.082,168,524.082,188,532.082,180,524.082" style="stroke:#A80036;stroke-width:2.0;"/><line style="stroke:#A80036;stroke-width:2.0;stroke-dasharray:2.0,2.0;" x1="176" x2="1126" y1="524.082" y2="524.082"/><text fill="#000000" font-family="sans-serif" font-size="26" font-weight="bold" lengthAdjust="spacing" textLength="18" x="200" y="514.5977">4</text><text fill="#000000" font-family="sans-serif" font-size="26" lengthAdjust="spacing" textLength="878" x="226" y="514.5977">shows the tests and asks to choose one to make the report (testcode)</text><polygon fill="#A80036" points="1094,574.7031,1114,582.7031,1094,590.7031,1102,582.7031" style="stroke:#A80036;stroke-width:2.0;"/><line style="stroke:#A80036;stroke-width:2.0;stroke-dasharray:2.0,2.0;" x1="166" x2="1106" y1="582.7031" y2="582.7031"/><text fill="#000000" font-family="sans-serif" font-size="26" font-weight="bold" lengthAdjust="spacing" textLength="18" x="180" y="573.2188">5</text><text fill="#000000" font-family="sans-serif" font-size="26" lengthAdjust="spacing" textLength="414" x="206" y="573.2188">selects requested data (testcode)</text><polygon fill="#A80036" points="188,633.3242,168,641.3242,188,649.3242,180,641.3242" style="stroke:#A80036;stroke-width:2.0;"/><line style="stroke:#A80036;stroke-width:2.0;" x1="176" x2="1126" y1="641.3242" y2="641.3242"/><text fill="#000000" font-family="sans-serif" font-size="26" font-weight="bold" lengthAdjust="spacing" textLength="18" x="200" y="631.8398">6</text><text fill="#000000" font-family="sans-serif" font-size="26" lengthAdjust="spacing" textLength="470" x="226" y="631.8398">shows the test and asks to confirm it</text><polygon fill="#A80036" points="1094,691.9453,1114,699.9453,1094,707.9453,1102,699.9453" style="stroke:#A80036;stroke-width:2.0;"/><line style="stroke:#A80036;stroke-width:2.0;" x1="166" x2="1106" y1="699.9453" y2="699.9453"/><text fill="#000000" font-family="sans-serif" font-size="26" font-weight="bold" lengthAdjust="spacing" textLength="18" x="180" y="690.4609">7</text><text fill="#000000" font-family="sans-serif" font-size="26" lengthAdjust="spacing" textLength="442" x="206" y="690.4609">wants to write a report for that test</text><polygon fill="#A80036" points="188,750.5664,168,758.5664,188,766.5664,180,758.5664" style="stroke:#A80036;stroke-width:2.0;"/><line style="stroke:#A80036;stroke-width:2.0;" x1="176" x2="1126" y1="758.5664" y2="758.5664"/><text fill="#000000" font-family="sans-serif" font-size="26" font-weight="bold" lengthAdjust="spacing" textLength="18" x="200" y="749.082">8</text><text fill="#000000" font-family="sans-serif" font-size="26" lengthAdjust="spacing" textLength="562" x="226" y="749.082">requests data to write the report(report, test)</text><polygon fill="#A80036" points="1094,809.1875,1114,817.1875,1094,825.1875,1102,817.1875" style="stroke:#A80036;stroke-width:2.0;"/><line style="stroke:#A80036;stroke-width:2.0;" x1="166" x2="1106" y1="817.1875" y2="817.1875"/><text fill="#000000" font-family="sans-serif" font-size="26" font-weight="bold" lengthAdjust="spacing" textLength="18" x="180" y="807.7031">9</text><text fill="#000000" font-family="sans-serif" font-size="26" lengthAdjust="spacing" textLength="444" x="206" y="807.7031">inserts requested data (report, test)</text><polygon fill="#A80036" points="1510,867.8086,1530,875.8086,1510,883.8086,1518,875.8086" style="stroke:#A80036;stroke-width:2.0;"/><line style="stroke:#A80036;stroke-width:2.0;" x1="1138" x2="1522" y1="875.8086" y2="875.8086"/><text fill="#000000" font-family="sans-serif" font-size="26" font-weight="bold" lengthAdjust="spacing" textLength="36" x="1152" y="866.3242">10</text><text fill="#000000" font-family="sans-serif" font-size="26" lengthAdjust="spacing" textLength="314" x="1196" y="866.3242">createReport(report, test)</text><polygon fill="#A80036" points="1990,926.4297,2010,934.4297,1990,942.4297,1998,934.4297" style="stroke:#A80036;stroke-width:2.0;"/><line style="stroke:#A80036;stroke-width:2.0;" x1="1554" x2="2002" y1="934.4297" y2="934.4297"/><text fill="#000000" font-family="sans-serif" font-size="26" font-weight="bold" lengthAdjust="spacing" textLength="36" x="1568" y="924.9453">11</text><text fill="#000000" font-family="sans-serif" font-size="26" lengthAdjust="spacing" textLength="378" x="1612" y="924.9453">rep : createReport(report, test)</text><polygon fill="#A80036" points="2406,985.0508,2426,993.0508,2406,1001.0508,2414,993.0508" style="stroke:#A80036;stroke-width:2.0;"/><line style="stroke:#A80036;stroke-width:2.0;" x1="2034" x2="2418" y1="993.0508" y2="993.0508"/><text fill="#000000" font-family="sans-serif" font-size="26" font-weight="bold" lengthAdjust="spacing" textLength="36" x="2048" y="983.5664">12</text><text fill="#000000" font-family="sans-serif" font-size="26" lengthAdjust="spacing" textLength="314" x="2092" y="983.5664">createReport(report, test)</text><polygon fill="#A80036" points="188,1103.6719,168,1111.6719,188,1119.6719,180,1111.6719" style="stroke:#A80036;stroke-width:2.0;"/><line style="stroke:#A80036;stroke-width:2.0;" x1="176" x2="1126" y1="1111.6719" y2="1111.6719"/><text fill="#000000" font-family="sans-serif" font-size="26" font-weight="bold" lengthAdjust="spacing" textLength="36" x="200" y="1102.1875">13</text><text fill="#000000" font-family="sans-serif" font-size="26" lengthAdjust="spacing" textLength="428" x="244" y="1102.1875">shows data and asks to confirm it</text><polygon fill="#A80036" points="1094,1162.293,1114,1170.293,1094,1178.293,1102,1170.293" style="stroke:#A80036;stroke-width:2.0;"/><line style="stroke:#A80036;stroke-width:2.0;" x1="166" x2="1106" y1="1170.293" y2="1170.293"/><text fill="#000000" font-family="sans-serif" font-size="26" font-weight="bold" lengthAdjust="spacing" textLength="36" x="180" y="1160.8086">14</text><text fill="#000000" font-family="sans-serif" font-size="26" lengthAdjust="spacing" textLength="174" x="224" y="1160.8086">confirms data</text><polygon fill="#A80036" points="1510,1220.9141,1530,1228.9141,1510,1236.9141,1518,1228.9141" style="stroke:#A80036;stroke-width:2.0;"/><line style="stroke:#A80036;stroke-width:2.0;" x1="1138" x2="1522" y1="1228.9141" y2="1228.9141"/><text fill="#000000" font-family="sans-serif" font-size="26" font-weight="bold" lengthAdjust="spacing" textLength="36" x="1152" y="1219.4297">15</text><text fill="#000000" font-family="sans-serif" font-size="26" lengthAdjust="spacing" textLength="174" x="1196" y="1219.4297">createReport()</text><polygon fill="#A80036" points="1990,1279.5352,2010,1287.5352,1990,1295.5352,1998,1287.5352" style="stroke:#A80036;stroke-width:2.0;"/><line style="stroke:#A80036;stroke-width:2.0;" x1="1554" x2="2002" y1="1287.5352" y2="1287.5352"/><text fill="#000000" font-family="sans-serif" font-size="26" font-weight="bold" lengthAdjust="spacing" textLength="36" x="1568" y="1278.0508">16</text><text fill="#000000" font-family="sans-serif" font-size="26" lengthAdjust="spacing" textLength="214" x="1612" y="1278.0508">createReport(rep)</text><line style="stroke:#A80036;stroke-width:2.0;" x1="2034" x2="2118" y1="1346.1563" y2="1346.1563"/><line style="stroke:#A80036;stroke-width:2.0;" x1="2118" x2="2118" y1="1346.1563" y2="1372.1563"/><line style="stroke:#A80036;stroke-width:2.0;" x1="2036" x2="2118" y1="1372.1563" y2="1372.1563"/><polygon fill="#A80036" points="2056,1364.1563,2036,1372.1563,2056,1380.1563,2048,1372.1563" style="stroke:#A80036;stroke-width:2.0;"/><text fill="#000000" font-family="sans-serif" font-size="26" font-weight="bold" lengthAdjust="spacing" textLength="36" x="2048" y="1336.6719">17</text><text fill="#000000" font-family="sans-serif" font-size="26" lengthAdjust="spacing" textLength="184" x="2092" y="1336.6719">addReport(rep)</text><line style="stroke:#A80036;stroke-width:2.0;" x1="2034" x2="2118" y1="1440.7773" y2="1440.7773"/><line style="stroke:#A80036;stroke-width:2.0;" x1="2118" x2="2118" y1="1440.7773" y2="1466.7773"/><line style="stroke:#A80036;stroke-width:2.0;" x1="2024" x2="2118" y1="1466.7773" y2="1466.7773"/><polygon fill="#A80036" points="2044,1458.7773,2024,1466.7773,2044,1474.7773,2036,1466.7773" style="stroke:#A80036;stroke-width:2.0;"/><text fill="#000000" font-family="sans-serif" font-size="26" font-weight="bold" lengthAdjust="spacing" textLength="36" x="2048" y="1431.293">18</text><text fill="#000000" font-family="sans-serif" font-size="26" lengthAdjust="spacing" textLength="236" x="2092" y="1431.293">validateReport(rep)</text><polygon fill="#A80036" points="178,1507.3984,158,1515.3984,178,1523.3984,170,1515.3984" style="stroke:#A80036;stroke-width:2.0;"/><line style="stroke:#A80036;stroke-width:2.0;" x1="166" x2="1126" y1="1515.3984" y2="1515.3984"/><text fill="#000000" font-family="sans-serif" font-size="26" font-weight="bold" lengthAdjust="spacing" textLength="36" x="190" y="1505.9141">19</text><text fill="#000000" font-family="sans-serif" font-size="26" lengthAdjust="spacing" textLength="582" x="234" y="1505.9141">informs success or insuccess of the operation</text><!--MD5=[9a5a05ffb31a2725c1e40cf6f684cf92]
@startuml
autonumber

actor "SpecialistDoctor" as Spec

participant ":CreateReportUI" as UI
participant ":CreateReportController" as CRC
participant ":Company" as COM
participant ":Diagnosis" as DIAG


activate Spec

Spec -> UI : asks to access the tests already made

loop for any/every intended test

activate UI

UI - -> CRC : getTestsToReport()

activate CRC

CRC - -> COM : getTestsToReport()

activate COM

deactivate COM

deactivate CRC

UI - -> Spec : shows the tests and asks to choose one to make the report (testcode)

deactivate UI

Spec - -> UI : selects requested data (testcode)

activate UI

UI -> Spec : shows the test and asks to confirm it

deactivate UI

Spec -> UI : wants to write a report for that test

activate UI

UI -> Spec : requests data to write the report(report, test)

deactivate UI

Spec -> UI : inserts requested data (report, test)

activate UI

UI -> CRC : createReport(report, test)

activate CRC

CRC -> COM : rep : createReport(report, test)

activate COM

COM -> DIAG : createReport(report, test)

activate DIAG

deactivate DIAG
deactivate COM
deactivate CRC

UI -> Spec : shows data and asks to confirm it

deactivate UI

Spec -> UI : confirms data

activate UI

UI -> CRC : createReport()

activate CRC

CRC -> COM : createReport(rep)

activate COM

COM -> COM : addReport(rep)
COM -> COM : validateReport(rep)

deactivate COM
deactivate CRC

UI -> Spec : informs success or insuccess of the operation

deactivate UI
deactivate Spec

end
@enduml

PlantUML version 1.2021.5(Sun Apr 25 12:20:28 WEST 2021)
(GPL source distribution)
Java Runtime: OpenJDK Runtime Environment
JVM: OpenJDK 64-Bit Server VM
Default Encoding: UTF-8
Language: en
Country: PT
--></g></svg>