<?xml version="1.0" encoding="UTF-8" standalone="no"?><svg xmlns="http://www.w3.org/2000/svg" xmlns:xlink="http://www.w3.org/1999/xlink" contentScriptType="application/ecmascript" contentStyleType="text/css" height="632px" preserveAspectRatio="none" style="width:605px;height:632px;" version="1.1" viewBox="0 0 605 632" width="605px" zoomAndPan="magnify"><defs><filter height="300%" id="f4hj43gus70r1" width="300%" x="-1" y="-1"><feGaussianBlur result="blurOut" stdDeviation="2.0"/><feColorMatrix in="blurOut" result="blurOut2" type="matrix" values="0 0 0 0 0 0 0 0 0 0 0 0 0 0 0 0 0 0 .4 0"/><feOffset dx="4.0" dy="4.0" in="blurOut2" result="blurOut3"/><feBlend in="SourceGraphic" in2="blurOut3" mode="normal"/></filter></defs><g><!--MD5=[121a8bf1197281ab89ed693fab589f94]
cluster Domain--><polygon fill="#DDDDDD" filter="url(#f4hj43gus70r1)" points="231,6,295,6,302,28.2969,588,28.2969,588,625,231,625,231,6" style="stroke:#000000;stroke-width:1.5;"/><line style="stroke:#000000;stroke-width:1.5;" x1="231" x2="302" y1="28.2969" y2="28.2969"/><text fill="#000000" font-family="sans-serif" font-size="14" font-weight="bold" lengthAdjust="spacingAndGlyphs" textLength="58" x="235" y="20.9951">Domain</text><!--MD5=[10d06bcee75aaf74ab8f6040820ceef2]
class Diagnosis--><rect codeLine="16" fill="#FEFECE" filter="url(#f4hj43gus70r1)" height="60.8047" id="Diagnosis" style="stroke:#A80036;stroke-width:1.5;" width="172" x="333" y="556"/><ellipse cx="384.25" cy="572" fill="#ADD1B2" rx="11" ry="11" style="stroke:#A80036;stroke-width:1.0;"/><path d="M387.2188,577.6406 Q386.6406,577.9375 386,578.0781 Q385.3594,578.2344 384.6563,578.2344 Q382.1563,578.2344 380.8281,576.5938 Q379.5156,574.9375 379.5156,571.8125 Q379.5156,568.6875 380.8281,567.0313 Q382.1563,565.375 384.6563,565.375 Q385.3594,565.375 386,565.5313 Q386.6563,565.6875 387.2188,565.9844 L387.2188,568.7031 Q386.5938,568.125 386,567.8594 Q385.4063,567.5781 384.7813,567.5781 Q383.4375,567.5781 382.75,568.6563 Q382.0625,569.7188 382.0625,571.8125 Q382.0625,573.9063 382.75,574.9844 Q383.4375,576.0469 384.7813,576.0469 Q385.4063,576.0469 386,575.7813 Q386.5938,575.5 387.2188,574.9219 L387.2188,577.6406 Z " fill="#000000"/><text fill="#000000" font-family="sans-serif" font-size="12" lengthAdjust="spacingAndGlyphs" textLength="61" x="404.75" y="576.1543">Diagnosis</text><line style="stroke:#A80036;stroke-width:1.5;" x1="334" x2="504" y1="588" y2="588"/><line style="stroke:#A80036;stroke-width:1.5;" x1="334" x2="504" y1="596" y2="596"/><ellipse cx="344" cy="607" fill="#84BE84" rx="3" ry="3" style="stroke:#038048;stroke-width:1.0;"/><text fill="#000000" font-family="sans-serif" font-size="11" lengthAdjust="spacingAndGlyphs" textLength="146" x="353" y="610.2104">createReport(report, test)</text><!--MD5=[02e4b9b7573f1156f41e60aa5b4e25a4]
class Company--><rect codeLine="20" fill="#FEFECE" filter="url(#f4hj43gus70r1)" height="99.2188" id="Company" style="stroke:#A80036;stroke-width:1.5;" width="172" x="239" y="318"/><ellipse cx="292.25" cy="334" fill="#ADD1B2" rx="11" ry="11" style="stroke:#A80036;stroke-width:1.0;"/><path d="M295.2188,339.6406 Q294.6406,339.9375 294,340.0781 Q293.3594,340.2344 292.6563,340.2344 Q290.1563,340.2344 288.8281,338.5938 Q287.5156,336.9375 287.5156,333.8125 Q287.5156,330.6875 288.8281,329.0313 Q290.1563,327.375 292.6563,327.375 Q293.3594,327.375 294,327.5313 Q294.6563,327.6875 295.2188,327.9844 L295.2188,330.7031 Q294.5938,330.125 294,329.8594 Q293.4063,329.5781 292.7813,329.5781 Q291.4375,329.5781 290.75,330.6563 Q290.0625,331.7188 290.0625,333.8125 Q290.0625,335.9063 290.75,336.9844 Q291.4375,338.0469 292.7813,338.0469 Q293.4063,338.0469 294,337.7813 Q294.5938,337.5 295.2188,336.9219 L295.2188,339.6406 Z " fill="#000000"/><text fill="#000000" font-family="sans-serif" font-size="12" lengthAdjust="spacingAndGlyphs" textLength="57" x="312.75" y="338.1543">Company</text><line style="stroke:#A80036;stroke-width:1.5;" x1="240" x2="410" y1="350" y2="350"/><line style="stroke:#A80036;stroke-width:1.5;" x1="240" x2="410" y1="358" y2="358"/><ellipse cx="250" cy="369" fill="#84BE84" rx="3" ry="3" style="stroke:#038048;stroke-width:1.0;"/><text fill="#000000" font-family="sans-serif" font-size="11" lengthAdjust="spacingAndGlyphs" textLength="125" x="259" y="372.2104">List&lt;Test&gt; getTests()</text><ellipse cx="250" cy="381.8047" fill="#84BE84" rx="3" ry="3" style="stroke:#038048;stroke-width:1.0;"/><text fill="#000000" font-family="sans-serif" font-size="11" lengthAdjust="spacingAndGlyphs" textLength="146" x="259" y="385.0151">createReport(report, test)</text><ellipse cx="250" cy="394.6094" fill="#84BE84" rx="3" ry="3" style="stroke:#038048;stroke-width:1.0;"/><text fill="#000000" font-family="sans-serif" font-size="11" lengthAdjust="spacingAndGlyphs" textLength="144" x="259" y="397.8198">validateReport(diagnosis)</text><ellipse cx="250" cy="407.4141" fill="#84BE84" rx="3" ry="3" style="stroke:#038048;stroke-width:1.0;"/><text fill="#000000" font-family="sans-serif" font-size="11" lengthAdjust="spacingAndGlyphs" textLength="121" x="259" y="410.6245">addReport(diagnosis)</text><!--MD5=[7421f545a0d8420c5bec41e74b387d9c]
class Employee--><rect codeLine="27" fill="#FEFECE" filter="url(#f4hj43gus70r1)" height="48" id="Employee" style="stroke:#A80036;stroke-width:1.5;" width="92" x="467" y="33"/><ellipse cx="482" cy="49" fill="#ADD1B2" rx="11" ry="11" style="stroke:#A80036;stroke-width:1.0;"/><path d="M484.9688,54.6406 Q484.3906,54.9375 483.75,55.0781 Q483.1094,55.2344 482.4063,55.2344 Q479.9063,55.2344 478.5781,53.5938 Q477.2656,51.9375 477.2656,48.8125 Q477.2656,45.6875 478.5781,44.0313 Q479.9063,42.375 482.4063,42.375 Q483.1094,42.375 483.75,42.5313 Q484.4063,42.6875 484.9688,42.9844 L484.9688,45.7031 Q484.3438,45.125 483.75,44.8594 Q483.1563,44.5781 482.5313,44.5781 Q481.1875,44.5781 480.5,45.6563 Q479.8125,46.7188 479.8125,48.8125 Q479.8125,50.9063 480.5,51.9844 Q481.1875,53.0469 482.5313,53.0469 Q483.1563,53.0469 483.75,52.7813 Q484.3438,52.5 484.9688,51.9219 L484.9688,54.6406 Z " fill="#000000"/><text fill="#000000" font-family="sans-serif" font-size="12" lengthAdjust="spacingAndGlyphs" textLength="60" x="496" y="53.1543">Employee</text><line style="stroke:#A80036;stroke-width:1.5;" x1="468" x2="558" y1="65" y2="65"/><line style="stroke:#A80036;stroke-width:1.5;" x1="468" x2="558" y1="73" y2="73"/><!--MD5=[7d96fd15f3014691d2fcaf89c5791e2a]
class SpecialistDoctor--><rect codeLine="38" fill="#FEFECE" filter="url(#f4hj43gus70r1)" height="48" id="SpecialistDoctor" style="stroke:#A80036;stroke-width:1.5;" width="134" x="446" y="343.5"/><ellipse cx="461" cy="359.5" fill="#ADD1B2" rx="11" ry="11" style="stroke:#A80036;stroke-width:1.0;"/><path d="M463.9688,365.1406 Q463.3906,365.4375 462.75,365.5781 Q462.1094,365.7344 461.4063,365.7344 Q458.9063,365.7344 457.5781,364.0938 Q456.2656,362.4375 456.2656,359.3125 Q456.2656,356.1875 457.5781,354.5313 Q458.9063,352.875 461.4063,352.875 Q462.1094,352.875 462.75,353.0313 Q463.4063,353.1875 463.9688,353.4844 L463.9688,356.2031 Q463.3438,355.625 462.75,355.3594 Q462.1563,355.0781 461.5313,355.0781 Q460.1875,355.0781 459.5,356.1563 Q458.8125,357.2188 458.8125,359.3125 Q458.8125,361.4063 459.5,362.4844 Q460.1875,363.5469 461.5313,363.5469 Q462.1563,363.5469 462.75,363.2813 Q463.3438,363 463.9688,362.4219 L463.9688,365.1406 Z " fill="#000000"/><text fill="#000000" font-family="sans-serif" font-size="12" lengthAdjust="spacingAndGlyphs" textLength="102" x="475" y="363.6543">SpecialistDoctor</text><line style="stroke:#A80036;stroke-width:1.5;" x1="447" x2="579" y1="375.5" y2="375.5"/><line style="stroke:#A80036;stroke-width:1.5;" x1="447" x2="579" y1="383.5" y2="383.5"/><!--MD5=[61d919aa91cd8dde0d26e62e960d0348]
class CreateReportUI--><rect codeLine="4" fill="#FEFECE" filter="url(#f4hj43gus70r1)" height="73.6094" id="CreateReportUI" style="stroke:#A80036;stroke-width:1.5;" width="128" x="51" y="20"/><ellipse cx="66" cy="36" fill="#ADD1B2" rx="11" ry="11" style="stroke:#A80036;stroke-width:1.0;"/><path d="M68.9688,41.6406 Q68.3906,41.9375 67.75,42.0781 Q67.1094,42.2344 66.4063,42.2344 Q63.9063,42.2344 62.5781,40.5938 Q61.2656,38.9375 61.2656,35.8125 Q61.2656,32.6875 62.5781,31.0313 Q63.9063,29.375 66.4063,29.375 Q67.1094,29.375 67.75,29.5313 Q68.4063,29.6875 68.9688,29.9844 L68.9688,32.7031 Q68.3438,32.125 67.75,31.8594 Q67.1563,31.5781 66.5313,31.5781 Q65.1875,31.5781 64.5,32.6563 Q63.8125,33.7188 63.8125,35.8125 Q63.8125,37.9063 64.5,38.9844 Q65.1875,40.0469 66.5313,40.0469 Q67.1563,40.0469 67.75,39.7813 Q68.3438,39.5 68.9688,38.9219 L68.9688,41.6406 Z " fill="#000000"/><text fill="#000000" font-family="sans-serif" font-size="12" lengthAdjust="spacingAndGlyphs" textLength="96" x="80" y="40.1543">CreateReportUI</text><line style="stroke:#A80036;stroke-width:1.5;" x1="52" x2="178" y1="52" y2="52"/><line style="stroke:#A80036;stroke-width:1.5;" x1="52" x2="178" y1="60" y2="60"/><ellipse cx="62" cy="71" fill="#84BE84" rx="3" ry="3" style="stroke:#038048;stroke-width:1.0;"/><text fill="#000000" font-family="sans-serif" font-size="11" lengthAdjust="spacingAndGlyphs" textLength="70" x="71" y="74.2104">showTests()</text><ellipse cx="62" cy="83.8047" fill="#84BE84" rx="3" ry="3" style="stroke:#038048;stroke-width:1.0;"/><text fill="#000000" font-family="sans-serif" font-size="11" lengthAdjust="spacingAndGlyphs" textLength="51" x="71" y="87.0151">setTest()</text><!--MD5=[435d59c09609fcea3345bfa2ae3de6e0]
class CreateReportController--><rect codeLine="9" fill="#FEFECE" filter="url(#f4hj43gus70r1)" height="86.4141" id="CreateReportController" style="stroke:#A80036;stroke-width:1.5;" width="216" x="7" y="155"/><ellipse cx="39.55" cy="171" fill="#ADD1B2" rx="11" ry="11" style="stroke:#A80036;stroke-width:1.0;"/><path d="M42.5188,176.6406 Q41.9406,176.9375 41.3,177.0781 Q40.6594,177.2344 39.9563,177.2344 Q37.4563,177.2344 36.1281,175.5938 Q34.8156,173.9375 34.8156,170.8125 Q34.8156,167.6875 36.1281,166.0313 Q37.4563,164.375 39.9563,164.375 Q40.6594,164.375 41.3,164.5313 Q41.9563,164.6875 42.5188,164.9844 L42.5188,167.7031 Q41.8938,167.125 41.3,166.8594 Q40.7063,166.5781 40.0813,166.5781 Q38.7375,166.5781 38.05,167.6563 Q37.3625,168.7188 37.3625,170.8125 Q37.3625,172.9063 38.05,173.9844 Q38.7375,175.0469 40.0813,175.0469 Q40.7063,175.0469 41.3,174.7813 Q41.8938,174.5 42.5188,173.9219 L42.5188,176.6406 Z " fill="#000000"/><text fill="#000000" font-family="sans-serif" font-size="12" lengthAdjust="spacingAndGlyphs" textLength="145" x="57.45" y="175.1543">CreateReportController</text><line style="stroke:#A80036;stroke-width:1.5;" x1="8" x2="222" y1="187" y2="187"/><line style="stroke:#A80036;stroke-width:1.5;" x1="8" x2="222" y1="195" y2="195"/><ellipse cx="18" cy="206" fill="#84BE84" rx="3" ry="3" style="stroke:#038048;stroke-width:1.0;"/><text fill="#000000" font-family="sans-serif" font-size="11" lengthAdjust="spacingAndGlyphs" textLength="190" x="27" y="209.2104">CreateReportController(company)</text><ellipse cx="18" cy="218.8047" fill="#84BE84" rx="3" ry="3" style="stroke:#038048;stroke-width:1.0;"/><text fill="#000000" font-family="sans-serif" font-size="11" lengthAdjust="spacingAndGlyphs" textLength="146" x="27" y="222.0151">createReport(report, test)</text><ellipse cx="18" cy="231.6094" fill="#84BE84" rx="3" ry="3" style="stroke:#038048;stroke-width:1.0;"/><text fill="#000000" font-family="sans-serif" font-size="11" lengthAdjust="spacingAndGlyphs" textLength="125" x="27" y="234.8198">addReport(testReport)</text><!--MD5=[1d70569218baf2d503ca66c6410bd51d]
link CreateReportUI to CreateReportController--><path codeLine="34" d="M115,94.0461 C115,111.1253 115,131.6145 115,149.8709 " fill="none" id="CreateReportUI-to-CreateReportController" style="stroke:#A80036;stroke-width:1.0;stroke-dasharray:7.0,7.0;"/><polygon fill="#A80036" points="115,154.9562,119,145.9562,115,149.9562,111,145.9562,115,154.9562" style="stroke:#A80036;stroke-width:1.0;"/><!--MD5=[542a6331da7bd4331414b7b7b3869a47]
link CreateReportController to Company--><path codeLine="35" d="M168.5352,241.2106 C196.214,263.5513 230.2317,291.0085 259.4705,314.6083 " fill="none" id="CreateReportController-to-Company" style="stroke:#A80036;stroke-width:1.0;stroke-dasharray:7.0,7.0;"/><polygon fill="#A80036" points="263.3788,317.7629,258.8877,308.9976,259.488,314.6225,253.8631,315.2229,263.3788,317.7629" style="stroke:#A80036;stroke-width:1.0;"/><text fill="#000000" font-family="sans-serif" font-size="13" lengthAdjust="spacingAndGlyphs" textLength="67" x="227" y="284.0669">belongs to</text><text fill="#000000" font-family="sans-serif" font-size="13" lengthAdjust="spacingAndGlyphs" textLength="7" x="169.5096" y="261.3371">*</text><text fill="#000000" font-family="sans-serif" font-size="13" lengthAdjust="spacingAndGlyphs" textLength="8" x="246.1508" y="306.7748">1</text><!--MD5=[39e008c878a7c9e829a3611daeb2946b]
link Company to Diagnosis--><path codeLine="36" d="M346.3301,417.1945 C363.8521,458.0171 388.2405,514.8368 403.8249,551.1454 " fill="none" id="Company-to-Diagnosis" style="stroke:#A80036;stroke-width:1.0;"/><polygon fill="#A80036" points="405.8694,555.9085,405.9951,546.0604,403.8972,551.3139,398.6437,549.216,405.8694,555.9085" style="stroke:#A80036;stroke-width:1.0;"/><text fill="#000000" font-family="sans-serif" font-size="13" lengthAdjust="spacingAndGlyphs" textLength="23" x="380" y="491.0669">has</text><text fill="#000000" font-family="sans-serif" font-size="13" lengthAdjust="spacingAndGlyphs" textLength="8" x="340.7671" y="437.2983">1</text><text fill="#000000" font-family="sans-serif" font-size="13" lengthAdjust="spacingAndGlyphs" textLength="7" x="395.4393" y="545.1529">*</text><!--MD5=[ea4a37a070b547a484eb1acc58a2b0bb]
link SpecialistDoctor to Diagnosis--><path codeLine="37" d="M502.5812,391.7736 C485.9779,430.4558 453.4352,506.2734 434.2213,551.0377 " fill="none" id="SpecialistDoctor-to-Diagnosis" style="stroke:#A80036;stroke-width:1.0;"/><polygon fill="#A80036" points="432.1755,555.804,439.4012,549.1115,434.1477,551.2094,432.0498,545.9559,432.1755,555.804" style="stroke:#A80036;stroke-width:1.0;"/><text fill="#000000" font-family="sans-serif" font-size="13" lengthAdjust="spacingAndGlyphs" textLength="37" x="466" y="491.0669">writes</text><text fill="#000000" font-family="sans-serif" font-size="13" lengthAdjust="spacingAndGlyphs" textLength="8" x="491.0666" y="411.6015">1</text><text fill="#000000" font-family="sans-serif" font-size="13" lengthAdjust="spacingAndGlyphs" textLength="7" x="427.1711" y="545.0268">*</text><!--MD5=[372bd27a178b4208a6d241b4516ac7e6]
reverse link Employee to SpecialistDoctor--><path d="M513,101.2809 C513,167.7411 513,291.0396 513,343.1952 " fill="none" id="Employee-backto-SpecialistDoctor" style="stroke:#A80036;stroke-width:1.0;"/><polygon fill="none" points="506.0001,101.1061,513,81.106,520.0001,101.106,506.0001,101.1061" style="stroke:#A80036;stroke-width:1.0;"/><!--MD5=[fb1afd8133e831a7ca3a424cb130bfa9]
@startuml
skinparam classAtributionIconSize 0


class CreateReportUI {
    +showTests()
    +setTest()
}

class CreateReportController {
    +CreateReportController(company)
    +createReport(report, test)
    +addReport(testReport)
}

package "Domain" #DDDDDD {
class Diagnosis {
    +createReport(report, test)
  }

class Company {
    +List<Test> getTests()
    +createReport(report, test)
    +validateReport(diagnosis)
    +addReport(diagnosis)
}

class Employee {
}
  
class SpecialistDoctor {
}
}

CreateReportUI ..> CreateReportController
CreateReportController "*" ..> "1" Company : belongs to
Company "1" - -> "*" Diagnosis : has
SpecialistDoctor "1" - -> "*" Diagnosis : writes
class SpecialistDoctor extends Employee
@enduml

PlantUML version 1.2020.22(Sun Dec 06 09:36:27 UTC 2020)
(GPL source distribution)
Java Runtime: OpenJDK Runtime Environment
JVM: OpenJDK 64-Bit Server VM
Default Encoding: UTF-8
Language: en
Country: US
--></g></svg>