<?xml version="1.0" encoding="UTF-8" standalone="no"?><svg xmlns="http://www.w3.org/2000/svg" xmlns:xlink="http://www.w3.org/1999/xlink" contentScriptType="application/ecmascript" contentStyleType="text/css" height="820px" preserveAspectRatio="none" style="width:496px;height:820px;" version="1.1" viewBox="0 0 496 820" width="496px" zoomAndPan="magnify"><defs><filter height="300%" id="f1rxn5qpy02nmd" width="300%" x="-1" y="-1"><feGaussianBlur result="blurOut" stdDeviation="2.0"/><feColorMatrix in="blurOut" result="blurOut2" type="matrix" values="0 0 0 0 0 0 0 0 0 0 0 0 0 0 0 0 0 0 .4 0"/><feOffset dx="4.0" dy="4.0" in="blurOut2" result="blurOut3"/><feBlend in="SourceGraphic" in2="blurOut3" mode="normal"/></filter></defs><g><!--MD5=[a2b99e53fb0022159a3c3aee2c3bb528]
class RegisterTestTypeUI--><rect codeLine="1" fill="#FEFECE" filter="url(#f1rxn5qpy02nmd)" height="74.3998" id="RegisterTestTypeUI" style="stroke:#A80036;stroke-width:1.5;" width="140" x="25.5" y="7"/><ellipse cx="40.5" cy="23" fill="#ADD1B2" rx="11" ry="11" style="stroke:#A80036;stroke-width:1.0;"/><path d="M35.5,24.1563 C35.5,26.6563 37.6406,28.4688 40.5625,28.4688 C41.7969,28.4688 42.9688,28.1719 43.7188,27.6563 C44.3281,27.2344 44.6563,26.8125 44.6563,26.4063 C44.6563,25.9375 44.2344,25.5313 43.7344,25.5313 C43.5,25.5313 43.2813,25.6094 43.0781,25.8125 C42.6406,26.25 42.6406,26.25 42.4688,26.3438 C42.0156,26.5781 41.375,26.7188 40.6094,26.7188 C38.6094,26.7188 37.3281,25.7031 37.3281,24.125 L37.3281,23.0781 C37.3281,21.375 38.5469,20.1719 40.25,20.1719 C40.8281,20.1719 41.4063,20.3125 41.875,20.5625 C42.3438,20.8281 42.5156,21.0156 42.5781,21.375 C42.7031,22.0469 42.9531,22.2969 43.4844,22.2969 C43.7656,22.2969 44.0469,22.1563 44.2344,21.9375 C44.3594,21.7656 44.4063,21.5938 44.4063,21.1563 L44.4063,19.7969 C44.4063,19.375 44.3906,19.2344 44.2656,19.0625 C44.0938,18.8125 43.8125,18.6563 43.4844,18.6563 C43.1719,18.6563 42.9688,18.7656 42.75,19.0313 C41.5781,18.5313 41.1406,18.4219 40.1875,18.4219 C37.5156,18.4219 35.5,20.4375 35.5,23.0625 L35.5,24.1563 Z " fill="#000000"/><text fill="#000000" font-family="sans-serif" font-size="12" lengthAdjust="spacingAndGlyphs" textLength="108" x="54.5" y="26.948">RegisterTestTypeUI</text><line style="stroke:#A80036;stroke-width:1.5;" x1="26.5" x2="164.5" y1="39" y2="39"/><line style="stroke:#A80036;stroke-width:1.5;" x1="26.5" x2="164.5" y1="47" y2="47"/><rect fill="#F24D5C" height="6" style="stroke:#C82930;stroke-width:1.0;" width="6" x="33.5" y="55"/><text fill="#000000" font-family="sans-serif" font-size="11" lengthAdjust="spacingAndGlyphs" textLength="101" x="45.5" y="61.2189">show(testTypeDTO)</text><rect fill="#F24D5C" height="6" style="stroke:#C82930;stroke-width:1.0;" width="6" x="33.5" y="68.1999"/><text fill="#000000" font-family="sans-serif" font-size="11" lengthAdjust="spacingAndGlyphs" textLength="58" x="45.5" y="74.4188">show(state)</text><!--MD5=[ec1681e963578c05546aebe2709ed044]
class RegisterTestTypeController--><rect codeLine="6" fill="#FEFECE" filter="url(#f1rxn5qpy02nmd)" height="87.5997" id="RegisterTestTypeController" style="stroke:#A80036;stroke-width:1.5;" width="316" x="128.5" y="142"/><ellipse cx="207.25" cy="158" fill="#ADD1B2" rx="11" ry="11" style="stroke:#A80036;stroke-width:1.0;"/><path d="M202.25,159.1563 C202.25,161.6563 204.3906,163.4688 207.3125,163.4688 C208.5469,163.4688 209.7188,163.1719 210.4688,162.6563 C211.0781,162.2344 211.4063,161.8125 211.4063,161.4063 C211.4063,160.9375 210.9844,160.5313 210.4844,160.5313 C210.25,160.5313 210.0313,160.6094 209.8281,160.8125 C209.3906,161.25 209.3906,161.25 209.2188,161.3438 C208.7656,161.5781 208.125,161.7188 207.3594,161.7188 C205.3594,161.7188 204.0781,160.7031 204.0781,159.125 L204.0781,158.0781 C204.0781,156.375 205.2969,155.1719 207,155.1719 C207.5781,155.1719 208.1563,155.3125 208.625,155.5625 C209.0938,155.8281 209.2656,156.0156 209.3281,156.375 C209.4531,157.0469 209.7031,157.2969 210.2344,157.2969 C210.5156,157.2969 210.7969,157.1563 210.9844,156.9375 C211.1094,156.7656 211.1563,156.5938 211.1563,156.1563 L211.1563,154.7969 C211.1563,154.375 211.1406,154.2344 211.0156,154.0625 C210.8438,153.8125 210.5625,153.6563 210.2344,153.6563 C209.9219,153.6563 209.7188,153.7656 209.5,154.0313 C208.3281,153.5313 207.8906,153.4219 206.9375,153.4219 C204.2656,153.4219 202.25,155.4375 202.25,158.0625 L202.25,159.1563 Z " fill="#000000"/><text fill="#000000" font-family="sans-serif" font-size="12" lengthAdjust="spacingAndGlyphs" textLength="150" x="227.75" y="161.948">RegisterTestTypeController</text><line style="stroke:#A80036;stroke-width:1.5;" x1="129.5" x2="443.5" y1="174" y2="174"/><ellipse cx="139.5" cy="185" fill="none" rx="3" ry="3" style="stroke:#038048;stroke-width:1.0;"/><text fill="#000000" font-family="sans-serif" font-size="11" lengthAdjust="spacingAndGlyphs" textLength="65" x="148.5" y="188.2189">boolean state</text><line style="stroke:#A80036;stroke-width:1.5;" x1="129.5" x2="443.5" y1="195.1999" y2="195.1999"/><ellipse cx="139.5" cy="206.1999" fill="#84BE84" rx="3" ry="3" style="stroke:#038048;stroke-width:1.0;"/><text fill="#000000" font-family="sans-serif" font-size="11" lengthAdjust="spacingAndGlyphs" textLength="290" x="148.5" y="209.4188">createTestTypeDTO(testTypeDesignation, CMDesignation)</text><ellipse cx="139.5" cy="219.3998" fill="#84BE84" rx="3" ry="3" style="stroke:#038048;stroke-width:1.0;"/><text fill="#000000" font-family="sans-serif" font-size="11" lengthAdjust="spacingAndGlyphs" textLength="159" x="148.5" y="222.6187">registerTestType(testTypeDTO)</text><!--MD5=[d0024740988d3925690046e9afae9c9c]
class TestTypeDTO--><rect codeLine="15" fill="#FEFECE" filter="url(#f1rxn5qpy02nmd)" height="74.3998" id="TestTypeDTO" style="stroke:#A80036;stroke-width:1.5;" width="157" x="7" y="314"/><ellipse cx="44.5" cy="330" fill="#ADD1B2" rx="11" ry="11" style="stroke:#A80036;stroke-width:1.0;"/><path d="M39.5,331.1563 C39.5,333.6563 41.6406,335.4688 44.5625,335.4688 C45.7969,335.4688 46.9688,335.1719 47.7188,334.6563 C48.3281,334.2344 48.6563,333.8125 48.6563,333.4063 C48.6563,332.9375 48.2344,332.5313 47.7344,332.5313 C47.5,332.5313 47.2813,332.6094 47.0781,332.8125 C46.6406,333.25 46.6406,333.25 46.4688,333.3438 C46.0156,333.5781 45.375,333.7188 44.6094,333.7188 C42.6094,333.7188 41.3281,332.7031 41.3281,331.125 L41.3281,330.0781 C41.3281,328.375 42.5469,327.1719 44.25,327.1719 C44.8281,327.1719 45.4063,327.3125 45.875,327.5625 C46.3438,327.8281 46.5156,328.0156 46.5781,328.375 C46.7031,329.0469 46.9531,329.2969 47.4844,329.2969 C47.7656,329.2969 48.0469,329.1563 48.2344,328.9375 C48.3594,328.7656 48.4063,328.5938 48.4063,328.1563 L48.4063,326.7969 C48.4063,326.375 48.3906,326.2344 48.2656,326.0625 C48.0938,325.8125 47.8125,325.6563 47.4844,325.6563 C47.1719,325.6563 46.9688,325.7656 46.75,326.0313 C45.5781,325.5313 45.1406,325.4219 44.1875,325.4219 C41.5156,325.4219 39.5,327.4375 39.5,330.0625 L39.5,331.1563 Z " fill="#000000"/><text fill="#000000" font-family="sans-serif" font-size="12" lengthAdjust="spacingAndGlyphs" textLength="75" x="63.5" y="333.948">TestTypeDTO</text><line style="stroke:#A80036;stroke-width:1.5;" x1="8" x2="163" y1="346" y2="346"/><ellipse cx="18" cy="357" fill="none" rx="3" ry="3" style="stroke:#038048;stroke-width:1.0;"/><text fill="#000000" font-family="sans-serif" font-size="11" lengthAdjust="spacingAndGlyphs" textLength="131" x="27" y="360.2189">String testTypeDesignation</text><ellipse cx="18" cy="370.1999" fill="none" rx="3" ry="3" style="stroke:#038048;stroke-width:1.0;"/><text fill="#000000" font-family="sans-serif" font-size="11" lengthAdjust="spacingAndGlyphs" textLength="105" x="27" y="373.4188">String CMDesignation</text><line style="stroke:#A80036;stroke-width:1.5;" x1="8" x2="163" y1="380.3998" y2="380.3998"/><!--MD5=[da547346deef918ea16944ba046651ef]
class Administrator--><rect codeLine="24" fill="#FEFECE" filter="url(#f1rxn5qpy02nmd)" height="74.3998" id="Administrator" style="stroke:#A80036;stroke-width:1.5;" width="183" x="299" y="472"/><ellipse cx="350.25" cy="488" fill="#ADD1B2" rx="11" ry="11" style="stroke:#A80036;stroke-width:1.0;"/><path d="M345.25,489.1563 C345.25,491.6563 347.3906,493.4688 350.3125,493.4688 C351.5469,493.4688 352.7188,493.1719 353.4688,492.6563 C354.0781,492.2344 354.4063,491.8125 354.4063,491.4063 C354.4063,490.9375 353.9844,490.5313 353.4844,490.5313 C353.25,490.5313 353.0313,490.6094 352.8281,490.8125 C352.3906,491.25 352.3906,491.25 352.2188,491.3438 C351.7656,491.5781 351.125,491.7188 350.3594,491.7188 C348.3594,491.7188 347.0781,490.7031 347.0781,489.125 L347.0781,488.0781 C347.0781,486.375 348.2969,485.1719 350,485.1719 C350.5781,485.1719 351.1563,485.3125 351.625,485.5625 C352.0938,485.8281 352.2656,486.0156 352.3281,486.375 C352.4531,487.0469 352.7031,487.2969 353.2344,487.2969 C353.5156,487.2969 353.7969,487.1563 353.9844,486.9375 C354.1094,486.7656 354.1563,486.5938 354.1563,486.1563 L354.1563,484.7969 C354.1563,484.375 354.1406,484.2344 354.0156,484.0625 C353.8438,483.8125 353.5625,483.6563 353.2344,483.6563 C352.9219,483.6563 352.7188,483.7656 352.5,484.0313 C351.3281,483.5313 350.8906,483.4219 349.9375,483.4219 C347.2656,483.4219 345.25,485.4375 345.25,488.0625 L345.25,489.1563 Z " fill="#000000"/><text fill="#000000" font-family="sans-serif" font-size="12" lengthAdjust="spacingAndGlyphs" textLength="72" x="370.75" y="491.948">Administrator</text><line style="stroke:#A80036;stroke-width:1.5;" x1="300" x2="481" y1="504" y2="504"/><line style="stroke:#A80036;stroke-width:1.5;" x1="300" x2="481" y1="512" y2="512"/><ellipse cx="310" cy="523" fill="#84BE84" rx="3" ry="3" style="stroke:#038048;stroke-width:1.0;"/><text fill="#000000" font-family="sans-serif" font-size="11" lengthAdjust="spacingAndGlyphs" textLength="73" x="319" y="526.2189">getTestType();</text><ellipse cx="310" cy="536.1999" fill="#84BE84" rx="3" ry="3" style="stroke:#038048;stroke-width:1.0;"/><text fill="#000000" font-family="sans-serif" font-size="11" lengthAdjust="spacingAndGlyphs" textLength="157" x="319" y="539.4188">createTestType(TestTypeDTO)</text><!--MD5=[02e4b9b7573f1156f41e60aa5b4e25a4]
class Company--><rect codeLine="42" fill="#FEFECE" filter="url(#f1rxn5qpy02nmd)" height="87.5997" id="Company" style="stroke:#A80036;stroke-width:1.5;" width="152" x="199.5" y="307"/><ellipse cx="244.75" cy="323" fill="#ADD1B2" rx="11" ry="11" style="stroke:#A80036;stroke-width:1.0;"/><path d="M239.75,324.1563 C239.75,326.6563 241.8906,328.4688 244.8125,328.4688 C246.0469,328.4688 247.2188,328.1719 247.9688,327.6563 C248.5781,327.2344 248.9063,326.8125 248.9063,326.4063 C248.9063,325.9375 248.4844,325.5313 247.9844,325.5313 C247.75,325.5313 247.5313,325.6094 247.3281,325.8125 C246.8906,326.25 246.8906,326.25 246.7188,326.3438 C246.2656,326.5781 245.625,326.7188 244.8594,326.7188 C242.8594,326.7188 241.5781,325.7031 241.5781,324.125 L241.5781,323.0781 C241.5781,321.375 242.7969,320.1719 244.5,320.1719 C245.0781,320.1719 245.6563,320.3125 246.125,320.5625 C246.5938,320.8281 246.7656,321.0156 246.8281,321.375 C246.9531,322.0469 247.2031,322.2969 247.7344,322.2969 C248.0156,322.2969 248.2969,322.1563 248.4844,321.9375 C248.6094,321.7656 248.6563,321.5938 248.6563,321.1563 L248.6563,319.7969 C248.6563,319.375 248.6406,319.2344 248.5156,319.0625 C248.3438,318.8125 248.0625,318.6563 247.7344,318.6563 C247.4219,318.6563 247.2188,318.7656 247,319.0313 C245.8281,318.5313 245.3906,318.4219 244.4375,318.4219 C241.7656,318.4219 239.75,320.4375 239.75,323.0625 L239.75,324.1563 Z " fill="#000000"/><text fill="#000000" font-family="sans-serif" font-size="12" lengthAdjust="spacingAndGlyphs" textLength="53" x="265.25" y="326.948">Company</text><line style="stroke:#A80036;stroke-width:1.5;" x1="200.5" x2="350.5" y1="339" y2="339"/><rect fill="none" height="6" style="stroke:#C82930;stroke-width:1.0;" width="6" x="207.5" y="347"/><text fill="#000000" font-family="sans-serif" font-size="11" lengthAdjust="spacingAndGlyphs" textLength="107" x="219.5" y="353.2189">Set&lt;Client&gt; testTypes</text><line style="stroke:#A80036;stroke-width:1.5;" x1="200.5" x2="350.5" y1="360.1999" y2="360.1999"/><ellipse cx="210.5" cy="371.1999" fill="#84BE84" rx="3" ry="3" style="stroke:#038048;stroke-width:1.0;"/><text fill="#000000" font-family="sans-serif" font-size="11" lengthAdjust="spacingAndGlyphs" textLength="79" x="219.5" y="374.4188">save(TestType)</text><ellipse cx="210.5" cy="384.3998" fill="#84BE84" rx="3" ry="3" style="stroke:#038048;stroke-width:1.0;"/><text fill="#000000" font-family="sans-serif" font-size="11" lengthAdjust="spacingAndGlyphs" textLength="126" x="219.5" y="387.6187">getAdministrator(String id)</text><!--MD5=[aeb3272166074d8737a70b61b1e71682]
class TestType--><rect codeLine="32" fill="#FEFECE" filter="url(#f1rxn5qpy02nmd)" height="61.1999" id="TestType" style="stroke:#A80036;stroke-width:1.5;" width="112" x="185.5" y="623"/><ellipse cx="214" cy="639" fill="#ADD1B2" rx="11" ry="11" style="stroke:#A80036;stroke-width:1.0;"/><path d="M209,640.1563 C209,642.6563 211.1406,644.4688 214.0625,644.4688 C215.2969,644.4688 216.4688,644.1719 217.2188,643.6563 C217.8281,643.2344 218.1563,642.8125 218.1563,642.4063 C218.1563,641.9375 217.7344,641.5313 217.2344,641.5313 C217,641.5313 216.7813,641.6094 216.5781,641.8125 C216.1406,642.25 216.1406,642.25 215.9688,642.3438 C215.5156,642.5781 214.875,642.7188 214.1094,642.7188 C212.1094,642.7188 210.8281,641.7031 210.8281,640.125 L210.8281,639.0781 C210.8281,637.375 212.0469,636.1719 213.75,636.1719 C214.3281,636.1719 214.9063,636.3125 215.375,636.5625 C215.8438,636.8281 216.0156,637.0156 216.0781,637.375 C216.2031,638.0469 216.4531,638.2969 216.9844,638.2969 C217.2656,638.2969 217.5469,638.1563 217.7344,637.9375 C217.8594,637.7656 217.9063,637.5938 217.9063,637.1563 L217.9063,635.7969 C217.9063,635.375 217.8906,635.2344 217.7656,635.0625 C217.5938,634.8125 217.3125,634.6563 216.9844,634.6563 C216.6719,634.6563 216.4688,634.7656 216.25,635.0313 C215.0781,634.5313 214.6406,634.4219 213.6875,634.4219 C211.0156,634.4219 209,636.4375 209,639.0625 L209,640.1563 Z " fill="#000000"/><text fill="#000000" font-family="sans-serif" font-size="12" lengthAdjust="spacingAndGlyphs" textLength="50" x="231" y="642.948">TestType</text><line style="stroke:#A80036;stroke-width:1.5;" x1="186.5" x2="296.5" y1="655" y2="655"/><rect fill="none" height="6" style="stroke:#C82930;stroke-width:1.0;" width="6" x="193.5" y="663"/><text fill="#000000" font-family="sans-serif" font-size="11" lengthAdjust="spacingAndGlyphs" textLength="86" x="205.5" y="669.2189">String designation</text><line style="stroke:#A80036;stroke-width:1.5;" x1="186.5" x2="296.5" y1="676.1999" y2="676.1999"/><!--MD5=[480cbedfbae7db94ac6eaf129ef11b00]
class CollectingMethod--><rect codeLine="35" fill="#FEFECE" filter="url(#f1rxn5qpy02nmd)" height="61.1999" id="CollectingMethod" style="stroke:#A80036;stroke-width:1.5;" width="128" x="177.5" y="745"/><ellipse cx="192.5" cy="761" fill="#ADD1B2" rx="11" ry="11" style="stroke:#A80036;stroke-width:1.0;"/><path d="M187.5,762.1563 C187.5,764.6563 189.6406,766.4688 192.5625,766.4688 C193.7969,766.4688 194.9688,766.1719 195.7188,765.6563 C196.3281,765.2344 196.6563,764.8125 196.6563,764.4063 C196.6563,763.9375 196.2344,763.5313 195.7344,763.5313 C195.5,763.5313 195.2813,763.6094 195.0781,763.8125 C194.6406,764.25 194.6406,764.25 194.4688,764.3438 C194.0156,764.5781 193.375,764.7188 192.6094,764.7188 C190.6094,764.7188 189.3281,763.7031 189.3281,762.125 L189.3281,761.0781 C189.3281,759.375 190.5469,758.1719 192.25,758.1719 C192.8281,758.1719 193.4063,758.3125 193.875,758.5625 C194.3438,758.8281 194.5156,759.0156 194.5781,759.375 C194.7031,760.0469 194.9531,760.2969 195.4844,760.2969 C195.7656,760.2969 196.0469,760.1563 196.2344,759.9375 C196.3594,759.7656 196.4063,759.5938 196.4063,759.1563 L196.4063,757.7969 C196.4063,757.375 196.3906,757.2344 196.2656,757.0625 C196.0938,756.8125 195.8125,756.6563 195.4844,756.6563 C195.1719,756.6563 194.9688,756.7656 194.75,757.0313 C193.5781,756.5313 193.1406,756.4219 192.1875,756.4219 C189.5156,756.4219 187.5,758.4375 187.5,761.0625 L187.5,762.1563 Z " fill="#000000"/><text fill="#000000" font-family="sans-serif" font-size="12" lengthAdjust="spacingAndGlyphs" textLength="96" x="206.5" y="764.948">CollectingMethod</text><line style="stroke:#A80036;stroke-width:1.5;" x1="178.5" x2="304.5" y1="777" y2="777"/><rect fill="none" height="6" style="stroke:#C82930;stroke-width:1.0;" width="6" x="185.5" y="785"/><text fill="#000000" font-family="sans-serif" font-size="11" lengthAdjust="spacingAndGlyphs" textLength="86" x="197.5" y="791.2189">String designation</text><line style="stroke:#A80036;stroke-width:1.5;" x1="178.5" x2="304.5" y1="798.1999" y2="798.1999"/><!--MD5=[875ce62b49478c5eb5b0cacd6ccaf2ab]
link RegisterTestTypeUI to RegisterTestTypeController--><path codeLine="12" d="M144.69,81.05 C168.71,98.66 197.9,120.06 223.53,138.85 " fill="none" id="RegisterTestTypeUI-to-RegisterTestTypeController" style="stroke:#A80036;stroke-width:1.0;stroke-dasharray:7.0,7.0;"/><polygon fill="#A80036" points="227.62,141.84,222.7173,133.2981,223.5844,138.8881,217.9943,139.7552,227.62,141.84" style="stroke:#A80036;stroke-width:1.0;"/><!--MD5=[d82dc153ada1160b7edfe981c3908ea9]
link RegisterTestTypeController to TestTypeDTO--><path codeLine="13" d="M233.43,230.04 C202.59,255.04 164.03,286.31 134.01,310.66 " fill="none" id="RegisterTestTypeController-to-TestTypeDTO" style="stroke:#A80036;stroke-width:1.0;stroke-dasharray:7.0,7.0;"/><polygon fill="#A80036" points="130.02,313.9,139.5274,311.3291,133.9006,310.747,134.4827,305.1202,130.02,313.9" style="stroke:#A80036;stroke-width:1.0;"/><text fill="#000000" font-family="sans-serif" font-size="13" lengthAdjust="spacingAndGlyphs" textLength="43" x="193.5" y="273.077">creates</text><!--MD5=[990edaaa89abd968654996c3c9ff70ac]
link RegisterTestTypeController to Administrator--><path codeLine="21" d="M324.23,230.13 C340.99,251.75 359.21,279.21 369.5,307 C389.01,359.69 392.33,425.12 392.08,466.73 " fill="none" id="RegisterTestTypeController-to-Administrator" style="stroke:#A80036;stroke-width:1.0;stroke-dasharray:7.0,7.0;"/><polygon fill="#A80036" points="392.03,471.93,396.107,462.9646,392.0729,466.9302,388.1073,462.896,392.03,471.93" style="stroke:#A80036;stroke-width:1.0;"/><!--MD5=[5425c22343c3b847ff2992f0bc7c65d6]
link RegisterTestTypeController to Company--><path codeLine="22" d="M283.58,230.25 C282.1,252.26 280.29,279.08 278.76,301.76 " fill="none" id="RegisterTestTypeController-to-Company" style="stroke:#A80036;stroke-width:1.0;stroke-dasharray:7.0,7.0;"/><polygon fill="#A80036" points="278.41,306.83,283.0163,298.1247,278.7521,301.8417,275.0351,297.5774,278.41,306.83" style="stroke:#A80036;stroke-width:1.0;"/><!--MD5=[eaea43e34e45c5b9d20b595fc78f1f20]
link Company to Administrator--><path codeLine="29" d="M307.23,395.04 C324,417.79 344.46,445.55 360.91,467.86 " fill="none" id="Company-to-Administrator" style="stroke:#A80036;stroke-width:1.0;"/><polygon fill="#A80036" points="363.93,471.96,361.8068,462.3427,360.9621,467.9362,355.3686,467.0914,363.93,471.96" style="stroke:#A80036;stroke-width:1.0;"/><text fill="#000000" font-family="sans-serif" font-size="13" lengthAdjust="spacingAndGlyphs" textLength="21" x="340.5" y="438.077">has</text><text fill="#000000" font-family="sans-serif" font-size="13" lengthAdjust="spacingAndGlyphs" textLength="7" x="304.3763" y="414.7604">1</text><text fill="#000000" font-family="sans-serif" font-size="13" lengthAdjust="spacingAndGlyphs" textLength="5" x="353.3885" y="460.5657">*</text><!--MD5=[71159b3869b6d7a411768e18bcaa697a]
link Administrator to TestType--><path codeLine="30" d="M352.52,546.33 C329.04,568.78 299.14,597.37 276.29,619.23 " fill="none" id="Administrator-to-TestType" style="stroke:#A80036;stroke-width:1.0;"/><polygon fill="#A80036" points="272.4,622.95,281.6687,619.6196,276.0132,619.4939,276.1389,613.8384,272.4,622.95" style="stroke:#A80036;stroke-width:1.0;"/><text fill="#000000" font-family="sans-serif" font-size="13" lengthAdjust="spacingAndGlyphs" textLength="43" x="320.5" y="589.077">creates</text><!--MD5=[f82686d89c0d6694b448608866eb139d]
link TestType to CollectingMethod--><path codeLine="39" d="M241.5,684.16 C241.5,700.89 241.5,721.9 241.5,739.44 " fill="none" id="TestType-to-CollectingMethod" style="stroke:#A80036;stroke-width:1.0;"/><polygon fill="#A80036" points="241.5,744.76,245.5,735.76,241.5,739.76,237.5,735.76,241.5,744.76" style="stroke:#A80036;stroke-width:1.0;"/><text fill="#000000" font-family="sans-serif" font-size="13" lengthAdjust="spacingAndGlyphs" textLength="7" x="233.7781" y="704.1488">1</text><text fill="#000000" font-family="sans-serif" font-size="13" lengthAdjust="spacingAndGlyphs" textLength="20" x="219.3125" y="733.5158">1..*</text><!--MD5=[742a261f27a3dcd734c626287d811acd]
link Company to TestType--><path codeLine="40" d="M255.05,395.1 C245.53,417.49 235.28,445.62 230.5,472 C221.42,522.05 228.24,581.06 234.47,617.63 " fill="none" id="Company-to-TestType" style="stroke:#A80036;stroke-width:1.0;"/><polygon fill="#A80036" points="235.39,622.86,237.7888,613.3077,234.5333,617.9339,229.9071,614.6785,235.39,622.86" style="stroke:#A80036;stroke-width:1.0;"/><text fill="#000000" font-family="sans-serif" font-size="13" lengthAdjust="spacingAndGlyphs" textLength="49" x="231.5" y="513.577">contains</text><text fill="#000000" font-family="sans-serif" font-size="13" lengthAdjust="spacingAndGlyphs" textLength="7" x="244.5323" y="414.8292">1</text><text fill="#000000" font-family="sans-serif" font-size="13" lengthAdjust="spacingAndGlyphs" textLength="5" x="228.5066" y="611.6376">*</text><!--MD5=[e610bcdb226a2ab24b46ceb4c744e26c]
link TestTypeDTO to Administrator--><path codeLine="48" d="M155.71,388.21 C187.66,404.67 225.97,424.36 260.5,442 C278.06,450.97 296.97,460.59 314.78,469.64 " fill="none" id="TestTypeDTO-to-Administrator" style="stroke:#A80036;stroke-width:1.0;stroke-dasharray:7.0,7.0;"/><polygon fill="#A80036" points="319.28,471.93,313.0774,464.2796,314.8251,469.6597,309.445,471.4074,319.28,471.93" style="stroke:#A80036;stroke-width:1.0;"/><text fill="#000000" font-family="sans-serif" font-size="13" lengthAdjust="spacingAndGlyphs" textLength="59" x="261.5" y="438.077">uses DTO</text><!--MD5=[82dc1fb46bfde97a2811cffdafc3966e]
link RegisterTestTypeUI to TestTypeDTO--><path codeLine="49" d="M94.31,81.19 C92.45,138.17 88.83,248.48 86.86,308.56 " fill="none" id="RegisterTestTypeUI-to-TestTypeDTO" style="stroke:#A80036;stroke-width:1.0;stroke-dasharray:7.0,7.0;"/><polygon fill="#A80036" points="86.68,313.86,90.9607,304.9901,86.8371,308.8625,82.9647,304.7388,86.68,313.86" style="stroke:#A80036;stroke-width:1.0;"/><!--MD5=[7a00ff5b04b1d979887dccbdfed05b13]
@startuml
class RegisterTestTypeUI {
 -show(testTypeDTO)
 -show(state)
}

class RegisterTestTypeController {
  +boolean state
  +createTestTypeDTO(testTypeDesignation, CMDesignation)
  +registerTestType(testTypeDTO)
}

RegisterTestTypeUI ..> RegisterTestTypeController
RegisterTestTypeController ..> TestTypeDTO : creates

class TestTypeDTO{
+String testTypeDesignation
+String CMDesignation
}


RegisterTestTypeController ..> Administrator
RegisterTestTypeController ..> Company

class Administrator{
+getTestType();
+createTestType(TestTypeDTO)
}

Company "1" - -> "*" Administrator : has
Administrator - -> TestType : creates

class TestType{
-String designation
}
class CollectingMethod{
-String designation
}

TestType "1" - -> "1..*" CollectingMethod
Company "1" - -> "*" TestType : contains

class Company{
+save(TestType)
+getAdministrator(String id)
-Set<Client> testTypes
}

TestTypeDTO ..> Administrator : uses DTO
RegisterTestTypeUI ..> TestTypeDTO

@enduml

PlantUML version 1.2020.23(Sun Dec 13 19:14:58 WET 2020)
(GPL source distribution)
Java Runtime: OpenJDK Runtime Environment
JVM: OpenJDK 64-Bit Server VM
Default Encoding: ANSI_X3.4-1968
Language: en
Country: US
--></g></svg>