<?xml version="1.0" encoding="UTF-8" standalone="no"?><svg xmlns="http://www.w3.org/2000/svg" xmlns:xlink="http://www.w3.org/1999/xlink" contentScriptType="application/ecmascript" contentStyleType="text/css" height="1734px" preserveAspectRatio="none" style="width:2516px;height:1734px;background:#FFFFFF;" version="1.1" viewBox="0 0 2516 1734" width="2516px" zoomAndPan="magnify"><defs><filter height="300%" id="f1bgbyp8hlg7ly" width="300%" x="-1" y="-1"><feGaussianBlur result="blurOut" stdDeviation="4.0"/><feColorMatrix in="blurOut" result="blurOut2" type="matrix" values="0 0 0 0 0 0 0 0 0 0 0 0 0 0 0 0 0 0 .4 0"/><feOffset dx="8.0" dy="8.0" in="blurOut2" result="blurOut3"/><feBlend in="SourceGraphic" in2="blurOut3" mode="normal"/></filter></defs><g><rect fill="#FFFFFF" filter="url(#f1bgbyp8hlg7ly)" height="1318.4219" style="stroke:#A80036;stroke-width:2.0;" width="20" x="146" y="196.9766"/><rect fill="#FFFFFF" filter="url(#f1bgbyp8hlg7ly)" height="284.4844" style="stroke:#A80036;stroke-width:2.0;" width="20" x="1058" y="239.5977"/><rect fill="#FFFFFF" filter="url(#f1bgbyp8hlg7ly)" height="58.6211" style="stroke:#A80036;stroke-width:2.0;" width="20" x="1058" y="582.7031"/><rect fill="#FFFFFF" filter="url(#f1bgbyp8hlg7ly)" height="58.6211" style="stroke:#A80036;stroke-width:2.0;" width="20" x="1058" y="699.9453"/><rect fill="#FFFFFF" filter="url(#f1bgbyp8hlg7ly)" height="294.4844" style="stroke:#A80036;stroke-width:2.0;" width="20" x="1058" y="817.1875"/><rect fill="#FFFFFF" filter="url(#f1bgbyp8hlg7ly)" height="345.1055" style="stroke:#A80036;stroke-width:2.0;" width="20" x="1058" y="1170.293"/><rect fill="#FFFFFF" filter="url(#f1bgbyp8hlg7ly)" height="118.6211" style="stroke:#A80036;stroke-width:2.0;" width="20" x="1474" y="346.8398"/><rect fill="#FFFFFF" filter="url(#f1bgbyp8hlg7ly)" height="177.2422" style="stroke:#A80036;stroke-width:2.0;" width="20" x="1474" y="875.8086"/><rect fill="#FFFFFF" filter="url(#f1bgbyp8hlg7ly)" height="213.8633" style="stroke:#A80036;stroke-width:2.0;" width="20" x="1474" y="1228.9141"/><rect fill="#FFFFFF" filter="url(#f1bgbyp8hlg7ly)" height="60" style="stroke:#A80036;stroke-width:2.0;" width="20" x="1954" y="405.4609"/><rect fill="#FFFFFF" filter="url(#f1bgbyp8hlg7ly)" height="118.6211" style="stroke:#A80036;stroke-width:2.0;" width="20" x="1954" y="934.4297"/><rect fill="#FFFFFF" filter="url(#f1bgbyp8hlg7ly)" height="155.2422" style="stroke:#A80036;stroke-width:2.0;" width="20" x="1954" y="1287.5352"/><rect fill="#FFFFFF" filter="url(#f1bgbyp8hlg7ly)" height="60" style="stroke:#A80036;stroke-width:2.0;" width="20" x="2370" y="993.0508"/><rect fill="#FFFFFF" filter="url(#f1bgbyp8hlg7ly)" height="1261.8008" style="stroke:#000000;stroke-width:4.0;" width="2469" x="20" y="269.5977"/><line style="stroke:#A80036;stroke-width:2.0;stroke-dasharray:5.0,5.0;" x1="156" x2="156" y1="176.9766" y2="1565.3984"/><line style="stroke:#A80036;stroke-width:2.0;stroke-dasharray:5.0,5.0;" x1="1067" x2="1067" y1="176.9766" y2="1565.3984"/><line style="stroke:#A80036;stroke-width:2.0;stroke-dasharray:5.0,5.0;" x1="1483" x2="1483" y1="176.9766" y2="1565.3984"/><line style="stroke:#A80036;stroke-width:2.0;stroke-dasharray:5.0,5.0;" x1="1963" x2="1963" y1="176.9766" y2="1565.3984"/><line style="stroke:#A80036;stroke-width:2.0;stroke-dasharray:5.0,5.0;" x1="2379" x2="2379" y1="176.9766" y2="1565.3984"/><text fill="#000000" font-family="sans-serif" font-size="28" lengthAdjust="spacing" textLength="220" x="40" y="171.0703">SpecialistDoctor</text><ellipse cx="156" cy="30" fill="#FEFECE" filter="url(#f1bgbyp8hlg7ly)" rx="16" ry="16" style="stroke:#A80036;stroke-width:4.0;"/><path d="M156,46 L156,100 M130,62 L182,62 M156,100 L130,130 M156,100 L182,130 " fill="none" filter="url(#f1bgbyp8hlg7ly)" style="stroke:#A80036;stroke-width:4.0;"/><text fill="#000000" font-family="sans-serif" font-size="28" lengthAdjust="spacing" textLength="220" x="40" y="1590.4688">SpecialistDoctor</text><ellipse cx="156" cy="1616.375" fill="#FEFECE" filter="url(#f1bgbyp8hlg7ly)" rx="16" ry="16" style="stroke:#A80036;stroke-width:4.0;"/><path d="M156,1632.375 L156,1686.375 M130,1648.375 L182,1648.375 M156,1686.375 L130,1716.375 M156,1686.375 L182,1716.375 " fill="none" filter="url(#f1bgbyp8hlg7ly)" style="stroke:#A80036;stroke-width:4.0;"/><rect fill="#FEFECE" filter="url(#f1bgbyp8hlg7ly)" height="60.9766" style="stroke:#A80036;stroke-width:3.0;" width="246" x="941" y="106"/><text fill="#000000" font-family="sans-serif" font-size="28" lengthAdjust="spacing" textLength="218" x="955" y="147.0703">:CreateReportUI</text><rect fill="#FEFECE" filter="url(#f1bgbyp8hlg7ly)" height="60.9766" style="stroke:#A80036;stroke-width:3.0;" width="246" x="941" y="1563.3984"/><text fill="#000000" font-family="sans-serif" font-size="28" lengthAdjust="spacing" textLength="218" x="955" y="1604.4688">:CreateReportUI</text><rect fill="#FEFECE" filter="url(#f1bgbyp8hlg7ly)" height="60.9766" style="stroke:#A80036;stroke-width:3.0;" width="358" x="1301" y="106"/><text fill="#000000" font-family="sans-serif" font-size="28" lengthAdjust="spacing" textLength="330" x="1315" y="147.0703">:CreateReportController</text><rect fill="#FEFECE" filter="url(#f1bgbyp8hlg7ly)" height="60.9766" style="stroke:#A80036;stroke-width:3.0;" width="358" x="1301" y="1563.3984"/><text fill="#000000" font-family="sans-serif" font-size="28" lengthAdjust="spacing" textLength="330" x="1315" y="1604.4688">:CreateReportController</text><rect fill="#FEFECE" filter="url(#f1bgbyp8hlg7ly)" height="60.9766" style="stroke:#A80036;stroke-width:3.0;" width="166" x="1877" y="106"/><text fill="#000000" font-family="sans-serif" font-size="28" lengthAdjust="spacing" textLength="138" x="1891" y="147.0703">:Company</text><rect fill="#FEFECE" filter="url(#f1bgbyp8hlg7ly)" height="60.9766" style="stroke:#A80036;stroke-width:3.0;" width="166" x="1877" y="1563.3984"/><text fill="#000000" font-family="sans-serif" font-size="28" lengthAdjust="spacing" textLength="138" x="1891" y="1604.4688">:Company</text><rect fill="#FEFECE" filter="url(#f1bgbyp8hlg7ly)" height="60.9766" style="stroke:#A80036;stroke-width:3.0;" width="170" x="2291" y="106"/><text fill="#000000" font-family="sans-serif" font-size="28" lengthAdjust="spacing" textLength="142" x="2305" y="147.0703">:Diagnosis</text><rect fill="#FEFECE" filter="url(#f1bgbyp8hlg7ly)" height="60.9766" style="stroke:#A80036;stroke-width:3.0;" width="170" x="2291" y="1563.3984"/><text fill="#000000" font-family="sans-serif" font-size="28" lengthAdjust="spacing" textLength="142" x="2305" y="1604.4688">:Diagnosis</text><rect fill="#FFFFFF" filter="url(#f1bgbyp8hlg7ly)" height="1318.4219" style="stroke:#A80036;stroke-width:2.0;" width="20" x="146" y="196.9766"/><rect fill="#FFFFFF" filter="url(#f1bgbyp8hlg7ly)" height="284.4844" style="stroke:#A80036;stroke-width:2.0;" width="20" x="1058" y="239.5977"/><rect fill="#FFFFFF" filter="url(#f1bgbyp8hlg7ly)" height="58.6211" style="stroke:#A80036;stroke-width:2.0;" width="20" x="1058" y="582.7031"/><rect fill="#FFFFFF" filter="url(#f1bgbyp8hlg7ly)" height="58.6211" style="stroke:#A80036;stroke-width:2.0;" width="20" x="1058" y="699.9453"/><rect fill="#FFFFFF" filter="url(#f1bgbyp8hlg7ly)" height="294.4844" style="stroke:#A80036;stroke-width:2.0;" width="20" x="1058" y="817.1875"/><rect fill="#FFFFFF" filter="url(#f1bgbyp8hlg7ly)" height="345.1055" style="stroke:#A80036;stroke-width:2.0;" width="20" x="1058" y="1170.293"/><rect fill="#FFFFFF" filter="url(#f1bgbyp8hlg7ly)" height="118.6211" style="stroke:#A80036;stroke-width:2.0;" width="20" x="1474" y="346.8398"/><rect fill="#FFFFFF" filter="url(#f1bgbyp8hlg7ly)" height="177.2422" style="stroke:#A80036;stroke-width:2.0;" width="20" x="1474" y="875.8086"/><rect fill="#FFFFFF" filter="url(#f1bgbyp8hlg7ly)" height="213.8633" style="stroke:#A80036;stroke-width:2.0;" width="20" x="1474" y="1228.9141"/><rect fill="#FFFFFF" filter="url(#f1bgbyp8hlg7ly)" height="60" style="stroke:#A80036;stroke-width:2.0;" width="20" x="1954" y="405.4609"/><rect fill="#FFFFFF" filter="url(#f1bgbyp8hlg7ly)" height="118.6211" style="stroke:#A80036;stroke-width:2.0;" width="20" x="1954" y="934.4297"/><rect fill="#FFFFFF" filter="url(#f1bgbyp8hlg7ly)" height="155.2422" style="stroke:#A80036;stroke-width:2.0;" width="20" x="1954" y="1287.5352"/><rect fill="#FFFFFF" filter="url(#f1bgbyp8hlg7ly)" height="60" style="stroke:#A80036;stroke-width:2.0;" width="20" x="2370" y="993.0508"/><polygon fill="#A80036" points="1034,231.5977,1054,239.5977,1034,247.5977,1042,239.5977" style="stroke:#A80036;stroke-width:2.0;"/><line style="stroke:#A80036;stroke-width:2.0;" x1="166" x2="1046" y1="239.5977" y2="239.5977"/><text fill="#000000" font-family="sans-serif" font-size="26" font-weight="bold" lengthAdjust="spacing" textLength="18" x="180" y="230.1133">1</text><text fill="#000000" font-family="sans-serif" font-size="26" lengthAdjust="spacing" textLength="476" x="206" y="230.1133">asks to access the tests already made</text><path d="M20,269.5977 L168,269.5977 L168,283.5977 L148,303.5977 L20,303.5977 L20,269.5977 " fill="#EEEEEE" style="stroke:#000000;stroke-width:2.0;"/><rect fill="none" height="1261.8008" style="stroke:#000000;stroke-width:4.0;" width="2469" x="20" y="269.5977"/><text fill="#000000" font-family="sans-serif" font-size="26" font-weight="bold" lengthAdjust="spacing" textLength="58" x="50" y="296.7344">loop</text><text fill="#000000" font-family="sans-serif" font-size="22" font-weight="bold" lengthAdjust="spacing" textLength="320" x="198" y="294.8672">[for any/every intended test]</text><polygon fill="#A80036" points="1450,338.8398,1470,346.8398,1450,354.8398,1458,346.8398" style="stroke:#A80036;stroke-width:2.0;"/><line style="stroke:#A80036;stroke-width:2.0;stroke-dasharray:2.0,2.0;" x1="1078" x2="1462" y1="346.8398" y2="346.8398"/><text fill="#000000" font-family="sans-serif" font-size="26" font-weight="bold" lengthAdjust="spacing" textLength="18" x="1092" y="337.3555">2</text><text fill="#000000" font-family="sans-serif" font-size="26" lengthAdjust="spacing" textLength="238" x="1118" y="337.3555">getTestsToReport()</text><polygon fill="#A80036" points="1930,397.4609,1950,405.4609,1930,413.4609,1938,405.4609" style="stroke:#A80036;stroke-width:2.0;"/><line style="stroke:#A80036;stroke-width:2.0;stroke-dasharray:2.0,2.0;" x1="1494" x2="1942" y1="405.4609" y2="405.4609"/><text fill="#000000" font-family="sans-serif" font-size="26" font-weight="bold" lengthAdjust="spacing" textLength="18" x="1508" y="395.9766">3</text><text fill="#000000" font-family="sans-serif" font-size="26" lengthAdjust="spacing" textLength="238" x="1534" y="395.9766">getTestsToReport()</text><polygon fill="#A80036" points="188,516.082,168,524.082,188,532.082,180,524.082" style="stroke:#A80036;stroke-width:2.0;"/><line style="stroke:#A80036;stroke-width:2.0;stroke-dasharray:2.0,2.0;" x1="176" x2="1066" y1="524.082" y2="524.082"/><text fill="#000000" font-family="sans-serif" font-size="26" font-weight="bold" lengthAdjust="spacing" textLength="18" x="200" y="514.5977">4</text><text fill="#000000" font-family="sans-serif" font-size="26" lengthAdjust="spacing" textLength="818" x="226" y="514.5977">shows the tests and asks to choose one to make the report (test)</text><polygon fill="#A80036" points="1034,574.7031,1054,582.7031,1034,590.7031,1042,582.7031" style="stroke:#A80036;stroke-width:2.0;"/><line style="stroke:#A80036;stroke-width:2.0;stroke-dasharray:2.0,2.0;" x1="166" x2="1046" y1="582.7031" y2="582.7031"/><text fill="#000000" font-family="sans-serif" font-size="26" font-weight="bold" lengthAdjust="spacing" textLength="18" x="180" y="573.2188">5</text><text fill="#000000" font-family="sans-serif" font-size="26" lengthAdjust="spacing" textLength="354" x="206" y="573.2188">selects requested data (test)</text><polygon fill="#A80036" points="188,633.3242,168,641.3242,188,649.3242,180,641.3242" style="stroke:#A80036;stroke-width:2.0;"/><line style="stroke:#A80036;stroke-width:2.0;" x1="176" x2="1066" y1="641.3242" y2="641.3242"/><text fill="#000000" font-family="sans-serif" font-size="26" font-weight="bold" lengthAdjust="spacing" textLength="18" x="200" y="631.8398">6</text><text fill="#000000" font-family="sans-serif" font-size="26" lengthAdjust="spacing" textLength="470" x="226" y="631.8398">shows the test and asks to confirm it</text><polygon fill="#A80036" points="1034,691.9453,1054,699.9453,1034,707.9453,1042,699.9453" style="stroke:#A80036;stroke-width:2.0;"/><line style="stroke:#A80036;stroke-width:2.0;" x1="166" x2="1046" y1="699.9453" y2="699.9453"/><text fill="#000000" font-family="sans-serif" font-size="26" font-weight="bold" lengthAdjust="spacing" textLength="18" x="180" y="690.4609">7</text><text fill="#000000" font-family="sans-serif" font-size="26" lengthAdjust="spacing" textLength="442" x="206" y="690.4609">wants to write a report for that test</text><polygon fill="#A80036" points="188,750.5664,168,758.5664,188,766.5664,180,758.5664" style="stroke:#A80036;stroke-width:2.0;"/><line style="stroke:#A80036;stroke-width:2.0;" x1="176" x2="1066" y1="758.5664" y2="758.5664"/><text fill="#000000" font-family="sans-serif" font-size="26" font-weight="bold" lengthAdjust="spacing" textLength="18" x="200" y="749.082">8</text><text fill="#000000" font-family="sans-serif" font-size="26" lengthAdjust="spacing" textLength="562" x="226" y="749.082">requests data to write the report(report, test)</text><polygon fill="#A80036" points="1034,809.1875,1054,817.1875,1034,825.1875,1042,817.1875" style="stroke:#A80036;stroke-width:2.0;"/><line style="stroke:#A80036;stroke-width:2.0;" x1="166" x2="1046" y1="817.1875" y2="817.1875"/><text fill="#000000" font-family="sans-serif" font-size="26" font-weight="bold" lengthAdjust="spacing" textLength="18" x="180" y="807.7031">9</text><text fill="#000000" font-family="sans-serif" font-size="26" lengthAdjust="spacing" textLength="444" x="206" y="807.7031">inserts requested data (report, test)</text><polygon fill="#A80036" points="1450,867.8086,1470,875.8086,1450,883.8086,1458,875.8086" style="stroke:#A80036;stroke-width:2.0;"/><line style="stroke:#A80036;stroke-width:2.0;" x1="1078" x2="1462" y1="875.8086" y2="875.8086"/><text fill="#000000" font-family="sans-serif" font-size="26" font-weight="bold" lengthAdjust="spacing" textLength="36" x="1092" y="866.3242">10</text><text fill="#000000" font-family="sans-serif" font-size="26" lengthAdjust="spacing" textLength="314" x="1136" y="866.3242">createReport(report, test)</text><polygon fill="#A80036" points="1930,926.4297,1950,934.4297,1930,942.4297,1938,934.4297" style="stroke:#A80036;stroke-width:2.0;"/><line style="stroke:#A80036;stroke-width:2.0;" x1="1494" x2="1942" y1="934.4297" y2="934.4297"/><text fill="#000000" font-family="sans-serif" font-size="26" font-weight="bold" lengthAdjust="spacing" textLength="36" x="1508" y="924.9453">11</text><text fill="#000000" font-family="sans-serif" font-size="26" lengthAdjust="spacing" textLength="378" x="1552" y="924.9453">rep : createReport(report, test)</text><polygon fill="#A80036" points="2346,985.0508,2366,993.0508,2346,1001.0508,2354,993.0508" style="stroke:#A80036;stroke-width:2.0;"/><line style="stroke:#A80036;stroke-width:2.0;" x1="1974" x2="2358" y1="993.0508" y2="993.0508"/><text fill="#000000" font-family="sans-serif" font-size="26" font-weight="bold" lengthAdjust="spacing" textLength="36" x="1988" y="983.5664">12</text><text fill="#000000" font-family="sans-serif" font-size="26" lengthAdjust="spacing" textLength="314" x="2032" y="983.5664">createReport(report, test)</text><polygon fill="#A80036" points="188,1103.6719,168,1111.6719,188,1119.6719,180,1111.6719" style="stroke:#A80036;stroke-width:2.0;"/><line style="stroke:#A80036;stroke-width:2.0;" x1="176" x2="1066" y1="1111.6719" y2="1111.6719"/><text fill="#000000" font-family="sans-serif" font-size="26" font-weight="bold" lengthAdjust="spacing" textLength="36" x="200" y="1102.1875">13</text><text fill="#000000" font-family="sans-serif" font-size="26" lengthAdjust="spacing" textLength="428" x="244" y="1102.1875">shows data and asks to confirm it</text><polygon fill="#A80036" points="1034,1162.293,1054,1170.293,1034,1178.293,1042,1170.293" style="stroke:#A80036;stroke-width:2.0;"/><line style="stroke:#A80036;stroke-width:2.0;" x1="166" x2="1046" y1="1170.293" y2="1170.293"/><text fill="#000000" font-family="sans-serif" font-size="26" font-weight="bold" lengthAdjust="spacing" textLength="36" x="180" y="1160.8086">14</text><text fill="#000000" font-family="sans-serif" font-size="26" lengthAdjust="spacing" textLength="174" x="224" y="1160.8086">confirms data</text><polygon fill="#A80036" points="1450,1220.9141,1470,1228.9141,1450,1236.9141,1458,1228.9141" style="stroke:#A80036;stroke-width:2.0;"/><line style="stroke:#A80036;stroke-width:2.0;" x1="1078" x2="1462" y1="1228.9141" y2="1228.9141"/><text fill="#000000" font-family="sans-serif" font-size="26" font-weight="bold" lengthAdjust="spacing" textLength="36" x="1092" y="1219.4297">15</text><text fill="#000000" font-family="sans-serif" font-size="26" lengthAdjust="spacing" textLength="174" x="1136" y="1219.4297">createReport()</text><polygon fill="#A80036" points="1930,1279.5352,1950,1287.5352,1930,1295.5352,1938,1287.5352" style="stroke:#A80036;stroke-width:2.0;"/><line style="stroke:#A80036;stroke-width:2.0;" x1="1494" x2="1942" y1="1287.5352" y2="1287.5352"/><text fill="#000000" font-family="sans-serif" font-size="26" font-weight="bold" lengthAdjust="spacing" textLength="36" x="1508" y="1278.0508">16</text><text fill="#000000" font-family="sans-serif" font-size="26" lengthAdjust="spacing" textLength="214" x="1552" y="1278.0508">createReport(rep)</text><line style="stroke:#A80036;stroke-width:2.0;" x1="1974" x2="2058" y1="1346.1563" y2="1346.1563"/><line style="stroke:#A80036;stroke-width:2.0;" x1="2058" x2="2058" y1="1346.1563" y2="1372.1563"/><line style="stroke:#A80036;stroke-width:2.0;" x1="1976" x2="2058" y1="1372.1563" y2="1372.1563"/><polygon fill="#A80036" points="1996,1364.1563,1976,1372.1563,1996,1380.1563,1988,1372.1563" style="stroke:#A80036;stroke-width:2.0;"/><text fill="#000000" font-family="sans-serif" font-size="26" font-weight="bold" lengthAdjust="spacing" textLength="36" x="1988" y="1336.6719">17</text><text fill="#000000" font-family="sans-serif" font-size="26" lengthAdjust="spacing" textLength="184" x="2032" y="1336.6719">addReport(rep)</text><line style="stroke:#A80036;stroke-width:2.0;" x1="1974" x2="2058" y1="1440.7773" y2="1440.7773"/><line style="stroke:#A80036;stroke-width:2.0;" x1="2058" x2="2058" y1="1440.7773" y2="1466.7773"/><line style="stroke:#A80036;stroke-width:2.0;" x1="1964" x2="2058" y1="1466.7773" y2="1466.7773"/><polygon fill="#A80036" points="1984,1458.7773,1964,1466.7773,1984,1474.7773,1976,1466.7773" style="stroke:#A80036;stroke-width:2.0;"/><text fill="#000000" font-family="sans-serif" font-size="26" font-weight="bold" lengthAdjust="spacing" textLength="36" x="1988" y="1431.293">18</text><text fill="#000000" font-family="sans-serif" font-size="26" lengthAdjust="spacing" textLength="236" x="2032" y="1431.293">validateReport(rep)</text><polygon fill="#A80036" points="178,1507.3984,158,1515.3984,178,1523.3984,170,1515.3984" style="stroke:#A80036;stroke-width:2.0;"/><line style="stroke:#A80036;stroke-width:2.0;" x1="166" x2="1066" y1="1515.3984" y2="1515.3984"/><text fill="#000000" font-family="sans-serif" font-size="26" font-weight="bold" lengthAdjust="spacing" textLength="36" x="190" y="1505.9141">19</text><text fill="#000000" font-family="sans-serif" font-size="26" lengthAdjust="spacing" textLength="582" x="234" y="1505.9141">informs success or insuccess of the operation</text><!--MD5=[73ee3d3575a326d04814d1a58c77d1bd]
@startuml
autonumber

actor "SpecialistDoctor" as Spec

participant ":CreateReportUI" as UI
participant ":CreateReportController" as CRC
participant ":Company" as COM
participant ":Diagnosis" as DIAG


activate Spec

Spec -> UI : asks to access the tests already made

loop for any/every intended test

activate UI

UI - -> CRC : getTestsToReport()

activate CRC

CRC - -> COM : getTestsToReport()

activate COM

deactivate COM

deactivate CRC

UI - -> Spec : shows the tests and asks to choose one to make the report (test)

deactivate UI

Spec - -> UI : selects requested data (test)

activate UI

UI -> Spec : shows the test and asks to confirm it

deactivate UI

Spec -> UI : wants to write a report for that test

activate UI

UI -> Spec : requests data to write the report(report, test)

deactivate UI

Spec -> UI : inserts requested data (report, test)

activate UI

UI -> CRC : createReport(report, test)

activate CRC

CRC -> COM : rep : createReport(report, test)

activate COM

COM -> DIAG : createReport(report, test)

activate DIAG

deactivate DIAG
deactivate COM
deactivate CRC

UI -> Spec : shows data and asks to confirm it

deactivate UI

Spec -> UI : confirms data

activate UI

UI -> CRC : createReport()

activate CRC

CRC -> COM : createReport(rep)

activate COM

COM -> COM : addReport(rep)
COM -> COM : validateReport(rep)

deactivate COM
deactivate CRC

UI -> Spec : informs success or insuccess of the operation

deactivate UI
deactivate Spec

end
@enduml

PlantUML version 1.2021.7(Sun May 23 13:40:07 WEST 2021)
(GPL source distribution)
Java Runtime: OpenJDK Runtime Environment
JVM: OpenJDK 64-Bit Server VM
Default Encoding: UTF-8
Language: en
Country: PT
--></g></svg>